<svg height="512pt" viewBox="0 0 512 512" width="512pt" xmlns="http://www.w3.org/2000/svg"><path d="m240.48 0h31.04c32.64 2.63 65.01 10.58 94.5 24.96 72.33 34.08 126.8 103.92 141.28 182.67 1.97 10.92 3.42 21.93 4.7 32.95v30.94c-2.56 31.9-10.19 63.54-24 92.48-33.73 73.34-104.11 128.74-183.62 143.32-10.93 1.95-21.94 3.39-32.96 4.68h-30.94c-38.56-3.06-76.66-13.85-110.27-33.19-53.49-30.17-95.66-80.06-115.78-138.16-8.43-22.17-11.68-45.81-14.43-69.23v-30.84c2.71-23.67 6.2-47.5 14.62-69.91 21.24-60.57 66.39-112.24 123.35-141.74 31.61-16.84 66.9-26.07 102.51-28.93m-2.08 43.48c-14.01 1.12-27.89 3.69-41.41 7.52-60.77 17.03-112.32 63.01-137.06 120.95-23.3 53.55-22.84 116.82.94 170.12 25.42 58.43 78.54 103.7 140.07 120.04 63.94 17.3 135.62 2.68 187.31-38.87 52.51-41.27 84.27-108.3 80.68-175.26-1.65-61.06-31.76-120.45-79.64-158.28-41.84-34.08-97.12-51.03-150.89-46.22z"/><path d="m145.42 128.52c13.16-1.05 26.39-.45 39.58-.53 56.68-.01 113.35.08 170.03-.07 8.05-.09 17.61.1 23.17 6.88 8.65 8.32 7.42 24.08-2.28 31.1-5.54 5.32-13.83 4.79-20.89 5.12-66.69.01-133.37-.1-200.05.05-6.54.09-13.83-.54-18.9-5.17-8.52-6.33-10.71-19.61-4.56-28.34 3.36-4.47 8.05-8.65 13.9-9.04z"/><path d="m232.64 206.66c6.21-6.36 12.45-15.2 22.42-14.66 6.84-1.41 12.72 3.24 17.37 7.55 28.24 29.1 57.29 57.41 85.82 86.21 8.3 9.36 4.7 25.6-6.25 31.25-8.23 5.22-19.71 3.34-26.22-3.79-16.37-16-32.25-32.51-48.66-48.48-.47 40.08.28 80.17-.29 120.24.71 10.64-9.34 20.45-19.88 20.01-7.28 1.24-14.13-3.01-18.49-8.49-3.67-4.63-3.25-10.93-3.47-16.47-.13-38.41.2-76.82-.09-115.24-16.81 16.23-32.97 33.12-49.68 49.43-4.51 4.37-11.02 6.08-17.18 5.73-7.6-1.17-14.56-6.4-17.38-13.63-2.35-7.18-1.59-16.07 4.15-21.5 25.73-26.26 52.15-51.85 77.83-78.16z"/></svg>