<svg height="1000pt" viewBox="0 0 653 1000" width="653pt" xmlns="http://www.w3.org/2000/svg"><g fill="#fff"><path d="m401.8 0h9.52c5.93 4.54 13.42 6.19 20.7 6.95 8.41.92 15.88 5.13 23.42 8.6 7.36 2.53 13.81 7.19 18.93 13.01 3.08 3.62 6.88 6.6 9.55 10.56 5.79 8.95 11.98 17.65 16.75 27.2 3.56 7.53 8 14.7 10.23 22.78 1.7 4.05.99 8.49 1.11 12.75-3.23 2.73-7.71 3.34-10.7 6.39-1.46 1.07-2.84 3.34-4.92 2.65-1.47-1.33-3.14-2.7-3.63-4.71-2.41-7.48-4.62-15.04-7.62-22.31-2.06-5.21-4.65-10.2-6.55-15.47-6.13-12.19-14.66-23.17-25-32.07-4.9-2.79-11.32-6.08-16.77-2.93.29 5.38 6.37 7.44 7.5 12.49-2.35.48-5.59-.9-7.18 1.41-.24 1.96-.17 3.94-.23 5.91-.65-.11-1.95-.34-2.6-.45-10.07-4.43-17-14.03-27.47-17.7-6.69-.66-13.13 2.35-19.05 5.11-.01 3.13 3.23 7.99-1.03 9.55-5.53.01-10.37-3.97-15.79-4.76-9.34.54-18.15 4.36-26.27 8.8-3.6 1.96-6.38 5.15-8.42 8.65-.68 2.73-.51 5.62-.15 8.4.78 2.26 2.43 4.37 1.85 6.9-2.65 2.05-6.74 1.47-8.97 4.3-4.78 5.53-13.02 4.42-18.79 8.23-1.04.64-1.46 1.55-1.26 2.76-.23 2.79 3.06 3.73 4.82 5.24 13.97 10.18 28.69 19.84 39.96 33.12-.03.33-.11.98-.14 1.31-2.41.08-4.32-1.72-6.21-2.98-8.81-7.01-18.08-13.43-27.54-19.53-5.66-4.43-11.57-8.53-17.61-12.41-3.71-2.59-8.94-2.44-12.86-.41-6.99 2.23-12.97 6.6-19.36 10.08-.02 1.13-.04 2.26-.06 3.39 16.58 9.18 33.85 17.53 48.59 29.62 1.64 2 4.53 4.26 3.24 7.17-3.42 5.25-9.3 8.07-14.99 10.17-3.45 1.1-7.46 2.19-10.82.24-10.22-4.53-18.48-12.21-27.75-18.26-8.07-3.76-14.18-11.36-23.33-12.75-2.37-.12-5.52-.45-6.8 2.05-1.47 3.36-4.83 5.41-6.07 8.87 2 3.93 6.89 4.73 10.52 6.58 10.09 4.96 21.31 7.22 31.09 12.86 1.02.68 2.03 1.5 2.57 2.64-2.04 3.22-5.94 4.63-9.36 5.9-4.53.17-9.11.29-13.63-.1-11.89-2.59-23.84-5.53-36.04-5.97-6.11-1.19-12.15-2.76-18.3-3.71-7.31-.4-14.48-2.53-21.83-2.1-4.27.51-6.93 4.41-7.61 8.4-.32 2.65-2.74 4-4.34 5.84-.27 3.5-.06 7.01-.08 10.52-2.48 2.77-5.96 4.15-8.93 6.24-.72 3.83.13 7.9 0 11.82 1.37 4.27 5.86 7.25 5.97 12.05-1.16 3.27-3.78 5.79-6.72 7.5-5.95 3.91-12.1 7.76-16.57 13.45 4.98 3.3 10.73 7.14 17 6.01 12.17-3.73 24.14-8.13 36.36-11.71 3.73-1.51 9.15-2.04 10.45-6.54 1.54-3.9 3.2-7.77 4.31-11.82.24-1.67.56-3.78-1.22-4.73-2.72-.56-5.11 1.12-7.54 2.02-4.33 1.92-9.4 3.8-14.03 1.85-3.55-1.01-6.8-3.19-8.16-6.75 2.79-2.16 6.47-3.38 7.72-7-3.26-3.62-7.48-6.5-9.69-10.96 4.54-4.5 11.2-4.95 17.13-6.11 5.84-.2 12.8-1.22 17.13 3.68 1.12 1.91 3.94 4.02 1.99 6.3-2.64 3.65-10.49 3.5-9.27 9.56 2.73 1.18 5.51 3.13 8.65 2.24 6.58-4.92 8.51-13.61 14.81-18.76 1.06-.27 2.11-.26 3.16.03 6.27 5.42 11.38 12.26 14.36 20.02.77 4.67-1.34 9.14-.98 13.81-.65 5.98 2.89 12.19-.09 17.9-2.54 5.18-4.21 10.69-5.98 16.16 1.02 4.09 5.68 4.36 7.95 7.35 1.14 3.59-1.59 6.56-2.78 9.72-2.05 4.35-2.73 9.13-3.91 13.75 1.97 2.97 4.22 5.73 6.57 8.42 2.74 2.74-.29 7.56 3.06 10.02 3.58 3.64 3.36 9.12 5.47 13.45 3.03 1.04 6.23 1.16 9.38 1.54 6.02 2.66 9.66 8.54 15.15 12.01 2.17 1.07 1.25 3.89-.06 5.3-5.03 5.63-9.52 11.91-12.04 19.08-2.21 5.27-2.66 11-3.82 16.54 1.58-.08 3.19-.09 4.76-.37 3.47-3.61 6.83-7.38 10.85-10.41 4.73-3.48 10.53-4.85 15.84-7.14 6.63-3.05 13.51-5.53 20.55-7.44 3.41-1.5 7.21-.4 10.75-1.27 4.67-1.16 9.51-.26 14.25-.68 2.82-.6 5.3-2.17 8.04-3.01 7.12-2.27 14.53-3.64 21.98-4.1 4.57-1.05 9.3-.99 13.96-.68 7.98 1.67 13.71 7.73 19.21 13.28.65 4.19-1.88 8.26-5.69 9.94-2.96 1.29-5.62 3.23-8.58 4.47-9.51 2-19.14 3.41-28.69 5.27-12.63 2.57-25.57 2.41-38.22 4.88-3.33.38-6.47-1.3-9.81-.99-7.6-.51-15.05 1.1-22.43 2.66-5.16 1.13-8.18 5.83-11.93 9.09-1.17 1.18-2.73 2.02-3.59 3.48-.06 3.83-.89 8.05 1.2 11.52 2.26 5.17 8.77 7.41 9.74 13.27-.94 3.33-2.66 6.48-2.98 9.99.67 2.97.69 6.84 3.97 8.25 1.94-.67 3.48-2.79 2.68-4.86-.95-2.93 1.4-5.47 3-7.68 3.82-4.63 5.47-11.38 11.36-13.98.93.84 2.28 1.34 2.84 2.54.47 5.12-.31 10.29.26 15.4 1.14 1.36 2.58 3.65 4.57 3.3 2.49-3.64 3.81-8.03 6.93-11.28 11.18-15.58 30.74-22.7 49.28-23.7 10.82-.74 22.28 2.27 30.49 9.58 2.92 2.5 6.79 3.32 9.86 5.58-1.85 2.89-5.23 5.65-8.87 4.75-2.39-1.79-4.05-4.26-5.43-6.85-2.69-2.55-6.52-3.1-9.94-4.08-5.21-1.65-10.72-.7-16.07-1-2.17 6.45-2.08 13.6-5.28 19.73-1.57 2.28-4.37 3.1-6.7 4.34-3.72 1.89-8.23 2.93-12.19 1.14-5.14-1.84-8.29-6.54-12.24-10.01-3.67-1.07-6.59 2.21-8.86 4.6-3.37 4.09-5.56 9.12-9.63 12.64-.05 2.82.12 5.79-1.35 8.33-1.84 1.51-3.96 2.63-5.78 4.16-3.04 2.31-5.26 5.72-8.91 7.17-4.91 2.27-10.11 3.98-14.4 7.4.97.5 1.92 1.44 3.13 1.13 3.67-.79 7.64-.04 11.1-1.75 3.16-1 3.67-5.09 6.74-6.24 1.38-.81 3.06-.51 4.59-.69.1 5.6-7.33 8.21-6.22 14 .51 3.07 2.42 5.86 2.04 9.1-.32 3.33 1.34 6.47.96 9.8-1.63 4.95-5.61 8.52-8.38 12.81-2.22 3.49-5.18 6.57-6.61 10.51-.38 1.32.89 2.35 1.44 3.44 4.49 6.41 10.36 11.63 15.8 17.2 6.95 7.19 15.6 12.39 23.19 18.85 3.85 2.81 6.97 6.51 11.04 9.05 4.58.86 10 .73 13.31 4.57 3.66 2.78 7.91 6.68 12.85 5.59 8.76-7.38 14.98-17.15 22.33-25.83 3.6-4.3 6.01-9.41 8.82-14.22.83-1.55 2.5-1.9 4.11-2.01 2.73 4.04-1.42 7.89-2.2 11.88-1.92 13.75-8.9 26.04-12.89 39.21-1.44 4.98-3.59 9.7-5.34 14.58-1.53 1.36-3.5 2.31-5.55 2.48-6.56.71-12.93 2.65-18.99 5.2-.63 4.55 1.84 8.47 3.44 12.53 2.69 6.07 6.9 11.31 9.65 17.36 5.97 11.62 11.2 23.65 18.32 34.64 1.75 2.37 1.97 5.27 1.43 8.09-3.03.27-6.62 1.01-8.98-1.45-6.6-6.18-10.23-14.64-14.93-22.19-7.6-13.19-15.31-26.33-21.85-40.09-2.82-4.9-4.23-10.92-9.05-14.37-2.12 1.66-4.56 3.56-4.97 6.4.87 8.84 5.63 16.48 8.15 24.85 3.9 7.39 7.85 14.78 11.86 22.13 2.35 5.39 6.83 9.5 9.02 14.98 1.56 3.82 4.16 7.05 6.79 10.19 4.84 4.83 8.5 10.87 14.22 14.79 2.49 1.59 5.59 3.24 8.55 1.85 7.07-6.43 13.56-13.54 18.6-21.69 1.84-3.06 2.51-6.63 4.15-9.76 4.21-5.25 9.54-9.46 15.45-12.63 4.2-2.04 7.19-6.3 12.01-6.97 6.41-2.5 12.56-5.69 19.13-7.82 4.39-1.34 8.72-3.81 13.46-3.18 4.28.45 8.66-.18 12.87.97 4.56.56 9.18.14 13.76.3 6.05.28 11.93-1.37 17.88-2.15 7.55-1.3 14.54-4.63 21.64-7.38 6.11-3.39 11.85-7.54 18.6-9.67 1.61 1.01 3.99 1.75 4.01 4.05 1.7 4.89.64 10.22-1.37 14.84-1.39 3.48-4.81 5.32-7.72 7.35-6.91 4.77-15.19 6.81-22.74 10.28-1.28.2-2.12 2.38-.6 2.83 5.78 2.45 12.05 3.64 17.76 6.32 10.64 4.18 19.43 11.68 27.72 19.33 4.16 4.61 7.58 9.81 11.04 14.96 4.61 7.09 6.98 15.26 9.82 23.14 1.37 3.64.68 7.59 1.5 11.34 1.15 7.18.15 14.44-.63 21.6-3.53 14.59-7.6 29.41-15.76 42.2-3.25 5.77-6.38 11.62-9.73 17.35-1.23 2.09-1.46 4.94-3.78 6.22-16.42 11.05-34.33 19.6-51.34 29.65-5.12 2.64-10.91 2.63-16.43 3.68-3 .3-5.85-1.1-8.84-.96-4.8.25-9.36-1.5-14.09-1.97-3.43-.22-6.83-1.69-10.22-.37-10.04 1.17-18.29 9.15-28.68 8.34-2.96.01-5.92-.2-8.86.1-4.8 1.07-8.79 4.12-13.37 5.77-4.27.3-8.55.02-12.83.11-.6 8.81 3.36 17.17 3.04 25.97-.26 5.66.74 11.32.09 16.98-.34 3.83.35 7.75-.68 11.51-1.5 6.58-2.8 13.27-5.46 19.52-3.07 7.31-5.11 15.05-8.97 22.02-3.62 6.59-6.05 13.74-9.59 20.37-5.75 9.16-9.85 19.27-15.65 28.39-3.27 3.43-8.41 2.05-12.61 2.19-1.94.07-2.63-2.2-2.04-3.74 2.55-6.47 5.2-13.02 9.55-18.53 3.64-5.6 7.23-11.38 9.22-17.81 1.45-4.48 4.03-8.45 6.7-12.28 8.22-14.8 13.57-31.11 16.21-47.81.43-4.24 1.25-8.47.33-12.71.09-9.6-1.03-19.19-3.79-28.39-3.02-6.35-9.2-10.22-13.46-15.61-3.41-4.53-7.7-8.27-11.61-12.35-1.96-2.12-4.34-3.83-6.99-4.95-15.37-6.13-30.65-12.47-45.69-19.34-7.28-2.6-13.63-7.11-20.55-10.46-13.81-8.05-25.34-19.29-37.76-29.22-5.75-4.3-10.37-9.92-16.38-13.88-1.12.25-2.19.67-3.19 1.26 2.64 6.99 9.68 10.45 14.55 15.61 3.04 3.3 7.31 5.58 9.09 9.91 2.66 6.13 6.8 11.5 9.18 17.77 1.61 3.82 2.09 7.97 3.12 11.96 1.2 4.17-.89 8.3-.76 12.51-1.13 7.05-2.33 14.2-5.17 20.8-3.36 8.5-5.64 17.36-9.25 25.76-2.17 9.6-7.75 17.88-10.92 27.11-2.99 8.56-6.47 17.02-8.04 25.98-.72 3.36-2.62 6.32-3.27 9.71-.58 4.48-3.36 8.24-4.37 12.61-2.05 8.31-5 16.42-5.8 24.98.61 2.16 2 3.96 3.67 5.44 6.61 5.94 14.18 10.68 21.84 15.14 4.36 3.61 9.52 6.77 12.2 11.96.38 1.75.22 3.58.29 5.39-.77.74-1.54 1.49-2.32 2.23h-4.09c-11.46-7.98-21.22-18.19-33.2-25.44-2.99-1.65-4.15-5.15-6.88-7.06-7.39-6-14.92-11.83-22.6-17.46-4.8-3.66-10.37-6.13-15.18-9.77-5.14-3.61-10.17-7.43-15.79-10.27-5.48-2.55-9.75-6.97-14.81-10.19-6.39-3.94-12.61-8.15-19.19-11.78-7.81-3.5-13.81-9.94-21.68-13.33-5.93-3.96-12.29-7.5-17.18-12.79-1.71-1.49-1.03-3.94-1.2-5.91-.22-4.41 2.4-8.18 3.87-12.16 2.48-6.86 7.7-12.43 9.41-19.62 1.54-6.2 3.5-12.58 2.62-19.03-5.4-16.87-16.07-31.25-24.24-46.79-3.85-6.19-7.33-12.6-11.32-18.7-5.77-8.77-8.14-19.26-13.9-28.03-6.44-13.57-11.34-27.81-17.46-41.53-4.84-10.43-7.44-21.68-11.75-32.3-5.39-12.52-10.53-25.16-14.92-38.07-.5-3.17-.33-6.42-.16-9.61 2.47-8.14 11.41-11.82 14.86-19.37.67-3.82-.64-7.44-1.72-11.02-.33-4.93-1.49-9.74-1.33-14.7-2-8.26.15-16.85-1.76-25.13-.31-10.64-.09-21.29-.12-31.93 1.12-6.65 1.74-13.73 5.33-19.62 2.98-3.43 6.38-6.63 8.4-10.78.89-2.76-.68-5.59-1.01-8.33-2.29-7.29.53-14.93 4.42-21.11 4.54-7.61 11.68-13.24 16.13-20.87 4.32-10.82 3.88-23.13 9.48-33.51 3.34-5.56 8.66-9.46 13.83-13.19 3.28-2.48 7.55-3.49 10.2-6.81 3.79-3.27 3.84-9.07 7.88-12.14 7.19-4.72 14.95-8.52 22.67-12.32 2.15-.8 3.67-3.04 3.64-5.29-2.79-16.79-9.55-32.59-12.74-49.28-2.32-12.13-4.99-24.29-5.44-36.65-.36-2.01-.87-4.02-.8-6.08.31-6.77-2.35-13.26-2.06-20.02.1-2.7-.43-5.61 1.03-8.05 3.72-7.29 5.68-15.29 9.37-22.59 1.2-2.33 2.06-4.82 2.66-7.36 2.31-9.38 6.54-18.18 8.31-27.7 2.31-5.01 3.25-10.5 4.07-15.91 1.79-7.3 4.17-14.43 6.44-21.58 1.5-4.63.86-10.01 3.89-14.07 3.12-3.16 7.72-3.98 11.81-5.19 7.22-3.43 11.73-10.32 18.16-14.81 8.77-8.6 17.14-17.67 27-25.06 3.76-3.08 8.32-4.91 12.17-7.85 9.2-5.96 18.96-10.98 28.31-16.69 8.22-5.59 17.47-9.38 26.48-13.49 12.82-6.24 26.5-10.41 39.95-15.06 5.55-2.67 11.04-5.6 17.15-6.85 3.74-1.35 7.83-.13 11.57-1.47 2.68-.85 5.44-1.33 8.21-1.81 4.23-.99 8.65.08 12.86-1.06 5.45-.68 10.87-1.48 16.36-1.68 14.05-4.14 29.11.81 43.05-3.73m-232.69 241.42c-1.43 4.7 4.73 7.44 8.55 6.34 6.35-2.19 13.31-3.31 18.84-7.33 1.12-2.72 1.33-5.71.35-8.51-9.78 1.16-18.86 5.48-27.74 9.5m-1.83 22.6c-1.05 1.3-3.19 2.71-2.07 4.64 2.59 3.68 6.77 7.39 11.62 6.25 6.42-1.75 12.43-4.76 18.12-8.17.28-1.16-.11-2.04-1.15-2.64-8.84-.42-17.68 0-26.52-.08m-37.33 55c-.21 5.7 2.65 10.94 4.91 16.02 1.44 3.21 5.15 3.4 8.17 3.9 3.71.18 7.08 1.9 10.02 4.07 2.11 1.68 4.68-.19 7.01-.21.96-4.85-3.81-7.32-5.94-10.93-3.04-3.98-5.71-8.27-9.39-11.71-4.86-1.12-9.78-1.43-14.78-1.14m-14.37 41.59c-3.36 1.27-6.64 2.75-9.72 4.6.03 1.83.49 3.7 1.87 5 4.31 4.38 8.7 8.68 13.03 13.04 5.36 6.09 9.59 13.05 14.49 19.51 5.28 7 10.31 14.34 13.35 22.63 3.26 9.24 6.89 18.39 9.02 27.99.67 6.04 1.54 12.37 4.57 17.76 4.21-3.32 2.6-9.35 2.69-13.99-1.41-3.34-.31-7.06-1.71-10.37-.28-1.55-.18-3.12-.23-4.67 7.42-2.83 14.85-5.93 22.7-7.45 4.31-.97 7.78-4.11 12.16-4.9 1.28-.28 2.19-1.32 3.27-1.98.53-3.19-2.07-5.65-2.05-8.74-.19-4.28-2.76-7.94-4.07-11.91-5.21-11.05-10.66-22.17-18.61-31.55-5.6-8.09-14.19-13.16-21.72-19.21-3.1-1.76-6.33-3.35-9.79-4.25-2.92-.25-5.86-.17-8.79-.08-7.38 1.34-13.7 5.58-20.46 8.57m67.51-5.62c-.47 1.25-.94 2.5-1.34 3.78 2.42 1.71 5.44 1.27 8.23 1.2 4.01-.81 8.15-1.4 11.86-3.26.08-.42.26-1.26.35-1.68-6.37-.07-12.73-.01-19.1-.04m-4.1 8.99c1.88 3.31 4.37 6.3 8.27 7.22-.2-3.31-3.87-4.65-5.64-7.11-.65-.03-1.97-.08-2.63-.11m11.73 6.76c6.27 1.18 13.65 2.98 19.31-.85-.44-.88-.87-1.77-1.27-2.66-1.45-.55-2.9-1.76-4.53-1.05-4.47 1.48-9.76 1.54-13.51 4.56m6.08 12.31c.14.62.44 1.85.59 2.46 3.86 2.29 7.98 4.13 11.97 6.18 3.98 1.25 9.32-.39 10.73-4.62-4.57-2.27-9.76-2.76-14.74-3.4-2.75-1-5.7-.66-8.55-.62m-99.11 15.62c-3.06 1.87-7.04.7-9.69 3.46 1.26 2.29 2.58 4.58 4.28 6.59 3.28 3.14 5.55 7.19 9.08 10.11 2.47 1.24 3.79-1.45 3.92-3.51 5-6.08 14.72-4.44 19.6-10.66.69-1.6-.53-2.99-1.22-4.32-2.63-3.06-5.25-6.34-8.73-8.43-6.02 1.52-11.5 4.47-17.24 6.76m254.65 2.67c-.95 3.12-4.37 4.52-7.37 4.71-3.71.59-5.12-3.69-7.99-5.15-.44.28-1.32.83-1.75 1.1.46 4 3.71 7.67 7.8 8.05 3.66-.52 7.46-1.29 10.55-3.47 2.19-2.83 2.88-6.26 2.4-9.77-2.68-.23-2.95 2.66-3.64 4.53m-287.06-.34c-.96 2.95-3.61 6.24-1.62 9.34 1.93 3.17 3.82 7.28 7.79 8.15 4.85.16 9.99-1.2 13.56-4.75-.01-1.14-.02-2.27-.05-3.4-3.23-2.88-5.96-6.63-10.18-8.11-3.15-.59-6.24-1.6-9.5-1.23m228.01 28.29c-3.15 2.69-7.16 4.22-11.22 4.8-7.26 1.42-13.58 5.81-20.89 7.06-1.57.36-3.51 1-3.39 2.97 4.14-2.24 8.79-2.11 13.27-3.06 9.4-.89 17.33-6.44 25.64-10.37 2.58-1.29 6.8-2.03 6.46-5.7-3.94-.77-6.93 2.2-9.87 4.3m-220.94 11.9c-4.42 3.74-7.76 8.5-10.63 13.49-2.06 4-5.15 7.63-5.7 12.25 1.06 1.85 2.6 4.25 5.02 4.11 6.28-1.55 13.23-.62 19-4.15.78-3.58-1.75-6.35-2.23-9.71-1.69-5.35.34-11.41-2.97-16.34-.62.09-1.86.26-2.49.35m23.22 33.35c-13.8 1.89-27.53 3.67-41.34 5.7-10.05 2.45-21.9 2.72-29.22 11.08-.52 5.86 3.95 10.82 4.01 16.64.07 4.35-.21 8.71.12 13.05 1.58 9.24.58 18.66.86 27.99.28 5.38-.74 10.92.83 16.16.61 4.32-.69 8.93 1.44 12.99 4.05-.39 7.2-3.28 10.52-5.36 6.53-3.97 11.75-9.61 17.89-14.1 6.23-5.54 13.37-10 19.62-15.47 3.35-2.63.5-6.52-2.09-8.43-5.17-3.5-10.59-6.64-15.47-10.53-1.66-1.26-1.85-3.39-1.82-5.3 1.46.09 3.1-.24 4.33.79 6.47 4.23 13.11 8.71 20.8 10.25 4.17.92 7.8-1.67 10.21-4.81 4.51-6.1 7.68-13.04 11.97-19.27 1.2.07 2.39.16 3.58.29.49 3.71-.83 7.39-1.91 10.9.3.45.91 1.36 1.21 1.82 1.57-.71 3.34-1.02 4.7-2.12 8.56-5.8 17.23-11.42 25.75-17.27 2.33-2.06 5.81-3.17 6.57-6.51-.99-1.93-2.87-3.27-4.57-4.55-3.03-1.92-5.18-4.85-7.88-7.15-4.26-2.73-7.33-7.61-12.71-8.29-5.64-.06-11.29-.13-16.92.03-3.36 1.42-7.07.43-10.48 1.47m64.6 29.57c-17 10.22-34.33 19.98-50.32 31.76-9.32 7.69-18.27 15.77-28.06 22.9-10.67 11.39-25.33 17.83-36.76 28.3-7.63 5.4-15.6 10.4-22.02 17.27.04 1.44-.2 2.94.23 4.36 2.86 8.58 6.1 17.02 9.73 25.31 1.79 4.09 2.64 8.64 5.37 12.29.28-.41.85-1.23 1.14-1.65-.64-3.81-.38-7.68-.59-11.52-1.46-4.9-.82-10.08-.82-15.11.63-2.64 1.16-5.3.93-8.03-.31-5.75 3.21-11.05 7.98-14 10.5-5.63 21.92-9.19 33.24-12.79 16.27-4.78 32.3-10.31 48.42-15.58 9.16-2.66 18.26-5.53 27.23-8.75 3.61-1.12 7.69-1.73 10.41-4.59 3.3-2.58 3.76-7.52 7.71-9.43 2.42 1.06 3.38 3.82 4.4 6.07 9.57.88 18.81-3.12 28.4-1.7 13.19 2.13 24.77 9.73 35.06 17.93 2.61 1.56 5.06 3.82 8.24 4.02.71-4.4-1.87-8.42-4.83-11.41-12.15-13.56-23.36-27.94-35.53-41.48-5.06-5.66-11.22-10.13-16.55-15.5-5.08-3.59-10.27-8.96-17.06-7.75-5.7 2.32-10.87 5.66-15.95 9.08m52.87 4.75c2.62 5.49 7.86 8.93 11.64 13.53 1.95 2.97 4.7 5.29 6.66 8.27 3.83 3.89 6.39 9.31 11.68 11.53-.07-1.61.16-3.27-.42-4.8-2.08-6.76-4.8-13.3-7-20.02-1.69-4.06-2.81-8.71-6.33-11.65-3.89-3.42-8.73-5.44-13.3-7.77-3.79 1.74-3.08 7.3-2.93 10.91m-7.86 47.17c1.08 3.32 2.51 6.5 3.71 9.78-.28.57-.85 1.72-1.13 2.29-6.61-.93-10.3-9.76-17.7-8.02-10.68 2.62-21.51 5.01-31.69 9.27-3.5 1.72-7.1 3.32-10.97 4.02-5.05 2.77-10.87 3.52-16.06 5.98-3.86 1.82-7.94 3.1-12.14 3.82-4.91 1.34-9.59 3.44-14.59 4.44-7.8 1.71-15.49 4.54-23.55 4.47-7.61 1.34-14.99 3.8-22.05 6.93-3.41 2.06-7.03 4.43-8.68 8.23-.17 1.39.8 2.72 1.45 3.91 2.32 3.06 3.37 6.89 3.35 10.71 1.6 3.98.11 8.37 1.66 12.36.98 11.45 3.72 22.74 7.31 33.68.53 1.39.95 2.96 2.21 3.92 3.72 1.06 7.6 1.04 11.43 1.26 1.02 1.07 2.09 2.11 3.04 3.26.53 2.39-.14 4.92.56 7.29 4.74 17.2 9.28 34.51 15.99 51.05 4.57 9.87 7.18 20.65 13.27 29.76 1.72 3.25 1.45 6.93 1.42 10.48-1.64 2.58-4.69 2.46-7.17 1.24-6.35-1.6-10.89-7.03-12.93-13.04-1.11-2.26-1.67-5.15-4.09-6.4 2.66 10.29 10.05 18.81 12.14 29.32.15 2.94-.11 5.89.08 8.84 1.13 4.41 4.02 8.04 5.94 12.11 3.12 6.79 8.24 12.72 10.04 20.04.29 3.59-1.09 7-1.52 10.53-1.23 7.7-4.98 14.6-8.54 21.43-3.46 5.6-6.88 11.49-7.99 18.08-.41 3.7 2.74 6.55 5.58 8.4 10.84 7.24 21.71 14.47 33.01 20.99 12.37 7.19 24.1 15.4 36.63 22.34 11.2 6.21 19.84 16.33 31.81 21.22 1.28-.13 1.89-1.55 2.71-2.37 2.43-6.98 4.1-14.2 6.82-21.07 1.96-4.2 2.45-8.81 3.81-13.18 3.12-5.75 4.54-12.19 6.8-18.29 4.19-11.04 7.69-22.32 11.48-33.5 3.51-9.77 7.73-19.28 10.79-29.2.31-1.17 1.28-2.9-.13-3.73-1.08-1.62-2.82-.15-3.94.56-4.47 4.23-8.71 8.7-13.1 13.01-4.24 4.09-8.07 8.79-13.27 11.72-2.59 1.09-5.57 1.34-7.81 3.19-3.16 1.75-5.13 5.21-8.82 6.04-.68-1.81-1.47-3.57-2.47-5.2-6.4-.83-12.39 1.72-18.68 2.18-5 1.25-10.59 2.17-15.35-.35-.31-2.25 1.18-4.05 3.27-4.69 10.52-3.64 21.81-3.42 32.47-6.47 6.3-2.19 9.94-8.11 14.65-12.42 4.97-4.72 9.47-9.96 14.74-14.34 4.41-2.84 7.06-7.92 12.02-9.93 3.87-2.81 7.59-5.87 10.95-9.29 1.24-11.58-6.08-21.45-11.87-30.75-8.91-13.21-18.67-25.96-25.78-40.28-6.03-9.92-12.48-19.82-15.99-30.98-1.98-5.09-2.34-10.63-4.61-15.62-6.17-1.69-10.47 5.01-16.56 3.92-.45-1.57-.86-3.19.04-4.68 4.21-3.01 8.88-5.28 13.47-7.65 2.74-2.1 5.54-4.9 5.38-8.64.56-3.15.55-6.76 3.16-9.01 3.02.03 6.14-.37 9.02.8 8.3.81 17.12.94 24.77-2.87 7.92-4.9 13.56-12.55 20.36-18.78 1.23-.16 2.46-.23 3.7-.2.01 1.27-.03 2.53-.14 3.8-2.27 3.67-5.05 7.02-8.13 10.05-2.13 2.99-5.4 5.9-4.82 9.94 7.47 3.3 15.71 5.02 23.87 4.14 3.12-1.33 6.6-.95 9.9-.76 3.76 2.71-1.53 5.89-1.81 8.78 5.78 9.1 13.57 16.71 19.41 25.78 3 3.4 6.55 6.69 10.66 8.55.74-8.9-1.17-17.62-2.9-26.29.28-4.01-1.18-7.77-1.25-11.74-2.12-8.76-3.48-17.97-8.19-25.83-3.51-4.44-7-9.05-11.81-12.16-8.63-8.76-19.56-15.02-27.42-24.58-1.39-1.62-1.65-3.68-1.31-5.72 1.52.37 3.04.81 4.48 1.45 5.63 4.74 11.38 9.32 16.83 14.26 2.41 1.64 4.49 4.12 7.57 4.39-.73-8.26-5.61-15.44-9.34-22.66-9.81-11.96-24.27-18.37-36.24-27.77-3.15-2.73-7.11-4.16-10.55-6.44-5.54-4.53-11.85-8.34-18.78-10.21-.47.28-1.42.83-1.89 1.1m239.16 76.31c-5.04 2.75-10.89 4.02-15.26 7.93-.18 1.14-.25 2.29-.19 3.46 3.09.64 5.94 2.04 8.5 3.87 6.38 3.37 12.57 7.23 18.04 11.96 5.19 3.44 8.61 8.75 12.74 13.28 5.81 7.68 10.98 15.85 15.84 24.15 3.65 7.06 6.28 14.78 11.26 21.07 3.56.86 5.36-2.41 7.7-4.38.44-8.42-3.9-16.24-8.95-22.67-1.63-1.98-2.72-4.39-3.09-6.92 1.55-3.02 4.67-5.04 7.7-6.48 8.31-5.18 17.12-9.52 26.38-12.71.66-3.58-1.19-7.72 1.07-10.85 2.13 1.1 4.57 1.77 6.19 3.66 4.73 4.83 8.73 10.37 11.4 16.61 6.16 13.7 13.12 27.33 15.72 42.27 2.84 9.71 4.03 19.79 6.43 29.59.04 1.67 2.07 4.22 3.05 1.57.98-8.33-2.17-16.34-3.04-24.54-2.5-8.24-5.23-16.42-7.25-24.8-1.41-5.41-4.08-10.68-3.61-16.4 4.97-.14 9.94.08 14.91-.04 1.15.16 2.82-1.58 1.86-2.66-1.82-3.98-4.97-7-7.79-10.25-2.62-3.73-6.57-6.12-9.75-9.29-7.8-6.44-17.33-10.12-26.22-14.75-5.19-1.72-11.02-2.02-15.57-5.41-4.84-4-10.07-7.57-15.69-10.4-8.05-3.9-17.03-5.35-25.68-7.02-9.28 2.26-18.24 5.73-26.7 10.15m-29.56 24.47c-1.75 2.33-3.24 4.87-4.47 7.52-2.12 3.83-1.96 9 .88 12.45 1.44 1.83 2.73 4.38 1.24 6.59-1.59 4.12-5.25 6.76-8.17 9.89-4.07 4.32-9.79 6.35-14.93 9.07-.91.76-2.13 1.44-2.46 2.67 1.02 2 3.14 2.97 4.84 4.29 5.31 3.95 10.54 8.06 15.03 12.97 2.5 2.89 5.8 4.86 8.62 7.41 3.17 1.78 6.83 2.6 10.47 2.37.88-1.54 1.66-3.13 2.62-4.61 1.96-1.96 4.81-1.2 7.26-1.64 3.55-1.03 6.68-3.31 8.52-6.52 1.43-2.36 4.31-2.34 6.49-3.58 3.21-3.79 5.83-8.09 9.51-11.48.75-1.03 2.14-1.76 3.36-1.02 3.05 2.9 6.66 5.22 10.55 6.84 1.43.15 2.98.07 3.77-1.34.94-4.89-2.46-8.95-4.54-13.02-2.21-4.87-6.05-8.69-8.69-13.3-4.63-5.05-9.64-9.75-14.45-14.62-5.21-3.87-9.67-9.08-16.18-10.81-5.85-3.35-13.61-4.47-19.27-.13m-151.53 19.19c-4.99 8.68-1.58 19.83 4.98 26.74 6.84 6.84 13.7 13.66 20.51 20.52 10.33 8.96 20.66 18.37 33.44 23.76 1.36.02 2.94.19 4.01-.84 4.62-4.02 8.35-9.07 13.52-12.46 7.43-5.29 16.68-9.29 25.94-7.38 8.92 2.03 16.47 7.82 22.58 14.43 1.48 1.9 4.37 2.39 5.12 4.88 2.33 5.42 5.84 10.18 8.82 15.23 1.45 4.12 1.79 8.57 3.2 12.73 1.32 3.76 1.45 8.31 4.74 11.05 3.87-1.26 7.75-2.48 11.56-3.92 2.44-1.59 1.16-5.14 1.24-7.59-2.76-8.31-6.45-16.38-11.51-23.55-9.87-18.08-25.28-32.87-43.38-42.6-2.12-.82-4.22-1.58-6-3.02-1.76 1.25-3.22 2.97-5.28 3.78-13.8 6.16-27.63 13.18-42.75 15.29-8.83-.07-16.02-6.28-20.84-13.17-5.71-6.13-9.91-13.43-15.07-19.99-3.53-4.3-6.02-9.31-9.37-13.71-1.81-.3-3.64-.18-5.46-.18m50.07 1.08c-.31.3-.91.9-1.22 1.2-1.17 5.7 2.21 10.87 2.08 16.52 1.48 3.39.21 7.18 1.36 10.64.63 2.22.22 5.31 2.67 6.49 4.65.54 9.04-1.71 13.19-3.52 6.14-2.33 12.9-3.58 18.25-7.57-.94-2.82-4.26-4.14-6.37-6.08-6.07-5.23-13.89-7.74-19.7-13.31-3.32-1.53-6.53-4.47-10.26-4.37m153.32 139.88c5.85 2.44 12.32 2.12 18.55 2-.19-3.39-4.74-2.93-7.22-2.99-3.64-.34-8.9-2.92-11.33.99m-81.26 9.52c-2.69.31-3.28 3.85-1.25 5.4 3.07 3.8 8.21 3.35 12.58 3.01 3.39-2.84.42-8.69-3.7-8.87-2.53.05-5.22-.46-7.63.46m19.79 11.68v.65h.66v-.65z"/><path d="m505.13 42.93c2.48-.3 4.87.63 6.75 2.23 6.65 6.81 15.14 11.44 22.41 17.54 11.89 9.29 23.22 19.38 33.28 30.69 5.34 10.03 9.27 20.73 14.08 31.01 4.17 11.01 9.49 21.58 13.18 32.77 2.9 13.02 5.07 26.18 7.73 39.25.94 3.39.09 6.96.57 10.42 2.05 5.6-.24 11.73 1.59 17.37.55 10.23 2.28 20.34 4.79 30.33 1.34 5.2.31 11.53 4.73 15.42 4.22-.14 9.36-.07 12 3.82 2.91 4.51 5.28 9.69 4.86 15.17 1.94 6.44.21 13.28 1.12 19.85 1.8 4.97-.26 10.42 1.6 15.38.37 4.24.19 8.52.11 12.77-2.06 7.69-.76 15.8.64 23.47 1.4 10.87 4.94 21.42 5.61 32.38 1.52 3.36.13 7.16 1.49 10.55.84 3-.25 6.24.78 9.22 1.27 3.56-.06 7.45.87 11.08 1.57 4.51-.03 9.4 1 14.01 1.75 5.4-.42 11.28 1.4 16.67.76 3.39-.22 6.94.6 10.33 1.75 5.7-.4 11.84 1.4 17.55.92 5.23-.65 10.73 1.2 15.84-.09 3.05.26 6.03 1.05 8.97.08 17.34 0 34.68.04 52.02-1.76 11.7-3.2 23.65-7.08 34.95-1.75 8.53-4.71 16.74-6.73 25.22-.62 10.42-6.18 19.54-8.48 29.57-1.14 5.35-3.86 10.14-5.71 15.23-3.48 7.01-9.96 12.63-11.29 20.62-3.15 3.62-6.85 6.73-10.04 10.32-1.23.02-2.45.05-3.67.07-1.08-6.41 3.78-11.42 6-17.03 3.68-8.6 6.62-17.51 9.62-26.36 3.51-9.5 4.53-19.67 7.71-29.26 1.39-4.3 6.66-5.92 7.62-10.49.05-5.64.14-11.3-.06-16.94-1.68-6.49-.47-13.21-1.04-19.8-1.88-4.95.11-10.37-1.59-15.35-.74-3.07.29-6.34-.71-9.36-1.21-3.16.08-6.67-1.14-9.83-.99-5.5-2.5-10.94-2.52-16.55-1.52-3.62-.22-7.65-1.74-11.24-.7-9.99-3.61-19.73-3.12-29.81.69-3.44.7-7.23 3.12-10.02 1.16.01 2.32.03 3.49.06.74.77 1.51 1.54 2.31 2.3-.11 3.96.63 8.08-.74 11.91 1.23 11.78 3.92 23.65 5.09 35.53 1.4 3.45.02 7.28 1.19 10.78 1.28 3.83-.32 8.03 1.09 11.85.89 2.9-.12 6.08 1.06 8.95.44 5.22 2.45 10.5.5 15.69.12 3.04-1.48 7.3 1.69 9.2 2.82-5.16 2.74-11.25 3.47-16.92 1.3-3.39.05-7.15 1.57-10.49.37-3.67-.4-7.46 1.01-10.98.18-5.56.21-11.16-.01-16.72-1.73-4.83-.3-10-1.14-14.94-1.84-5.94.44-12.35-1.68-18.24.48-4.77-1.01-9.26-1.08-13.96-1.06-7.06-2.07-14.18-3.83-21.16-.1-2.67-.36-5.31-1.09-7.88-.19-8.67.04-17.34-.08-26.01-2.04-7.74-.33-15.88-1.18-23.77-1.39-4.29-.62-8.82-.78-13.23-.71-9.14-4.35-17.7-6.39-26.58-2.36-8-5.82-15.62-8.41-23.54-2.66-9.02-5.83-17.88-8.04-27.03-1.45-14.24-7.73-27.34-10.71-41.23-2.66-6.21-3.72-13.05-7.19-18.9-5.24-7.91-8.08-17.09-10.89-26.07-2.29-9.34-5.25-18.53-6.99-28-.97-5.95-3.14-11.6-4.55-17.44-1.6-4.22-2.07-8.82-4.17-12.84-3.23-5.96-5.38-12.4-8.66-18.34-1.75-5.42-6.08-10.23-5.01-16.26 2.92 3.56 7.89 5.17 9.65 9.62.45 1.17 1.27 2.12 2.17 2.99 1.17-2.59 1.21-5.42 1.23-8.21 1.49-4.02 4.44-7.67 4.84-12-2.39-5.67-4.59-11.42-6.91-17.11-1.1-2.19-1.92-4.61-3.76-6.3-1.99 2.4-3.34 5.24-4.35 8.18-2.13 5.38-4.73 11.02-3.76 16.96.54 1.73.96 3.51.96 5.34-2.2-.24-3.9-1.87-6.07-2.16-4.33-.56-6.89-4.51-9.7-7.41-1.66-8.31 4.31-15.72 4.78-23.89-3.56 2.48-3.17 7.62-5.47 11.07-1.22.11-2.44.2-3.65.26-.16-6.45 3.81-12.06 6.32-17.79.8-.38 1.61-.77 2.41-1.19.96 1.69 3.02 2.87 4.21.63.93-4.18-2.72-7.61-5.93-9.63-6.71-3.51-13.37-7.19-20.69-9.27-2.98-5.68-6.05-11.33-9.13-16.96-1.08-2.82-2.64-5.98-1.03-8.92m109.05 235.11c-2.8 2.18-2.49 6.13-1.33 9.13.06 9.43 1.98 18.7 4.08 27.89-.55 6.73 2.9 12.73 5.17 18.83.42 1.43 1.68 2.34 2.67 3.38 1.42-1.67 1.55-3.9.96-5.93-1.35-4.34-.51-8.94-.71-13.4.25-2.39-1.11-4.53-1.03-6.89-.2-3.2.49-6.51-.49-9.61-1.05-2.94-.04-6.13-.82-9.1-1.24-3.33-.05-7.05-1.74-10.27-.58-3.08-3.82-4.72-6.76-4.03z"/><path d="m430.04 77.92c5.77.05 9.19 5.83 11.75 10.28 5.71 7.66 7.93 17.05 11.19 25.87.89 3.16 1.94 6.35 2.09 9.66-.56.34-1.69 1.01-2.26 1.34-4.8-1.91-6.96-6.85-10.45-10.26-.48 1.17-.78 3.18-2.37 3.27-2.54-.91-4.54-2.81-6.15-4.91-5.55-7.84-10.48-16.18-13.9-25.18 3.71-3.15 6.41 2.06 8.41 4.59 4.95 5.75 8.24 12.69 12.67 18.77-.92-7.19-3.82-14.04-6.69-20.67-1.77-4.09-4.65-8.13-4.29-12.76z"/><path d="m403.11 84.9c5.75 3.31 10.04 8.7 14.14 13.81 4.39 4.16 7.19 9.6 10.36 14.68 2.04 3.98 4.84 8.03 4.43 12.72-5.43-.2-8.05-6.15-11.75-9.42-5.88-9.42-11.61-18.97-17.86-28.17-1.17-1.22.09-2.5.68-3.62z"/><path d="m334.13 100.2c2.57-.27 5.39-.68 7.51 1.18 4.2 3.22 9.15 5.34 13.2 8.78 4.34 3.41 9.75 5.37 13.46 9.58 2.57 1.9 4.92 4.97 8.48 4.35.82-1.28 1.31-2.82 2.51-3.83 4.05-1.99 9.28-2.09 12.04-6.16 3.85.41 7.51-2.07 11.31-.79 9.38 3.21 18.95 8.91 22.37 18.78-.42 1.59-1.23 3.39-2.92 3.95-3.26 1.96-7.19.29-10.67 1.21-2.48 2.4-6.07 3.01-9.4 2.78-5.37.09-11.94-.28-15.39-5.02-1.74 1.16-3.41 2.41-5.02 3.74-3.02.93-6.19-.17-8.92-1.51-4.99-2.84-9.66-6.21-14.11-9.83-4.38-2.87-7.37-7.34-11.5-10.52-4.03-2.92-7.29-6.7-10.85-10.14-1.8-1.67-2.65-4.14-2.1-6.55z"/><path d="m559.11 191.25c.76-1.41 2.29-1.43 3.71-1.26 5.82 5.07 4.92 13.57 6.79 20.42 1.76 11.06 4.89 21.83 7.27 32.77.52 2.4-.02 4.8-1.07 6.98-3.53.02-5.23-3.55-7.72-5.47-.79-11.21-3.17-22.24-5.47-33.28-2.21-6.48-4.48-13.21-3.51-20.16z"/><path d="m555 243.23c2.25-.16 4.15-1.38 6.17-2.27 2.26-.3 6.01 1.94 4.5 4.52-2.98 2.54-7.4 1.79-10.68.28 0-.63.01-1.9.01-2.53z"/><path d="m557.95 269.95c2.69-1.62 5.96-.9 8.94-.89 1.65 1.03 2.92 2.55 4.46 3.73 1.64.77 3.32-.24 4.88-.73 3.19-.59 5.87 1.72 8.39 3.33 5.98 4.28 12.2 9.36 14.32 16.73.15 3.27.08 6.56.04 9.85.24 1.25-1.49 2.78-2.54 1.59-2.62-1.66-4.22-4.6-7.09-5.89-3.89-1.9-7.63-4.28-11.9-5.21-3.65-1.59-6.89 1.48-9.93 3.06-13.74 5.83-26.22 14.15-38.55 22.46-7.43 3.76-13.98 9.06-21.66 12.32-2.93 1.39-6.19 1.7-9.22 2.76-3.73 1.58-7.85.8-11.77.89-1.03-1.15-2.13-2.24-3.27-3.27-.06-2.53-.15-5.06-.01-7.58 1.56-4.95 5.13-8.79 8.24-12.81 3.98-4.69 7.36-9.92 11.97-14.07 2.27-2.46 5.52-3.65 8.75-4.21 7.6-1.5 12.71-9.7 20.86-9.09 2.89-.7 4.99-3.19 7.57-4.61 2.67-.79 5.39-1.46 8.2-1.44 2.89-2.55 5.85-5.18 9.32-6.92z"/><path d="m528.16 330.35c7.34-3.79 15.43-7 23.84-6.36 4.34.22 8.93-.77 12.98 1.28-.02.65-.06 1.95-.07 2.6-5.62.31-11.24-.01-16.86.17-6.7 1.49-13.48 2.66-20.2 4.12.08-.45.24-1.36.31-1.81z"/><path d="m503.24 341.24c5.2-5.86 13.22-8.85 20.98-8.22-4.7 3.77-9.57 7.32-14.62 10.6-3.7 2.2-6.09 5.92-9.47 8.5-3.62 2.26-6.37 6.92-11.29 5.91 3.06-6.92 9.43-11.35 14.4-16.79z"/><path d="m528.42 340.43c4.94-2.48 10.17-4.42 15.63-5.38 5.66-.04 11.3-.49 16.95-.01 6.52.96 13.13 3.62 17.33 8.92 5.25 1.08 9.46-2.6 13.85-4.81 3.09-.64 7.55-.42 8.67 3.14.81 3.09-.4 6.79-3.37 8.25-4.92 2.81-10.74 3.97-16.37 3.43-3.42-1.32-5.64-4.65-9.09-5.98-3.56-1.46-7.21-2.71-10.67-4.42-2.2-1.55-5.52.04-6.31 2.37 2.64 5.3.56 11.72-3.39 15.76-5.35 3.79-11.84 6.4-18.48 5.15-5.25-2.17-8.25-7.48-13.33-9.86-1.5-.05-3.04-.15-4.49.27-5.37 4.44-7.2 12.35-13.83 15.36-2.1.68-4.42 1.56-6.42.13-.74-1.33.96-2.15 1.64-3.02 4.72-4.37 7.91-10.07 12-14.98 5.53-6.04 12.74-10.14 19.68-14.32m14.84 14.84c-4.41 3.7-9.94.15-14.06-2.21-.36.48-1.07 1.42-1.42 1.89 1.44 4.1 5.35 5.89 9.22 7.05 1.41-.64 2.91-1.06 4.34-1.67 4.89-2.23 8.82-8.47 5.5-13.6-3.49 1.71-.33 6.54-3.58 8.54z"/><path d="m470.21 344.21c.82-1.4 2.43-1.2 3.83-1.31-.07 1.49.19 3.1-.7 4.42-1.91 4.03-2.99 8.38-4.47 12.57-.99 2.08.48 4.16 1.14 6.1 3.06 8.1 8.17 15.98 6.97 25.02-1.25-.01-2.5-.02-3.74-.02-2.42-2.4-3.69-5.65-4.3-8.95-1.02-4.91-3.03-9.52-4.88-14.15.02-3.97-.7-8.15.91-11.91 1.55-3.99 1.77-8.82 5.24-11.77z"/><path d="m396.57 357.66c3.79-1.85 8.04-3.07 12.31-2.65 3.96 1.37 7.03 4.3 10.31 6.79 5.46 4.91 12.06 8.54 17.01 14.01 5.62 8.54 6.26 19.09 9.3 28.63.9 4.55 3.55 8.43 5.5 12.56 3.61 7.39 7.49 14.66 10.95 22.12.24 5.94-.18 11.9.16 17.83.68 2.23.94 4.54 1.01 6.87 1.23 5.13 4.12 9.63 7.32 13.76 4.1 4.82 7.61 10.59 13.52 13.43 6.24 3.66 13.69 2.79 20.63 3.17.25 1.75 1.74 3.48.9 5.27-2.37 7.53-8.47 12.92-12.71 19.35-1.64 2.64-3.74 4.96-6.13 6.93-9.11 3.37-18.57-.38-27.67-1.68-2.42-.05-4.88.04-7.15-.93-6.82-.67-14.27 1.27-20.48-2.47-5.56-3.66-10.28-8.58-14.02-14.06-2.38-6.96-.95-14.4-1.34-21.59-.44-4.17.81-8.17 2.23-12.02 2.17-.11 4.35-.06 6.54.03 3.35 2.78 3.26 7.16 4.18 11.04.32 3.86-.32 7.78.3 11.61 1.3 2.79 4.31.66 6.1-.38 6.73-4.63 14.84-6.19 22.58-8.32 2.54-.32 2.7-3.55 1.34-5.18-2.61-4.09-5.72-7.86-8-12.14-.45-2.79-.28-6.76-3.34-8.04-4.93.41-7.13 7.43-12.57 6.41-2.44-2.79-5.25-5.23-7.7-8.01-1.61.11-3.51-.46-4.8.81-1.72 1.85-4.35 1.06-6.56 1.17-2.6-2.65-4.96-5.68-5.99-9.3-1.38-5.63.1-11.4 1.57-16.85.31-2.86.07-5.73.12-8.59-1.75-2.38-5.21-1.97-6.7-4.55-3.33-5.48.35-11.69 2.6-16.84 2.44-6.65 7.3-13.19 5.89-20.59-3.15-3.98-7.28-7.46-12.28-8.79-3.79-1.72-4.38-6.36-6.3-9.61-1.87-2.15-4.14-4-5.26-6.7 1.84-1.71 4.21-2.23 6.63-2.5m56.1 141.29c3.73.28 7.52.12 11.04-1.27.13-.41.38-1.24.5-1.66-3.92-.08-8.83-.46-11.54 2.93z"/><path d="m125.38 363.38c3.75-1.04 6.95-3.45 10.74-4.4 8.64.75 15.65 6.47 21.95 11.94 6.17 7.23 13.44 13.83 17.33 22.7.99 1.5.66 3.33.6 5.02-4.67 1.36-8.05 4.72-11.33 8.09-4.4 1.6-8.39 5.6-13.39 4.06-2.97-1.84-4.48-5.13-6.09-8.09-4.32-7.97-10.51-14.7-16.95-21-2.93-3.71-6.24-7.1-9.52-10.5-1.12-1.05-1.58-2.54-1.93-3.97 2.67-1.67 5.56-2.97 8.59-3.85z"/><path d="m354.77 371.76c3.68-1.48 7.79.01 11.43-1.6 5.69-.59 11.67.55 16.85 2.94-.01.66-.04 1.98-.06 2.64-2.84 1.58-6.21 1.69-9.21.47-4.56-.48-9.19-.14-13.77-.18-5.92 1.05-11.84 2.18-17.76 3.23-7.39 1.86-14.52 4.81-20.93 8.94-1.9 1.41-4.38.68-6.55.78.32-2.32 2.28-3.83 3.98-5.21 10.94-6.64 23.51-9.89 36.02-12.01z"/><path d="m551.19 373.16c4.04-.01 7.3-3.22 11.49-2.1 1.35 1.51 2.79 2.95 4.33 4.3.16 2.07-.15 4.41-1.78 5.86-4.82 3.25-10.02 6.16-15.84 7.14-6.06 3.65-13.31 4.18-20.21 3.49-5.4-1.37-11.19-4.42-13.23-9.93-.16-1.21.29-2.15 1.33-2.82 2.64-.38 5.3-.03 7.89.49 3.62-.64 7.36-.42 10.9-1.53 5.31-.74 10-3.51 15.12-4.9z"/><path d="m368.98 419.99c2.93-1.84 6.53-.71 9.79-.97 1.35 1.51 2.56 3.16 3.31 5.07-.44 4.62-4.03 7.99-7.84 10.19-4.34 2.31-9.34 2.62-14 3.97-3.34 1.24-7.02.3-10.36 1.66-4.27 0-8.79.8-12.8-1.02-3.73-1.34-6.67-4.4-8.39-7.91 3.08-3 7.43-1.7 11.27-2.01 9.88-2.08 20.04-4.13 29.02-8.98z"/><path d="m552.98 463.98c6.5-.19 12.8 3.26 17.39 7.7 3.14 1.96 6.36 4.75 10.3 4.35.86-1.02 1.75-2.01 2.62-3.01 6.43-.84 12.6 2.27 17.46 6.22 2.09 3.03 5.4 5.79 5.33 9.78-.03 1.86.55 4.55-1.71 5.35-5.78 3.61-13.55 7.28-20.06 3.32-6.71-6.27-12.89-13.12-19.64-19.35-4.44-2.9-7.78-7.08-11.62-10.67-.04-1.24-.06-2.47-.07-3.69z"/><path d="m516.01 475.26c1.94-1.69 4.2-3.7 6.98-3.31 2.55-.05 4.99 1.87 6.11 4.05-1.55 5.71-9.14 6.5-13.12 2.83 0-1.19.01-2.39.03-3.57z"/><path d="m562.2 528.2c4.46-2.99 8.84-6.19 13.89-8.14 1.49.36 2.71 1.39 4.03 2.14-.31 5.81-4.01 10.62-5.9 15.96-1.15 3.28-3.29 6.07-4.99 9.07-1.76 2.6-3.12 5.54-5.54 7.61-1.22.9-2.15-.94-3.01-1.52-2.63-2.6-3.22-6.5-3.93-9.97-.85-.78-1.42-2.29-2.71-2.31-3.1 1.14-6.32 2.1-9.15 3.85-7.46 4.27-15.36 7.71-23.44 10.62-6.35 2.72-13.34 3.56-19.64 6.37-8.02 1.89-16.01 3.93-24 5.95-3.72.07-7.23 1.31-10.81 2.16-10.68 2.81-21.68 4.4-32.19 7.84-3.35.79-8.5-1.21-10.2 2.81-1.88 2.59.94 5.35.38 8.12-2.71 3.19-7.12 3.58-10.96 4.24-5.13.16-12.3-.22-14.22-5.99.51-.9 1.04-1.78 1.58-2.65 6.31-3.9 13.47-6.16 19.64-10.32 7.82-5.38 17.33-6.87 26.13-9.93 3.83.14 7.48-1 11.2-1.78 9.45-2.2 19.01-3.97 28.59-5.41 9.34-1.78 19.02-2.54 27.92-6.15 7.96-3.54 15.99-6.96 24.28-9.63 8.37-2.99 15.43-8.53 23.05-12.94z"/><path d="m530.68 570.7c2.42-1 4.98-1.64 7.37-2.72 1.46 1.47 4.34 2.49 3.98 4.96-.7 2.11-1.48 4.36-3.26 5.82-5.35 4.56-12.5 5.74-18.93 8.1-11.91 3.16-23.64 7.23-35.84 9.1-8.34.11-16.67-.01-25.01.04-5.04.13-10.25.58-15.16-.84-3.03-.27-6.16.16-8.91-1.43.08-.59.24-1.76.32-2.35 2.25-.41 4.4-1.39 6.72-1.38 7.36-.01 14.72 0 22.09.02 3.32.19 6.4-1.33 9.34-2.67 8.61-.72 16.63-4.68 25.24-5.72 10.39-4.5 21.61-6.59 32.05-10.93z"/><path d="m223.35 596.34c6.51-1.53 12.87 1.18 19.38.69 1.45 1.27 2.65 2.74 2.41 4.8-2.52 1.63-5.48 2.22-8.34 2.96-3.45.62-7.03-.27-10.46.55-6.66 1.79-13.79-.61-20.39 1.61-3.72.26-7.56-.48-11.15.84-3.63.52-7.41-.28-10.91 1.12-7.4.04-14.62 1.99-21.87 3.1-9.17-1-17.76 3.33-26.86 3.11-4.65 1.92-9.8-.09-14.5 1.55-3.71.97-7.68.25-10.87-1.87.35-1.42.5-3.36 2.15-3.86 5.67-2.8 12.14-2.42 18.11-3.88 3.75.39 7.17-1.25 10.88-1.16 6.3-1.3 12.72-1.77 19.03-2.9 5.71.57 11.06-1.79 16.68-2.34 3.48-1.32 7.3-.01 10.8-1.2 3.89-1.21 8.11.3 11.99-.97 3.35-1.12 6.96.03 10.35-.76 4.37-1.63 9.16.1 13.57-1.39z"/><path d="m439.29 614.1c2.98-1.05 7.99 3.28 4.46 5.75-2.36.24-8.1-3.35-4.46-5.75z"/><path d="m84.14 633c2.18.04 4.39-.2 6.56.17 6.17 3.98 6.11 11.9 7.82 18.27.8 5.29 3.51 10.03 4.85 15.2 2.13 7.61 4.53 15.15 7.67 22.41-1 2.17-3.23 4.49-5.86 3.93-6.42-2.42-12.08-7.42-14.04-14.14-2.26-9.55-4.41-19.15-7.46-28.48-1.39-3.4.1-7.24-1.58-10.57-.81-2.54.78-4.75 2.04-6.79z"/><path d="m123.95 792.11c.45-3.07 4.48-2.19 6.68-1.9 6.49 4.45 9 12.34 14.08 18.05 2.55 3.31 7.33 3.75 9.56 7.43 2.54 4.17 2.99 9.28 2.71 14.09-1.02.41-2.03.84-3.03 1.31-4.84-1.66-9.85-3.18-14.22-5.86-3.37-5.42-6.23-11.17-9.06-16.89-2.55-5.27-5.71-10.39-6.72-16.23z"/><path d="m159.95 840.28c4.99-5.15 12.72-2.73 19.08-3.3 3.92-.42 6.77 2.85 8.24 6.11-.84.92-1.69 1.84-2.53 2.77-5.91.98-11.82 2.13-17.71 3.19-4.23-.26-7.65-4.55-7.08-8.77z"/><path d="m194.05 882.01c.89-2.15 2.98-3.3 5.05-4.06 2.06-.48 2.77 1.8 3.89 3.03-3.16 7.81-6.71 15.55-11.27 22.66-3.7 3.98-7.71 9.71-13.96 8.34 1.45-4.34 3.96-8.2 5.9-12.31 2.86-6.24 7.46-11.47 10.39-17.66z"/></g></svg>