<svg height="661pt" viewBox="0 0 575 661" width="575pt" xmlns="http://www.w3.org/2000/svg"><path d="m288.05 1.93c.35-1.56 1.29-1.88 2.81-.95-.79.84-1.73 1.16-2.81.95z" fill="#b6b6b6"/><path d="m290.86.98c1.34-1.3 3.33-.16 4.92-.08l.01.65c.58 1.28 1.28 2.49 1.98 3.7-.43-.02-1.29-.07-1.72-.1 1.1 1.86 2.18 3.73 3.23 5.62-.73.9-1.47 1.79-2.17 2.71-1.42 1.5-1.23 3.63-1.33 5.52-.15 4.07.18 8.13.76 12.16.64 4.29-.65 8.54-.74 12.82-.38 6.05 1.12 12.01 1.01 18.05-.08 4.39-.32 8.79-.2 13.19-1.29.6-2.57 1.22-3.83 1.85.64.38 1.93 1.15 2.57 1.53l.88.48c-1.87.1-3.78.44-5.61-.01-4.5-1.48-7.91-4.92-9.91-9.14-.04-.06-.11-.19-.15-.26.91-7.18.21-14.45.42-21.67-.21-11.25.44-22.54-.35-33.77-.11-1.57-.11-3.16.15-4.72 1.63-2.53 3.51-4.89 5.52-7.14l.54-.62 1.21.18c1.08.21 2.02-.11 2.81-.95z" fill="#8d8d8d"/><path d="m275.39 118.25c6.41-1.02 12.75.89 19.15.58.24.3.72.92.96 1.22-5.35.79-10.6-1.54-15.91-.48-.74.13-2.23.41-2.98.55l.31.93c.42 1.42.8 2.85 1.18 4.29-1 4.05-.01 8.27 2.84 11.36 1.11 1.95 1.57 4.17 1.98 6.35 1.64 2.46 2.37 5.7 5.1 7.27.42 2.97-.03 6.25 1.67 8.89 2.21 4.26 4.98 9.39 2.74 14.17 3.01 2.09 5.42 4.88 6.6 8.38-2.79.06-5.59-.03-8.33-.54-2.96-1-5.89-2.07-8.92-2.85.4-.36 1.21-1.09 1.61-1.45-4.62-3.14-10.41-3.07-15.38-5.37-5.09-2.16-10.9-3.14-16.14-.89.93.36 1.87.72 2.81 1.07.2.5.6 1.49.8 1.99.28-.79.57-1.58.85-2.36 5.3 1.7 10.79 2.66 16.07 4.4-2.88-.11-5.77-.16-8.65-.33.96.83 1.92 1.65 2.89 2.48-.96.71-1.91 1.41-2.85 2.12.97.55 1.94 1.1 2.92 1.66-.62.19-1.87.57-2.5.75-.85 5.64 1.35 11.89-1.91 16.98.53.27 1.59.81 2.11 1.08.68 1.64 1.37 3.29 2.06 4.93-3.16 2-6.27 4.26-10.04 4.9-.37.94-.74 1.89-1.11 2.84-6.37 3.46-11.91 8.29-18.48 11.41-.16.19-.48.56-.65.74-9.36 5.06-17.27 12.36-26.78 17.18.21.57.61 1.71.82 2.28-1.92 1.13-3.84 2.23-5.68 3.48-.61-.13-1.84-.4-2.45-.53 2.23-4.54 6.76-8.72 5.57-14.21.71.02 2.15.06 2.87.08 4.18-9.87 10.79-18.43 16.54-27.41 2.88-4.81 5.79-9.59 8.68-14.4 3.99-6.51 8.93-12.42 12.65-19.1 1.02-1.67.79-3.64.36-5.44-5.07-9.01-10.18-18-14.79-27.27-2.49-4.37-5.25-8.58-7.61-13.02-3.52 1.73-6.88 3.82-10.59 5.12l-.88.2c1.48-1.07 2.99-2.09 4.44-3.22 3.38-.61 6.14-2.98 9.63-3.23 11.37-1.85 22.74-3.75 34.07-5.86 4.07-.89 8.39-.23 12.35-1.72m-25.36 48.12c-.86 1.2-.62 1.91.74 2.14.86-1.2.62-1.92-.74-2.14z" fill="#8d8d8d"/><path d="m174.87 154.18c.41-1.27 1.29-2.72 2.83-2.16 1.38.1 2.75.24 4.13.38 4.5 1.73 9.3 2.53 14.03 3.36-.13.45-.39 1.34-.51 1.79 4.78 2.01 9.32 4.68 14.47 5.68-.95.96-1.9 1.92-2.84 2.88-1.58.1-3.15.2-4.73.3.04.95.07 1.91.11 2.87 1.12.64 2.24 1.29 3.37 1.95-1.8.49-3.61.96-5.41 1.42.02.43.07 1.3.1 1.73.63.24 1.9.72 2.54.96-3.05 1.29-6.63 2.03-8.66 4.9-.48.02-1.43.04-1.91.05-.31.35-.92 1.05-1.23 1.4-2.53-.06-5.16-.1-7.44 1.18-4.22 2.07-9.11.65-13.48 2.13-3.24 1.05-6.65 1.32-9.98 1.98-3.82.72-7.28 2.94-11.26 2.84-5.26-.01-10.1 2.7-15.42 2.31.84-1.05 1.7-2.08 2.64-3.04.78-.48 1.38-1.14 1.77-1.97.52-.39 1.57-1.16 2.09-1.55.62-.79 1.32-1.51 2.1-2.15.07-.06.22-.19.3-.26 1.36-1.02 2.44-2.34 3.45-3.69l-.17-.62 2.4-.64c-.19-.41-.57-1.22-.76-1.63 1.4.16 3.33-.17 2.23-1.97 2.1.58 3.68-.91 5.18-2.16 1.52-1.23 3.01-2.5 4.29-3.98.88-1.28 1.6-2.86 3.5-2.72.14-.89.29-1.77.43-2.65 1.19-.46 2.37-.94 3.56-1.43 1.4-1.58 2.65-3.55 4.77-4.21 1.64-.47 3.09-1.56 3.51-3.28z" fill="#8d8d8d"/><path d="m311.8 187.53c2.35.43 4.72.86 6.94 1.76 3.17 1.27 6.71.29 9.93 1.35 6.76 2.77 14.21.5 21.23 1.75 3.48 1.27 6.94 2.65 10.6 3.38-5.23.51-10.5-.04-15.71.59 2.35.48 4.74.75 7.15.93-.02 1.96-.06 3.92-.14 5.89-3.12 1-3.25 4.02-2.95 6.81-.66 4.75 5.25 6.89 9.06 5.78.09-2.05-2.51-1.65-3.79-2.34-.21-5.07-.16-10.14.04-15.21 2.09 0 4.95-1.96 6.54.02.74 5.63.25 11.33-.2 16.97.8.64 1.59 1.3 2.36 1.99.59 3.04-2.22 5.07-3.9 7.16-2.42-1.29-5.13-2.29-6.93-4.45-2.51-2.88-5.89-4.72-9.19-6.52-.63-1.65-1.2-3.55-3.06-4.18-5.37-2.67-10.62-5.81-14.82-10.15-1.21-1.63-3.39-.74-5.09-.89 2.85 3.2 6.52 5.45 9.82 8.13 6.73 5.25 13.4 10.58 20.37 15.5 6.08 5.01 12.21 9.95 18.63 14.52-.54 8.17-.52 16.38-.97 24.56-.37 5.91 1.64 11.94-.26 17.74-2.13-2.19-4.22-4.42-6.36-6.59-.79.79-1.56 1.59-2.34 2.39-2.92-6.21-7.68-11.28-10.61-17.48-6.39-10.83-13.14-21.44-19.94-32.01-2.45-3.69-4.03-7.91-6.88-11.34-4.96-7.62-9.71-15.38-14.35-23.2l-.3-1.44c2.75 1.89 5.7 3.51 8.96 4.35-.28.3-.85.91-1.13 1.22 1.51 1.16 3.03 2.33 4.57 3.46.5-1.81.78-3.68.9-5.56-2.25-.18-4.66.23-6.77-.69-.65-1.34-1-2.79-1.41-4.2z" fill="#8d8d8d"/><path d="m109.7 252.58c.22-1.3.99-2.15 2.31-2.56-1.07 3.62-2.24 7.21-3.33 10.83 5.27 3.3 10.19 7.1 15.41 10.48.15 1.35.29 2.72.42 4.09 4.25 1.74 8.39 4.07 11.13 7.87 4.62 1.68 8.22 5.04 12.13 7.88 4.35 2.77 7.43 7.08 9.93 11.5-1.9 2.23-2.27 4.99-1.37 7.75-1.59.56-3.18 1.15-4.72 1.84-6.83 1.05-13.76-.03-20.62.46-1.36.03-2.61.42-3.76 1.15 5.76.9 11.6.4 17.41.55-1.97 2.11-4.99 1.63-7.58 1.73-6.58-.07-13.18-.23-19.73.55-.85.1-1.54.52-2.06 1.26-2.9-4.97-2.11-10.97-3.16-16.43-.05-.63-.15-1.87-.2-2.5-.48 0-1.45-.02-1.93-.03 0-1.33 0-2.67 0-3.99l.99-.07c-1.02-6.43-.58-13.11-2.39-19.39-2.24-7.37.51-15.26.15-22.82.25-.03.73-.11.97-.15z" fill="#8d8d8d"/><path d="m376.25 346.19c.53.64 1.07 1.29 1.62 1.94 3.69-.08 7.39-.06 11.08.21 1.18 2.95 4.58 1.55 6.94 1.36 2.94.92 5.89 1.92 8.99 2.16-.16.47-.47 1.43-.62 1.9 4.39-.09 7.7 2.71 10.86 5.36.03 16.26.19 32.52-.09 48.78-.88-.5-1.75-.99-2.61-1.48.35 6.26-5.57 10.8-5.19 17.18-2.19 4.72-4.63 9.33-7.14 13.88l-.82 1.44c-1.76-7.52-3.59-15-5.87-22.38-2.43-14.87-8.45-28.86-10.9-43.71-1.74-5.27-2-10.89-3.91-16.11-.67-2.01-.94-4.12-1.2-6.21-1.42.39-2.89.47-4.31.05 1.46-1.14 2.71-2.54 3.17-4.37z" fill="#8d8d8d"/><path d="m308.52 415.48c.67.98 1.32 1.98 1.98 2.98 1.18.27 2.35.55 3.53.83.13 1.61-.54 2.82-2.07 3.48 2.78 5.21 3.76 11.6 8.2 15.78.74 5.47 3.85 10.19 5.64 15.34-.7.13-2.1.39-2.8.52.71 1.41 1.4 2.82 2.09 4.25-3.02.64-4.32-2.05-4.89-4.55-.61 4.26 1.8 7.93 2.8 11.89-.24 3.65-1.03 7.35.03 10.97 1.44 5.69.83 11.77 3.02 17.3-4.27-4.55-8.7-8.97-12.34-14.03-3.58-2.28-6.44-5.35-8.84-8.82-.82 1.97-2.19 4.99.22 6.41 2.85 2.78 8.24 4.35 7.9 9.15.07 4.95-1.07 9.82-1.33 14.76-3.46.2-7.34-.45-10.18 2-3.33-1.58-6.96-2.44-10.64-1.72-.28-.38-.83-1.14-1.11-1.52-6.76.89-12.19-4.08-18.03-6.59.13 1.52.25 3.04.37 4.58-2.08-2.59-3.05-6.17-6.24-7.69-.57 4.95 5.01 7.66 4.74 12.68.74.04 1.49.09 2.24.14.8 3.12 2.42 5.92 3.92 8.74-2.08 1.29-.44 3.48-.52 5.33-.15 1.11-.48 2.2-.76 3.3.61 2.56 1.57 5.07 1.75 7.72-1.02 2-3.48 2.51-5.38 3.34-5.61.11-11.23-.06-16.84-.02-.45 0-1.35-.01-1.8-.01-.08-4.73 2.59-8.71 3.96-13.07 1.98-5.39 4.13-10.78 4.87-16.51 2.91-4.57 3.56-10.26 2.33-15.48-.66-5.39-2.62-10.55-2.9-15.99-.15-4.46-1.88-8.62-2.64-12.97-1.14-5.44-1.23-11.06-2.8-16.41-1.98-6.85-2.49-14.01-4.17-20.93 2.6-.38 5.21-.68 7.83-.94-.13-.43-.39-1.31-.53-1.75 4.3-.06 8.6-.31 12.9-.23 5.38.07 10.88.71 16.15-.74 6.66-1.77 13.59-.52 20.34-1.52m-52.25 7.71c-.75 1.28-.97 2.77-1.26 4.2 1.3.48 2.9.5 3.91 1.57 2.9 2.82 5.84 5.64 8.02 9.09.82-.09 2.44-.25 3.26-.34-1.63-4.47-6.54-6.14-8.8-10.17-1.48-1.61-2.66-4.26-5.13-4.35m15.36 20.32c5.18 1.61 8.14 6.84 11.35 10.89.79-.16 2.38-.47 3.17-.63-1.5-3.9-5.7-5.62-8.08-8.86-1.89-2.6-4.16-4.87-6.88-6.59-1.43 1.65-.37 3.54.44 5.19z" fill="#8d8d8d"/><g fill="#e3e3e3"><path d="m295.78.9c1.72-.26 4.85 1.42 5.04 3.13-1.75-.63-3.72-1.04-5.03-2.48z"/><path d="m283.24 3.01c1.02-.21 2.04-.42 3.06-.64-2.01 2.25-3.89 4.61-5.52 7.14.23-2.36 1.64-4.33 2.46-6.5z"/><path d="m109.41 54.54c1.94-.22 3.88-.45 5.84-.57-4.04 1.29-7.59 4.27-9.13 8.27-.58 2.44-.66 4.96-1.08 7.43-1.09-2.79-1.35-5.78-1.1-8.74.44-.1 1.3-.29 1.73-.39.14-1.23.81-2 2.02-2.3.6-1.22 1.17-2.45 1.72-3.7z"/><path d="m120.8 53.97c2 .12 4.08.45 5.03 2.48.35-.02 1.06-.06 1.41-.07.19.72.55 2.15.73 2.87-2.16-2.05-4.55-3.86-7.17-5.28z"/><path d="m451.33 54.64c1.31-.23 2.64-.45 3.97-.67-4.91 1.47-7.64 6.05-10.51 9.92-3.79 5.54-7.68 11.03-11.66 16.43-5.31 7-9.92 14.51-15.35 21.42.08-.82.17-1.64.26-2.46 1.6-.79 2.96-2.54 2.75-4.41.41-.1 1.22-.31 1.62-.41.61-2.22 2.36-3.83 3.32-5.89.57-1.36 1.13-2.74 1.45-4.19 1.46-1.64 1.93-4.4 4.79-3.71 1.53-2.28 2.68-4.86 4.76-6.71.01-.33.02-.99.02-1.32.27.02.8.04 1.07.05-.33-1.89 1.86-1.95 2.38-3.36.87-1.32 1.37-2.84 1.76-4.37 2.08 0 2.88-2.61 2.85-4.35.32.03.95.1 1.27.14l-.14-1.53c1.43-.37 2.99-1.11 3.06-2.8.34.09 1.03.28 1.37.37.24-.54.72-1.61.96-2.15z"/><path d="m462.17 54.07c1.47.12 4.78.49 4.06 2.64-1.25-.39-2.47-.83-3.67-1.31-.1-.33-.29-1-.39-1.33z"/><path d="m469.08 58.55c.15.11.44.34.58.46 2.37 4.5 1.36 10.64-1.58 14.66 2.71-4.67 2.17-10.09 1-15.12z"/><path d="m128.46 60.44c1.61.3 4.08-.21 3.89 2.19.36.08 1.1.24 1.47.31.48 2.33 1.06 4.64 1.49 6.98-2.23-3.19-4.73-6.2-6.85-9.48z"/><path d="m105.79 70.11c3.66 5.31 7.73 10.38 11.04 15.93-.6-.16-1.79-.48-2.38-.64.1-.38.29-1.13.39-1.51-1.87-1.68-2.78-4.62-5.52-5.03-1.39-2.8-3.42-5.51-3.53-8.75z"/><path d="m135.47 70.14c3.1-.2 2.74 3.64 4.93 4.92l-.38.91c-1.65-1.83-3.22-3.75-4.55-5.83z"/><path d="m280.71 69.93c2 4.22 5.41 7.66 9.91 9.14-1.54-.03-3.08-.05-4.62-.07-.02-.56-.07-1.7-.09-2.27-.82.27-1.6.55-2.4.83.16-.56.5-1.67.67-2.22-.5-.06-1.5-.18-1.99-.24-.6-1.69-1.21-3.39-1.48-5.17z"/><path d="m298.8 77.17c2.11-1.36 3.78-3.27 5.1-5.38-.44 1.78-1.33 3.38-2.1 5.03-2.24-.19-3.61 2.48-5.57 2.26l-.88-.48c1.14-.48 2.32-.92 3.45-1.43z"/><path d="m148.05 88.04c-2.65-3.85-5.82-7.38-7.75-11.69 2.15.38 2.25 3.01 3.84 4.11 1.13.36 1.89 1.09 2.27 2.19 2.77-.01 1.46 3.58 2.07 5.35 1.17.99 2.06 2.4 3.57 2.9.38 1.23.79 2.45 1.23 3.65-2.03-1.93-3.64-4.22-5.23-6.51z"/><path d="m447.99 101.42c3.53-5.3 6.8-10.86 11.26-15.45.19 2.17-1.3 3.72-2.37 5.42-.28-.12-.84-.37-1.12-.49-1.41 2.4-2.19 5.31-4.5 7.06-.01.33-.05 1.01-.07 1.35-.26-.06-.79-.17-1.05-.23l-.27 1.75c-.47.15-1.41.44-1.88.59z"/><path d="m117.39 86.94c3.7 3.39 5.6 8.15 8.76 11.97 4.46 5.53 8.3 11.52 12.49 17.26 2.4 3.21 6.19 5.85 10.37 5.4 7.25 0 13.02-7.46 11.33-14.51.43-.03 1.3-.09 1.74-.12-.23 1.52.42 3.42-.92 4.57.15 2.19-.93 4.05-1.8 5.97-1.07.84-2.15 1.67-3.29 2.4.09.34.29 1.03.38 1.38-1.69-.37-2.58.24-2.67 1.85-4.02.33-8.04.02-12.06.14.06-.52.17-1.57.23-2.09-.62.06-1.86.17-2.48.23.18-.46.53-1.39.71-1.85-1.69-.36-1.71-2.63-3.82-2.3.22-.48.66-1.43.88-1.91l-1.67.13c.11-.47.32-1.4.42-1.87-.53-.12-1.59-.36-2.13-.47l.23-1.72c-.4-.01-1.21-.05-1.62-.06.2-.46.6-1.38.79-1.84l-1.43.02c.13-1.62-.6-2.42-2.18-2.38.13-.41.38-1.22.51-1.62l-1.44.08c-.12-1.27-.24-2.53-.37-3.79-.73-.14-2.19-.4-2.92-.54.18-.41.54-1.24.72-1.66l-1.21-.3c-.38-1.43-1.59-2.32-2.45-3.44-2.51-2.32-3.8-5.8-5.1-8.93z"/><path d="m435.42 118.39c4.4-5.23 7.72-11.27 12.19-16.45-.13 1.18-.25 2.36-.35 3.55-.28-.06-.83-.17-1.11-.23.08 1.31-.53 2.06-1.82 2.25-1.12 3.58-4.55 5.71-5.6 9.33-1.99.5-2.3 2.75-2.84 4.4-.37 0-1.13.01-1.5.01.17 2.79-2.72 1.67-4.48 1.9-2.49-.34-6.01 1.06-7.56-1.57 4.44-.09 9.82.59 13.07-3.19z"/><path d="m295.75 120.06c4.58.02 9.11.95 13.7.92.23.22.69.65.92.86-4.88-.56-9.8-.8-14.62-1.78z"/><path d="m311.52 122.03c5.49.32 10.95.91 16.45.97l.05.92c-5.51-.56-11.06-.79-16.5-1.89z"/><path d="m358.98 131.04c2.17.73 4.58 1.62 6.54 2.96.9.46 1.87.86 2.51 1.7 1.45.68 3.38.8 4.33 2.29-1.09-.36-2.17-.73-3.24-1.12-3.52-1.69-6.78-3.86-10.14-5.83z"/><path d="m208.58 134.55c1.51-.31 3.03-.61 4.42-1.31-10.36 5.95-21.13 11.15-31.76 16.6 4.39-4.3 10.88-5 15.47-9.03 2.9-.54 5.41-2.08 7.81-3.72 1.34-.91 3.53-.72 4.06-2.54z"/><path d="m379.65 142.38c1.35.44 2.72.5 4.09.17l-.94 1.12c1.44 1.11 3.23 1.31 4.99 1.43.48 2.92 5.55.83 5.47 4.6-4.72-2.08-9.16-4.74-13.61-7.32z"/><path d="m397.75 152.34c1.27.26 2.55.52 3.84.79.92.78 1.91 1.52 2.97 2.15 2.24 1.83 5.17 2.72 7.11 4.91 1.16 1.09 1.93 3.74 3.83 2.23-1.39 2.3 1.26 4.23 3.24 4.82.6 1.31 1.35 2.55 2.15 3.76 2.71 4.02 7.1 6.61 9.37 10.96-5.25-4.14-8.77-9.99-13.59-14.56-.6-.29-1.2-.57-1.8-.85-2.37-7.65-11.07-10.13-17.12-14.21z"/><path d="m172.05 155.24c.81-.82 1.75-1.17 2.82-1.06-.42 1.72-1.87 2.81-3.51 3.28.18-.55.52-1.67.69-2.22z"/><path d="m156.22 169.02c.96-.18 1.92-.36 2.88-.55-1.28 1.48-2.77 2.75-4.29 3.98.48-1.14.95-2.28 1.41-3.43z"/><path d="m433.25 186.2c1.87-.83 3.31 2.13 3.18 3.65-1.48-.42-2.39-1.75-3.05-3.03z"/><path d="m5.08 194.88c4.3-3.95 10.55-2.03 15.78-1.95 1.27-.07 1.43 2 2.86 1.68 1.79.3 3.68.47 5.21 1.56-3.27.7-6.16-1.34-9.19-2.18-4.76-1.78-10.98-1.84-14.66 2.16-2.96 2.94-4.68 7.62-3.11 11.66.78 2.19 2.03 4.17 3.2 6.18l1.59-1.59c.04.61.12 1.84.16 2.45 2.75 1.2 5.54 2.3 8.4 3.21-2.33-.33-4.66-.65-6.99-.99-.4-2.25-2.76-2.89-4.55-3.64-.82-2.51-2.13-4.84-2.84-7.38-.49-4.22 1.98-7.82 4.14-11.17z"/><path d="m438.56 192.32c1.69-.4 4.34 1.78 3.35 3.55-1.41-.86-2.82-1.91-3.35-3.55z"/><path d="m554.29 192.96c4.63-.16 9.41-1.03 13.97.06 1.73 1.43 3.57 2.79 4.96 4.57.8 2.23 1.11 4.61 1.78 6.89v3.37c-1.72 1.36-2.03 3.67-2.87 5.57-1.88.72-4.01 1.36-4.62 3.57-2.26.34-4.53.65-6.77 1.07 5.05-1.97 11.65-3.58 12.94-9.77l-1.4-1.67c.68.25 2.03.76 2.71 1.01-.74-4-.68-9.49-5.02-11.43-1.57-3.65-6.17-3.08-9.38-2.96.32.81.65 1.63.97 2.46-1.35.08-2.69.09-4.03.14 1.07-.61 2.2-1.26 2.41-2.59-5.45.69-10.3 3.45-15.58 4.75.99-.66 2.09-1.13 3.2-1.58.96-3.17 5.86-.2 6.73-3.46z"/><path d="m536.18 198.37c2.7.57 5.46.23 8.14-.35-2.95 1.18-5.97 2.18-8.77 3.7-2.58.69-5.16 1.36-7.75 1.99.28-.2.84-.6 1.12-.8 1.43-.43 2.88-.76 4.34-1.15.16-.33.47-1 .62-1.33.98-.03 2.95-.08 3.93-.11-.41-.49-1.22-1.47-1.63-1.95z"/><path d="m445.83 200.61c1.45-.55 3.57 1.23 3.13 2.78-.33-.03-.98-.09-1.31-.12-.7-.83-1.31-1.72-1.82-2.66z"/><path d="m542.48 224.26c6.09-1.94 11.95-4.58 18.15-6.16-1.54 1.19-3.5 1.46-5.32 1.95-.16.26-.47.78-.63 1.04-1.91.16-3.71.72-5.27 1.82-2.19.51-4.95.23-6.4 2.28-3.33.89-6.92 1.73-9.63 3.95-8.63-.45-15.77 6.59-24.48 5.06 7.93.2 14.96-4.07 22.46-5.99 3.71-1.3 7.41-2.63 11.12-3.95z"/><path d="m40.9 227.09c.27-.01.79-.01 1.05-.02 2.18.89 4.34 1.85 6.56 2.64-2.46-.94-7.25 1.16-7.61-2.62z"/><path d="m466.04 260.72c1.45.62 1.7 1.65.75 3.09-.34-.25-1.04-.74-1.39-.99.16-.52.48-1.57.64-2.1z"/><path d="m112.11 301.53c1.05 5.46.26 11.46 3.16 16.43.99 1.93 1.92 3.87 2.76 5.88.74-1.75 2.19-6.13 2.78-.87l1.33-.14c-1.3.49-2.58 1.04-3.88 1.55 3.3 6.18 6.14 12.58 9.34 18.8-1.05-.42-2.7-.89-2.81-2.24-.49-2.78-2.26-5.08-3.12-7.73-.27.06-.83.18-1.11.24.16-.53.47-1.6.63-2.14l-1.23-.11c-.01-2.2-2.31-3.46-2.18-5.71-.88-.21-1.76-.38-2.63-.58l1.96-.2c.52-2.48-.85-3.62-3.08-3.88-.07-1.81-.17-3.62-.31-5.42l-1.08.13c.53-4.69-1.08-9.32-.53-14.01z"/><path d="m456.73 327.67c2.1-4.66 4.45-9.2 6.91-13.68-.35 1.58-.55 3.18-.72 4.79-2.53.74-2.72 3.91-3.06 6.1-.44.25-1.31.76-1.74 1.01-.06.66-.17 2-.22 2.66-.29.61-.87 1.84-1.16 2.45-.34.14-1.01.42-1.34.55.45-1.29.86-2.6 1.33-3.88z"/><path d="m127.89 343.79c5.2 11.14 10.91 22.03 15.9 33.27-.68-.02-2.04-.05-2.72-.06.06-2.27-.73-4.39-1.37-6.52-1.32-1.62-1.07-6.04-3.98-5.06.09-.58.26-1.73.34-2.3-.35.1-1.06.3-1.41.4.6-2.02-1.06-3.8-.86-5.85-.43-.14-1.28-.43-1.71-.57-.42-2.71-.54-6.6-3.17-7.97-.33-1.79-.71-3.56-1.02-5.34z"/><path d="m435.49 371.89c1.26-2.9 2.77-5.68 4.5-8.33-.86 4.76-5.49 8.09-5.16 13.11-2.21 1.85-3.91 4.06-4 7.04-1.89 1.23-3.39 2.67-2.9 5.15-2.29.14-1.86 2.29-2.02 3.9-1.37.45-2.17 1.65-3.02 2.72 1.06-2.38 2.25-4.69 3.53-6.95 2.2-3.92 4.2-7.93 6.38-11.85.65-1.4 1.76-2.92 1.01-4.53.42-.07 1.26-.2 1.68-.26z"/><path d="m416.89 405.93c1.35-2.62 2.92-5.11 4.52-7.57-.02 1.59-1.01 2.88-1.66 4.26-.25.58-.74 1.74-.99 2.32-.47.24-1.4.74-1.87.99z"/><path d="m156.47 404.9c-.01-.71-.03-2.14-.04-2.86 1.87 5.31 4.37 10.37 6.19 15.69-2.61-.8-2.15-4.06-2.68-6.14l-.66-.23c-.46-.16-1.37-.48-1.83-.64-.82-1.92-1.74-3.8-2.73-5.63.44-.05 1.31-.14 1.75-.19z"/><path d="m409.79 419.93c.96-2.93 2.31-5.77 4.44-8.03-1.3 2.76-2.49 5.64-4.44 8.03z"/><path d="m162.67 418.09c1.93 1.53 2.51 4.29 3.53 6.5 5.59 13.15 12.12 25.89 17.55 39.11l-1.57-.59-.27-1.71c-.32-.02-.95-.07-1.27-.09.12-.47.35-1.4.47-1.87l-1.19-.02c-.77-5.01-3.16-9.5-5.24-14.05-.39-.07-1.17-.21-1.56-.28-.99-2.52-1.48-5.18-2.26-7.76-.32.06-.97.17-1.3.22.28-3.72-2.81-6.71-3.93-10.14-.49-.92-.98-1.84-1.47-2.75-.05-2.31-1.3-4.3-1.49-6.57z"/><path d="m407.23 423.6c.52-.56 1.55-1.69 2.06-2.26-1.92 4.56-4.31 8.91-6.58 13.29-.25.58-.73 1.74-.97 2.32-.41.14-1.24.4-1.65.53 2.51-4.55 4.95-9.16 7.14-13.88z"/><path d="m183.77 463.74c3.06 5.69 5.69 11.65 7.66 17.8-2.38-1.88-3.72-5.14-3.74-8.16l-.86.01c-.13-1.74.44-4.17-2.2-3.93-.16-1.94-1.09-3.75-.86-5.72z"/><path d="m191.97 483.54c2.96 6.02 4.91 12.45 7.51 18.63 2.56 7.84 6.4 15.24 8.35 23.27-.42-.13-1.28-.41-1.71-.54-1.02-2-1.48-4.14-1.38-6.38-.76-1.67-1.35-3.39-1.97-5.11-1.36-2.47-3.17-4.88-3.11-7.84-.87-3.32-2.48-6.4-3.2-9.76-2.48-1.51-1.57-5.11-3.28-7.3-.45-1.65-1.11-3.26-1.21-4.97z"/><path d="m369.21 516.95c.71-2.67 1.53-5.3 2.77-7.77-.49 2.98-1.54 5.83-2 8.82z"/><path d="m230.63 532.01c1.58-.01 3.15-.01 4.73.01-.69 1.78-3.97 1.64-4.73-.01z"/><path d="m249.17 532.16c.18 0 .55-.02.73-.03.61-.02 1.82-.06 2.42-.08-.42 2.08-2.66 1.08-4.11 1.28.24-.29.72-.88.96-1.17z"/><path d="m254.98 532.03c5.61-.04 11.23.13 16.84.02 5.51-.09 11.01.35 16.52.22 10.4-.28 20.8.1 31.2.18 10.5.26 21.01.08 31.51.11 1.64.01 3.25.4 4.84.82-24.96-.02-49.93.14-74.88-.35-8.97.18-17.95-.17-26.91.31z"/></g><path d="m295.79 1.55c1.31 1.44 3.28 1.85 5.03 2.48 1.09.71 2.09 1.56 3.14 2.33.61 2.68 1.14 5.4 1.09 8.16-.09 18.32.07 36.63-.12 54.95v.23c-.26.52-.77 1.57-1.03 2.09-1.32 2.11-2.99 4.02-5.1 5.38-.76-1.95.94-3.39 1.56-5.05-.67-1.63-1.41-3.28-1.26-5.08-.01-11.36.39-22.71.1-34.07-.24-6.14.77-12.4-.35-18.45-.44-.26-1.31-.78-1.74-1.04.7-.92 1.44-1.81 2.17-2.71-1.05-1.89-2.13-3.76-3.23-5.62.43.03 1.29.08 1.72.1-.7-1.21-1.4-2.42-1.98-3.7z" fill="#6d6d6d"/><path d="m295.78 19c.1-1.89-.09-4.02 1.33-5.52.43.26 1.3.78 1.74 1.04 1.12 6.05.11 12.31.35 18.45.29 11.36-.11 22.71-.1 34.07-.15 1.8.59 3.45 1.26 5.08-.62 1.66-2.32 3.1-1.56 5.05-1.13.51-2.31.95-3.45 1.43-.64-.38-1.93-1.15-2.57-1.53 1.26-.63 2.54-1.25 3.83-1.85-.12-4.4.12-8.8.2-13.19.11-6.04-1.39-12-1.01-18.05.09-4.28 1.38-8.53.74-12.82-.58-4.03-.91-8.09-.76-12.16z" fill="#818181"/><path d="m462.22 247.75c1.42 3.12 2.12 6.53 2.69 9.9-1.32-3.18-2.18-6.51-2.69-9.9z" fill="#818181"/><path d="m308.04 311.97c2.28-1.89 5.2-2.81 8.08-1.67-3.96 2.11-8.35 3.39-11.9 6.25-1.42-.3-2.85-.61-4.26-.93 2.21-2.17 5.74-1.63 8.08-3.65z" fill="#818181"/><path d="m404.88 351.86c3.67-.02 6.91 1.84 10.42 2.61 1.79 1.43 3.81 2.56 5.89 3.54.56-.1 1.7-.31 2.26-.42.39 3.9 2.69 7.03 4.42 10.39-2.67 4.26-3.77 9.91-1.64 14.6-.82 2.03-1.6 4.08-2.34 6.15.63-.05 1.9-.15 2.53-.2-1.28 2.26-2.47 4.57-3.53 6.95-.25.52-.76 1.57-1.02 2.09-.04.07-.11.2-.14.26l-.32.53c-1.6 2.46-3.17 4.95-4.52 7.57-.98 1.95-.98 4.39-2.66 5.97-2.13 2.26-3.48 5.1-4.44 8.03-.13.35-.37 1.06-.5 1.41-.51.57-1.54 1.7-2.06 2.26-.38-6.38 5.54-10.92 5.19-17.18.86.49 1.73.98 2.61 1.48.28-16.26.12-32.52.09-48.78-3.16-2.65-6.47-5.45-10.86-5.36.15-.47.46-1.43.62-1.9z" fill="#818181"/><path d="m279.97 15.97c.16-.44.5-1.31.66-1.74.79 11.23.14 22.52.35 33.77-.21 7.22.49 14.49-.42 21.67-.17-.66-.5-1.99-.67-2.66.02-17.01-.16-34.03.08-51.04z" fill="#d7d7d7"/><path d="m305.05 14.52c1.61.9.74 3.03 1 4.5 0 14.49-.05 28.99.01 43.49 1.86 1.86 1.45 5.8-1.13 6.96.19-18.32.03-36.63.12-54.95z" fill="#e2e2e2"/><path d="m115.25 53.97c1.85-.07 3.7-.06 5.55 0 2.62 1.42 5.01 3.23 7.17 5.28l.49 1.19c2.12 3.28 4.62 6.29 6.85 9.48l.16.22c1.33 2.08 2.9 4 4.55 5.83.07.1.21.29.28.38 1.93 4.31 5.1 7.84 7.75 11.69 1.59 2.29 3.2 4.58 5.23 6.51.85.82 1.77 1.57 2.61 2.4 1.62 1.64 1.23 4.67 3.69 5.53.47 1.48.56 3.05.76 4.58 1.69 7.05-4.08 14.51-11.33 14.51-4.18.45-7.97-2.19-10.37-5.4-4.19-5.74-8.03-11.73-12.49-17.26-3.16-3.82-5.06-8.58-8.76-11.97l-.18-.19-.38-.71c-3.31-5.55-7.38-10.62-11.04-15.93-.19-.11-.57-.33-.75-.44.42-2.47.5-4.99 1.08-7.43 1.54-4 5.09-6.98 9.13-8.27z" fill="#8c8c8c"/><path d="m280.87 119.9c3.84 1.34 7.15 3.9 11.15 4.86 5 3.44 10.78 5.44 16.15 8.19 2.99 1.71 5.9 3.56 9.09 4.88 6.37 2.66 12.09 6.69 18.69 8.83 2.31.64 3.55 2.79 4.9 4.58 3.8-.11 7.19 1.69 10.44 3.45.26.54.79 1.62 1.05 2.16.73-.27 1.46-.55 2.19-.84 2.08 1.5 4.27 2.87 6.62 3.95 6.58 2.91 12.44 7.19 19.1 9.94 9.07 4.82 17.96 9.96 27.3 14.24 9.57 5 19.6 9.22 28.78 14.93-1.11.87-2.19 1.74-3.29 2.61-4.75-1.78-9.7-2.9-14.65-3.96.11-1.33.22-2.66.34-3.98-1.28.58-2.55 1.16-3.81 1.75-.47-.19-.92-.38-1.37-.57-4.02 1.58-8.98 2.15-12.66-.53-.55.33-1.08.66-1.61.99-.45-.12-1.34-.37-1.79-.49-2.65-.77-5.43-.93-8.17-1.02.97-.84 1.94-1.69 2.89-2.55-5.42.42-10.47 3.1-16.01 2.55.47-.54.94-1.07 1.42-1.6-3.04 0-6.22.32-9.07-.97-5.07-2.33-10.83-.4-16.04-2.12-5.45-1.83-11.4-.63-16.85-2.57-5.53-1.92-11.93-.92-16.89-4.36-.61.65-1.21 1.3-1.81 1.95-4.24-.56-8.51-.54-12.77-.29.44-.52.89-1.03 1.33-1.55-.51-.23-1.52-.69-2.03-.92-2.05-4.25-3.02-8.88-4.6-13.29-2.24-4.5-3.92-9.24-5.02-14.13-.41-2.33-2.61-3.63-4.1-5.23-.34-.33-.68-.65-1.02-.97-.82-.05-1.63-.09-2.44-.12-.93-3.71-1.28-7.81-3.63-10.96-.44-.01-1.3-.03-1.74-.04-2.85-3.09-3.84-7.31-2.84-11.36-.38-1.44-.76-2.87-1.18-4.29 1.15 1.63 2.76 2.82 4.72 3.28-.24-1.48-.51-2.96-.77-4.43z" fill="#8c8c8c"/><path d="m200.53 255.09c.93-.31 1.86-.61 2.8-.9.08.42.24 1.28.33 1.71 7.09-1.08 13.75 2.44 20.81 1.73 10.03.6 19.51 4.84 29.61 4.84 1 .01 1.76.49 2.28 1.46-2.97.21-5.97.21-8.92.69-2.19.88-1.98 3.38-1.99 5.31-1.67-.02-3.34-.04-5.01-.05-.3-1.21-.59-2.42-.88-3.63-2.15-.15-4.32-.18-6.42-.62-1.63-.9-2.88-2.33-4.23-3.57-2.94-.04-5.86.01-8.79.09 1.66 1.86 3.14 3.91 5.06 5.53 2.45.59 5.37-.12 7.43 1.66 2.55 1.96 4.96 4.23 8.08 5.29 4.8 2.19 10.19 1.11 15.28 1.41 7.6.29 15.23-.59 22.81.23.03.37.11 1.1.14 1.47-7.29.79-14.64.05-21.95.23-1.42 1.94-3.24 3.96-2.73 6.57 6.12.53 11.54-3.36 17.62-2.4.01 1.83.02 3.67.04 5.51-1.51.19-3.02.39-4.53.59-.42 1.62-.84 3.26-1.25 4.89 1.52.87 3.06 1.73 4.6 2.58 2.13-1.39 5.18-2.88 7.38-.75 2.41 1.51.95 4.57 1.01 6.84.52-.48 1.05-.96 1.58-1.44.17.95.35 1.9.54 2.85 3.28.4 6.96 2.16 6.93 6-5.22-2.82-10.87-5.09-15.16-9.32-.43.31-1.28.93-1.7 1.24.35 1.44.71 2.89 1.07 4.34 2.53.68 4.97 1.78 6.62 3.89 5.61 1.01 10.81 3.44 15.99 5.74.52.93 1.01 1.9 1.44 2.9-14.75-.34-29.46-1.45-44.19-2.19-5.71-.9-11.47-.24-17.21-.48-10.93-1.13-21.93-1.98-32.94-1.71-5.01.2-9.87-1.31-14.86-1.43-.45-.43-1.36-1.31-1.81-1.74-1.76.16-3.52.34-5.28.49 1.19-6.6 3.66-12.85 5.56-19.25 2.86-5.69 3.49-12.12 5.79-18.02.56-2.55 1.73-4.87 3.89-6.41.68-3.65 1.23-7.32 1.78-10.99 1.12-.41 2.25-.8 3.38-1.18z" fill="#8c8c8c"/><path d="m347.21 296.99c2.31-1.31 3.85-3.55 5.9-5.18 1.6-.17 3.21-.05 4.82 0-1.38 5.84-4.82 10.87-6.77 16.51-1.68 4.42-5.55 7.81-6.33 12.6-1.38 7.45-6.33 13.64-7.75 21.1-.75 4.93-4.74 8.37-6.13 13.04-2.23 7.34-6.55 13.81-8.65 21.21-.96 3.95-4.64 6.04-8.02 7.68.01 1.56.04 3.14.06 4.71.47-.41 1.42-1.25 1.89-1.66.98 6.11-5.21 10.81-4.01 16.89l.8.72c2.27-4.32 3.72-9 5.74-13.43-.15-1.01-.26-2.03-.33-3.04.75-.48 1.59-.77 2.41-1.08 4.22-9.63 7.79-19.54 12.17-29.09 1.65-4.56 4.27-8.7 5.73-13.32 1.39-4.82 4.17-9.05 5.94-13.72 3.44 6.09 3.9 13.28 3.03 20.09.24 5.63-.48 11.26.03 16.88-.52 1.21-1.05 2.42-1.53 3.65.45.17 1.37.51 1.83.68-3.72 3.9-7.74 7.52-11.2 11.65-5.28 6.38-12.19 11.29-16.84 18.21 1.19.21 2.37.49 3.59.59 2.16-2.92 3.91-6.31 7.43-7.83 1.31-3.07 3.23-5.81 5.53-8.22 1-.35 2-.7 3.01-1.05 1.59-2.74 3.98-4.79 6.51-6.6 3.07-2.26 3.92-6.5 7.21-8.51 4.1-2.19 5.77-7 9.86-9.27 1.66-3.17 3.89-6.07 7.02-7.92.22 3.44.27 6.88.27 10.32.25.01.75.02 1 .02.31-3.29.62-6.57.89-9.86 1.34-.29 2.67-.57 4.01-.85-.12 3.36-.51 6.71-.34 10.07.91 8.65 1.09 17.36 1.1 26.06.96 13.62.3 27.29.65 40.93-.29 7.9.53 15.78.57 23.67-2.05 8.18 1.52 16.84-1.23 24.82-.46-2.73-.57-5.5-.51-8.26-.35.01-1.06.02-1.42.02.35 3.61-.06 7.25-1.88 10.46-4.84-6.1-10.94-10.99-16.27-16.63-4.24-3.74-7.72-8.25-12.11-11.83 1.11-.09 2.61.74 3.49-.24.04-1.38-.12-2.75-.2-4.1 1.28-.11 2.56-.23 3.85-.33-.05-1.82-.1-3.63-.15-5.44-.61.01-1.84.03-2.45.04-.27 1.12-.54 2.24-.81 3.37-1.62.6-3.15 1.7-4.91 1.79-1.14-1.6-1.93-3.4-3.02-5.02-1.52-.76-3.19-.22-4.72.16-.48.14-1.45.41-1.94.55 1.13 1.53 2.27 3.06 3.43 4.58-.12.49-.36 1.46-.48 1.95-.98-.51-1.94-1.06-2.95-1.46-1.67.58-3.14 1.7-4.9 1.98-3.38-2.94-3.77-7.7-4.93-11.75.55-.97 1.11-1.92 1.67-2.88-1.88.05-3.77.07-5.65.01-.01-4.45-4.6-7.09-5.02-11.37.56-2.56 1.23-5.13.79-7.77-1.3-.22-2.59-.44-3.88-.65 1.21-2.42 2.42-4.97 1.91-7.76-2.03 2.26-4.01 4.55-6.08 6.78-.15-11.89-1.61-23.73-2.44-35.59-.48-14.07-2.63-28.01-3.07-42.08.04-5.82-1.92-11.44-1.36-17.28-2.41 1.96-3.77 4.66-3.89 7.77-4.12 5.26-6.14 11.84-8.77 17.91-3.26 7.55-7.95 14.27-11.83 21.48.14.29.42.87.56 1.16-4.09 9.11-8.76 17.97-13.01 27.02-3.73 6.59-6.32 13.78-10.38 20.18-.88 1.39-1.79 2.77-2.7 4.15-.91-1.42-1.83-2.83-2.73-4.25.3 2.47 1.43 6.09-1.88 6.97-.39.22-1.18.68-1.57.9-4.83 4.15-9.15 8.93-14.63 12.27-2.39 1.61-5.14 2.66-7.32 4.58-2.78 2.51-6.33 4.14-8.58 7.24 4.2 4.61 9.55 7.95 14.12 12.16 3.37 3.89 7.54 6.99 10.97 10.83 1.53 2.69 3.43 5.14 5.75 7.2-.54 2.69-1.15 5.37-1.78 8.05.82.45 1.64.9 2.47 1.37-3.85 6.04.41 14.26-3.93 20.22-2.54 2.27-6 3.44-7.91 6.4-3.6 2.72-9.32 3.96-10.43 8.91-.13.36-.26.73-.39 1.1-4.26 2.23-7.01 7.37-12.32 7.15 1.13.48 2.25.98 3.4 1.45-1.31-.43-3.37.28-4.25-.93-.22-.48-.67-1.45-.89-1.93-.75-1.09-1.19-2.29-1.32-3.63-1.95-8.03-5.79-15.43-8.35-23.27-2.6-6.18-4.55-12.61-7.51-18.63-.13-.5-.41-1.5-.54-2-1.97-6.15-4.6-12.11-7.66-17.8l-.02-.04c-5.43-13.22-11.96-25.96-17.55-39.11-1.02-2.21-1.6-4.97-3.53-6.5l-.05-.36c-1.82-5.32-4.32-10.38-6.19-15.69.01.72.03 2.15.04 2.86-.44.05-1.31.14-1.75.19.99 1.83 1.91 3.71 2.73 5.63.46.16 1.37.48 1.83.64-.66-.02-1.99-.06-2.66-.08-1.76-1.7-1.55-5.29-4.3-5.77 1.3-.88 2.6-1.77 3.8-2.79-.58-.38-1.75-1.15-2.33-1.53-.25-.95-.52-1.87-.83-2.78.19-.72.58-2.16.78-2.88 1.07.47 2.14.94 3.23 1.4.18.54.55 1.64.73 2.18 1.91.7 4.12 1.01 5.59 2.55 6.98 7.17 14.89 13.34 22.07 20.29 5.28 4.35 9.76 9.59 15.21 13.74 4.23 3.17 7.74 7.16 11.9 10.42.74-17.03.16-34.11-.35-51.15-.24-9.62.02-19.24-.12-28.86 3.3-1.39 7.04-2.28 9.35-5.24 1.93-.93 4.06-1.29 6.14-1.72 3.94-4.29 9.45-6.33 14.43-9.07 5.27-3.32 10.92-5.96 16.48-8.73 1.31-.61 2.46-1.5 3.32-2.66 5.26-1.59 9.66-5 14.64-7.22 5.05-2.98 10.5-5.2 15.46-8.33 1.73-1 3.56-1.83 5.34-2.76.94-.65 1.81-1.39 2.6-2.23 5.36.23 10.81.16 15.85-1.92.03-.67.07-1.33.12-1.99 1.27-.58 2.54-1.15 3.82-1.72.04-.68.09-1.37.14-2.04 1.44-.36 2.88-.69 4.31-1.11 5.33-3.08 10.01-8.48 16.75-7.74-.54-.38-1.07-.76-1.6-1.13 2.71-1.1 5.48-2.1 8.06-3.5m-30.98 107.14c0 1.96.01 3.92.06 5.88 1.82-1.99 2.95-4.44 3.61-7.03-1.23.37-2.45.76-3.67 1.15m-76.1-.01c-.55 1.63-.01 2.2 1.61 1.7.54-1.64 0-2.21-1.61-1.7m68.27 2.47c.18.79.54 2.36.72 3.15 2.27.54 2.17-2.7 3.12-4-1.29.24-2.57.52-3.84.85z" fill="#8c8c8c"/><path d="m455.3 53.97c2.28-.07 4.57.03 6.87.1.1.33.29 1 .39 1.33l.28.86c.9 1.66 2.34 3.06 2.88 4.9-.15 1.49-.55 2.94-.89 4.39-1.43-1.18-3.19-1.54-5.01-1.45 1.39 1.93 3.05 3.65 4.41 5.6.17 2.67.02 5.35.52 8-.61 1.79-1.44 3.63-3.11 4.67-.77 1.22-1.37 2.57-2.39 3.6-4.46 4.59-7.73 10.15-11.26 15.45l-.38.52c-4.47 5.18-7.79 11.22-12.19 16.45-3.25 3.78-8.63 3.1-13.07 3.19 1.55 2.63 5.07 1.23 7.56 1.57-2.29.05-4.58.14-6.87.15-.04-1.89-1.98-1.79-3.34-2.22.06-.23.18-.69.24-.92.72.32 1.44.63 2.18.93-2.13-2.02-4.95-3.62-5.99-6.51-1.04-2.47-1.13-5.19-.7-7.81.21-1.5.5-2.99.79-4.47l1.56-.56c5.43-6.91 10.04-14.42 15.35-21.42 3.98-5.4 7.87-10.89 11.66-16.43 2.87-3.87 5.6-8.45 10.51-9.92z" fill="#8f8f8f"/><path d="m462.84 56.26-.28-.86c1.2.48 2.42.92 3.67 1.31.36.28 1.08.84 1.45 1.12.82.16 1.49.55 1.98 1.18-.14-.12-.43-.35-.58-.46 1.17 5.03 1.71 10.45-1 15.12l-.07.15c-1.53.09-2.03 1.73-2.26 2.98l-1 .9c-.5-2.65-.35-5.33-.52-8-1.36-1.95-3.02-3.67-4.41-5.6 1.82-.09 3.58.27 5.01 1.45.34-1.45.74-2.9.89-4.39-.54-1.84-1.98-3.24-2.88-4.9z" fill="#777"/><path d="m345.28 126.16c2.08-.21 4.18-.09 6.26.14 1.85 2.4 4.93 3.23 7.44 4.74 3.36 1.97 6.62 4.14 10.14 5.83-.38.57-1.14 1.69-1.52 2.26 3.81 2.8 7.85 5.28 12.08 7.39-.37.32-1.11.96-1.49 1.27 6.25 4.18 12.7 8.45 17.51 14.3-2.01-.76-3.98-1.68-5.61-3.1-4.19-3.61-9.12-6.19-13.42-9.65-.02-.28-.05-.84-.07-1.12-2.86-1.93-5.45-4.21-8.05-6.46-3.55-2.56-6.52-4.97-9.8-7.67-.93-.22-1.84-.42-2.76-.6-.88-1.87-2.31-3.32-4.21-4.15.01-.35.04-1.04.05-1.39-2.19-.56-4.37-1.18-6.55-1.79z" fill="#777"/><path d="m59.54 207.94c4.37 1.09 9.17 2.09 12.6 5.22-3.25-1.16-6.51-2.29-9.72-3.55-.97-.54-1.93-1.1-2.88-1.67z" fill="#777"/><path d="m186.69 244.14c.67.1 2 .3 2.67.4.68.54 1.36 1.08 2.05 1.63.45 1.65 1.13 3.24 1.97 4.75-.41.45-1.24 1.36-1.65 1.81-4.18-.82-3.95-5.37-5.04-8.59z" fill="#777"/><path d="m205.97 356.14c2.65 2.39 3.51 6.72 7.04 8 3-.32 5.56-2.22 8.34-3.28-2.31 2.96-6.05 3.85-9.35 5.24-3.16 1.84-6.19 4.04-9.94 4.45.15-.5.45-1.49.6-1.99-1.89-.35-3.77-.82-5.52-1.6 2.42-1.1 5.09-1.25 7.71-1.29-.94-.35-1.87-.71-2.8-1.06.24-.58.73-1.73.98-2.31 2.37 1.31 4.81 2.49 7.29 3.59-.75-1.92-1.6-3.8-2.51-5.64-.69-.06-2.06-.19-2.75-.25.3-1.29.6-2.58.91-3.86z" fill="#777"/><path d="m250.24 634.93c2.01-.12 4.02-.17 6.04-.12-1.56.06-3.12.14-4.67.25.09.92.27 2.75.36 3.67-.6-1.27-1.16-2.53-1.73-3.8z" fill="#777"/><path d="m465.75 76.8c.23-1.25.73-2.89 2.26-2.98.28 1.16-.82 3.55-2.26 2.98z" fill="#c2c2c2"/><path d="m413.03 107.01c.6-.06 1.8-.18 2.4-.24-.43 2.62-.34 5.34.7 7.81 1.04 2.89 3.86 4.49 5.99 6.51-.74-.3-1.46-.61-2.18-.93-.69-.33-2.07-.98-2.77-1.31-.84-1.86-1.67-3.73-2.46-5.61-3.07-.1-1.68-4.14-1.68-6.23z" fill="#f0f0f0"/><path d="m128.21 116.16c1.63-.52 2.17.03 1.63 1.66-1.64.53-2.18-.03-1.63-1.66z" fill="#1b1b1b" opacity=".12"/><path d="m245.23 121.02c5.52-1.04 11.65.57 16.79-2.11 4.45-.24 8.9-.91 13.37-.66-3.96 1.49-8.28.83-12.35 1.72-11.33 2.11-22.7 4.01-34.07 5.86-.1-.28-.29-.83-.39-1.1 2.14-.25 4.28-.48 6.43-.69-.05-.29-.16-.88-.22-1.18 3.28.15 6.53-.28 9.78-.57z" fill="#e7e7e7"/><path d="m279.59 119.57c5.31-1.06 10.56 1.27 15.91.48l.25.01c4.82.98 9.74 1.22 14.62 1.78.29.05.87.14 1.15.19 5.44 1.1 10.99 1.33 16.5 1.89.32.04.96.13 1.29.18 4.43.99 8.93 1.85 13.5 1.84.61.06 1.85.17 2.47.22 2.18.61 4.36 1.23 6.55 1.79-.01.35-.04 1.04-.05 1.39 1.9.83 3.33 2.28 4.21 4.15.92.18 1.83.38 2.76.6 3.28 2.7 6.25 5.11 9.8 7.67-.36.58-1.07 1.74-1.42 2.32-.69-.58-1.38-1.16-2.07-1.74-1.18.77-2.36 1.53-3.54 2.3-.05.83-.11 1.67-.16 2.51-1.95-.88-3.87-1.81-5.78-2.77-.08 2.46.21 4.9.7 7.3 1.26-.08 2.52-.16 3.78-.24-.01 1.44-.01 2.87-.01 4.31-.94-.43-1.87-.87-2.8-1.3-.9.53-1.81 1.05-2.72 1.56-.73.29-1.46.57-2.19.84-.26-.54-.79-1.62-1.05-2.16-3.25-1.76-6.64-3.56-10.44-3.45-1.35-1.79-2.59-3.94-4.9-4.58-6.6-2.14-12.32-6.17-18.69-8.83-3.19-1.32-6.1-3.17-9.09-4.88-5.37-2.75-11.15-4.75-16.15-8.19-4-.96-7.31-3.52-11.15-4.86z" fill="#555"/><path d="m213 133.24c.47-.24 1.42-.72 1.9-.96l.88-.2c.54.34 1.63 1.01 2.18 1.34-1.39.6-2.82 1.13-4.13 1.9-.2 1.11-.23 2.26-.3 3.39.52.23 1.56.68 2.08.9-.83 2.47-1.64 4.94-2.44 7.42.96.74 1.93 1.48 2.9 2.22-.51.09-1.54.25-2.05.34.42.64.84 1.28 1.27 1.93-.33.81-.66 1.61-.98 2.42 3.12.14 6.25.26 9.37.37 0 .3-.01.92-.01 1.22-1.94.22-3.87.43-5.81.64.92 1.9 1.84 3.8 2.69 5.72-3.57-1.51-7.44-1.84-11.2-2.59-4.37-1.61-8.73-3.54-13.49-3.54-4.73-.83-9.53-1.63-14.03-3.36-1.38-.14-2.75-.28-4.13-.38 1.06-.92 2.25-1.66 3.54-2.18 10.63-5.45 21.4-10.65 31.76-16.6z" fill="#555"/><path d="m277.14 368.03c2.89 4.17 2.38 9.65-.68 13.58.53.19 1.59.56 2.12.75-.46.89-.92 1.77-1.38 2.67.54 1.32 1.09 2.66 1.64 3.99-.98.71-1.96 1.41-2.93 2.12.47 6.95.84 14.06 3.48 20.6 3.28.5 7.68-.85 9.72 2.59-1.26.76-2.59 1.5-4.11 1.41-4.72.13-9.46-.03-14.17.3.3.43.9 1.28 1.2 1.7-4.3-.08-8.6.17-12.9.23-2.31.23-4.33-.63-5.38-2.74 4.06-6.4 6.65-13.59 10.38-20.18 4.25-9.05 8.92-17.91 13.01-27.02z" fill="#555"/><path d="m182.82 379.5c2.54-1.28 4.98-2.79 7.75-3.56-1.18 1.31-2.32 2.65-3.49 3.98 1.61-.11 3.22-.21 4.83-.31.05 1.6.09 3.21.15 4.83-3.07-1.58-6.38-2.63-9.87-2.32-1.22 2.4-.35 4.74 1.31 6.65-.73.54-1.46 1.09-2.19 1.64-.19 4.97-.18 9.94.01 14.91.97.52 1.94 1.05 2.91 1.58-.7.71-1.39 1.44-2.08 2.16l6.15 3.96c-.31 1.79-.62 3.58-.97 5.36-1.08-1.36-2.1-2.77-3.13-4.16-.61 2.67.26 5.25 1.16 7.73-7.18-6.95-15.09-13.12-22.07-20.29-1.47-1.54-3.68-1.85-5.59-2.55-.18-.54-.55-1.64-.73-2.18-1.09-.46-2.16-.93-3.23-1.4-.18-.18-.55-.55-.73-.73-.28-.7-.55-1.39-.81-2.08 9.71-5.54 20.71-8.12 30.62-13.22z" fill="#555"/><path d="m276.61 120.12c.75-.14 2.24-.42 2.98-.55l1.28.33c.26 1.47.53 2.95.77 4.43-1.96-.46-3.57-1.65-4.72-3.28z" fill="#a1a1a1"/><path d="m377 480.33c1.29.27 1.54 1.05.76 2.32-1.31-.29-1.56-1.06-.76-2.32z" fill="#a1a1a1"/><path d="m265.83 490.8c3.19 1.52 4.16 5.1 6.24 7.69-.12-1.54-.24-3.06-.37-4.58 5.84 2.51 11.27 7.48 18.03 6.59.28.38.83 1.14 1.11 1.52-.7.08-2.09.23-2.79.31-.25 1.23-.5 2.47-.74 3.72-.89-1.21-1.78-2.41-2.67-3.61-3.62-1.26-6.98-3.22-10.68-4.27-1.97-.1-1.62 2.32-2.23 3.59 1.19.31 2.38.64 3.57.97.93 5.39 5.65 9.07 6.16 14.55 3.22 2.09 4.52 5.86 6.13 9.16.7 1.3.07 2.77-.08 4.12-3.09-6.37-7.65-11.86-10.78-18.2-1.5-2.82-3.12-5.62-3.92-8.74-.75-.05-1.5-.1-2.24-.14.27-5.02-5.31-7.73-4.74-12.68z" fill="#a1a1a1"/><path d="m329.31 124.1c3.55-.2 7.07.48 10.61.66 1.11-.07 2.04.53 2.89 1.18-4.57.01-9.07-.85-13.5-1.84z" fill="#a3a3a3"/><path d="m130.63 194.73c1.37-.32 2.03-1.49 2.7-2.59-2.17 8.3-6.36 15.95-8.21 24.35-1.18 4.05-3.52 7.64-4.94 11.61-2.69 7.12-4.92 14.42-7.99 21.41-.04-.77-.14-2.31-.18-3.08 2.23-1.74 2.03-4.97 3.24-7.35 2.23-4.75 3.81-9.78 5.19-14.81 2.51-4 3.6-8.61 5.05-13.05 2.16-5.32 4.69-10.7 5.14-16.49z" fill="#a3a3a3"/><path d="m31.98 198.01c2.15.15 4.26.64 6.42.75-.09.38-.27 1.15-.36 1.53 1.4.18 2.81.35 4.23.53-.03.28-.08.84-.1 1.12 1.67.22 3.34.46 5.02.69 1.8 2.67 5.69 2.02 8.5 1.71-.43.54-.87 1.08-1.32 1.61.92.32 2.78.96 3.71 1.28-5.91-1.24-11.51-3.53-17.25-5.36-3.15-1.04-6.3-2.12-9.28-3.58z" fill="#a3a3a3"/><path d="m15.65 218.15c4 .79 7.89 2 11.64 3.62 4.23 1.83 8.94 2.52 12.86 5.03-2.59.14-4.87-1.68-7.54-1.32-.63-2.97-5.02-1.78-7.38-2.44-.49-2.31-3.57-1.08-4.72-2.85-1.71-.47-3.51-.81-4.86-2.04z" fill="#a3a3a3"/><path d="m362.71 356.96c4.2-4 8.2-8.19 12.34-12.25l1.2 1.48c-.46 1.83-1.71 3.23-3.17 4.37-.1.1-.31.28-.41.38-.15.93-.26 1.87-.35 2.82-.27 3.29-.58 6.57-.89 9.86-.25 0-.75-.01-1-.02 0-3.44-.05-6.88-.27-10.32-3.13 1.85-5.36 4.75-7.02 7.92-4.09 2.27-5.76 7.08-9.86 9.27-3.29 2.01-4.14 6.25-7.21 8.51-2.53 1.81-4.92 3.86-6.51 6.6-1.01.35-2.01.7-3.01 1.05-2.3 2.41-4.22 5.15-5.53 8.22-3.52 1.52-5.27 4.91-7.43 7.83-1.22-.1-2.4-.38-3.59-.59 4.65-6.92 11.56-11.83 16.84-18.21 3.46-4.13 7.48-7.75 11.2-11.65 4.32-3.84 8.16-8.18 12.08-12.42.88-.93 1.73-1.9 2.59-2.85z" fill="#a3a3a3"/><path d="m215.78 132.08c3.71-1.3 7.07-3.39 10.59-5.12 2.36 4.44 5.12 8.65 7.61 13.02 4.61 9.27 9.72 18.26 14.79 27.27-1.8 1.78-4.02.08-5.98-.43-7.1-2.31-14.25-5.43-21.87-4.87l-.37-.06c-.85-1.92-1.77-3.82-2.69-5.72 1.94-.21 3.87-.42 5.81-.64 0-.3.01-.92.01-1.22-3.12-.11-6.25-.23-9.37-.37.32-.81.65-1.61.98-2.42-.43-.65-.85-1.29-1.27-1.93.51-.09 1.54-.25 2.05-.34-.97-.74-1.94-1.48-2.9-2.22.8-2.48 1.61-4.95 2.44-7.42-.52-.22-1.56-.67-2.08-.9.07-1.13.1-2.28.3-3.39 1.31-.77 2.74-1.3 4.13-1.9-.55-.33-1.64-1-2.18-1.34z" fill="#494949"/><path d="m458.46 243.47c-.14-2.24-.25-4.47-.33-6.71 1.19 3.37 2.39 6.74 3.79 10.04.07.24.22.71.3.95.51 3.39 1.37 6.72 2.69 9.9l.04.67c.27.45.81 1.34 1.07 1.78l.02.62c-.16.53-.48 1.58-.64 2.1.35.25 1.05.74 1.39.99l.72.46-.06.87c-.32 3.68-.37 7.37-.36 11.07-.04.34-.13 1.02-.18 1.36-.73 2.75-1.02 5.59-.86 8.44-.09.75-.29 2.23-.39 2.98-.73 1.54-1.08 3.26-.64 4.95-.03.58-.08 1.75-.1 2.33-.55 1.87-1.05 3.75-1.68 5.59-.27-.03-.8-.1-1.07-.13-1.35-4.18 1.28-8.39.39-12.6-.76-3.66-2.36-7.19-2.2-10.99.16-8.77-1.42-17.42-1.8-26.15-.07-2.42-.74-4.76-1.45-7.06.34-.36 1.01-1.1 1.35-1.46z" fill="#494949"/><path d="m280.94 136.7c.44.01 1.3.03 1.74.04 2.35 3.15 2.7 7.25 3.63 10.96.81.03 1.62.07 2.44.12.34.32.68.64 1.02.97-1.48 6.2 3.17 11.62 4.92 17.29 2.82 6.36 4.12 13.69 8.78 19.05.78 2 1.94 3.8 3.51 5.26 4.64 7.82 9.39 15.58 14.35 23.2 2.85 3.43 4.43 7.65 6.88 11.34 6.8 10.57 13.55 21.18 19.94 32.01 2.93 6.2 7.69 11.27 10.61 17.48 1.68 2.81 3.19 5.78 5.42 8.21 1.12.08 2.25.04 3.38.04.36.2 1.07.61 1.43.81-4.29 2.67-3.31 8.35-2.04 12.45 1.48 4.09 1.02 8.52 1.79 12.72 2.07 4.19 3.12 8.74 3.54 13.38.46 6.35 3.65 12.27 3.08 18.74 1.52-4.19 3.34-8.26 4.92-12.42.44-1.57 1.92-2.36 3.09-3.33.35-2.5.75-5 1.27-7.48 1.52.07 3.05.14 4.58.21-.43 3.17-1.93 5.9-4.44 7.87-.75 5.99-4.99 10.71-5.61 16.74-.19-.89-.58-2.66-.77-3.54-1.26 1.88-2.28 3.9-3.35 5.89-4.14 4.06-8.14 8.25-12.34 12.25-.38-1.78.22-3.44 1-5-.22-.31-.67-.93-.89-1.23 3.59-9.51 2.26-19.88 1.32-29.74.02-8.69-.28-17.37-.29-26.06.07-1.88-1.12-3.43-1.92-5.02.67-1.49 1.3-3.01 1.94-4.52-4.37.35-8.14 2.82-11.98 4.71-.42-.14-1.27-.41-1.7-.55 1.86-1.87 3.94-3.51 6.17-4.92-3.34-.72-6.74-1.07-10.14-1.06.56-.31 1.13-.61 1.7-.91-3.92-1.31-7.87-2.49-11.98-2.97-.42-.34-1.26-1.03-1.69-1.37 5.48-.36 10.6 1.78 15.9 2.69 4.07.7 8 1.99 12.01 2.95-.55-3.59-3.56-5.94-5.05-9.09-2.6-6.04-7.11-10.92-10.23-16.68-2.89-5.6-6.97-10.46-9.81-16.08-7.69-12.99-16.72-25.17-24.02-38.4-2.07-3.48-4.76-6.53-6.79-10.03-1.27-2.04-2.33-4.34-4.31-5.8-2.93-.23-5.5 1.47-7.99 2.74-2.17 2.83-5.61 4.14-8.42 6.18-1.31.69-2.67 1.29-3.99 1.95-1.03 1.26-2.1 2.51-3.48 3.4-.58-1.07-1.14-2.14-1.7-3.21 3.19-2.71 5.27-7.09 9.89-7.59.09-.24.27-.73.35-.97 1.17-.7 3-.73 3.63-2.06.25-2.36.11-4.75.46-7.1 2.74.51 5.54.6 8.33.54-1.18-3.5-3.59-6.29-6.6-8.38 2.24-4.78-.53-9.91-2.74-14.17-1.7-2.64-1.25-5.92-1.67-8.89-2.73-1.57-3.46-4.81-5.1-7.27-.41-2.18-.87-4.4-1.98-6.35z" fill="#696969"/><path d="m369.12 136.87c1.07.39 2.15.76 3.24 1.12 1.15.36 2.15 1.06 3.12 1.79.48.16 1.44.47 1.92.62.68.74 1.43 1.4 2.25 1.98 4.45 2.58 8.89 5.24 13.61 7.32 1.17.44 2.3 1.01 3.22 1.9.32.18.95.55 1.27.74 6.05 4.08 14.75 6.56 17.12 14.21.6.28 1.2.56 1.8.85-.25.37-.74 1.09-.98 1.46 2.15 2.73 4.65 5.31 5.45 8.83-1.33-.64-2.66-1.3-3.98-1.95-.2.95-.39 1.9-.57 2.85-1.95-2.39-3.98-4.77-6.5-6.59-.63-.06-1.88-.17-2.51-.23-4.83-2.12-7.5-6.96-11.88-9.68-4.81-5.85-11.26-10.12-17.51-14.3.38-.31 1.12-.95 1.49-1.27-4.23-2.11-8.27-4.59-12.08-7.39.38-.57 1.14-1.69 1.52-2.26z" fill="#8b8b8b"/><path d="m361.52 144.64c1.18-.77 2.36-1.53 3.54-2.3.69.58 1.38 1.16 2.07 1.74.35-.58 1.06-1.74 1.42-2.32 2.6 2.25 5.19 4.53 8.05 6.46.02.28.05.84.07 1.12 4.3 3.46 9.23 6.04 13.42 9.65 1.63 1.42 3.6 2.34 5.61 3.1 4.38 2.72 7.05 7.56 11.88 9.68.92 1.11 1.79 2.26 2.56 3.48.03 2.05.37 4.07 1.32 5.9-1.31 1-2.61 1.99-3.91 2.99-9.34-4.28-18.23-9.42-27.3-14.24-6.66-2.75-12.52-7.03-19.1-9.94-2.35-1.08-4.54-2.45-6.62-3.95.91-.51 1.82-1.03 2.72-1.56.93.43 1.86.87 2.8 1.3 0-1.44 0-2.87.01-4.31-1.26.08-2.52.16-3.78.24-.49-2.4-.78-4.84-.7-7.3 1.91.96 3.83 1.89 5.78 2.77.05-.84.11-1.68.16-2.51z" fill="#4d4d4d"/><path d="m294.69 166.08c-1.75-5.67-6.4-11.09-4.92-17.29 1.49 1.6 3.69 2.9 4.1 5.23 1.1 4.89 2.78 9.63 5.02 14.13 1.58 4.41 2.55 9.04 4.6 13.29.51.23 1.52.69 2.03.92-.44.52-.89 1.03-1.33 1.55 4.26-.25 8.53-.27 12.77.29.6-.65 1.2-1.3 1.81-1.95 4.96 3.44 11.36 2.44 16.89 4.36 5.45 1.94 11.4.74 16.85 2.57 5.21 1.72 10.97-.21 16.04 2.12 2.85 1.29 6.03.97 9.07.97-.48.53-.95 1.06-1.42 1.6 5.54.55 10.59-2.13 16.01-2.55-.95.86-1.92 1.71-2.89 2.55 2.74.09 5.52.25 8.17 1.02-.36.52-1.09 1.55-1.46 2.07-17.12-.44-33.68-5.29-50.67-6.62-4.88-1.35-9.94-1.49-14.94-1.99-4.4-1.09-8.88-1.74-13.4-2.09-4.45-.91-8.99-1.58-13.55-1.13-4.66-5.36-5.96-12.69-8.78-19.05z" fill="#979797"/><path d="m517.43 207.3c2.9-1.33 5.91-2.42 9.01-3.19-.35.24-1.04.72-1.39.96-2.75 1.31-5.73 2.05-8.67 2.79z" fill="#979797"/><path d="m195.86 155.76c4.76 0 9.12 1.93 13.49 3.54 3.76.75 7.63 1.08 11.2 2.59l.37.06c-.11.38-.31 1.14-.42 1.52 5.15.7 10.35 2.44 14.19 6.08-4.11 1.91-8.72 2.18-12.86 4.01-2.36 1.08-5.01.54-7.48 1.01-1.74.77-3.16 2.09-4.65 3.25-5.32-.23-10.04 3.06-15.4 2.42 2.03-2.87 5.61-3.61 8.66-4.9-.64-.24-1.91-.72-2.54-.96-.03-.43-.08-1.3-.1-1.73 1.8-.46 3.61-.93 5.41-1.42-1.13-.66-2.25-1.31-3.37-1.95-.04-.96-.07-1.92-.11-2.87 1.58-.1 3.15-.2 4.73-.3.94-.96 1.89-1.92 2.84-2.88-5.15-1-9.69-3.67-14.47-5.68.12-.45.38-1.34.51-1.79z" fill="#7c7c7c"/><path d="m323 466c-1-3.96-3.41-7.63-2.8-11.89.57 2.5 1.87 5.19 4.89 4.55-.69-1.43-1.38-2.84-2.09-4.25.7-.13 2.1-.39 2.8-.52 3.09 6.85 6.93 13.33 10.05 20.18 5.3 11.46 11.35 22.56 16.14 34.26-1.14-1.09-2.32-2.11-3.49-3.14-.98 1.98-2.26 3.78-3.91 5.26 3.4 4.91 7.9 9.54 8.74 15.7-1.02-.54-2.02-1.06-3.02-1.6-.06.48-.17 1.42-.22 1.9-5.25-1.33-9.9-4.23-15.1-5.66-1.7-.36-2.88-1.7-4.14-2.76 4.37.51 8.62-.25 12.61-2.06.21.76.63 2.27.84 3.02 1.15.01 2.3.02 3.46.03-6.37-8.98-14.85-16.17-21.71-24.75-2.19-5.53-1.58-11.61-3.02-17.3-1.06-3.62-.27-7.32-.03-10.97z" fill="#7c7c7c"/><path d="m239.43 470.08c.63.02 1.9.06 2.53.08.35.08 1.06.25 1.41.33.39.91.78 1.84 1.15 2.77 2.86 2.59 5.53 5.38 8.66 7.66 1.88 1.26 2.58 3.48 3.63 5.38.93 1.58 2.06 3.04 2.88 4.7-.65 5.23-7.04 6.45-8.18 11.39-4.31 4.19-9.56 7.18-14.05 11.12-2.89 2.95-7.21 4.04-9.72 7.41-.86 1.48-2.73 1.01-4.14 1.31 1.11-4.95 6.83-6.19 10.43-8.91 1.91-2.96 5.37-4.13 7.91-6.4 4.34-5.96.08-14.18 3.93-20.22-.83-.47-1.65-.92-2.47-1.37.63-2.68 1.24-5.36 1.78-8.05-2.32-2.06-4.22-4.51-5.75-7.2z" fill="#7c7c7c"/><path d="m220.92 161.95c7.62-.56 14.77 2.56 21.87 4.87 1.96.51 4.18 2.21 5.98.43.43 1.8.66 3.77-.36 5.44-3.72 6.68-8.66 12.59-12.65 19.1-2.89 4.81-5.8 9.59-8.68 14.4-5.75 8.98-12.36 17.54-16.54 27.41-.72-.02-2.16-.06-2.87-.08 2.1-4.36 4.77-8.4 7.73-12.22 2.85-3.71 3.89-8.52 7.16-11.92 1.64-1.81 2.64-4.05 3.85-6.13 6.78-11.1 15.45-21.26 20.15-33.5-4.04.68-8.03 1.66-11.83 3.2-2.74 1.15-5.78.44-8.64.89-5.25 1.99-10.75 3.84-16.39 3.98 1.49-1.16 2.91-2.48 4.65-3.25 2.47-.47 5.12.07 7.48-1.01 4.14-1.83 8.75-2.1 12.86-4.01-3.84-3.64-9.04-5.38-14.19-6.08.11-.38.31-1.14.42-1.52z" fill="#646464"/><path d="m209.23 559.73c1.22.11 1.88.79 1.95 2.04-1.52.17-2.17-.51-1.95-2.04z" fill="#646464"/><path d="m217.78 575.26c2.7-3.34 6.88-5.71 11.27-5.26 39.12.14 78.25-.17 117.37.16-5.11.65-10.26.37-15.39.4-30.66.01-61.33-.02-91.99-.02-7.32-.27-15.38-.39-21.26 4.72z" fill="#646464"/><path d="m220.17 594.33c-4.8-3.3-6.46-10.22-4.36-15.51-.1 2.66-.49 5.41.25 8.03.95 2.69 2.67 5.03 4.11 7.48z" fill="#646464"/><path d="m349.44 597.04c2.64-1.29 5.2-2.73 7.81-4.07-2.04 2.16-4.68 4.19-7.81 4.07z" fill="#646464"/><path d="m236.77 603.02c1.35-.63 2.77-1.09 4.28-.97 29.65-.04 59.29 0 88.94-.03 3.05.17 6.35-.57 9.14 1.01-16.33-1.05-32.72-.29-49.08-.53-17.76.22-35.54-.48-53.28.52z" fill="#646464"/><path d="m344.11 625.39c.94-2.58 2.23-5.01 3.9-7.18-.69 2.67-1.79 5.3-3.9 7.18z" fill="#646464"/><path d="m312.65 652.17c2.15-3.02 4.8-5.59 7.66-7.91-2.04 3.07-4.67 5.75-7.66 7.91z" fill="#646464"/><path d="m250.03 166.37c1.36.22 1.6.94.74 2.14-1.36-.23-1.6-.94-.74-2.14z" fill="#b1b1b1"/><path d="m421.73 397.83c.03-.06.1-.19.14-.26-.04.07-.11.2-.14.26z" fill="#b1b1b1"/><path d="m415.69 168.86c.24-.37.73-1.09.98-1.46 4.82 4.57 8.34 10.42 13.59 14.56l.61.47c.82 1.23 1.86 2.36 2.38 3.77l.13.62c.32 1.47.78 2.91 1.24 4.35-.39-.05-1.18-.16-1.58-.21-1.9-1.72-3.94-3.31-6.26-4.41-6.16-2.81-10.8-7.95-16.64-11.3-.77-1.22-1.64-2.37-2.56-3.48.63.06 1.88.17 2.51.23 2.52 1.82 4.55 4.2 6.5 6.59.18-.95.37-1.9.57-2.85 1.32.65 2.65 1.31 3.98 1.95-.8-3.52-3.3-6.1-5.45-8.83z" fill="#797979"/><path d="m351.71 314.79c3.53-8.23 6.26-16.81 10.22-24.88.8 1.59 1.99 3.14 1.92 5.02.01 8.69.31 17.37.29 26.06.94 9.86 2.27 20.23-1.32 29.74.22.3.67.92.89 1.23-.78 1.56-1.38 3.22-1 5-.86.95-1.71 1.92-2.59 2.85-1.56.92-3.12 1.84-4.65 2.8-.15-1.31-.3-2.62-.46-3.92.67-1.82 1.02-3.74 1.01-5.67.1-10.69-.07-21.39-.08-32.08-.24-3.95 2.69-7.33 1.95-11.33-1.9 1.08-2.3 3.32-3.06 5.18-.78 0-2.34 0-3.12 0z" fill="#797979"/><path d="m251.87 170.66c5.24-2.25 11.05-1.27 16.14.89 4.97 2.3 10.76 2.23 15.38 5.37-.4.36-1.21 1.09-1.61 1.45-3.15-.77-6.25-1.74-9.38-2.61-5.28-1.74-10.77-2.7-16.07-4.4-.28.78-.57 1.57-.85 2.36-.2-.5-.6-1.49-.8-1.99-.94-.35-1.88-.71-2.81-1.07z" fill="#9b9b9b"/><path d="m122.19 317.89c4.2.17 7.89 2.6 12.13 2.53.51 1.47 1.01 2.94 1.52 4.42-2.89-.68-5.93-2.4-8.87-.96-.44-.59-.87-1.18-1.29-1.77l1.55-.34c-1.66-1.33-3.35-2.6-5.04-3.88z" fill="#9b9b9b"/><path d="m307.94 414.66c2.07-2.23 4.05-4.52 6.08-6.78.51 2.79-.7 5.34-1.91 7.76 1.29.21 2.58.43 3.88.65.44 2.64-.23 5.21-.79 7.77.42 4.28 5.01 6.92 5.02 11.37-.02.78-.04 2.34-.06 3.12-4.44-4.18-5.42-10.57-8.2-15.78 1.53-.66 2.2-1.87 2.07-3.48-1.18-.28-2.35-.56-3.53-.83-.66-1-1.31-2-1.98-2.98z" fill="#9b9b9b"/><path d="m234.73 172.95c3.8-1.54 7.79-2.52 11.83-3.2-4.7 12.24-13.37 22.4-20.15 33.5-1.21 2.08-2.21 4.32-3.85 6.13-3.27 3.4-4.31 8.21-7.16 11.92-2.96 3.82-5.63 7.86-7.73 12.22-3.05 4.37-6.42 8.72-8.03 13.86-.31.31-.93.91-1.24 1.21-1.16-.85-2.3-1.73-3.45-2.6-.88.04-2.66.13-3.54.18-.69-.55-1.37-1.09-2.05-1.63.63-.19 1.9-.56 2.53-.74 1.28-2.31 1.83-4.9 2.17-7.49-2.54-.27-5.19-.44-7.36-1.92 1.84-1.24 3.73-2.41 5.62-3.57-1.37-.44-2.74-.89-4.11-1.32-.37-9.17 0-18.33-.12-27.5.12-1.67-.59-3.17-1.25-4.65 1.33-2.78 1.84-5.94-.4-8.43 1.29-2.58 2.78-5.08 4.72-7.23.31-.35.92-1.05 1.23-1.4.48-.01 1.43-.03 1.91-.05 5.36.64 10.08-2.65 15.4-2.42 5.64-.14 11.14-1.99 16.39-3.98 2.86-.45 5.9.26 8.64-.89z" fill="#4a4a4a"/><path d="m251.51 502.39c4-1.76 6.48-5.82 10.98-6.75-.13 2.27-.27 4.53-.48 6.8-.74 5.73-2.89 11.12-4.87 16.51-1.37 4.36-4.04 8.34-3.96 13.07l-.86.03c-.6.02-1.81.06-2.42.08-.93-1.42-1.8-2.89-2.95-4.14-3.19-.27-6.4-.11-9.6-.22.08-2.39.13-4.78.16-7.16.59-.31 1.79-.92 2.39-1.22-.35-2.13-1.28-4.08-2.44-5.88 4.49-3.94 9.74-6.93 14.05-11.12z" fill="#4a4a4a"/><path d="m263.75 175.43c2.88.17 5.77.22 8.65.33 3.13.87 6.23 1.84 9.38 2.61 3.03.78 5.96 1.85 8.92 2.85-.35 2.35-.21 4.74-.46 7.1-.63 1.33-2.46 1.36-3.63 2.06-.08.24-.26.73-.35.97-4.62.5-6.7 4.88-9.89 7.59.56 1.07 1.12 2.14 1.7 3.21-2.61 1.09-5.28 2.03-7.76 3.39-4.91 2.61-8.72 6.78-13.6 9.42-5.64 4-11.73 7.32-17.25 11.49-2.41 1.85-5.27 2.95-7.9 4.42-1.18 1.2-1.52 3.01-2.26 4.49-7.61-.09-12.5 6.65-19.07 9.42-.21-.57-.61-1.71-.82-2.28 9.51-4.82 17.42-12.12 26.78-17.18.17-.18.49-.55.65-.74 6.57-3.12 12.11-7.95 18.48-11.41.37-.95.74-1.9 1.11-2.84 3.77-.64 6.88-2.9 10.04-4.9-.69-1.64-1.38-3.29-2.06-4.93-.52-.27-1.58-.81-2.11-1.08 3.26-5.09 1.06-11.34 1.91-16.98.63-.18 1.88-.56 2.5-.75-.98-.56-1.95-1.11-2.92-1.66.94-.71 1.89-1.41 2.85-2.12-.97-.83-1.93-1.65-2.89-2.48z" fill="#7b7b7b"/><path d="m358.57 563.57c1.31-.56 2.76-.67 4.17-.53-.03 1.68-3.35 2.74-4.62 1.63.11-.27.34-.82.45-1.1z" fill="#7b7b7b"/><path d="m410.14 175.25c5.84 3.35 10.48 8.49 16.64 11.3 2.32 1.1 4.36 2.69 6.26 4.41 1.54 3.58 5.12 5.21 7.75 7.78-.19.51-.57 1.52-.76 2.03-1.25-.54-2.49-1.11-3.7-1.7-9.18-5.71-19.21-9.93-28.78-14.93 1.3-1 2.6-1.99 3.91-2.99-.95-1.83-1.29-3.85-1.32-5.9z" fill="#4b4b4b"/><path d="m141.45 224.71c.68-.23 2.05-.69 2.74-.92 2.28 7.47 6.12 14.35 8.32 21.85 3.94 11.98 9.4 23.4 12.89 35.54-1.16 4.12-3.54 7.98-3.3 12.39.54.21 1.6.63 2.13.84.13.25.38.75.51 1.01 1.17.41 2.37.8 3.5 1.34 1.41 2.55 1.6 5.54 2.14 8.35 1.13.84 2.25 1.68 3.38 2.52.15-1.23.29-2.46.44-3.68.28.64.86 1.93 1.14 2.57.33 1.34.55 2.68.82 4.04-2.57-.16-4.7-1.56-6.64-3.11-.29-.93-.57-1.86-.85-2.78-.34-.12-1.04-.34-1.38-.45-.43-.66-.85-1.31-1.27-1.96-.48.41-.95.82-1.42 1.24-2.23-5.65-8.04-8.16-12.58-11.55-3.01-3.1-6.37-5.79-10.27-7.69-.71-3.73-.6-7.53-.24-11.29.36-3.36-1.92-6.45-1.12-9.83.8-5.01.81-10.09.71-15.14-.15-6.13.37-12.28-.54-18.36-.33-1.72.36-3.34.89-4.93z" fill="#4b4b4b"/><path d="m183.72 182.87c2.28-1.28 4.91-1.24 7.44-1.18-1.94 2.15-3.43 4.65-4.72 7.23 2.24 2.49 1.73 5.65.4 8.43.66 1.48 1.37 2.98 1.25 4.65.12 9.17-.25 18.33.12 27.5 1.37.43 2.74.88 4.11 1.32-1.89 1.16-3.78 2.33-5.62 3.57 2.17 1.48 4.82 1.65 7.36 1.92-.34 2.59-.89 5.18-2.17 7.49-.63.18-1.9.55-2.53.74-.67-.1-2-.3-2.67-.4-1.54-2.11-3.25-4.08-4.86-6.12-1.07-.25-2.15-.49-3.22-.72-1.29-2.07-2.46-4.22-3.49-6.43-2.89-1.63-6.04-3.05-8.14-5.73-2.09-2.6-5.15-4.26-6.94-7.12-1.9-3.04-5.14-4.83-7.33-7.62-2.66-3.55-7.02-5.17-9.84-8.58-.6-.12-1.8-.34-2.4-.45-1.34-2.9-3.04-5.7-5.88-7.37-.37 2.01-.23 4.07.58 5.96 2.94 7.97 5.65 16.03 9.02 23.83-.69.23-2.06.69-2.74.92-.53 1.59-1.22 3.21-.89 4.93.91 6.08.39 12.23.54 18.36.1 5.05.09 10.13-.71 15.14-.8 3.38 1.48 6.47 1.12 9.83-.36 3.76-.47 7.56.24 11.29-3.7-2.61-7.27-5.42-10.44-8.66-1.14-1.37-2.94-1.69-4.53-2.25-.13-.24-.4-.7-.54-.93-.54-.27-1.61-.82-2.15-1.09-5.22-3.38-10.14-7.18-15.41-10.48 1.09-3.62 2.26-7.21 3.33-10.83l.18-.51c3.07-6.99 5.3-14.29 7.99-21.41 1.42-3.97 3.76-7.56 4.94-11.61 1.85-8.4 6.04-16.05 8.21-24.35l.25-.01c5.32.39 10.16-2.32 15.42-2.31 3.98.1 7.44-2.12 11.26-2.84 3.33-.66 6.74-.93 9.98-1.98 4.37-1.48 9.26-.06 13.48-2.13z" fill="#545454"/><path d="m5.08 196.15c3.68-4 9.9-3.94 14.66-2.16 3.03.84 5.92 2.88 9.19 2.18-1.53-1.09-3.42-1.26-5.21-1.56 1.64.03 3.97-1.22 5.21.42.71 1.33 3.31 1.13 3.05 2.98l-.43.28c2.98 1.46 6.13 2.54 9.28 3.58-1.02.92-2.04 1.86-3.06 2.78-.2 5.48-.19 11.01-1.95 16.28 3.09 1.91 6.32 3.65 9.9 4.45.86.51 1.73 1.03 2.58 1.56-2.12-.08-4.24-.05-6.35.13-.26.01-.78.01-1.05.02l-.75-.29c-3.92-2.51-8.63-3.2-12.86-5.03-3.75-1.62-7.64-2.83-11.64-3.62l-.33-.09c-2.86-.91-5.65-2.01-8.4-3.21-.04-.61-.12-1.84-.16-2.45l-1.59 1.59c-1.17-2.01-2.42-3.99-3.2-6.18-1.57-4.04.15-8.72 3.11-11.66m24.29.95-.21.76c1.85 1.43 2.16-2.1.21-.76z" fill="#545454"/><path d="m544.36 198c5.28-1.3 10.13-4.06 15.58-4.75-.21 1.33-1.34 1.98-2.41 2.59 1.34-.05 2.68-.06 4.03-.14-.32-.83-.65-1.65-.97-2.46 3.21-.12 7.81-.69 9.38 2.96 4.34 1.94 4.28 7.43 5.02 11.43-.68-.25-2.03-.76-2.71-1.01l1.4 1.67c-1.29 6.19-7.89 7.8-12.94 9.77l-.11.04c-6.2 1.58-12.06 4.22-18.15 6.16-1.48-.66-2.96-1.32-4.43-1.97 1.28-.26 2.58-.52 3.88-.79-1.08-5.53.59-11.38-1.87-16.63-1.68-.77-3.62-1.34-4.51-3.15 2.8-1.52 5.82-2.52 8.77-3.7z" fill="#545454"/><path d="m256.71 214.96c4.88-2.64 8.69-6.81 13.6-9.42 1.29 1.2 2.59 2.4 3.9 3.58-1.53.68-3.02 1.43-4.46 2.27 1.52 0 3.03-.02 4.55-.03-.42 1.81-1.6 3.21-2.91 4.46-1.46-.77-2.96-1.47-4.52-2.02.67 3.06 3.07 5.17 5.19 7.29.1 14.16-.16 28.33.15 42.49 1.98.23 3.97.48 5.95.77-1.64 1.87-4.03 2.39-6.42 2.47-4.89-1.99-10.1-3.01-15.38-2.89-.52-.97-1.28-1.45-2.28-1.46-10.1 0-19.58-4.24-29.61-4.84-5.58-2.24-11.58-3.26-17.53-3.9-2.06-.09-3.74-1.38-5.44-2.37 1.01-1.05 2.01-2.09 3.05-3.1 1.84-1.25 3.76-2.35 5.68-3.48 6.57-2.77 11.46-9.51 19.07-9.42.74-1.48 1.08-3.29 2.26-4.49 2.63-1.47 5.49-2.57 7.9-4.42 5.52-4.17 11.61-7.49 17.25-11.49z" fill="#545454"/><path d="m178.89 313.4c1.95-2.39 5.66-.85 8.33-1.21 4.99.12 9.85 1.63 14.86 1.43 11.01-.27 22.01.58 32.94 1.71 5.74.24 11.5-.42 17.21.48-4.07.26-8.13.51-12.2.64 3.75.12 7.5.37 11.22.89-.89.32-1.78.64-2.67.96-4.19-.74-8.34.1-12.02 2.18.09.76.19 1.53.28 2.31-.47.73-.93 1.46-1.4 2.21.93 6.21.39 12.49.7 18.74.51.2 1.52.61 2.02.81 1.25-.51 2.5-1.02 3.76-1.53-.01.68-.02 2.03-.03 2.71-1.58.17-3.15.34-4.72.53-.01 1.05-.01 2.12 0 3.18 1.58.22 3.16.42 4.75.63-4.98 2.74-10.49 4.78-14.43 9.07-2.08.43-4.21.79-6.14 1.72-2.78 1.06-5.34 2.96-8.34 3.28-3.53-1.28-4.39-5.61-7.04-8-2.5-3.14-3.7-7.08-6.07-10.31-2.54-3.47-3.85-7.68-6.76-10.89-4.71-7.21-9.23-14.54-14.25-21.54z" fill="#545454"/><path d="m372.67 350.94c.1-.1.31-.28.41-.38 1.42.42 2.89.34 4.31-.05.26 2.09.53 4.2 1.2 6.21 1.91 5.22 2.17 10.84 3.91 16.11 2.45 14.85 8.47 28.84 10.9 43.71-.45-.28-1.36-.85-1.81-1.13-.39-3.61-1.2-7.26-4.14-9.68 1.34 9.72-.15 19.59 1.66 29.26.32 2.01.8 4 .97 6.04-.43 2.07-1.76 3.85-2.09 5.95-.39 4.26 1.29 8.67-.38 12.81.44.21 1.32.62 1.76.83-.88 2.31-1.22 5.12-3.06 6.88-.25-.61-.75-1.84-.99-2.46 1.55 4.77-2.49 8.5-3.26 12.96.03.58.07 1.73.1 2.31l-1.47-.06c-3.75-8.39-.76-17.81-2.38-26.61-.04-7.89-.86-15.77-.57-23.67-.35-13.64.31-27.31-.65-40.93-.01-8.7-.19-17.41-1.1-26.06-.17-3.36.22-6.71.34-10.07-1.34.28-2.67.56-4.01.85.09-.95.2-1.89.35-2.82z" fill="#545454"/><path d="m244.87 423c.39-.22 1.18-.68 1.57-.9-2.38 4.87-1.98 10.34-2.71 15.57-1.23.21-2.46.42-3.68.65-.16 3.52-.39 7.09.14 10.6.46 3.16 2.6 5.85 2.7 9.09.18 4.07-.49 8.11-.93 12.15-.63-.02-1.9-.06-2.53-.08-3.43-3.84-7.6-6.94-10.97-10.83-4.57-4.21-9.92-7.55-14.12-12.16 2.25-3.1 5.8-4.73 8.58-7.24 2.18-1.92 4.93-2.97 7.32-4.58 5.48-3.34 9.8-8.12 14.63-12.27z" fill="#545454"/><path d="m142.18 183.42c.07-.06.22-.19.3-.26-.08.07-.23.2-.3.26z" fill="#cbcbcb"/><path d="m303.47 185.13c4.56-.45 9.1.22 13.55 1.13 4.52.35 9 1 13.4 2.09 5 .5 10.06.64 14.94 1.99 16.99 1.33 33.55 6.18 50.67 6.62-2.14 1.95-5.31 1.15-7.94 1.35-6.18.29-11.97-2.46-18.13-2.32-3.15-.03-6.31-.06-9.46-.22-3.66-.73-7.12-2.11-10.6-3.38-7.02-1.25-14.47 1.02-21.23-1.75-3.22-1.06-6.76-.08-9.93-1.35-2.22-.9-4.59-1.33-6.94-1.76-1.87-.56-3.74-1.13-5.64-1.57.16 1 .33 1.99.52 2.99l.3 1.44c-1.57-1.46-2.73-3.26-3.51-5.26z" fill="#878787"/><path d="m391.95 456.23c2.02-5.71 4.09-11.52 7.19-16.75-1.29 4.7-4.15 8.81-5.15 13.6-.75 1-1.41 2.07-2.04 3.15z" fill="#878787"/><path d="m349.22 569.99c2.25.49 4.42 1.39 6.19 2.88-2.14-.79-4.34-1.52-6.19-2.88z" fill="#878787"/><path d="m128.15 186.16c1.61-.53 2.17.03 1.66 1.67-1.62.52-2.17-.03-1.66-1.67z" fill="#2c2c2c" opacity=".2"/><path d="m306.16 185.96c1.9.44 3.77 1.01 5.64 1.57.41 1.41.76 2.86 1.41 4.2 2.11.92 4.52.51 6.77.69-.12 1.88-.4 3.75-.9 5.56-1.54-1.13-3.06-2.3-4.57-3.46.28-.31.85-.92 1.13-1.22-3.26-.84-6.21-2.46-8.96-4.35-.19-1-.36-1.99-.52-2.99z" fill="#a0a0a0"/><path d="m136.22 189.09c-.68-1.84-.09-2.49 1.77-1.97-.39.83-.99 1.49-1.77 1.97z" fill="#eaeaea"/><path d="m434.62 191.17c-.46-1.44-.92-2.88-1.24-4.35.66 1.28 1.57 2.61 3.05 3.03l1.24.48c.22.5.67 1.49.89 1.99.53 1.64 1.94 2.69 3.35 3.55 1.64 1.25 2.83 3.01 3.92 4.74.51.94 1.12 1.83 1.82 2.66-.65-.06-1.96-.17-2.62-.22-1.67-.77-3.33-1.54-5-2.28.19-.51.57-1.52.76-2.03-2.63-2.57-6.21-4.2-7.75-7.78.4.05 1.19.16 1.58.21z" fill="#5b5b5b"/><path d="m293.96 190.62c2.49-1.27 5.06-2.97 7.99-2.74 1.98 1.46 3.04 3.76 4.31 5.8 2.03 3.5 4.72 6.55 6.79 10.03 7.3 13.23 16.33 25.41 24.02 38.4 2.84 5.62 6.92 10.48 9.81 16.08 3.12 5.76 7.63 10.64 10.23 16.68 1.49 3.15 4.5 5.5 5.05 9.09-4.01-.96-7.94-2.25-12.01-2.95-5.3-.91-10.42-3.05-15.9-2.69-1.16-.14-2.33-.27-3.48-.4-12.47-1.96-24.8-4.72-37.16-7.27-2.38-.41-4.82-.73-6.9-2.03 2.46-3.31 7.49-2.16 9.71-5.87-1.74-.43-3.49-.84-5.24-1.24-.33-21.01.25-42.03-.3-63.04-1.83-.4-3.65-.87-5.34-1.67 2.81-2.04 6.25-3.35 8.42-6.18z" fill="#474747"/><path d="m387.45 405.73c2.94 2.42 3.75 6.07 4.14 9.68.45.28 1.36.85 1.81 1.13 2.28 7.38 4.11 14.86 5.87 22.38l.07.24-.2.32c-3.1 5.23-5.17 11.04-7.19 16.75l-.02.08c-1 1.34-1.9 2.76-2.56 4.31-.44-.21-1.32-.62-1.76-.83 1.67-4.14-.01-8.55.38-12.81.33-2.1 1.66-3.88 2.09-5.95-.17-2.04-.65-4.03-.97-6.04-1.81-9.67-.32-19.54-1.66-29.26z" fill="#474747"/><path d="m399.28 195.38c.53-.33 1.06-.66 1.61-.99 3.68 2.68 8.64 2.11 12.66.53.45.19.9.38 1.37.57 1.26-.59 2.53-1.17 3.81-1.75-.12 1.32-.23 2.65-.34 3.98 4.95 1.06 9.9 2.18 14.65 3.96 1.1-.87 2.18-1.74 3.29-2.61 1.21.59 2.45 1.16 3.7 1.7 1.67.74 3.33 1.51 5 2.28.64.63 1.27 1.28 1.9 1.94-2.4.06-4.8-.12-7.08-.87-4.31-1.38-8.95-.4-13.28-1.65-5.05-1.54-10.41-1.02-15.53-2.15-3.7-.85-7.51-1.19-11.3-.93 1.59 2.24 4.78 1.11 7.1 1.74 6.58 1.16 13.1 2.76 19.69 3.95-.12 2.73-.84 5.62.26 8.25 2.41 5.15 1.13 10.96 1.04 16.43-2.31.23-4.63.46-6.93.72.59 2.69 2.75 3.73 5.34 3.95-.02 2.02-1.08 3.72-2.14 5.36.69-.18 1.38-.34 2.08-.49 5.79-4.56 8.08-11.89 13.06-17.14 1.92-2.34 3.77-4.86 6.52-6.28-.81 2.66-1.94 5.28-2.04 8.09-.04 22.02.06 44.04-.05 66.06-.59 6.33 5.56 9.9 9.58 13.68 2.72 1.82 2.69 6.6 6.59 6.58-.48.6-.96 1.2-1.44 1.81.09 2.58.66 5.31-.39 7.79-.92 2.49-2.27 5.07-1.28 7.78-.47 1.28-.88 2.59-1.33 3.88-.63 1.75-1.38 3.44-2.23 5.09-3.94 7.78-8.23 15.41-11.17 23.65l-.16.41c-.68.7-1.29 1.45-1.84 2.25l-.01-.96c-.07-3.33-.9-6.59-2.28-9.61-1.77-3.95-2.74-8.17-4.31-12.19-4.17-8.94-5.77-18.78-9.59-27.86.51-6.22-3.48-11.36-4.99-17.15-2.84-9.6-6.54-18.93-9.58-28.44-3.5-1.47-6.71-3.53-9.52-6.07-2.55-2.11-5.09-4.23-7.69-6.27.57-.38 1.71-1.14 2.28-1.53-1.97-2.51-4.95-3.81-7.5-5.61-3.17-2.13-5.69-5.06-8.91-7.12-2.22-1.37-3.81-3.46-5.38-5.48-4.04-.38-6.49-3.77-9.84-5.58-1.03-1.72-2.12-3.46-3.72-4.72 1.68-2.09 4.49-4.12 3.9-7.16-.77-.69-1.56-1.35-2.36-1.99.45-5.64.94-11.34.2-16.97-1.59-1.98-4.45-.02-6.54-.02-.2 5.07-.25 10.14-.04 15.21 1.28.69 3.88.29 3.79 2.34-3.81 1.11-9.72-1.03-9.06-5.78-.3-2.79-.17-5.81 2.95-6.81.08-1.97.12-3.93.14-5.89-2.41-.18-4.8-.45-7.15-.93 5.21-.63 10.48-.08 15.71-.59 3.15.16 6.31.19 9.46.22 6.16-.14 11.95 2.61 18.13 2.32 2.63-.2 5.8.6 7.94-1.35.37-.52 1.1-1.55 1.46-2.07.45.12 1.34.37 1.79.49m24.31 91.3c-.35 4.01 1.34 7.9 3.99 10.85 1.29.62 1.65-.87 2-1.79-.17-3.25-.94-6.45-1.89-9.55-1.36.14-2.85-.19-4.1.49z" fill="#919191"/><path d="m135.17 199.96c-.81-1.89-.95-3.95-.58-5.96 2.84 1.67 4.54 4.47 5.88 7.37.6.11 1.8.33 2.4.45 2.82 3.41 7.18 5.03 9.84 8.58 2.19 2.79 5.43 4.58 7.33 7.62 1.79 2.86 4.85 4.52 6.94 7.12 2.1 2.68 5.25 4.1 8.14 5.73 1.03 2.21 2.2 4.36 3.49 6.43 1.07.23 2.15.47 3.22.72 1.61 2.04 3.32 4.01 4.86 6.12 1.09 3.22.86 7.77 5.04 8.59l.39.41c1.05 3.08-.1 5.95-2.42 8.07.54.41 1.62 1.22 2.16 1.63-1.2 1.81-2.48 3.58-3.45 5.53-2.53 5.15-2.5 11.19-5.61 16.09-2.22 7.38-3.11 15.47-7.46 22.06-.28-.64-.86-1.93-1.14-2.57-3.55-7.36-4.98-15.53-8.8-22.77-3.49-12.14-8.95-23.56-12.89-35.54-2.2-7.5-6.04-14.38-8.32-21.85-3.37-7.8-6.08-15.86-9.02-23.83z" fill="#919191"/><path d="m49.48 229.99c4.23.7 8.13 2.58 12.27 3.6 3.18.81 6.37-.3 9.37-1.28-4.35 3.47-10.79 2.28-15.53.17-1.94-1.07-4.49-.9-6.11-2.49z" fill="#919191"/><path d="m122.14 322.83c1.18-.23 2.36-.48 3.54-.72.42.59.85 1.18 1.29 1.77 2.14 2 5.02 3.1 6.66 5.64.88.33 1.76.66 2.64 1 .11.32.34.98.45 1.3 2.43.3 5.05.08 7.31 1.16 2.64 1.9 4.45 4.67 6.77 6.92.56-.36 1.11-.72 1.67-1.08 3.48 1.21 7.38 1.92 9.91 4.85 1.32 1.56 3.21 2.28 5.14 2.79-.39.43-.78.86-1.17 1.3 1.13.2 2.27.41 3.4.62-.42.38-1.27 1.13-1.69 1.5 1.85-.22 3.71-.59 5.58-.44 1.47.67 2.69 1.76 3.98 2.72-.39.53-.78 1.06-1.17 1.6 2.33.16 4.8-.07 6.99.91 2.29.9 4.54 2.77 7.11 1.63-4.9-4.1-11.01-6.21-16.33-9.64-3.52-2.39-7.92-3.02-11.29-5.65-6.03-4.24-13-6.83-19.19-10.79-2.58-1.5-5.3-2.71-7.91-4.15 5.71-.53 11.45 1.75 15.73 5.48.25-.25.75-.76 1-1.01.77 1.18 1.47 2.42 2.43 3.47 1.44.75 3.15.27 4.71.36-.5.45-.98.9-1.47 1.36 3.08.7 6.23.74 9.36.91 2.6 2.58 4.52 5.94 8.07 7.42.7-3.02.98-6.21 2.43-8.99 1.76-2.95 5.48-3.4 8.32-4.84.08.34.24 1.03.33 1.37.56.26 1.69.79 2.26 1.05-.49 2.39-2.53 3.41-4.72 3.93-.22 1.61-.42 3.23-.63 4.85-2.56.45-4.77 1.63-5.6 4.23 1.93.16 3.88.22 5.78.63 2.57 2.85 5.13 6.48 9.55 5.77.59-2.42 1.85-4.55 3.62-6.28.85.99 1.71 1.99 2.56 2.99-.96 1.89-2.11 3.9-1.49 6.1 1.56 1.54 3.56 2.54 5.44 3.63-.45.41-.91.82-1.35 1.24.72.06 2.17.2 2.9.26.69.06 2.06.19 2.75.25.91 1.84 1.76 3.72 2.51 5.64-2.48-1.1-4.92-2.28-7.29-3.59-2.22-1.27-4.43-2.55-6.71-3.71.31-.3.92-.88 1.23-1.18-.14-.25-.42-.74-.56-.99-1.62.38-3.25.76-4.88 1.14.02 1.01.03 2.02.05 3.04 1.19.26 2.38.52 3.58.78.28.34.85 1.03 1.14 1.37-1.58-.21-3.15-.41-4.72-.6-.08.7-.26 2.1-.34 2.81 2.6.8 4.79 2.36 6.13 4.76-2.08.27-4.16.53-6.25.8.91 1.22 1.82 2.44 2.73 3.67-1.29.59-2.57 1.18-3.86 1.75-2.77.77-5.21 2.28-7.75 3.56-9.91 5.1-20.91 7.68-30.62 13.22.26.69.53 1.38.81 2.08-.89-.66-1.82-1.26-2.75-1.84-.71-1.35-.63-3.35-2.44-3.74.04-1.8-.44-3.53-.89-5.25-.06-1.66-.15-3.94-2.16-4.38l-.62-.26c-.09-.57-.27-1.7-.36-2.27-4.99-11.24-10.7-22.13-15.9-33.27-.07-.15-.22-.45-.29-.61-3.2-6.22-6.04-12.62-9.34-18.8 1.3-.51 2.58-1.06 3.88-1.55z" fill="#919191"/><path d="m281.55 198.75c1.32-.66 2.68-1.26 3.99-1.95 1.69.8 3.51 1.27 5.34 1.67.55 21.01-.03 42.03.3 63.04 1.75.4 3.5.81 5.24 1.24-2.22 3.71-7.25 2.56-9.71 5.87-4.63-.13-9.23-.7-13.79-1.46-.3-.08-.89-.25-1.18-.34 2.39-.08 4.78-.6 6.42-2.47-1.98-.29-3.97-.54-5.95-.77-.31-14.16-.05-28.33-.15-42.49-2.12-2.12-4.52-4.23-5.19-7.29 1.56.55 3.06 1.25 4.52 2.02 1.31-1.25 2.49-2.65 2.91-4.46-1.52.01-3.03.03-4.55.03 1.44-.84 2.93-1.59 4.46-2.27-1.31-1.18-2.61-2.38-3.9-3.58 2.48-1.36 5.15-2.3 7.76-3.39 1.38-.89 2.45-2.14 3.48-3.4z" fill="#4e4e4e"/><path d="m276.58 366.87c3.88-7.21 8.57-13.93 11.83-21.48 1.52 3.89 2.18 8.04 2.46 12.19-.7.25-2.09.75-2.78 1-.33 2.98.14 5.94 1.38 8.68 1.68 3.52-.62 7.06-2.01 10.23-1.05.34-2.09.69-3.13 1.05-.39 1.69-.77 3.38-1.16 5.08 1.62.24 3.23.49 4.85.75-.1 1.42.24 2.96-.38 4.31-2.96 5.18-1.43 11.34-1.51 16.99.69.05 2.07.16 2.75.22.32-4.69-.14-9.42.7-14.07.46 4.6.25 9.22.58 13.83 1.91.21 3.81.43 5.72.65-1.2.7-2.39 1.41-3.58 2.13.67.63 1.35 1.26 2.03 1.9 3.74.18 8.69-1.79 11.47 1.56-.26.53-.77 1.59-1.03 2.12-5.17.9-10.45.19-15.66.32-2.04-3.44-6.44-2.09-9.72-2.59-2.64-6.54-3.01-13.65-3.48-20.6.97-.71 1.95-1.41 2.93-2.12-.55-1.33-1.1-2.67-1.64-3.99.46-.9.92-1.78 1.38-2.67-.53-.19-1.59-.56-2.12-.75 3.06-3.93 3.57-9.41.68-13.58-.14-.29-.42-.87-.56-1.16z" fill="#4e4e4e"/><path d="m29.37 197.1c1.95-1.34 1.64 2.19-.21.76z" fill="#a9a9a9"/><path d="m308.4 406.59c1.27-.33 2.55-.61 3.84-.85-.95 1.3-.85 4.54-3.12 4-.18-.79-.54-2.36-.72-3.15z" fill="#a9a9a9"/><path d="m319.87 198.17c1.7.15 3.88-.74 5.09.89 4.2 4.34 9.45 7.48 14.82 10.15 1.86.63 2.43 2.53 3.06 4.18 3.3 1.8 6.68 3.64 9.19 6.52 1.8 2.16 4.51 3.16 6.93 4.45 1.6 1.26 2.69 3 3.72 4.72 3.35 1.81 5.8 5.2 9.84 5.58 1.57 2.02 3.16 4.11 5.38 5.48 3.22 2.06 5.74 4.99 8.91 7.12 2.55 1.8 5.53 3.1 7.5 5.61-.57.39-1.71 1.15-2.28 1.53-1.68-1.31-3.38-2.61-5.02-3.95-5.82-5.08-12.44-9.13-18.32-14.13-6.42-4.57-12.55-9.51-18.63-14.52-6.97-4.92-13.64-10.25-20.37-15.5-3.3-2.68-6.97-4.93-9.82-8.13z" fill="#9e9e9e"/><path d="m271.63 443.51c-.81-1.65-1.87-3.54-.44-5.19 2.72 1.72 4.99 3.99 6.88 6.59 2.38 3.24 6.58 4.96 8.08 8.86-.79.16-2.38.47-3.17.63-3.21-4.05-6.17-9.28-11.35-10.89z" fill="#9e9e9e"/><path d="m399.74 199.39c3.79-.26 7.6.08 11.3.93 5.12 1.13 10.48.61 15.53 2.15 4.33 1.25 8.97.27 13.28 1.65 2.28.75 4.68.93 7.08.87-.63-.66-1.26-1.31-1.9-1.94.66.05 1.97.16 2.62.22.33.03.98.09 1.31.12 2.72 2.27 2.18 6.43 3.74 9.42-.93 2.31-1.8 4.66-2.53 7.05.97.92 1.92 1.87 2.82 2.88-.75.75-1.5 1.5-2.25 2.25-.32 4.68.01 9.4 1.32 13.91.98 2.98.41 6.09-.03 9.11-.64 2.81 1.26 5.25 2.1 7.8 1.09 2.34.18 4.91-.01 7.34-.51 3.64.92 7.21.64 10.86-.14 3.46-1.69 7-.17 10.37 2.07 6.05 2.24 12.62.39 18.74 1.82 2.21 5.04 3.91 4.86 7.17-3.9.02-3.87-4.76-6.59-6.58-4.02-3.78-10.17-7.35-9.58-13.68.11-22.02.01-44.04.05-66.06.1-2.81 1.23-5.43 2.04-8.09-2.75 1.42-4.6 3.94-6.52 6.28-4.98 5.25-7.27 12.58-13.06 17.14-.7.15-1.39.31-2.08.49 1.06-1.64 2.12-3.34 2.14-5.36-2.59-.22-4.75-1.26-5.34-3.95 2.3-.26 4.62-.49 6.93-.72.09-5.47 1.37-11.28-1.04-16.43-1.1-2.63-.38-5.52-.26-8.25-6.59-1.19-13.11-2.79-19.69-3.95-2.32-.63-5.51.5-7.1-1.74z" fill="#7f7f7f"/><path d="m367.72 260.88c.45-8.18.43-16.39.97-24.56 5.88 5 12.5 9.05 18.32 14.13-.52.36-1.54 1.08-2.06 1.44.55.6 1.09 1.21 1.64 1.81-.64.17-1.94.51-2.59.68-.81 4.51 2.02 8.32 3.34 12.41-.94.56-1.87 1.12-2.8 1.68-.38.94-.77 1.88-1.14 2.83-2.33 1.53-5.33 3.35-4.45 6.65.42.43 1.24 1.28 1.66 1.7-.27.65-.53 1.3-.78 1.96-3.6.61-7.14 3.22-10.84 1.87-.36-.2-1.07-.61-1.43-.81-1.13 0-2.26.04-3.38-.04-2.23-2.43-3.74-5.4-5.42-8.21.78-.8 1.55-1.6 2.34-2.39 2.14 2.17 4.23 4.4 6.36 6.59 1.9-5.8-.11-11.83.26-17.74z" fill="#7f7f7f"/><path d="m40.83 201.87c5.74 1.83 11.34 4.12 17.25 5.36.36.18 1.1.54 1.46.71.95.57 1.91 1.13 2.88 1.67-1.49.61-2.98 1.2-4.47 1.79 1.58.57 3.15 1.16 4.72 1.79-4.34 1.45-9.16.11-13.32 2.14-.86-1.26-1.72-2.51-2.57-3.77-1.35 1.13-2.7 2.27-4.05 3.41 1.6.94 3.21 1.87 4.82 2.81.73 2.3 1.49 4.59 2.3 6.87-1.38.25-2.76.5-4.13.73-3.58-.8-6.81-2.54-9.9-4.45 1.76-5.27 1.75-10.8 1.95-16.28 1.02-.92 2.04-1.86 3.06-2.78z" fill="#4c4c4c"/><path d="m527.8 203.71c2.59-.63 5.17-1.3 7.75-1.99.89 1.81 2.83 2.38 4.51 3.15 2.46 5.25.79 11.1 1.87 16.63-1.3.27-2.6.53-3.88.79 1.47.65 2.95 1.31 4.43 1.97-3.71 1.32-7.41 2.65-11.12 3.95-1.79-.93-3.57-1.88-5.35-2.82.75-.54 1.51-1.08 2.28-1.61-1.7-2.88-1.34-6.29-1.44-9.49-5.32-.41-10.64-.54-15.97-.65 5.76-1.31 11.08-5.3 17.21-3.77.42-2.37-1.05-3.84-3.04-4.8.35-.24 1.04-.72 1.39-.96.34-.1 1.02-.3 1.36-.4z" fill="#4c4c4c"/><path d="m236.56 320.48c3.68-2.08 7.83-2.92 12.02-2.18-1.35.81-2.62 1.74-3.87 2.71 3.57.62 7.2.27 10.79.65.24-.57.71-1.7.95-2.27 2.22 1.12 4.47 2.16 6.76 3.14.14.3.43.89.58 1.19 2.88.09 5.77.2 8.65.5-4.56 4.17-12.86 4.61-14.56 11.61 2.29-.51 4.56-1.11 6.82-1.76-1.02 1.52-2 3.06-2.98 4.61-.86 1.16-2.01 2.05-3.32 2.66-5.56 2.77-11.21 5.41-16.48 8.73-1.59-.21-3.17-.41-4.75-.63-.01-1.06-.01-2.13 0-3.18 1.57-.19 3.14-.36 4.72-.53.01-.68.02-2.03.03-2.71-1.26.51-2.51 1.02-3.76 1.53-.5-.2-1.51-.61-2.02-.81-.31-6.25.23-12.53-.7-18.74.47-.75.93-1.48 1.4-2.21-.09-.78-.19-1.55-.28-2.31z" fill="#4c4c4c"/><path d="m280.98 321.27c5.22-1.67 10.79-1.35 16.18-.9-1.78.93-3.61 1.76-5.34 2.76-.68-.38-2.03-1.16-2.71-1.54-.76.76-1.51 1.53-2.25 2.3-4.55-.03-9.13.43-13.64-.27-1.31-.65-.97-2.35-1.33-3.51 3.07-.19 6.24-.19 9.09 1.16z" fill="#4c4c4c"/><path d="m516.38 207.86c2.94-.74 5.92-1.48 8.67-2.79 1.99.96 3.46 2.43 3.04 4.8-6.13-1.53-11.45 2.46-17.21 3.77 5.33.11 10.65.24 15.97.65.1 3.2-.26 6.61 1.44 9.49-.77.53-1.53 1.07-2.28 1.61 1.78.94 3.56 1.89 5.35 2.82-7.5 1.92-14.53 6.19-22.46 5.99l-.85-.06c0-1.74-2.13-2.53-3.51-1.76-.39-.38-1.18-1.13-1.57-1.51-1.4-2.77-3-5.66-2.97-8.85.01-3.14 1.81-5.84 3.18-8.54.12-.11.36-.33.49-.43 4.15-1.92 8.54-3.23 12.68-5.18z" fill="#444"/><path d="m57.95 211.4c1.49-.59 2.98-1.18 4.47-1.79 3.21 1.26 6.47 2.39 9.72 3.55l.38.14.11.27c1.47 3.41 2.7 6.92 3.4 10.57l-.07.78c-.27.45-.82 1.34-1.1 1.79l-.04 1.65c-.06.08-.16.23-.22.3-.93 1.4-1.95 2.84-3.48 3.65-3 .98-6.19 2.09-9.37 1.28-4.14-1.02-8.04-2.9-12.27-3.6-.24-.07-.72-.21-.97-.28-2.22-.79-4.38-1.75-6.56-2.64 2.11-.18 4.23-.21 6.35-.13-.85-.53-1.72-1.05-2.58-1.56 1.37-.23 2.75-.48 4.13-.73-.81-2.28-1.57-4.57-2.3-6.87-1.61-.94-3.22-1.87-4.82-2.81 1.35-1.14 2.7-2.28 4.05-3.41.85 1.26 1.71 2.51 2.57 3.77 4.16-2.03 8.98-.69 13.32-2.14-1.57-.63-3.14-1.22-4.72-1.79z" fill="#444"/><path d="m418.61 305.44c-1.23-1.92-2.41-4.71.13-6.17 1.59 4.39 3.32 8.73 5.07 13.06 3.82 9.08 5.42 18.92 9.59 27.86 1.57 4.02 2.54 8.24 4.31 12.19 1.38 3.02 2.21 6.28 2.28 9.61-1.51-.22-3.01-.44-4.5-.68-1.36-4.09-6.15-2.63-9.21-4.41-3.42-1.66-7.09-3.15-10.98-2.43.01-.6.04-1.79.05-2.39 1.63-.12 3.25-.24 4.89-.35.1-.38.32-1.15.42-1.53 4.08-.16 8.03-1.27 11.68-3.08.11-1.12.24-2.24.39-3.35-.59.66-1.15 1.35-1.7 2.06-2.84.22-5.67.82-8.1 2.37-.48-.19-1.45-.58-1.93-.78.98-.35 1.97-.69 2.96-1.03-2.8-.1-5.82.01-8.14-1.82 2.87-1.07 5.76-2.07 8.64-3.12-.02-.81-.03-1.61-.03-2.42 1-1.81 2.79-3.59 2.2-5.83-1.17-5.99-2.57-12.04-5.39-17.49-1.9-3.16-.52-7.21-2.63-10.27z" fill="#444"/><path d="m504.45 212.37c3.64-2.22 7.78-3.49 11.9-4.5-4.14 1.95-8.53 3.26-12.68 5.18z" fill="#9d9d9d"/><path d="m351.89 290.1c3.84-1.89 7.61-4.36 11.98-4.71-.64 1.51-1.27 3.03-1.94 4.52-3.96 8.07-6.69 16.65-10.22 24.88-2.58 5.27-4.87 10.68-7.03 16.14-1.77 4.67-4.55 8.9-5.94 13.72-1.46 4.62-4.08 8.76-5.73 13.32-4.38 9.55-7.95 19.46-12.17 29.09-.82.31-1.66.6-2.41 1.08.07 1.01.18 2.03.33 3.04-2.02 4.43-3.47 9.11-5.74 13.43l-.8-.72c-1.2-6.08 4.99-10.78 4.01-16.89-.47.41-1.42 1.25-1.89 1.66-.02-1.57-.05-3.15-.06-4.71 3.38-1.64 7.06-3.73 8.02-7.68 2.1-7.4 6.42-13.87 8.65-21.21 1.39-4.67 5.38-8.11 6.13-13.04 1.42-7.46 6.37-13.65 7.75-21.1.78-4.79 4.65-8.18 6.33-12.6 1.95-5.64 5.39-10.67 6.77-16.51-1.61-.05-3.22-.17-4.82 0-2.05 1.63-3.59 3.87-5.9 5.18-2.58 1.4-5.35 2.4-8.06 3.5.53.37 1.06.75 1.6 1.13-6.74-.74-11.42 4.66-16.75 7.74-.48-.41-1.43-1.23-1.9-1.64 1-.75 2.01-1.52 3.07-2.21 2.88-1.56 5.82-3.02 8.47-4.95 3.43-2.52 7.58-3.66 11.39-5.44 2.6-1.2 4.54-3.4 6.86-5.02z" fill="#9d9d9d"/><path d="m389.37 460.62c.66-1.55 1.56-2.97 2.56-4.31-.7 2.45-1.89 4.73-2.97 7.04-.93 1.94-1.59 4.01-1.74 6.18l-.85.15c-1.39 2.72-2.8 5.44-3.25 8.51l-1.06-.19c.77-4.46 4.81-8.19 3.26-12.96.24.62.74 1.85.99 2.46 1.84-1.76 2.18-4.57 3.06-6.88z" fill="#9d9d9d"/><path d="m450.17 219.86c.73-2.39 1.6-4.74 2.53-7.05l.1 1.31c-.04 1.06.26 2.03.89 2.9 2.81 6.19 3.71 13.06 5.47 19.59.46.02 1.36.06 1.82.08.26 3.38.98 6.71.94 10.11-1.4-3.3-2.6-6.67-3.79-10.04.08 2.24.19 4.47.33 6.71-.34.36-1.01 1.1-1.35 1.46.71 2.3 1.38 4.64 1.45 7.06.38 8.73 1.96 17.38 1.8 26.15-.16 3.8 1.44 7.33 2.2 10.99.89 4.21-1.74 8.42-.39 12.6.27.03.8.1 1.07.13.63-1.84 1.13-3.72 1.68-5.59-.16 5.7-1.44 11.34-.93 17.09l-.35.63c-2.46 4.48-4.81 9.02-6.91 13.68-.99-2.71.36-5.29 1.28-7.78 1.05-2.48.48-5.21.39-7.79.48-.61.96-1.21 1.44-1.81.18-3.26-3.04-4.96-4.86-7.17 1.85-6.12 1.68-12.69-.39-18.74-1.52-3.37.03-6.91.17-10.37.28-3.65-1.15-7.22-.64-10.86.19-2.43 1.1-5 .01-7.34-.84-2.55-2.74-4.99-2.1-7.8.44-3.02 1.01-6.13.03-9.11-1.31-4.51-1.64-9.23-1.32-13.91l2.25-2.25c-.9-1.01-1.85-1.96-2.82-2.88z" fill="#686868"/><path d="m72.63 213.57c3.25 2.36 3.84 6.84 3.4 10.57-.7-3.65-1.93-7.16-3.4-10.57z" fill="#676767"/><path d="m394.37 264.26c.47-2.49 3.41-2.78 5.35-3.59 2.81 2.54 6.02 4.6 9.52 6.07 3.04 9.51 6.74 18.84 9.58 28.44 1.51 5.79 5.5 10.93 4.99 17.15-1.75-4.33-3.48-8.67-5.07-13.06-1.3-4.01-2.25-8.13-3.9-12.02-2.17-5.07-3.31-10.53-5.95-15.4-1.19 2-2.33 4.02-3.47 6.05-.26-.58-.78-1.73-1.04-2.3-.02-.33-.06-.97-.08-1.29.34-.27 1.02-.79 1.35-1.05.12-1.03.23-2.05.32-3.08-1.09.01-2.18.03-3.26.05-.11.34-.33 1.03-.44 1.38-3.97.66-7.77 2.02-11.66 2.99-.06.37-.18 1.11-.24 1.48-2.01.04-4.01.09-6.01.01-.05-.34-.15-1.01-.2-1.35 4.4-.45 7.14-4.08 10.96-5.8-.29-1.55-.68-3.1-.75-4.68z" fill="#676767"/><path d="m452.8 214.12c1.67.36 1.96 1.33.89 2.9-.63-.87-.93-1.84-.89-2.9z" fill="#9b9b9b" opacity=".92"/><path d="m502.97 230.87c-4.54-4.12-4.55-11.74-.91-16.46l1.12-.93c-1.37 2.7-3.17 5.4-3.18 8.54-.03 3.19 1.57 6.08 2.97 8.85z" fill="#838383"/><path d="m330.77 277.92c1.15.13 2.32.26 3.48.4.43.34 1.27 1.03 1.69 1.37 4.11.48 8.06 1.66 11.98 2.97-.57.3-1.14.6-1.7.91 3.4-.01 6.8.34 10.14 1.06-2.23 1.41-4.31 3.05-6.17 4.92.43.14 1.28.41 1.7.55-2.32 1.62-4.26 3.82-6.86 5.02-3.81 1.78-7.96 2.92-11.39 5.44-2.65 1.93-5.59 3.39-8.47 4.95-.75-.17-2.25-.52-3.01-.7 3.81-3.51 7.83-7.46 13.43-7.33-.48-.41-.94-.83-1.41-1.24 1.44-.35 2.88-.69 4.32-1.03.04-.77.08-1.54.12-2.31-1-.87-2.02-1.72-3.04-2.57 1.69-.29 3.4-.55 5.1-.79.4-1.04.8-2.07 1.2-3.1-2.14-.12-4.28-.25-6.41-.41.39-2.21 2.67-2.33 4.42-2.9-3.31-.61-6.94-.8-9.53-3.2.1-.5.31-1.51.41-2.01z" fill="#838383"/><path d="m354.83 314.79c.76-1.86 1.16-4.1 3.06-5.18.74 4-2.19 7.38-1.95 11.33.01 10.69.18 21.39.08 32.08.01 1.93-.34 3.85-1.01 5.67.16 1.3.31 2.61.46 3.92 1.53-.96 3.09-1.88 4.65-2.8-3.92 4.24-7.76 8.58-12.08 12.42-.46-.17-1.38-.51-1.83-.68.48-1.23 1.01-2.44 1.53-3.65-.51-5.62.21-11.25-.03-16.88.87-6.81.41-14-3.03-20.09 2.16-5.46 4.45-10.87 7.03-16.14z" fill="#838383"/><path d="m334.03 443c.49-.14 1.46-.41 1.94-.55 2.54 2.16 4.71 4.71 6.86 7.26-.86.32-1.71.65-2.56.99-.95-1.04-1.9-2.06-2.81-3.12-1.16-1.52-2.3-3.05-3.43-4.58z" fill="#838383"/><path d="m290.84 502.02c3.68-.72 7.31.14 10.64 1.72 2.45 1.07 5.06 1.64 7.63 2.37 2.93.62 4.32 3.82 7.16 4.67 3.94 1.23 8.45 1.32 11.42 4.61-4 .85-8.24-.37-11.5-2.74-2.99-2.1-6.69-2.6-9.97-4.05-4.84-2.9-10.46-3.93-15.38-6.58z" fill="#838383"/><path d="m74.86 226.71c.28-.45.83-1.34 1.1-1.79-.05.44-.15 1.31-.2 1.74z" fill="#585858" opacity=".63"/><path d="m74.6 228.66c.06-.07.16-.22.22-.3-.06.08-.16.23-.22.3z" fill="#898989"/><path d="m402.71 270.23c1.08-.02 2.17-.04 3.26-.05-.09 1.03-.2 2.05-.32 3.08-.33.26-1.01.78-1.35 1.05l-.65.51c-1.87 4.82-2.84 10.46-7.02 13.94-1.86 1.46-1.19 4.13-1.64 6.17.15 4.12-4.17 6.36-4.86 10.22-.73 1.84 1.02 3.16 1.9 4.53-1.28.33-2.57.61-3.85.9 1.16 2.23 1.78 4.7 1.04 7.17-1.53-.07-3.06-.14-4.58-.21-.52 2.48-.92 4.98-1.27 7.48-1.17.97-2.65 1.76-3.09 3.33-1.58 4.16-3.4 8.23-4.92 12.42.57-6.47-2.62-12.39-3.08-18.74-.42-4.64-1.47-9.19-3.54-13.38-.77-4.2-.31-8.63-1.79-12.72-1.27-4.1-2.25-9.78 2.04-12.45 3.7 1.35 7.24-1.26 10.84-1.87.25-.66.51-1.31.78-1.96-.42-.42-1.24-1.27-1.66-1.7 1.9.07 3.81.12 5.72.16-.07-.5-.23-1.51-.31-2.02 2 .08 4 .03 6.01-.01.06-.37.18-1.11.24-1.48 3.89-.97 7.69-2.33 11.66-2.99.11-.35.33-1.04.44-1.38z" fill="#898989"/><path d="m504.54 232.38c1.38-.77 3.51.02 3.51 1.76-1.4.05-2.62-.77-3.51-1.76z" fill="#646464" opacity=".76"/><path d="m199.64 247.38c1.61-5.14 4.98-9.49 8.03-13.86 1.19 5.49-3.34 9.67-5.57 14.21.61.13 1.84.4 2.45.53-1.04 1.01-2.04 2.05-3.05 3.1 1.7.99 3.38 2.28 5.44 2.37 5.95.64 11.95 1.66 17.53 3.9-7.06.71-13.72-2.81-20.81-1.73-.09-.43-.25-1.29-.33-1.71-.94.29-1.87.59-2.8.9-1.23-.92-2.46-1.83-3.69-2.74-2.58 5.02-2.7 10.85-5.35 15.83-2.93 7.93-5.73 15.92-8.2 24-1.49 5.99-4.39 11.47-6.46 17.26 1.05.58 2.13 1.15 3.3 1.5 1.76-.15 3.52-.33 5.28-.49.45.43 1.36 1.31 1.81 1.74-2.67.36-6.38-1.18-8.33 1.21-3.13-3.48-7.84-2.66-11.76-1.2-5.17-.29-10.35-.15-15.52.06 1.54-.69 3.13-1.28 4.72-1.84-.9-2.76-.53-5.52 1.37-7.75-2.5-4.42-5.58-8.73-9.93-11.5-3.91-2.84-7.51-6.2-12.13-7.88-2.74-3.8-6.88-6.13-11.13-7.87-.13-1.37-.27-2.74-.42-4.09.54.27 1.61.82 2.15 1.09.14.23.41.69.54.93 1.59.56 3.39.88 4.53 2.25 3.17 3.24 6.74 6.05 10.44 8.66 3.9 1.9 7.26 4.59 10.27 7.69 4.54 3.39 10.35 5.9 12.58 11.55.47-.42.94-.83 1.42-1.24.42.65.84 1.3 1.27 1.96.34.11 1.04.33 1.38.45.28.92.56 1.85.85 2.78 1.94 1.55 4.07 2.95 6.64 3.11-.27-1.36-.49-2.7-.82-4.04 4.35-6.59 5.24-14.68 7.46-22.06 3.11-4.9 3.08-10.94 5.61-16.09.97-1.95 2.25-3.72 3.45-5.53-.54-.41-1.62-1.22-2.16-1.63 2.32-2.12 3.47-4.99 2.42-8.07l2 1c1.64-1.69 2.96-3.62 4.28-5.55.31-.3.93-.9 1.24-1.21z" fill="#787878"/><path d="m251.05 419.38c.91-1.38 1.82-2.76 2.7-4.15 1.05 2.11 3.07 2.97 5.38 2.74.14.44.4 1.32.53 1.75-2.62.26-5.23.56-7.83.94-.2-.32-.58-.96-.78-1.28z" fill="#787878"/><path d="m191.41 246.17c.88-.05 2.66-.14 3.54-.18 1.15.87 2.29 1.75 3.45 2.6-1.32 1.93-2.64 3.86-4.28 5.55-.5-.25-1.5-.75-2-1l-.39-.41c.41-.45 1.24-1.36 1.65-1.81-.84-1.51-1.52-3.1-1.97-4.75z" fill="#5e5e5e"/><path d="m384.95 251.89c.52-.36 1.54-1.08 2.06-1.44 1.64 1.34 3.34 2.64 5.02 3.95 2.6 2.04 5.14 4.16 7.69 6.27-1.94.81-4.88 1.1-5.35 3.59.07 1.58.46 3.13.75 4.68-3.82 1.72-6.56 5.35-10.96 5.8.05.34.15 1.01.2 1.35.08.51.24 1.52.31 2.02-1.91-.04-3.82-.09-5.72-.16-.88-3.3 2.12-5.12 4.45-6.65.37-.95.76-1.89 1.14-2.83.93-.56 1.86-1.12 2.8-1.68-1.32-4.09-4.15-7.9-3.34-12.41.65-.17 1.95-.51 2.59-.68-.55-.6-1.09-1.21-1.64-1.81z" fill="#737373"/><path d="m229.36 622.37c.04.06.11.18.15.24-.04-.06-.11-.18-.15-.24z" fill="#737373"/><path d="m254.72 643.01c2.06 1.83 3.9 3.91 5.27 6.32-2.09-1.81-3.94-3.89-5.27-6.32z" fill="#737373"/><path d="m191.49 268.18c2.65-4.98 2.77-10.81 5.35-15.83 1.23.91 2.46 1.82 3.69 2.74-1.13.38-2.26.77-3.38 1.18-.55 3.67-1.1 7.34-1.78 10.99-2.16 1.54-3.33 3.86-3.89 6.41-2.3 5.9-2.93 12.33-5.79 18.02-1.9 6.4-4.37 12.65-5.56 19.25-1.17-.35-2.25-.92-3.3-1.5 2.07-5.79 4.97-11.27 6.46-17.26 2.47-8.08 5.27-16.07 8.2-24z" fill="#9f9f9f"/><path d="m464.95 258.32.89.04.55.91-.37.83c-.26-.44-.8-1.33-1.07-1.78z" fill="#686868" opacity=".69"/><path d="m220.12 262.15c2.93-.08 5.85-.13 8.79-.09 1.35 1.24 2.6 2.67 4.23 3.57 2.1.44 4.27.47 6.42.62.29 1.21.58 2.42.88 3.63 1.67.01 3.34.03 5.01.05.01-1.93-.2-4.43 1.99-5.31 2.95-.48 5.95-.48 8.92-.69 5.28-.12 10.49.9 15.38 2.89.29.09.88.26 1.18.34 4.56.76 9.16 1.33 13.79 1.46 2.08 1.3 4.52 1.62 6.9 2.03 12.36 2.55 24.69 5.31 37.16 7.27-.1.5-.31 1.51-.41 2.01 2.59 2.4 6.22 2.59 9.53 3.2-1.75.57-4.03.69-4.42 2.9 2.13.16 4.27.29 6.41.41-.4 1.03-.8 2.06-1.2 3.1-1.7.24-3.41.5-5.1.79 1.02.85 2.04 1.7 3.04 2.57-.04.77-.08 1.54-.12 2.31-1.44.34-2.88.68-4.32 1.03.47.41.93.83 1.41 1.24-5.6-.13-9.62 3.82-13.43 7.33.76.18 2.26.53 3.01.7-1.06.69-2.07 1.46-3.07 2.21.47.41 1.42 1.23 1.9 1.64-1.43.42-2.87.75-4.31 1.11-.05.67-.1 1.36-.14 2.04-1.28.57-2.55 1.14-3.82 1.72-.05.66-.09 1.32-.12 1.99-5.04 2.08-10.49 2.15-15.85 1.92-.83-.03-2.5-.11-3.34-.14-.43-1-.92-1.97-1.44-2.9-5.18-2.3-10.38-4.73-15.99-5.74-1.65-2.11-4.09-3.21-6.62-3.89-.36-1.45-.72-2.9-1.07-4.34.42-.31 1.27-.93 1.7-1.24 4.29 4.23 9.94 6.5 15.16 9.32.03-3.84-3.65-5.6-6.93-6-.19-.95-.37-1.9-.54-2.85-.53.48-1.06.96-1.58 1.44-.06-2.27 1.4-5.33-1.01-6.84-2.2-2.13-5.25-.64-7.38.75-1.54-.85-3.08-1.71-4.6-2.58.41-1.63.83-3.27 1.25-4.89 1.51-.2 3.02-.4 4.53-.59-.02-1.84-.03-3.68-.04-5.51-6.08-.96-11.5 2.93-17.62 2.4-.51-2.61 1.31-4.63 2.73-6.57 7.31-.18 14.66.56 21.95-.23-.03-.37-.11-1.1-.14-1.47-7.58-.82-15.21.06-22.81-.23-5.09-.3-10.48.78-15.28-1.41-3.12-1.06-5.53-3.33-8.08-5.29-2.06-1.78-4.98-1.07-7.43-1.66-1.92-1.62-3.4-3.67-5.06-5.53m87.92 49.82c-2.34 2.02-5.87 1.48-8.08 3.65 1.41.32 2.84.63 4.26.93 3.55-2.86 7.94-4.14 11.9-6.25-2.88-1.14-5.8-.22-8.08 1.67z" fill="#929292"/><path d="m320.22 435.43c1.88.06 3.77.04 5.65-.01-.56.96-1.12 1.91-1.67 2.88 1.16 4.05 1.55 8.81 4.93 11.75 1.76-.28 3.23-1.4 4.9-1.98 1.01.4 1.97.95 2.95 1.46.12-.49.36-1.46.48-1.95.91 1.06 1.86 2.08 2.81 3.12.85-.34 1.7-.67 2.56-.99-2.15-2.55-4.32-5.1-6.86-7.26 1.53-.38 3.2-.92 4.72-.16 1.09 1.62 1.88 3.42 3.02 5.02 1.76-.09 3.29-1.19 4.91-1.79.27-1.13.54-2.25.81-3.37.61-.01 1.84-.03 2.45-.04.05 1.81.1 3.62.15 5.44-1.29.1-2.57.22-3.85.33.08 1.35.24 2.72.2 4.1-.88.98-2.38.15-3.49.24-.92-.4-1.83-.78-2.75-1.16.09.54.25 1.64.33 2.19 2.85 1.13 4.21 3.84 6.05 6.06 7.3 5.33 12.68 12.68 18.91 19.12.54 1.57.31 3.29.42 4.93-1.45.52-2.89 1.05-4.32 1.58 1.38.5 2.78 1.01 4.18 1.52.36 6.61.41 13.26-1.76 19.59 1.88-1.58 3.01-3.76 3.92-6-.35 3.13-.56 6.28-.75 9.42-1.77 2.11-3.93 4.1-4.77 6.8-.46 3.81.29 7.67 1.41 11.32.14.42.42 1.25.57 1.67l-.68-.3c-.23-.08-.68-.23-.9-.31-.97 1.57-3.15.91-3.46-.77-2.47-6.82-6.7-12.79-9.3-19.55-4.79-11.7-10.84-22.8-16.14-34.26-3.12-6.85-6.96-13.33-10.05-20.18-1.79-5.15-4.9-9.87-5.64-15.34.02-.78.04-2.34.06-3.12z" fill="#929292"/><path d="m467.45 265.14c1.22 3.58.49 7.48-.36 11.07-.01-3.7.04-7.39.36-11.07z" fill="#616161" opacity=".68"/><path d="m405.42 277.9c1.14-2.03 2.28-4.05 3.47-6.05 2.64 4.87 3.78 10.33 5.95 15.4 1.65 3.89 2.6 8.01 3.9 12.02-2.54 1.46-1.36 4.25-.13 6.17 2.11 3.06.73 7.11 2.63 10.27 2.82 5.45 4.22 11.5 5.39 17.49.59 2.24-1.2 4.02-2.2 5.83 0 .81.01 1.61.03 2.42-2.88 1.05-5.77 2.05-8.64 3.12 2.32 1.83 5.34 1.72 8.14 1.82-.99.34-1.98.68-2.96 1.03.48.2 1.45.59 1.93.78 2.43-1.55 5.26-2.15 8.1-2.37.55-.71 1.11-1.4 1.7-2.06-.15 1.11-.28 2.23-.39 3.35-3.65 1.81-7.6 2.92-11.68 3.08-.1.38-.32 1.15-.42 1.53-1.64.11-3.26.23-4.89.35-.01.6-.04 1.79-.05 2.39-3.51-.77-6.75-2.63-10.42-2.61-3.1-.24-6.05-1.24-8.99-2.16-4.86-3.55-11.19-3.69-16.61-6.06-.03-.32-.08-.96-.11-1.28.62-6.03 4.86-10.75 5.61-16.74 2.51-1.97 4.01-4.7 4.44-7.87.74-2.47.12-4.94-1.04-7.17 1.28-.29 2.57-.57 3.85-.9 1.17-4.96 5.36-8.44 6.17-13.51-.47-.41-1.4-1.23-1.87-1.64 1.12-.21 2.23-.41 3.36-.61.38-2.71.52-5.63 2.39-7.81 2.49-2.92 1.74-6.98 2.3-10.51.26.57.78 1.72 1.04 2.3z" fill="#525252"/><path d="m260.84 650.18c2.05-.61 3.58.91 3.74 2.9-1.57-.5-2.83-1.56-3.74-2.9z" fill="#525252"/><path d="m403.65 274.82.65-.51c.02.32.06.96.08 1.29-.56 3.53.19 7.59-2.3 10.51-1.87 2.18-2.01 5.1-2.39 7.81-1.13.2-2.24.4-3.36.61.47.41 1.4 1.23 1.87 1.64-.81 5.07-5 8.55-6.17 13.51-.88-1.37-2.63-2.69-1.9-4.53.69-3.86 5.01-6.1 4.86-10.22.45-2.04-.22-4.71 1.64-6.17 4.18-3.48 5.15-9.12 7.02-13.94z" fill="#6e6e6e"/><path d="m415.3 354.47c3.89-.72 7.56.77 10.98 2.43 3.06 1.78 7.85.32 9.21 4.41 1.49.24 2.99.46 4.5.68l.01.96-.01.61c-1.73 2.65-3.24 5.43-4.5 8.33-.42.06-1.26.19-1.68.26.75 1.61-.36 3.13-1.01 4.53-2.18 3.92-4.18 7.93-6.38 11.85-.63.05-1.9.15-2.53.2.74-2.07 1.52-4.12 2.34-6.15-2.13-4.69-1.03-10.34 1.64-14.6-1.73-3.36-4.03-6.49-4.42-10.39-.56.11-1.7.32-2.26.42-2.08-.98-4.1-2.11-5.89-3.54z" fill="#6e6e6e"/><path d="m466.05 286.01c-.16-2.85.13-5.69.86-8.44.27 2.84-.27 5.66-.86 8.44z" fill="#7a7a7a"/><path d="m276.21 517.69c.08-1.85-1.56-4.04.52-5.33 3.13 6.34 7.69 11.83 10.78 18.2.21.43.62 1.29.83 1.71-5.51.13-11.01-.31-16.52-.22 1.9-.83 4.36-1.34 5.38-3.34-.18-2.65-1.14-5.16-1.75-7.72.28-1.1.61-2.19.76-3.3z" fill="#7a7a7a"/><path d="m162.1 293.57c-.24-4.41 2.14-8.27 3.3-12.39 3.82 7.24 5.25 15.41 8.8 22.77-.15 1.22-.29 2.45-.44 3.68-1.13-.84-2.25-1.68-3.38-2.52-.54-2.81-.73-5.8-2.14-8.35-1.13-.54-2.33-.93-3.5-1.34-.13-.26-.38-.76-.51-1.01-.53-.21-1.59-.63-2.13-.84z" fill="#404040"/><path d="m423.59 286.68c1.25-.68 2.74-.35 4.1-.49.95 3.1 1.72 6.3 1.89 9.55-.35.92-.71 2.41-2 1.79-2.65-2.95-4.34-6.84-3.99-10.85z" fill="#7e7e7e"/><path d="m465.02 293.94c-.44-1.69-.09-3.41.64-4.95.8 1.28 1.16 4.57-.64 4.95z" fill="#707070" opacity=".84"/><path d="m167.13 312.2c3.92-1.46 8.63-2.28 11.76 1.2 5.02 7 9.54 14.33 14.25 21.54 2.91 3.21 4.22 7.42 6.76 10.89 2.37 3.23 3.57 7.17 6.07 10.31-.31 1.28-.61 2.57-.91 3.86-.73-.06-2.18-.2-2.9-.26.44-.42.9-.83 1.35-1.24-1.88-1.09-3.88-2.09-5.44-3.63-.62-2.2.53-4.21 1.49-6.1-.85-1-1.71-2-2.56-2.99-1.77 1.73-3.03 3.86-3.62 6.28-4.42.71-6.98-2.92-9.55-5.77-1.9-.41-3.85-.47-5.78-.63.83-2.6 3.04-3.78 5.6-4.23.21-1.62.41-3.24.63-4.85 2.19-.52 4.23-1.54 4.72-3.93-.57-.26-1.7-.79-2.26-1.05-.09-.34-.25-1.03-.33-1.37-2.84 1.44-6.56 1.89-8.32 4.84-1.45 2.78-1.73 5.97-2.43 8.99-3.55-1.48-5.47-4.84-8.07-7.42-3.13-.17-6.28-.21-9.36-.91.49-.46.97-.91 1.47-1.36-1.56-.09-3.27.39-4.71-.36-.96-1.05-1.66-2.29-2.43-3.47-.25.25-.75.76-1 1.01-4.28-3.73-10.02-6.01-15.73-5.48 2.61 1.44 5.33 2.65 7.91 4.15 6.19 3.96 13.16 6.55 19.19 10.79 3.37 2.63 7.77 3.26 11.29 5.65 5.32 3.43 11.43 5.54 16.33 9.64-2.57 1.14-4.82-.73-7.11-1.63-2.19-.98-4.66-.75-6.99-.91.39-.54.78-1.07 1.17-1.6-1.29-.96-2.51-2.05-3.98-2.72-1.87-.15-3.73.22-5.58.44.42-.37 1.27-1.12 1.69-1.5-1.13-.21-2.27-.42-3.4-.62.39-.44.78-.87 1.17-1.3-1.93-.51-3.82-1.23-5.14-2.79-2.53-2.93-6.43-3.64-9.91-4.85-.56.36-1.11.72-1.67 1.08-2.32-2.25-4.13-5.02-6.77-6.92-2.26-1.08-4.88-.86-7.31-1.16-.11-.32-.34-.98-.45-1.3-.88-.34-1.76-.67-2.64-1-1.64-2.54-4.52-3.64-6.66-5.64 2.94-1.44 5.98.28 8.87.96-.51-1.48-1.01-2.95-1.52-4.42-4.24.07-7.93-2.36-12.13-2.53 1.69 1.28 3.38 2.55 5.04 3.88l-1.55.34c-1.18.24-2.36.49-3.54.72l-1.33.14c-.59-5.26-2.04-.88-2.78.87-.84-2.01-1.77-3.95-2.76-5.88.52-.74 1.21-1.16 2.06-1.26 6.55-.78 13.15-.62 19.73-.55 2.59-.1 5.61.38 7.58-1.73 9.74-.23 19.47-.83 29.22-.78-2.27-.38-4.51-.88-6.73-1.44z" fill="#8a8a8a"/><path d="m271.73 501.76c.61-1.27.26-3.69 2.23-3.59 3.7 1.05 7.06 3.01 10.68 4.27.89 1.2 1.78 2.4 2.67 3.61.24-1.25.49-2.49.74-3.72.7-.08 2.09-.23 2.79-.31 4.92 2.65 10.54 3.68 15.38 6.58-.78.14-2.34.43-3.11.58 1.59 1.55 3.01 3.39 5.01 4.46 1.86.42 3.78.48 5.68.65-.51.51-1.01 1.03-1.5 1.55 3.61-.92 8.17-.51 9.45 3.65 2.57.3 5.17.47 7.68 1.15.37 4.42-5.93 3.27-8.77 3.93.92.85 2.06 1.23 3.32 1.16 5.97.23 11.97-.15 17.92.6-.92.43-1.83.86-2.75 1.31 2.34.21 4.67.47 7 .8-1.64.74-3.28 1.66-5.13 1.66-6.84.3-13.71-.69-20.53 0-.24.59-.71 1.76-.95 2.35-10.4-.08-20.8-.46-31.2-.18-.21-.42-.62-1.28-.83-1.71.15-1.35.78-2.82.08-4.12-1.61-3.3-2.91-7.07-6.13-9.16-.51-5.48-5.23-9.16-6.16-14.55-1.19-.33-2.38-.66-3.57-.97z" fill="#8a8a8a"/><path d="m151.61 312.26c5.17-.21 10.35-.35 15.52-.06 2.22.56 4.46 1.06 6.73 1.44-9.75-.05-19.48.55-29.22.78-5.81-.15-11.65.35-17.41-.55 1.15-.73 2.4-1.12 3.76-1.15 6.86-.49 13.79.59 20.62-.46z" fill="#a6a6a6"/><path d="m240.03 316.45c4.07-.13 8.13-.38 12.2-.64 14.73.74 29.44 1.85 44.19 2.19.84.03 2.51.11 3.34.14-.79.84-1.66 1.58-2.6 2.23-5.39-.45-10.96-.77-16.18.9-2.85-1.35-6.02-1.35-9.09-1.16.36 1.16.02 2.86 1.33 3.51 4.51.7 9.09.24 13.64.27.74-.77 1.49-1.54 2.25-2.3.68.38 2.03 1.16 2.71 1.54-4.96 3.13-10.41 5.35-15.46 8.33-4.98 2.22-9.38 5.63-14.64 7.22.98-1.55 1.96-3.09 2.98-4.61-2.26.65-4.53 1.25-6.82 1.76 1.7-7 10-7.44 14.56-11.61-2.88-.3-5.77-.41-8.65-.5-.15-.3-.44-.89-.58-1.19-2.29-.98-4.54-2.02-6.76-3.14-.24.57-.71 1.7-.95 2.27-3.59-.38-7.22-.03-10.79-.65 1.25-.97 2.52-1.9 3.87-2.71.89-.32 1.78-.64 2.67-.96-3.72-.52-7.47-.77-11.22-.89z" fill="#434343"/><path d="m297.18 327.48c.12-3.11 1.48-5.81 3.89-7.77-.56 5.84 1.4 11.46 1.36 17.28.44 14.07 2.59 28.01 3.07 42.08.83 11.86 2.29 23.7 2.44 35.59-.71-.95-1.39-1.88-2.14-2.77-2.78-3.35-7.73-1.38-11.47-1.56-.68-.64-1.36-1.27-2.03-1.9 1.19-.72 2.38-1.43 3.58-2.13-1.91-.22-3.81-.44-5.72-.65-.33-4.61-.12-9.23-.58-13.83-.84 4.65-.38 9.38-.7 14.07-.68-.06-2.06-.17-2.75-.22.08-5.65-1.45-11.81 1.51-16.99.62-1.35.28-2.89.38-4.31-1.62-.26-3.23-.51-4.85-.75.39-1.7.77-3.39 1.16-5.08 1.04-.36 2.08-.71 3.13-1.05 1.39-3.17 3.69-6.71 2.01-10.23-1.24-2.74-1.71-5.7-1.38-8.68.69-.25 2.08-.75 2.78-1-.28-4.15-.94-8.3-2.46-12.19 2.63-6.07 4.65-12.65 8.77-17.91z" fill="#454545"/><path d="m442 360.29c2.94-8.24 7.23-15.87 11.17-23.65.32 1.82-1.08 4.48.8 5.69-.92 1.47-1.75 3.02-2.27 4.69-1.22.02-2.43.05-3.64.07-.95 2.86-.57 6.95-3.74 8.47-1.42 1.15-.58 3.78-2.32 4.73z" fill="#f3f3f3"/><path d="m375.05 344.71c1.07-1.99 2.09-4.01 3.35-5.89.19.88.58 2.65.77 3.54.03.32.08.96.11 1.28 5.42 2.37 11.75 2.51 16.61 6.06-2.36.19-5.76 1.59-6.94-1.36-3.69-.27-7.39-.29-11.08-.21-.55-.65-1.09-1.3-1.62-1.94-.3-.37-.9-1.11-1.2-1.48z" fill="#7d7d7d"/><path d="m192.11 357.56c1.63-.38 3.26-.76 4.88-1.14.14.25.42.74.56.99-.31.3-.92.88-1.23 1.18 2.28 1.16 4.49 2.44 6.71 3.71-.25.58-.74 1.73-.98 2.31.93.35 1.86.71 2.8 1.06-2.62.04-5.29.19-7.71 1.29 1.75.78 3.63 1.25 5.52 1.6-.15.5-.45 1.49-.6 1.99-2.62 1.05-5.06 2.49-7.63 3.64-.91-1.23-1.82-2.45-2.73-3.67 2.09-.27 4.17-.53 6.25-.8-1.34-2.4-3.53-3.96-6.13-4.76.08-.71.26-2.11.34-2.81 1.57.19 3.14.39 4.72.6-.29-.34-.86-1.03-1.14-1.37-1.2-.26-2.39-.52-3.58-.78-.02-1.02-.03-2.03-.05-3.04z" fill="#858585"/><path d="m202.06 370.55c3.75-.41 6.78-2.61 9.94-4.45.14 9.62-.12 19.24.12 28.86.51 17.04 1.09 34.12.35 51.15-4.16-3.26-7.67-7.25-11.9-10.42-5.45-4.15-9.93-9.39-15.21-13.74-.9-2.48-1.77-5.06-1.16-7.73 1.03 1.39 2.05 2.8 3.13 4.16.35-1.78.66-3.57.97-5.36-2.05-1.32-4.1-2.64-6.15-3.96.69-.72 1.38-1.45 2.08-2.16-.97-.53-1.94-1.06-2.91-1.58-.19-4.97-.2-9.94-.01-14.91.73-.55 1.46-1.1 2.19-1.64-1.66-1.91-2.53-4.25-1.31-6.65 3.49-.31 6.8.74 9.87 2.32-.06-1.62-.1-3.23-.15-4.83-1.61.1-3.22.2-4.83.31 1.17-1.33 2.31-2.67 3.49-3.98 1.29-.57 2.57-1.16 3.86-1.75 2.57-1.15 5.01-2.59 7.63-3.64z" fill="#464646"/><path d="m246.44 422.1c3.31-.88 2.18-4.5 1.88-6.97.9 1.42 1.82 2.83 2.73 4.25.2.32.58.96.78 1.28 1.68 6.92 2.19 14.08 4.17 20.93 1.57 5.35 1.66 10.97 2.8 16.41.76 4.35 2.49 8.51 2.64 12.97.28 5.44 2.24 10.6 2.9 15.99-.21 1.63-.48 3.28-.76 4.92-1.9-3.14-2.26-6.77-2.3-10.35-1.52 1.56-3.02 3.14-4.47 4.77-1.05-1.9-1.75-4.12-3.63-5.38-3.13-2.28-5.8-5.07-8.66-7.66-.37-.93-.76-1.86-1.15-2.77-.35-.08-1.06-.25-1.41-.33.44-4.04 1.11-8.08.93-12.15-.1-3.24-2.24-5.93-2.7-9.09-.53-3.51-.3-7.08-.14-10.6 1.22-.23 2.45-.44 3.68-.65.73-5.23.33-10.7 2.71-15.57z" fill="#464646"/><path d="m144.77 379.59c2.01.44 2.1 2.72 2.16 4.38-1.6-.15-2.65-2.93-2.16-4.38z" fill="#b5b5b5" opacity=".96"/><path d="m316.23 404.13c1.22-.39 2.44-.78 3.67-1.15-.66 2.59-1.79 5.04-3.61 7.03-.05-1.96-.06-3.92-.06-5.88z" fill="#a2a2a2"/><path d="m240.13 404.12c1.61-.51 2.15.06 1.61 1.7-1.62.5-2.16-.07-1.61-1.7z" fill="#6f6f6f"/><path d="m305.8 411.89c.75.89 1.43 1.82 2.14 2.77l.58.82c-6.75 1-13.68-.25-20.34 1.52-5.27 1.45-10.77.81-16.15.74-.3-.42-.9-1.27-1.2-1.7 4.71-.33 9.45-.17 14.17-.3 1.52.09 2.85-.65 4.11-1.41 5.21-.13 10.49.58 15.66-.32.26-.53.77-1.59 1.03-2.12z" fill="#717171"/><path d="m256.27 423.19c2.47.09 3.65 2.74 5.13 4.35 2.26 4.03 7.17 5.7 8.8 10.17-.82.09-2.44.25-3.26.34-2.18-3.45-5.12-6.27-8.02-9.09-1.01-1.07-2.61-1.09-3.91-1.57.29-1.43.51-2.92 1.26-4.2z" fill="#9c9c9c"/><path d="m160.2 436.07c1.61-.51 2.14.07 1.59 1.73-1.61.49-2.14-.09-1.59-1.73z" fill="#292929" opacity=".18"/><path d="m342.14 451.06c.92.38 1.83.76 2.75 1.16 4.39 3.58 7.87 8.09 12.11 11.83 5.33 5.64 11.43 10.53 16.27 16.63 1.82-3.21 2.23-6.85 1.88-10.46.36 0 1.07-.01 1.42-.02-.06 2.76.05 5.53.51 8.26 2.75-7.98-.82-16.64 1.23-24.82 1.62 8.8-1.37 18.22 2.38 26.61.08.54.25 1.61.33 2.14-.18.12-.54.35-.72.47-1.23 1.86-1.68 4.08-2.56 6.11-.88.77-1.15 1.69-.83 2.75l.36 1.3-.74.99c-.9 1.06-1.45 2.4-1.39 3.81-.04.75-.13 2.25-.17 3-2.13 2.31-1.5 5.73-2.99 8.36-1.24 2.47-2.06 5.1-2.77 7.77-1.15 2.99-1.24 6.31-2.57 9.23-.22.35-.66 1.05-.88 1.41-1.12-3.65-1.87-7.51-1.41-11.32.84-2.7 3-4.69 4.77-6.8.19-3.14.4-6.29.75-9.42-.91 2.24-2.04 4.42-3.92 6 2.17-6.33 2.12-12.98 1.76-19.59-1.4-.51-2.8-1.02-4.18-1.52 1.43-.53 2.87-1.06 4.32-1.58-.11-1.64.12-3.36-.42-4.93-6.23-6.44-11.61-13.79-18.91-19.12-1.84-2.22-3.2-4.93-6.05-6.06-.08-.55-.24-1.65-.33-2.19m34.86 29.27c-.8 1.26-.55 2.03.76 2.32.78-1.27.53-2.05-.76-2.32z" fill="#808080"/><path d="m305.09 477.83c-2.41-1.42-1.04-4.44-.22-6.41 2.4 3.47 5.26 6.54 8.84 8.82 3.64 5.06 8.07 9.48 12.34 14.03 6.86 8.58 15.34 15.77 21.71 24.75-1.16-.01-2.31-.02-3.46-.03-.21-.75-.63-2.26-.84-3.02-3.99 1.81-8.24 2.57-12.61 2.06 1.26 1.06 2.44 2.4 4.14 2.76 5.2 1.43 9.85 4.33 15.1 5.66 4.02 1.11 7.46 3.55 11.15 5.4-1.7-.01-3.29.63-4.81 1.3l-.54.23c-1.59-.42-3.2-.81-4.84-.82-10.5-.03-21.01.15-31.51-.11.24-.59.71-1.76.95-2.35 6.82-.69 13.69.3 20.53 0 1.85 0 3.49-.92 5.13-1.66-2.33-.33-4.66-.59-7-.8.92-.45 1.83-.88 2.75-1.31-5.95-.75-11.95-.37-17.92-.6-1.26.07-2.4-.31-3.32-1.16 2.84-.66 9.14.49 8.77-3.93-2.51-.68-5.11-.85-7.68-1.15-1.28-4.16-5.84-4.57-9.45-3.65.49-.52.99-1.04 1.5-1.55-1.9-.17-3.82-.23-5.68-.65-2-1.07-3.42-2.91-5.01-4.46.77-.15 2.33-.44 3.11-.58 3.28 1.45 6.98 1.95 9.97 4.05 3.26 2.37 7.5 3.59 11.5 2.74-2.97-3.29-7.48-3.38-11.42-4.61-2.84-.85-4.23-4.05-7.16-4.67-2.57-.73-5.18-1.3-7.63-2.37 2.84-2.45 6.72-1.8 10.18-2 .26-4.94 1.4-9.81 1.33-14.76.34-4.8-5.05-6.37-7.9-9.15z" fill="#939393"/><path d="m256.81 486.3c1.45-1.63 2.95-3.21 4.47-4.77.04 3.58.4 7.21 2.3 10.35.28-1.64.55-3.29.76-4.92 1.23 5.22.58 10.91-2.33 15.48.21-2.27.35-4.53.48-6.8-4.5.93-6.98 4.99-10.98 6.75 1.14-4.94 7.53-6.16 8.18-11.39-.82-1.66-1.95-3.12-2.88-4.7z" fill="#5a5a5a"/><path d="m215.28 538.59c1.53-.48 3.09-.68 4.7-.62 45.66.06 91.32.03 136.98.02 3.23-.05 6.54 1.57 8.56 4.09-6.62-4.6-14.91-3.05-22.46-3.29-42.59-.19-85.2.2-127.78-.2z" fill="#5a5a5a"/><path d="m360.26 579.8c1.7 4.07.41 9.1-2.37 12.39 1.54-3.96 2.59-8.11 2.37-12.39z" fill="#5a5a5a"/><path d="m341.7 604.3c1.38-.11 3.31 1.44 3 2.93-1.69.19-2.86-1.41-3-2.93z" fill="#5a5a5a"/><path d="m337.92 628.84c.68-2.07 2.85-2.91 4.87-2.8-.21 1.9-3.22 2.69-4.87 2.8z" fill="#5a5a5a"/><path d="m380.3 482.86c.18-.12.54-.35.72-.47-.18.12-.54.35-.72.47z" fill="#bebebe"/><path d="m376.91 491.72c-.32-1.06-.05-1.98.83-2.75.97 1.47.69 2.38-.83 2.75z" fill="#8f8f8f" opacity=".81"/><path d="m375.14 497.82c-.06-1.41.49-2.75 1.39-3.81 1.34 1.03.45 4.35-1.39 3.81z" fill="#373737" opacity=".27"/><path d="m348.5 505.19c1.17 1.03 2.35 2.05 3.49 3.14 2.6 6.76 6.83 12.73 9.3 19.55.31 1.68 2.49 2.34 3.46.77.22.08.67.23.9.31-.31 1.65-1.07 3.18-1.75 4.7l-.99-.75c-.42-.27-1.25-.79-1.67-1.06-3.69-1.85-7.13-4.29-11.15-5.4.05-.48.16-1.42.22-1.9 1 .54 2 1.06 3.02 1.6-.84-6.16-5.34-10.79-8.74-15.7 1.65-1.48 2.93-3.28 3.91-5.26z" fill="#6c6c6c"/><path d="m227.74 520.92c2.51-3.37 6.83-4.46 9.72-7.41 1.16 1.8 2.09 3.75 2.44 5.88-.6.3-1.8.91-2.39 1.22-.03 2.38-.08 4.77-.16 7.16 3.2.11 6.41-.05 9.6.22 1.15 1.25 2.02 2.72 2.95 4.14-.18.01-.55.03-.73.03-2.12 0-4.25.01-6.36-.09-.42 0-1.25-.01-1.67-.01-1.93.06-3.85-.05-5.78-.04-1.58-.02-3.15-.02-4.73-.01-3.26-.06-6.53.09-9.79.02-.42 0-1.25.01-1.67.01-1.63.06-3.27.09-4.88-.11-1.15-.47-2.27-.97-3.4-1.45 5.31.22 8.06-4.92 12.32-7.15.13-.37.26-.74.39-1.1 1.41-.3 3.28.17 4.14-1.31z" fill="#565656"/><path d="m319.94 634.85c1.92-.03 3.84-.02 5.76.04-1.14 2.52-2.36 5.03-3.92 7.33.85-2.34 1.56-4.72 2.31-7.08-1.39-.12-2.77-.22-4.15-.29z" fill="#565656"/><path d="m365.76 527.59c.22-.36.66-1.06.88-1.41.98 1.18.88 2.21-.31 3.08-.15-.42-.43-1.25-.57-1.67z" fill="#dedede"/><path d="m209.15 529.07c.22.48.67 1.45.89 1.93l-.88-.1c0-.46-.01-1.38-.01-1.83z" fill="#c5c5c5"/><path d="m219.17 532.04c.42 0 1.25-.01 1.67-.01l.02.8c-.42 0-1.27 0-1.7.01z" fill="#e6e6e6"/><path d="m241.14 532.06c.42 0 1.25.01 1.67.01l.01.8c-.43-.01-1.28-.01-1.7-.01z" fill="#dbdbdb"/><path d="m356.43 533.15c1.52-.67 3.11-1.31 4.81-1.3.42.27 1.25.79 1.67 1.06-1.9 1.03-4.45.69-6.48.24z" fill="#b5b5b5"/><path d="m215.03 539.18c.06-.15.19-.44.25-.59 42.58.4 85.19.01 127.78.2 7.55.24 15.84-1.31 22.46 3.29l.29.15c-.38 1.37.73 2.42 1.76 3.12l1.05.99c.07.07.22.21.29.28l-.01 1.72c-.08 2.12-.04 4.24.07 6.37l-.1 1.27c-.22.47-.68 1.4-.91 1.86l.15.81c-1.36 1.55-2.78 3.05-4.29 4.46l-1.08-.07c-1.41-.14-2.86-.03-4.17.53-.11.28-.34.83-.45 1.1-2.24.89-4.76.23-7.11.38-41.67-.05-83.33-.02-124.99-.02-4.98-.06-10.52.93-14.73-2.43l-.11-.83c-.07-1.25-.73-1.93-1.95-2.04l-.89-.13c-.2-.46-.6-1.39-.8-1.85-.09-.14-.28-.41-.38-.55l.01-1.49c.24-1.24-.16-2.13-1.17-2.67.03-.76.11-2.27.14-3.02.22-.48.65-1.43.87-1.91.01-.66.03-1.99.04-2.65l1.1-.43c1.8-.41 2.73-2.16 2.97-3.86l.85-.11c1.24-.05 2.69-.57 3.06-1.88m146.18 19.93c.22 3.28 2.98-1.58 0 0z" fill="#313131"/><path d="m234.65 603.9c.61-.56 1.32-.85 2.12-.88 17.74-1 35.52-.3 53.28-.52 16.36.24 32.75-.52 49.08.53.94.19 1.79.61 2.57 1.27.14 1.52 1.31 3.12 3 2.93l.91.02c.47 1.31 1.37 2.54 1.3 4 .25.46.75 1.38 1 1.84.15 1.69.1 3.4.1 5.12-1.67 2.17-2.96 4.6-3.9 7.18l-.24.59-1.08.06c-2.02-.11-4.19.73-4.87 2.8-.41.06-1.24.19-1.66.26-32.52-.09-65.03-.08-97.55-.01-.46 0-1.38-.02-1.84-.02-.2-.32-.6-.96-.79-1.28-.54-1.14-1.75-2.04-3.05-1.78l-.95.03c-.91-1.11-1.83-2.22-2.57-3.43-.04-.06-.11-.18-.15-.24-1.09-1.73-1.68-3.72-1.34-5.76-.01-.62-.05-1.85-.07-2.47-.02-.4-.05-1.2-.06-1.61 2.02-3.05 4.29-5.93 6.76-8.63z" fill="#313131"/><path d="m211.97 541.06c-.52-1.45 1.94-2.62 3.06-1.88-.37 1.31-1.82 1.83-3.06 1.88z" fill="#4d4d4d" opacity=".86"/><path d="m208.15 545.03c-.47-1.63 1.27-3.92 2.97-3.86-.24 1.7-1.17 3.45-2.97 3.86z" fill="#494949" opacity=".68"/><path d="m365.81 542.23c1.41-.3 2.68 2.02 1.76 3.12-1.03-.7-2.14-1.75-1.76-3.12z" fill="#4f4f4f" opacity=".75"/><path d="m368.62 546.34c.07.07.22.21.29.28-.07-.07-.22-.21-.29-.28z" fill="#585858" opacity=".67"/><path d="m206.12 548.23.89-.12c-.22.48-.65 1.43-.87 1.91l-.46-.81z" fill="#5b5b5b" opacity=".73"/><path d="m368.9 548.34c1.72.94 2.12 5.62.07 6.37-.11-2.13-.15-4.25-.07-6.37z" fill="#474747" opacity=".54"/><path d="m206 553.04c1.01.54 1.41 1.43 1.17 2.67-1.5-.28-1.89-1.17-1.17-2.67z" fill="#525252" opacity=".63"/><path d="m367.96 557.84c.23-.46.69-1.39.91-1.86-.01.43-.03 1.3-.04 1.74z" fill="#585858" opacity=".73"/><path d="m207.16 557.2c.1.14.29.41.38.55-.09-.14-.28-.41-.38-.55z" fill="#575757" opacity=".65"/><path d="m361.21 559.11c2.98-1.58.22 3.28 0 0z" fill="#080808"/><path d="m346.42 570.16c.92-.08 1.86-.14 2.8-.17 1.85 1.36 4.05 2.09 6.19 2.88 2.43 1.47 4.32 4.11 4.85 6.93.22 4.28-.83 8.43-2.37 12.39l-.18.54-.46.24c-2.61 1.34-5.17 2.78-7.81 4.07-33.77.59-67.6.09-101.4.26-7.37-.17-14.77.34-22.12-.42-.26-2.2-2.82-2.25-4.5-1.97l-.84.07-.41-.65c-1.44-2.45-3.16-4.79-4.11-7.48-.74-2.62-.35-5.37-.25-8.03.41-1.31 1.07-2.54 1.97-3.56 5.88-5.11 13.94-4.99 21.26-4.72 30.66 0 61.33.03 91.99.02 5.13-.03 10.28.25 15.39-.4z" fill="#333"/><path d="m251.61 635.06c1.55-.11 3.11-.19 4.67-.25 21.22.17 42.44.1 63.66.04 1.38.07 2.76.17 4.15.29-.75 2.36-1.46 4.74-2.31 7.08-.19.28-.57.84-.77 1.12-.12.17-.37.52-.5.7l-.2.22c-2.86 2.32-5.51 4.89-7.66 7.91-.46.33-1.38.98-1.84 1.31-.1.07-.31.21-.42.29-.71.46-2.14 1.39-2.85 1.85-.15.08-.46.24-.61.31l-.92.43c-.15.07-.46.21-.61.28l-.44.2c-3.3.66-6.6 1.45-9.58 3.06-1.13.17-2.26.32-3.38.51-3.04-.24-6.1-.33-9.15-.21-.57-.07-1.72-.22-2.29-.29-3.06-1.43-6.3-2.37-9.59-3.04l-.41-.19c-.15-.07-.44-.21-.59-.28l-.92-.41c-.15-.07-.46-.23-.62-.31-.71-.48-2.12-1.43-2.83-1.91-.12-.07-.35-.23-.46-.31l-.56-.38c-.16-1.99-1.69-3.51-3.74-2.9-.21-.21-.64-.64-.85-.85-1.37-2.41-3.21-4.49-5.27-6.32l-.22-.3c-.06-.08-.17-.25-.23-.34-.4-.58-1.19-1.74-1.58-2.32-.14-.23-.41-.69-.54-.92l-.18-.4c-.09-.92-.27-2.75-.36-3.67z" fill="#333"/><path d="m221.42 594.91c1.68-.28 4.24-.23 4.5 1.97-1.44.62-4.38-.31-4.5-1.97z" fill="#4e4e4e" opacity=".84"/><path d="m227.89 612.53c.76-3.68 3.16-7.25 6.76-8.63-2.47 2.7-4.74 5.58-6.76 8.63z" fill="#4a4a4a" opacity=".78"/><path d="m346.91 611.25.9.08.51.93-.41.83c-.25-.46-.75-1.38-1-1.84z" fill="#464646" opacity=".58"/><path d="m228.02 616.61c-1.75.75-1.88-3.06-.07-2.47.02.62.06 1.85.07 2.47z" fill="#303030" opacity=".29"/><path d="m233.03 626.01c1.3-.26 2.51.64 3.05 1.78-1.09.79-3.58-.35-3.05-1.78z" fill="#484848" opacity=".88"/><path d="m238.71 629.09c32.52-.07 65.03-.08 97.55.01-1.67.75-3.52.69-5.3.69-29.31-.25-58.62.01-87.93.02-1.47-.02-3 .02-4.32-.72z" fill="#181818" opacity=".13"/><path d="m252.15 639.13c.13.23.4.69.54.92l-.33-.42z" fill="#5c5c5c" opacity=".73"/><path d="m269.97 656.4c.15.07.44.21.59.28-.15-.07-.44-.21-.59-.28z" fill="#5c5c5c" opacity=".73"/><path d="m254.27 642.37c.06.09.17.26.23.34-.06-.08-.17-.25-.23-.34z" fill="#5b5b5b" opacity=".71"/><path d="m306.93 655.93c.15-.07.46-.23.61-.31l-.23.16z" fill="#5b5b5b" opacity=".71"/><path d="m320.51 644.04c.13-.18.38-.53.5-.7l-.27.36z" fill="#626262" opacity=".96"/><path d="m265.14 653.46c.11.08.34.24.46.31-.12-.07-.35-.23-.46-.31z" fill="#626262" opacity=".86"/><path d="m310.39 653.77c.11-.08.32-.22.42-.29-.1.07-.31.21-.42.29z" fill="#5e5e5e" opacity=".76"/><path d="m268.43 655.68c.16.08.47.24.62.31l-.38-.15z" fill="#646464" opacity=".92"/><path d="m305.4 656.64c.15-.07.46-.21.61-.28-.15.07-.46.21-.61.28z" fill="#545454" opacity=".63"/><path d="m270.97 656.87c3.29.67 6.53 1.61 9.59 3.04-3.4-.21-6.66-1.35-9.59-3.04z" fill="#4e4e4e" opacity=".81"/><path d="m295.38 659.9c2.98-1.61 6.28-2.4 9.58-3.06-2.96 1.64-6.19 2.79-9.58 3.06z" fill="#4f4f4f" opacity=".83"/><path d="m282.85 660.2c3.05-.12 6.11-.03 9.15.21l-1.34.59h-6.62z" fill="#525252" opacity=".62"/></svg>