<svg height="557pt" viewBox="0 0 499 557" width="499pt" xmlns="http://www.w3.org/2000/svg"><path d="m247.5 0h3.86c6.84.95 12.75 6.91 12.78 13.96.1 19.03.05 38.06.02 57.08.18 7.64-6.6 14.4-14.18 14.44-7.93.48-15.36-6.46-15.14-14.45-.03-19.01-.08-38.03.02-57.04.01-7.02 5.86-12.94 12.64-13.99z"/><path d="m75.26 62.4c4.72-.72 9.63 1.06 12.91 4.49 13.04 12.95 26.06 25.92 39.12 38.84 3.33 3.12 5.32 7.69 4.81 12.28-.46 6.41-5.7 12.05-12.04 13.04-4.7.89-9.73-.71-13.07-4.11-13.39-13.27-26.78-26.54-40.12-39.86-5.12-4.96-5.6-13.74-1.07-19.24 2.31-2.94 5.77-4.92 9.46-5.44z"/><path d="m418.39 62.6c6.1-1.43 12.91 1.49 15.98 6.97 3.28 5.46 2.33 13.01-2.22 17.48-12.85 12.86-25.81 25.61-38.66 38.46-3.14 3.52-7.61 6.06-12.45 5.77-6.81-.08-13.06-5.52-14.02-12.27-.81-4.64.87-9.51 4.22-12.78 13.01-12.96 26.08-25.87 39.08-38.85 2.2-2.27 4.93-4.14 8.07-4.78z"/><path d="m227.56 113.79c13.78-2.12 27.85-1.2 41.56.95 27.57 4.5 54.5 15.87 75.19 34.92 14.03 12.83 24.7 29.24 30.94 47.2 9.12 26.59 11.62 55.91 4.19 83.23-5.88 22.73-18.25 42.97-30.81 62.54-7.27 11.73-15.14 23.08-21.92 35.11-5.05 8.92-8.43 18.91-8.72 29.22-.16 5.86-.11 11.95-2.61 17.4-3.21 7.56-11.05 13.29-19.41 13.04-29.98-.04-59.97-.03-89.95-.01-4.79.18-9.81-.09-14.03-2.59-6.12-3.35-9.33-10.13-10.63-16.71-1.92-8.26-.19-17.03-3.23-25.07-3.34-11.03-11.02-19.84-16.21-29.95-16.04-28.4-35.56-55.77-43.04-88.03-4.17-17.68-4.36-36.14-1.75-54.07 1.74-12.64 5.6-24.98 11.39-36.35 12.09-23.76 32.13-42.99 55.41-55.73 13.56-7.41 28.33-12.75 43.63-15.1m49.57 45c2.94 9.52-6.79 19.3-16.28 17.13-1.2 2.42-2.25 4.91-3.19 7.44 3.35 2.37 6.82 5.36 7.47 9.65 1.11 5.9-2.62 11.48-7.4 14.57.84 2.6 1.88 5.13 3.11 7.57 4.72-1.03 10.04-.11 13.28 3.73 3.44 3.24 3.79 8.22 3.08 12.63 2.46 1.04 4.94 2.05 7.47 2.95 2.83-4.04 7.14-7.46 12.28-7.53 5.42-.27 10.13 3.26 13.08 7.53 2.57-.89 5.08-1.93 7.54-3.1-2.91-9.56 6.81-19.35 16.35-17.18 1.17-2.45 2.21-4.96 3.11-7.51-4-2.59-7.78-6.57-7.59-11.68-.13-5.07 3.65-8.97 7.61-11.56-.91-2.56-1.94-5.07-3.11-7.51-9.54 2.19-19.28-7.62-16.35-17.17-2.45-1.17-4.97-2.21-7.54-3.1-2.94 4.26-7.61 7.77-13.02 7.54-5.17-.06-9.5-3.5-12.35-7.55-2.59.89-5.11 1.94-7.55 3.15m-81.58 70.96c.88 4.33 1.43 8.89.08 13.2-2.02 6.69-7.42 11.88-13.39 15.22-4.68 2.64-10.25 2.96-15.42 1.86-2.41 4.37-4.27 9.02-5.8 13.76 6.59 3.96 12.66 10.13 13.49 18.12 1.2 10.07-5.07 19.62-13.47 24.68 1.48 4.77 3.4 9.39 5.75 13.8 3.02-.54 6.09-1.13 9.17-.84 7.95.59 14.9 6.16 18.45 13.1 2.57 5.04 2.33 10.93 1.09 16.3 4.44 2.32 9.09 4.22 13.87 5.73 4.8-7.73 13.27-13.63 22.61-13.49 9.19.02 17.46 5.87 22.22 13.48 4.78-1.5 9.43-3.39 13.87-5.71-1.79-6.88-1.08-14.7 3.63-20.29 5.8-7.54 15.58-12.56 25.18-10.02 2.27-4.42 4.2-9.01 5.7-13.75-7.42-4.34-13.95-11.87-13.55-20.94-.03-8.8 6.42-15.92 13.59-20.17-1.52-4.74-3.41-9.35-5.74-13.75-10.99 2.92-22.2-4.05-27.43-13.51-2.8-5.12-2.65-11.22-1.35-16.76-4.42-2.37-9.08-4.23-13.86-5.74-4.77 7.64-13.06 13.5-22.3 13.5-9.29.07-17.74-5.77-22.51-13.49-4.8 1.47-9.44 3.38-13.88 5.71z"/><path d="m293.2 175.24c10.25-2.38 21.48 4.51 23.9 14.76 2.04 7.55-.84 16.11-7.04 20.89-6.5 5.28-16.31 5.84-23.39 1.38-6.56-3.93-10.47-11.79-9.54-19.39.77-8.56 7.66-16.02 16.07-17.64z"/><path d="m0 245.93c1.01-6.84 7.04-12.6 14.06-12.65 19.27-.06 38.54-.05 57.81 0 7.73-.02 14.51 7.04 14.18 14.76.1 7.52-6.53 14.32-14.07 14.34-17.01.17-34.02-.02-51.04.08-3.86-.06-7.88.34-11.59-.99-5.03-1.84-8.54-6.62-9.35-11.85z"/><path d="m415.97 238.94c2.78-3.72 7.41-5.79 12.03-5.7 18.97.03 37.96-.05 56.93.04 6.96.04 12.89 5.69 14.07 12.42v3.83c-.7 4.3-3.04 8.4-6.84 10.67-3.86 2.59-8.71 2.26-13.14 2.26-17-.07-34 .02-51-.03-4.8.11-9.58-2.14-12.34-6.09-3.75-5.03-3.62-12.5.29-17.4z"/><path d="m227.44 258.56c17.28-2.45 35.18 9.37 39.41 26.35 4.78 16.2-3.8 34.8-19.09 41.87-15.05 7.57-34.94 2.92-44.92-10.7-7.4-9.55-9.36-22.96-5.07-34.25 4.49-12.52 16.47-21.83 29.67-23.27z"/><path d="m112.28 365.3c6.27-2.44 13.99.06 17.55 5.78 3.66 5.44 2.92 13.3-1.69 17.96-13.33 13.31-26.73 26.56-40.1 39.84-3.31 3.44-8.3 5.16-13.03 4.34-6.12-.88-11.32-6.05-12.16-12.19-.79-4.68.97-9.58 4.39-12.83 12.84-12.8 25.75-25.55 38.59-38.36 1.87-1.86 3.92-3.66 6.45-4.54z"/><path d="m376.24 365.35c5.38-2.12 11.88-.69 15.88 3.48 13.39 13.29 26.81 26.56 40.14 39.91 5.66 5.54 5.29 15.66-.69 20.82-5.6 5.35-15.32 5.02-20.58-.64-13.52-13.48-27.16-26.84-40.59-40.41-6.71-7.09-3.38-20.05 5.84-23.16z"/><path d="m200.4 448.6c31.53-.53 63.11-.09 94.66-.22 5.4-.36 10.54 4.16 10.63 9.61.46 5.78-4.85 10.95-10.58 10.56-30.75.02-61.49.02-92.23.01-5.04.29-9.89-3.61-10.5-8.65-.86-5.12 2.89-10.45 8.02-11.31z"/><path d="m198.33 479.39c1.46-.67 3.08-.8 4.67-.83 29.35-.01 58.7.03 88.05-.02 3.33.06 6.99-.41 9.92 1.55 4.2 2.5 5.95 8.24 3.87 12.66-1.65 3.79-5.74 6.2-9.84 5.95-29.35 0-58.69-.03-88.04.01-4.25.18-9.27.23-12.2-3.45-4.5-4.78-2.54-13.48 3.57-15.87z"/><path d="m198.38 506.52c2.06-.91 4.36-.82 6.57-.86 30.34.1 60.69-.07 91.03.08 6.35-.06 11.31 6.85 9.34 12.86-1.21 4.42-5.68 7.49-10.22 7.27-30.72.02-61.43.01-92.14 0-4.34.21-8.66-2.5-10.08-6.66-1.89-4.83.71-10.75 5.5-12.69z"/><path d="m215.39 538.91c21.39-.06 42.79-.06 64.19 0-4.29 11.13-15.98 17.28-27.4 18.09h-8.18c-11.74-.79-23.7-6.94-28.61-18.09z"/></svg>