<?xml version="1.0" encoding="UTF-8" ?>
<!DOCTYPE svg PUBLIC "-//W3C//DTD SVG 1.1//EN" "http://www.w3.org/Graphics/SVG/1.1/DTD/svg11.dtd">
<svg width="185pt" height="238pt" viewBox="0 0 185 238" version="1.1" xmlns="http://www.w3.org/2000/svg">
<g id="#dcb261ed">
<path fill="#dcb261" opacity="0.93" d=" M 67.80 2.52 C 69.48 3.37 73.21 2.22 72.90 5.12 C 73.35 12.08 73.24 19.10 72.58 26.05 C 71.38 25.54 70.01 25.88 69.07 26.74 L 68.10 27.41 C 67.68 19.49 67.85 11.57 67.79 3.64 L 67.80 2.52 M 68.86 4.91 C 68.53 11.57 68.56 18.25 68.95 24.90 C 69.69 24.93 71.17 24.99 71.91 25.01 C 71.98 18.28 71.97 11.55 71.94 4.81 C 71.17 4.84 69.63 4.89 68.86 4.91 Z" />
</g>
<g id="#7d796b82">
<path fill="#7d796b" opacity="0.51" d=" M 67.03 14.00 C 66.93 10.53 67.06 7.05 67.79 3.64 C 67.85 11.57 67.68 19.49 68.10 27.41 C 66.40 23.13 67.17 18.48 67.03 14.00 Z" />
</g>
<g id="#f8ad0eff">
<path fill="#f8ad0e" opacity="1.00" d=" M 68.86 4.91 C 69.63 4.89 71.17 4.84 71.94 4.81 C 71.97 11.55 71.98 18.28 71.91 25.01 C 71.17 24.99 69.69 24.93 68.95 24.90 C 68.56 18.25 68.53 11.57 68.86 4.91 Z" />
</g>
<g id="#69685f6f">
<path fill="#69685f" opacity="0.44" d=" M 69.07 26.74 C 70.01 25.88 71.38 25.54 72.58 26.05 C 72.49 27.59 69.79 28.02 69.07 26.74 Z" />
</g>
<g id="#eb6f99ff">
<path fill="#eb6f99" opacity="1.00" d=" M 14.91 32.03 C 12.32 30.36 16.05 25.54 18.16 27.87 C 23.49 32.37 29.52 36.11 34.17 41.37 C 33.08 42.38 32.00 43.39 30.91 44.40 C 25.36 40.56 20.03 36.42 14.91 32.03 Z" />
</g>
<g id="#a0cb3bff">
<path fill="#a0cb3b" opacity="1.00" d=" M 119.77 30.75 C 121.62 29.41 123.19 27.11 125.69 27.11 C 126.87 28.36 127.56 29.94 128.36 31.44 C 121.78 35.08 116.96 41.29 110.06 44.37 C 109.12 43.28 107.46 42.03 108.24 40.40 C 111.62 36.68 116.07 34.14 119.77 30.75 Z" />
</g>
<g id="#a08d6bad">
<path fill="#a08d6b" opacity="0.68" d=" M 62.01 41.12 C 66.34 40.01 70.95 39.05 75.33 40.54 C 72.53 40.59 69.73 40.66 66.94 40.79 C 65.29 40.87 63.65 40.96 62.01 41.12 Z" />
</g>
<g id="#ef6e99ff">
<path fill="#ef6e99" opacity="1.00" d=" M 50.61 46.27 C 54.28 44.30 57.91 42.06 62.01 41.12 C 63.65 40.96 65.29 40.87 66.94 40.79 C 66.30 45.98 65.40 51.13 64.78 56.31 C 59.90 53.20 54.99 50.10 50.61 46.27 Z" />
</g>
<g id="#fbac16ff">
<path fill="#fbac16" opacity="1.00" d=" M 66.94 40.79 C 69.73 40.66 72.53 40.59 75.33 40.54 C 77.06 41.00 80.23 39.93 80.98 41.78 L 81.14 42.61 C 75.87 47.31 70.43 51.83 65.35 56.76 L 64.72 57.21 L 64.78 56.31 C 65.40 51.13 66.30 45.98 66.94 40.79 Z" />
</g>
<g id="#d47625ff">
<path fill="#d47625" opacity="1.00" d=" M 80.98 41.78 C 85.46 42.86 89.43 45.27 92.81 48.37 C 89.11 53.83 86.77 60.05 85.30 66.45 C 84.73 66.48 83.60 66.54 83.04 66.57 C 83.07 58.55 82.98 50.46 81.14 42.61 L 80.98 41.78 Z" />
</g>
<g id="#f6871dff">
<path fill="#f6871d" opacity="1.00" d=" M 65.35 56.76 C 70.43 51.83 75.87 47.31 81.14 42.61 C 82.98 50.46 83.07 58.55 83.04 66.57 C 83.60 66.54 84.73 66.48 85.30 66.45 L 85.04 67.27 C 84.42 67.91 83.81 68.56 83.19 69.20 C 77.20 65.11 71.16 61.09 65.35 56.76 Z" />
</g>
<g id="#ee406eff">
<path fill="#ee406e" opacity="1.00" d=" M 35.60 71.83 C 36.38 61.60 42.59 52.36 50.61 46.27 C 54.99 50.10 59.90 53.20 64.78 56.31 L 64.72 57.21 C 59.40 57.61 54.12 58.34 48.82 58.88 C 45.77 59.27 42.59 59.51 39.83 60.97 C 38.67 66.04 43.14 70.29 45.61 74.30 C 50.60 80.92 55.64 87.52 61.17 93.70 C 54.87 95.68 48.16 95.30 41.65 95.93 C 41.54 95.46 41.33 94.52 41.23 94.05 C 41.78 87.04 43.45 80.14 43.50 73.07 C 40.86 74.38 38.23 75.68 35.60 77.00 C 35.56 75.27 35.56 73.55 35.60 71.83 Z" />
</g>
<g id="#faae17ff">
<path fill="#faae17" opacity="1.00" d=" M 85.30 66.45 C 86.77 60.05 89.11 53.83 92.81 48.37 C 94.93 50.48 97.02 52.63 99.08 54.80 C 95.31 59.91 90.25 63.75 85.04 67.27 L 85.30 66.45 Z" />
</g>
<g id="#fdd826ff">
<path fill="#fdd826" opacity="1.00" d=" M 99.08 54.80 C 99.31 55.60 99.51 56.41 99.66 57.23 C 99.97 57.66 100.57 58.53 100.87 58.97 C 102.66 60.99 103.36 63.71 104.27 66.19 C 104.13 66.63 103.87 67.52 103.73 67.96 C 97.11 68.63 90.45 68.84 83.85 69.72 C 85.61 74.51 87.14 79.38 88.99 84.14 C 82.47 83.92 75.95 83.82 69.45 83.23 C 73.84 78.37 78.58 73.85 83.19 69.20 C 83.81 68.56 84.42 67.91 85.04 67.27 C 90.25 63.75 95.31 59.91 99.08 54.80 Z" />
</g>
<g id="#bc203bff">
<path fill="#bc203b" opacity="1.00" d=" M 48.82 58.88 C 54.12 58.34 59.40 57.61 64.72 57.21 C 66.16 65.72 67.80 74.23 67.96 82.89 C 60.34 80.46 53.18 76.85 45.61 74.30 C 43.14 70.29 38.67 66.04 39.83 60.97 C 42.59 59.51 45.77 59.27 48.82 58.88 Z" />
</g>
<g id="#cf4626ff">
<path fill="#cf4626" opacity="1.00" d=" M 64.72 57.21 L 65.35 56.76 C 71.16 61.09 77.20 65.11 83.19 69.20 C 78.58 73.85 73.84 78.37 69.45 83.23 L 68.64 83.18 L 67.96 82.89 C 67.80 74.23 66.16 65.72 64.72 57.21 Z" />
</g>
<g id="#8283688b">
<path fill="#828368" opacity="0.55" d=" M 99.66 57.23 L 100.58 57.24 L 101.19 58.14 L 100.87 58.97 C 100.57 58.53 99.97 57.66 99.66 57.23 Z" />
</g>
<g id="#75a740ff">
<path fill="#75a740" opacity="1.00" d=" M 104.27 66.19 C 106.18 73.71 105.41 81.88 102.51 89.06 C 98.27 87.43 94.02 85.85 89.73 84.39 C 94.23 78.77 100.00 74.18 103.73 67.96 C 103.87 67.52 104.13 66.63 104.27 66.19 Z" />
</g>
<g id="#d6ba28ff">
<path fill="#d6ba28" opacity="1.00" d=" M 83.85 69.72 C 90.45 68.84 97.11 68.63 103.73 67.96 C 100.00 74.18 94.23 78.77 89.73 84.39 L 88.99 84.14 C 87.14 79.38 85.61 74.51 83.85 69.72 Z" />
</g>
<g id="#07a4b3ff">
<path fill="#07a4b3" opacity="1.00" d=" M 35.96 82.03 C 35.40 78.67 35.06 75.22 35.60 71.83 C 35.56 73.55 35.56 75.27 35.60 77.00 C 35.66 78.68 35.76 80.36 35.96 82.03 Z" />
<path fill="#07a4b3" opacity="1.00" d=" M 68.99 106.97 C 72.67 103.72 76.22 100.29 80.24 97.43 C 82.40 100.08 84.65 102.68 86.52 105.56 C 87.05 106.43 87.57 107.31 88.07 108.21 L 88.37 108.74 L 87.38 108.73 C 76.73 107.86 66.15 111.66 55.58 109.62 C 60.08 109.58 65.38 110.30 68.99 106.97 Z" />
</g>
<g id="#f06e99ff">
<path fill="#f06e99" opacity="1.00" d=" M 35.60 77.00 C 38.23 75.68 40.86 74.38 43.50 73.07 C 43.45 80.14 41.78 87.04 41.23 94.05 C 38.63 90.49 36.85 86.34 35.96 82.03 C 35.76 80.36 35.66 78.68 35.60 77.00 Z" />
</g>
<g id="#d92848ff">
<path fill="#d92848" opacity="1.00" d=" M 45.61 74.30 C 53.18 76.85 60.34 80.46 67.96 82.89 L 68.64 83.18 L 69.13 83.67 C 66.41 86.96 63.93 90.44 61.17 93.70 C 55.64 87.52 50.60 80.92 45.61 74.30 Z" />
</g>
<g id="#a2cc3aff">
<path fill="#a2cc3a" opacity="1.00" d=" M 68.64 83.18 L 69.45 83.23 C 75.95 83.82 82.47 83.92 88.99 84.14 L 89.73 84.39 C 94.02 85.85 98.27 87.43 102.51 89.06 C 100.49 93.00 98.28 96.87 95.37 100.22 C 94.07 95.39 92.10 90.77 89.88 86.29 C 88.92 92.77 88.86 99.34 89.04 105.88 C 88.41 105.80 87.15 105.64 86.52 105.56 C 84.65 102.68 82.40 100.08 80.24 97.43 C 76.48 92.89 73.01 88.11 69.13 83.67 L 68.64 83.18 Z" />
</g>
<g id="#85479bff">
<path fill="#85479b" opacity="1.00" d=" M 61.17 93.70 C 63.93 90.44 66.41 86.96 69.13 83.67 C 73.01 88.11 76.48 92.89 80.24 97.43 C 76.22 100.29 72.67 103.72 68.99 106.97 C 65.38 110.30 60.08 109.58 55.58 109.62 C 54.92 109.52 53.60 109.34 52.94 109.25 L 53.01 109.97 C 53.04 113.35 52.86 116.73 52.83 120.11 C 52.55 116.45 52.84 112.74 52.21 109.11 C 49.11 104.42 45.08 100.40 41.65 95.93 C 48.16 95.30 54.87 95.68 61.17 93.70 Z" />
</g>
<g id="#78a93fff">
<path fill="#78a93f" opacity="1.00" d=" M 89.04 105.88 C 88.86 99.34 88.92 92.77 89.88 86.29 C 92.10 90.77 94.07 95.39 95.37 100.22 C 93.65 103.45 90.85 105.91 88.07 108.21 C 87.57 107.31 87.05 106.43 86.52 105.56 C 87.15 105.64 88.41 105.80 89.04 105.88 Z" />
</g>
<g id="#7a648bcf">
<path fill="#7a648b" opacity="0.81" d=" M 2.75 88.11 C 10.41 88.04 18.07 87.98 25.73 88.19 C 25.72 89.75 25.70 91.31 25.70 92.88 C 18.07 93.17 10.43 93.10 2.79 92.95 C 2.77 91.33 2.75 89.72 2.75 88.11 M 3.93 88.97 C 3.94 89.74 3.97 91.28 3.98 92.04 C 10.94 92.42 17.92 92.42 24.88 92.08 C 24.88 91.30 24.87 89.74 24.87 88.96 C 17.89 88.67 10.91 88.69 3.93 88.97 Z" />
</g>
<g id="#518d8dd3">
<path fill="#518d8d" opacity="0.83" d=" M 114.85 88.11 C 122.28 88.01 129.72 88.03 137.15 88.11 L 137.07 89.11 C 130.08 89.00 123.10 88.92 116.11 89.10 C 116.12 89.81 116.13 91.24 116.13 91.96 C 123.25 92.23 130.38 91.97 137.51 92.15 C 130.13 94.00 122.43 92.68 114.91 92.93 C 114.88 91.32 114.86 89.72 114.85 88.11 Z" />
</g>
<g id="#82499dff">
<path fill="#82499d" opacity="1.00" d=" M 3.93 88.97 C 10.91 88.69 17.89 88.67 24.87 88.96 C 24.87 89.74 24.88 91.30 24.88 92.08 C 17.92 92.42 10.94 92.42 3.98 92.04 C 3.97 91.28 3.94 89.74 3.93 88.97 Z" />
</g>
<g id="#009892ff">
<path fill="#009892" opacity="1.00" d=" M 116.11 89.10 C 123.10 88.92 130.08 89.00 137.07 89.11 C 137.53 90.14 138.00 91.17 138.48 92.19 L 137.51 92.15 C 130.38 91.97 123.25 92.23 116.13 91.96 C 116.13 91.24 116.12 89.81 116.11 89.10 Z" />
</g>
<g id="#048080ff">
<path fill="#048080" opacity="1.00" d=" M 55.58 109.62 C 66.15 111.66 76.73 107.86 87.38 108.73 C 80.99 113.50 74.10 117.53 67.68 122.24 C 67.12 122.22 66.00 122.19 65.45 122.17 C 61.34 118.06 57.21 113.98 53.01 109.97 L 52.94 109.25 C 53.60 109.34 54.92 109.52 55.58 109.62 Z" />
</g>
<g id="#055b5bff">
<path fill="#055b5b" opacity="1.00" d=" M 67.68 122.24 C 74.10 117.53 80.99 113.50 87.38 108.73 C 87.09 112.93 87.05 117.14 87.18 121.35 L 87.19 122.37 C 80.69 122.51 74.17 122.77 67.68 122.24 Z" />
</g>
<g id="#436467c9">
<path fill="#436467" opacity="0.79" d=" M 87.38 108.73 L 88.37 108.74 C 88.14 112.96 88.16 117.22 87.18 121.35 C 87.05 117.14 87.09 112.93 87.38 108.73 Z" />
</g>
<g id="#075b5bff">
<path fill="#075b5b" opacity="1.00" d=" M 53.01 109.97 C 57.21 113.98 61.34 118.06 65.45 122.17 C 61.25 122.64 57.01 122.60 52.81 122.15 C 52.81 121.64 52.82 120.62 52.83 120.11 C 52.86 116.73 53.04 113.35 53.01 109.97 Z" />
</g>
<g id="#565a5dba">
<path fill="#565a5d" opacity="0.73" d=" M 54.22 125.74 C 60.73 124.38 67.41 125.19 74.00 124.96 C 77.80 124.81 81.65 124.88 85.37 125.79 C 74.99 126.10 64.60 126.10 54.22 125.74 Z" />
</g>
<g id="#2d2f2fff">
<path fill="#2d2f2f" opacity="1.00" d=" M 54.22 125.74 C 64.60 126.10 74.99 126.10 85.37 125.79 L 86.40 125.76 C 86.21 127.17 86.02 128.58 85.82 130.00 C 78.56 130.56 71.28 130.23 64.00 130.37 C 61.09 130.36 58.14 130.48 55.29 129.83 C 54.41 128.68 54.61 127.08 54.22 125.74 Z" />
</g>
<g id="#343a3e8a">
<path fill="#343a3e" opacity="0.54" d=" M 55.76 132.72 C 59.13 132.01 62.57 131.76 66.01 131.93 C 72.17 132.16 78.40 131.41 84.50 132.65 C 74.92 132.74 65.34 132.72 55.76 132.72 Z" />
</g>
<g id="#323330ff">
<path fill="#323330" opacity="1.00" d=" M 54.78 132.72 L 55.76 132.72 C 65.34 132.72 74.92 132.74 84.50 132.65 L 85.75 132.65 C 85.06 134.00 86.17 137.18 84.21 137.23 C 75.06 137.38 65.91 137.13 56.75 137.26 C 56.37 137.26 55.61 137.25 55.23 137.24 C 55.08 135.73 54.93 134.22 54.78 132.72 Z" />
</g>
<g id="#3336374a">
<path fill="#333637" opacity="0.29" d=" M 56.75 137.26 C 65.91 137.13 75.06 137.38 84.21 137.23 C 80.54 138.07 76.75 138.25 73.00 138.12 C 67.58 137.92 62.06 138.74 56.75 137.26 Z" />
</g>
<g id="#4d51548e">
<path fill="#4d5154" opacity="0.56" d=" M 58.07 139.12 C 66.33 138.97 74.60 138.80 82.86 139.28 L 82.36 140.09 C 74.25 140.42 65.56 138.07 57.95 141.79 C 57.99 140.90 58.03 140.01 58.07 139.12 Z" />
</g>
<g id="#303132ff">
<path fill="#303132" opacity="1.00" d=" M 57.95 141.79 C 65.56 138.07 74.25 140.42 82.36 140.09 C 80.63 144.19 76.27 145.50 72.37 146.66 C 72.16 160.78 72.34 174.91 72.27 189.03 C 72.51 197.76 72.66 206.80 75.98 215.02 C 79.40 223.10 87.18 229.32 96.00 230.22 C 108.57 231.70 122.29 228.52 131.57 219.52 C 129.63 217.45 127.55 215.47 125.91 213.13 C 123.05 209.28 123.61 203.38 126.89 199.95 C 131.20 195.79 139.60 198.33 140.73 204.26 C 141.21 208.97 139.50 213.53 138.32 218.02 C 144.80 221.36 151.71 223.83 158.88 225.18 C 160.42 226.26 162.34 226.54 164.12 225.95 C 171.19 225.87 178.28 224.97 185.00 222.73 L 185.00 227.59 C 177.23 229.68 169.09 230.92 161.04 229.94 C 155.59 229.34 150.33 227.75 145.11 226.15 C 143.86 224.40 141.81 223.59 139.71 223.99 C 138.46 223.44 137.22 222.88 135.98 222.33 C 128.91 228.26 120.62 232.81 111.48 234.52 C 105.54 233.99 99.59 234.06 93.65 234.42 C 86.95 233.33 81.03 229.42 76.69 224.31 C 71.49 218.50 69.81 210.63 68.71 203.15 C 69.53 201.07 69.35 198.79 68.13 196.91 C 67.82 180.14 68.38 163.37 67.84 146.61 C 64.37 145.39 61.04 143.79 57.95 141.79 M 131.39 202.36 C 127.17 205.16 128.80 213.48 133.97 214.39 C 136.35 212.65 136.17 208.77 136.25 206.02 C 136.49 203.49 133.69 201.63 131.39 202.36 Z" />
</g>
<g id="#31343664">
<path fill="#313436" opacity="0.39" d=" M 68.13 196.91 C 69.35 198.79 69.53 201.07 68.71 203.15 C 67.58 201.24 67.39 198.99 68.13 196.91 Z" />
</g>
<g id="#6c7676cb">
<path fill="#6c7676" opacity="0.80" d=" M 139.71 223.99 C 141.81 223.59 143.86 224.40 145.11 226.15 C 143.04 226.33 141.06 225.57 139.71 223.99 Z" />
</g>
<g id="#2f353770">
<path fill="#2f3537" opacity="0.44" d=" M 158.88 225.18 C 160.64 224.36 162.68 224.62 164.12 225.95 C 162.34 226.54 160.42 226.26 158.88 225.18 Z" />
</g>
<g id="#586161e3">
<path fill="#586161" opacity="0.89" d=" M 93.65 234.42 C 99.59 234.06 105.54 233.99 111.48 234.52 C 110.35 234.76 109.23 234.98 108.10 235.16 C 105.00 235.47 101.88 235.51 98.78 235.31 C 97.05 235.11 95.35 234.77 93.65 234.42 Z" />
</g>
<g id="#3a3f3f57">
<path fill="#3a3f3f" opacity="0.34" d=" M 98.78 235.31 C 101.88 235.51 105.00 235.47 108.10 235.16 C 105.02 235.65 101.88 235.69 98.78 235.31 Z" />
</g>
</svg>
