<svg height="711pt" viewBox="0 0 538 711" width="538pt" xmlns="http://www.w3.org/2000/svg"><path d="m180.24 121.24c.56.56.56.56 0 0z" fill="#f5ede3"/><path d="m212.54 252.89c-.46-2.76.62-6.14 3.69-6.76 3.9-1.24 7.28 3.03 6.16 6.71-3.28-.01-6.57.01-9.85.05z" fill="#f5ede3"/><path d="m80.86 347.82c8.72-7.19 17.63-14.15 26.39-21.29 9.38 7.09 18.34 14.72 27.61 21.95 9.03-7.42 18.24-14.62 27.28-22.03 9.28 7.22 18.22 14.87 27.61 21.94 6.04-4.84 12.03-9.74 18.09-14.55 1.77-1.86 4.43-.56 6.6-.48-8.06 6.9-16.54 13.3-24.72 20.06-9.35-7.15-18.32-14.77-27.61-22-8.98 7.48-18.23 14.62-27.24 22.07-9.26-7.28-18.33-14.8-27.62-22.05-8.19 6.61-16.21 13.48-24.72 19.68-.56-1.11-1.11-2.21-1.67-3.3z" fill="#f5ede3"/><path d="m244.26 349.01c9.43-7.25 18.37-15.14 27.64-22.61 8.99 7.46 18.23 14.62 27.26 22.04 9.36-7.13 18.29-14.8 27.63-21.95 9.01 7.16 17.77 14.68 27.05 21.51-.69 1.15-1.38 2.31-2.05 3.49-8.45-6.53-16.73-13.29-25-20.03-9.32 7.17-18.26 14.8-27.56 21.99-9.09-7.38-18.32-14.58-27.33-22.07-9.23 7.53-18.25 15.33-27.65 22.66-8.12-7.01-16.6-13.59-24.67-20.65 2.14.09 4.75-1.13 6.52.56 6.06 5 12.18 9.95 18.16 15.06z" fill="#f5ede3"/><path d="m107.27 336.29c9.3 7.18 18.27 14.79 27.56 21.98 9.09-7.34 18.24-14.6 27.28-22 9.3 7.23 18.28 14.85 27.65 21.97 9.03-7.4 18.25-14.58 27.25-22.01 9.25 7.55 18.3 15.37 27.69 22.75 8.83-7.86 18.11-15.2 27.21-22.75 9 7.47 18.22 14.67 27.3 22.04 9.29-7.22 18.29-14.8 27.63-21.96 7.66 6.36 15.48 12.54 23.28 18.74-.65 1.19-1.3 2.38-1.95 3.58-7.05-5.86-14.31-11.46-21.34-17.35-9.35 7.16-18.29 14.83-27.64 21.98-9.08-7.31-18.14-14.64-27.24-21.91-9.42 7.27-18.26 15.27-27.67 22.54-8.98-7.67-18.21-15.05-27.25-22.65-9.08 7.33-18.17 14.65-27.27 21.97-9.46-7-18.33-14.77-27.65-21.95-8.99 7.47-18.19 14.68-27.29 22.01-9.3-7.18-18.25-14.83-27.57-22-6.93 5.69-13.86 11.4-20.99 16.85-.61-1.1-1.22-2.18-1.84-3.27 7.5-6.33 15.31-12.28 22.85-18.56z" fill="#f5ede3"/><path d="m134.87 368.1c9.06-7.33 18.2-14.57 27.2-21.99 8.6 6.67 16.98 13.6 25.48 20.4.82.44 1.92 1.96 2.88.94 8.91-7.08 17.77-14.21 26.61-21.36 9.09 7.54 18.23 15.05 27.29 22.64 9.31-7.41 18.35-15.16 27.59-22.66 8.97 7.49 18.22 14.62 27.25 22.03 9.36-7.15 18.3-14.84 27.67-21.98 6.42 5.43 13.07 10.6 19.63 15.86-.58 1.15-1.16 2.3-1.73 3.45-6.12-4.55-12.01-9.4-17.86-14.28-9.44 7.06-18.34 14.8-27.72 21.94-9.04-7.38-18.25-14.56-27.24-22-9.34 7.36-18.21 15.32-27.6 22.63-9.03-7.63-18.2-15.1-27.31-22.62-8.83 7.15-17.69 14.27-26.58 21.35-.95 1.01-2.06-.49-2.88-.93-8.46-6.84-16.92-13.68-25.46-20.41-8.96 7.47-18.21 14.58-27.23 21.99-9.38-7.12-18.24-14.93-27.7-21.94-5.67 4.77-11.5 9.34-17.25 14.01-.65-1.12-1.29-2.25-1.93-3.36 6.28-5.36 12.94-10.26 19.18-15.67 9.43 7.07 18.35 14.8 27.71 21.96z" fill="#f5ede3"/><path d="m107.21 355.99c9.42 7.06 18.32 14.78 27.64 21.97 9.05-7.38 18.24-14.58 27.26-22 9.31 7.21 18.29 14.84 27.64 22 9.03-7.42 18.21-14.65 27.26-22.03 9.1 7.51 18.23 14.99 27.25 22.6 9.42-7.28 18.33-15.18 27.64-22.59 9.03 7.41 18.27 14.57 27.26 22.03 9.32-7.2 18.3-14.85 27.67-22 5.28 4.46 10.74 8.7 16.13 13.02-.64 1.17-1.27 2.33-1.9 3.51-4.76-3.84-9.57-7.61-14.25-11.54-9.36 7.13-18.24 14.87-27.65 21.94-9.06-7.35-18.23-14.57-27.26-21.97-9.28 7.43-18.21 15.3-27.61 22.58-9.06-7.56-18.17-15.07-27.27-22.59-8.86 7.18-17.78 14.3-26.64 21.48-.94 1.05-1.99-.53-2.78-.96-8.43-6.91-16.94-13.72-25.47-20.49-9.03 7.38-18.22 14.59-27.23 22-9.19-7.05-18.03-14.56-27.18-21.66l-.63.02c-4.79 3.35-8.99 7.49-13.83 10.79-.31-1.37-2.24-3.18-.56-4.32 4.74-4.04 9.79-7.72 14.51-11.79z" fill="#f5ede3"/><path d="m95.14 375.77c3.87-3.5 8.12-6.55 12.1-9.93 9.38 7.1 18.32 14.78 27.66 21.96 9.01-7.4 18.16-14.64 27.23-21.97 9.29 7.22 18.32 14.77 27.62 21.98 8.93-7.51 18.19-14.62 27.24-21.97 9.2 7.37 18.21 14.97 27.29 22.48 9.45-7.2 18.31-15.13 27.59-22.55 9.06 7.38 18.26 14.57 27.26 22.01 9.35-7.15 18.32-14.8 27.67-21.95 4.12 3.43 8.35 6.71 12.49 10.11-.56 1.13-1.11 2.27-1.65 3.41-3.83-2.57-7.25-5.67-10.84-8.54-9.35 7.24-18.37 14.89-27.77 22.06-8.82-7.66-18.15-14.7-27.17-22.12-9.2 7.51-18.22 15.26-27.58 22.56-9.04-7.55-18.22-14.94-27.21-22.57-9.1 7.36-18.29 14.6-27.31 22.05-9.36-7.13-18.32-14.77-27.61-21.98-9.07 7.34-18.23 14.58-27.25 22-8.56-6.66-16.93-13.56-25.39-20.35-.84-.48-1.98-2.08-2.98-.97-3.23 2.45-6.3 5.12-9.51 7.6-.63-1.11-1.25-2.22-1.88-3.32z" fill="#f5ede3"/><path d="m98.79 382.39c2.89-2.15 5.68-4.43 8.48-6.7 9.35 7.13 18.33 14.73 27.6 21.96 9.05-7.39 18.18-14.69 27.29-22 9.27 7.24 18.27 14.81 27.6 21.97 8.99-7.48 18.25-14.61 27.27-22.05 9.08 7.55 18.22 15.03 27.26 22.64 9.39-7.28 18.3-15.16 27.57-22.59 9.04 7.41 18.3 14.55 27.29 22.01 9.35-7.12 18.23-14.84 27.62-21.91 3.01 2.38 6.02 4.76 9 7.17-.62 1.18-1.23 2.36-1.84 3.54-2.39-1.91-4.77-3.84-7.16-5.75-9.36 7.11-18.28 14.79-27.61 21.94-9.03-7.42-18.24-14.61-27.24-22.05-8.91 7.22-17.64 14.67-26.55 21.9-.97 1.08-2.13-.34-2.96-.85-8.42-7.07-16.97-14-25.39-21.08-8.97 7.48-18.25 14.59-27.25 22.05-9.34-7.14-18.36-14.68-27.6-21.95-9.1 7.32-18.25 14.59-27.29 22-9.36-7.12-18.2-14.9-27.61-21.95-2.17 1.76-4.36 3.49-6.53 5.24-.67-1.18-1.32-2.35-1.95-3.54z" fill="#f5ede3"/><path d="m102.31 389.77c1.58-1.5 3.24-2.91 4.9-4.31 9.35 7.17 18.37 14.76 27.65 22.02 9.03-7.43 18.28-14.58 27.26-22.07 9.29 7.23 18.19 14.95 27.62 21.99 9.06-7.39 18.27-14.58 27.27-22.03 9.04 7.47 17.97 15.09 27.14 22.39.3-.11.89-.33 1.19-.45 8.89-7.25 17.69-14.63 26.56-21.92 8.98 7.48 18.23 14.64 27.26 22.06 9.33-7.19 18.35-14.76 27.64-22.01 1.77 1.48 3.55 2.94 5.32 4.42-.5 1.07-.98 2.14-1.47 3.21-1.52-.71-2.99-1.49-4.49-2.22-7.81 6.31-15.64 12.59-23.47 18.87-1.1.68-1.47 1.94-1.92 3.07-3.3-1.31-5.85-3.82-8.58-5.99-6.75-5.48-13.59-10.84-20.29-16.38-9.1 7.52-18.27 14.96-27.24 22.62-9.46-7.23-18.38-15.16-27.65-22.64-9.01 7.46-18.27 14.62-27.3 22.07-9.29-7.22-18.31-14.79-27.59-22.01-9.1 7.32-18.18 14.67-27.26 22.02-9.08-7.22-18.15-14.46-27.12-21.82-1.25.68-2.47 1.41-3.71 2.14-.57-1.02-1.14-2.03-1.72-3.03z" fill="#f5ede3"/><path d="m106.71 394.98c9.59 7.14 18.64 15 28.12 22.3 9.06-7.38 18.3-14.52 27.27-22.01 9.28 7.24 18.29 14.84 27.66 21.97 9.03-7.39 18.22-14.59 27.24-21.99 8.93 7.3 17.74 14.74 26.68 22.03.87.96 1.92-.46 2.67-.88 8.51-7.08 17.01-14.17 25.58-21.17 9 7.46 18.18 14.7 27.27 22.04 9.33-7.23 18.39-14.81 27.69-22.08.45.45 1.34 1.35 1.78 1.81-1.83 3.93-5.66 6.12-8.84 8.8-6.89 5.5-13.7 11.08-20.64 16.49-9.03-7.4-18.23-14.58-27.24-21.99-9.37 7.35-18.26 15.3-27.68 22.59-8.99-7.64-18.18-15.05-27.24-22.62-9.07 7.34-18.21 14.59-27.26 21.97-9.44-7.03-18.33-14.79-27.67-21.96-8.99 7.44-18.18 14.65-27.27 21.99-8.21-6.47-16.31-13.09-24.5-19.59-2.34-1.73-4.67-4.63-3.62-7.7z" fill="#f5ede3"/><path d="m134.86 427.09c9.1-7.29 18.2-14.59 27.23-21.96 8.54 6.72 16.99 13.56 25.46 20.37.82.44 1.92 1.98 2.88.96 8.88-7.09 17.76-14.2 26.59-21.36 9.11 7.48 18.18 15.01 27.21 22.58 9.48-7.22 18.38-15.17 27.7-22.59 8.94 7.5 18.24 14.56 27.23 22 7.9-5.89 15.27-12.48 23.2-18.33-1.82 3.54-3.14 7.65-6.47 10.1-5.63 4.35-11.06 8.95-16.72 13.27-9.1-7.34-18.23-14.64-27.27-22.05-9.28 7.46-18.24 15.32-27.59 22.67-9.01-7.66-18.21-15.1-27.29-22.67-9.02 7.42-18.26 14.55-27.23 22.03-9.4-7.12-18.38-14.76-27.68-22-9 7.44-18.23 14.6-27.24 22.03-5.26-4.06-10.37-8.3-15.58-12.41-3.31-2.41-4.7-6.45-6.42-9.99 7.52 5.54 14.54 11.72 21.99 17.35z" fill="#f5ede3"/><path d="m134.89 436.95c9.03-7.37 18.2-14.59 27.22-21.98 9.35 7.14 18.23 14.91 27.66 21.96 9.04-7.4 18.18-14.66 27.25-22 9.08 7.54 18.21 15.02 27.29 22.58 9.39-7.28 18.3-15.17 27.6-22.57 9.01 7.4 18.2 14.6 27.22 21.99 5.13-3.72 9.86-7.94 14.91-11.76-1.96 3.53-3.26 7.7-6.56 10.26-2.75 2.23-5.53 4.42-8.36 6.54-8.96-7.48-18.21-14.59-27.21-22.02-9.29 7.43-18.23 15.29-27.62 22.59-9.03-7.58-18.14-15.06-27.19-22.61-9.11 7.35-18.34 14.55-27.33 22.04-9.38-7.12-18.33-14.79-27.64-21.99-9.03 7.38-18.23 14.55-27.21 21.99-3.12-2.49-6.47-4.75-9.28-7.6-1.69-2.44-2.92-5.18-4.14-7.87 4.65 3.23 8.81 7.11 13.39 10.45z" fill="#f5ede3"/><path d="m134.92 446.79c9-7.41 18.17-14.61 27.21-21.96 9.29 7.21 18.3 14.79 27.62 21.96 9-7.44 18.21-14.63 27.27-21.99 8.51 6.88 16.86 13.96 25.32 20.9.86.53 2.11 2.04 3.13.89 8.85-7.22 17.52-14.66 26.42-21.81 6.13 5.07 12.46 9.89 18.5 15.06.8-.48 1.58-.97 2.37-1.47-.39.8-.77 1.61-1.15 2.43 2.58 1.89 5.08 3.9 7.52 5.98 1.95-1.48 3.86-3.04 5.91-4.4-1.8 3.06-2.68 7.65-5.99 9.21-9.11-7.19-18.1-14.54-27.17-21.78-9.26 7.43-18.19 15.28-27.61 22.51-9.04-7.55-18.19-14.97-27.23-22.52-9.12 7.25-18.21 14.54-27.16 22.01-9.49-7.01-18.36-14.83-27.76-21.96-9.12 7.39-18.35 14.65-27.41 22.12-1.77-2.89-3.39-5.88-4.84-8.94 1.74 1.17 3.4 2.46 5.05 3.76z" fill="#f5ede3"/><path d="m136.73 455.06c8.52-6.77 16.97-13.61 25.45-20.43 9.24 7.27 18.24 14.84 27.59 21.97 7.92-6.22 15.4-12.99 23.61-18.83-.35-.72-.69-1.43-1.04-2.14 1.79.96 3.46.32 4.97-.88 8.96 7.53 18 14.95 26.98 22.44 9.45-7.22 18.33-15.13 27.57-22.61 8.75 7.22 17.75 14.12 26.46 21.39-.69 1.11-1.38 2.22-2.07 3.34-8.06-6.65-16.29-13.08-24.34-19.73-9.12 7.33-17.94 15.05-27.11 22.3l-.68-.01c-9.18-7.25-18.06-14.89-27.1-22.32-8.98 7.47-18.19 14.65-27.24 22.03-9.39-7.08-18.35-14.71-27.62-21.94-8.57 6.69-16.67 14.02-25.7 20.1.19-1.56.25-3.12.27-4.68z" fill="#f5ede3"/><path d="m139.87 462.31c7.48-5.88 14.93-11.81 22.25-17.88 9.28 7.24 18.22 14.9 27.61 21.98 9.06-7.39 18.28-14.58 27.29-22.03 8.47 7.08 16.99 14.11 25.51 21.14.77.47 1.87 1.94 2.79.85 8.86-7.33 17.73-14.63 26.58-21.96 7.54 6.25 15.3 12.22 22.85 18.46-.64 1.1-1.27 2.21-1.9 3.33-7.1-5.44-14.02-11.11-20.94-16.77-9.11 7.34-17.93 15.05-27.13 22.26l-.65.05c-9.15-7.29-18.04-14.92-27.11-22.32-9 7.46-18.3 14.54-27.29 22.01-9.36-7.14-18.33-14.77-27.65-21.96-6.7 5.6-13.64 10.89-20.32 16.51-.65-1.23-1.28-2.45-1.89-3.67z" fill="#f5ede3"/><path d="m143.34 469.7c5.94-5.53 12.76-10.01 18.75-15.48 9.26 7.28 18.23 14.95 27.66 22.02 9.08-7.36 18.25-14.6 27.27-22.02 8.49 7.12 17.1 14.11 25.59 21.24.74.46 1.78 1.79 2.67.79 8.87-7.35 17.75-14.69 26.63-22.03 6.29 5.39 12.96 10.33 19.28 15.7-.68 1.1-1.35 2.22-2.02 3.33-5.72-4.7-11.55-9.26-17.26-13.98-9.29 7.45-18.24 15.31-27.63 22.64-8.99-7.66-18.22-15.02-27.24-22.64-8.46 6.79-16.96 13.55-25.29 20.49-.9.64-2.08 1.83-3.12.7-8.95-6.91-17.56-14.26-26.52-21.16-5.56 4.56-11.16 9.1-16.84 13.53-.64-1.06-1.28-2.1-1.93-3.13z" fill="#f5ede3"/><path d="m146.96 476.3c5.11-3.98 10.14-8.07 15.13-12.2 8.56 6.7 16.97 13.61 25.45 20.41.82.46 1.92 1.97 2.89.94 8.86-7.12 17.85-14.11 26.59-21.39 9.06 7.59 18.24 15.04 27.28 22.66 9.42-7.29 18.33-15.21 27.63-22.64 5.05 4.4 10.53 8.29 15.5 12.79-.3.82-.89 2.46-1.19 3.28-5.22-3.02-9.57-7.34-14.3-11.05-9.1 7.57-18.48 14.84-27.24 22.8-9.31-7.51-18.48-15.21-27.69-22.84-8.97 7.47-18.23 14.58-27.22 22.03-9.41-7.09-18.38-14.73-27.67-21.97-4.35 3.61-8.73 7.17-13.21 10.61-.66-1.15-1.31-2.29-1.95-3.43z" fill="#f5ede3"/><path d="m150.62 483.21c3.89-3.01 7.69-6.14 11.51-9.24 9.14 7.27 18.31 14.52 27.28 22 9.4-7.09 18.35-14.75 27.6-22.03 9.1 7.51 18.2 15.01 27.28 22.54 9.4-7.25 18.33-15.12 27.63-22.52 3.93 3.23 7.87 6.45 11.95 9.5-.57 1.25-1.14 2.5-1.71 3.75-3.47-2.69-6.88-5.47-10.27-8.26-9.29 7.43-18.21 15.32-27.61 22.6-9.05-7.58-18.12-15.15-27.27-22.61-9.03 7.41-18.32 14.5-27.24 22.04-9.37-7.15-18.32-14.81-27.66-22-3.24 2.67-6.47 5.34-9.84 7.84-.55-1.21-1.1-2.41-1.65-3.61z" fill="#f5ede3"/><path d="m154.15 490.23c2.69-2.11 5.33-4.28 8-6.41 9.24 7.27 18.3 14.76 27.59 21.97 9.04-7.41 18.2-14.66 27.29-22 9.14 7.44 18.16 15.02 27.25 22.52 9.48-7.15 18.29-15.15 27.59-22.53 2.91 2.32 5.79 4.68 8.65 7.07-.68 1.06-1.36 2.13-2.02 3.22-2.28-1.7-4.47-3.5-6.66-5.3-9.19 7.51-18.17 15.31-27.57 22.56-9.07-7.53-18.14-15.05-27.24-22.54-9.05 7.35-18.25 14.51-27.19 21.99-9.48-6.99-18.36-14.75-27.67-21.97-2.08 1.66-4.15 3.33-6.23 4.99-.6-1.2-1.2-2.38-1.79-3.57z" fill="#f5ede3"/><path d="m157.78 497.1c1.46-1.14 2.92-2.29 4.38-3.43 9.29 7.21 18.26 14.81 27.61 21.95 9.04-7.47 18.28-14.69 27.38-22.09 8.11 7.03 16.5 13.72 24.69 20.66 1.03.57 2.29 2.5 3.53 1.28 8.87-7.25 17.69-14.58 26.5-21.91 1.67 1.38 3.34 2.77 4.97 4.21-.61 1.08-1.22 2.17-1.82 3.27-1.07-.78-2.14-1.57-3.21-2.34-9.1 7.27-17.89 14.94-27.02 22.15l-.68.02c-9.15-7.27-18.07-14.85-27.09-22.3-9 7.44-18.22 14.59-27.23 22.02-9.17-6.96-18.08-14.28-26.98-21.58-1.24.38-2.46.8-3.68 1.21-.45-1.05-.9-2.09-1.35-3.12z" fill="#f5ede3"/><path d="m161.12 503.03c9.98 6.85 18.81 15.26 28.62 22.36 9.11-7.32 18.22-14.64 27.29-22 8.46 7.1 17 14.1 25.49 21.15.78.48 1.88 1.87 2.81.81 6.77-5.53 13.49-11.14 20.23-16.72 2.43-1.9 4.56-4.43 7.7-5.13-.76 2.52-1.73 5.16-3.8 6.92-8.23 6.91-16.65 13.61-24.79 20.64-9.47-7.24-18.41-15.14-27.66-22.66-8.97 7.49-18.26 14.6-27.29 22.02-7.79-5.87-15.18-12.25-22.94-18.17-3.12-2.12-4.33-5.88-5.66-9.22z" fill="#f5ede3"/><path d="m189.76 535.26c9.06-7.38 18.22-14.62 27.27-22.01 9.08 7.56 18.28 14.98 27.25 22.67 7.44-5.64 14.29-12.04 21.75-17.64-1.78 3.61-3.19 7.71-6.52 10.24-5.11 4.08-10 8.45-15.24 12.38-9.01-7.63-18.18-15.06-27.24-22.63-9.05 7.38-18.24 14.58-27.26 21.98-4.99-3.65-9.7-7.66-14.57-11.47-3.24-2.43-4.52-6.47-6.32-9.93 7.16 5.21 13.71 11.2 20.88 16.41z" fill="#f5ede3"/><path d="m139.26 591.25c.54.55.54.55 0 0z" fill="#f5ede3"/><path d="m171.25 629.25c.55.55.55.55 0 0z" fill="#f5ede3"/><path d="m535.08 634.37c3.39.18-1.63 2.86 0 0z" fill="#f5ede3"/><g fill="#262323"><path d="m126.89 58.69c30.26-26.63 72.6-38.57 112.35-32.21 25.52 3.95 49.95 15.13 69.41 32.13-31.63 12.47-58.63 36.38-74.5 66.48-8.75 16.77-14.63 35.3-15.77 54.24l1.19-.86c3.27-18.88 10.13-37.19 20.77-53.16 17.09-26.3 43.62-46.48 73.75-55.34 1.64-.53 3.29-1.05 4.95-1.55 6.15 6.39 11.46 13.52 16.41 20.87-19.63 4.09-38.72 11.45-55.23 22.96-32.79 22.12-55.67 58.43-61.07 97.64-.47 2.98-.34 6.11-1.6 8.92-2.34-26.92-12.11-53.26-28.66-74.69-1.14-1.56-2.68-3.05-2.64-5.12-2.78-.56-4.12-3.41-6.02-5.23-20.85-23.1-49.58-38.51-80.04-44.44 4.93-7.39 10.19-14.67 16.57-20.9 25.99 7.15 49.91 21.87 67.47 42.38 17.86 20.71 29.55 46.85 32.28 74.12.12 1.98.64 3.9 1.47 5.71.57-3.66.56-7.39 1.31-11.02-.68.71-1.34 1.43-1.99 2.17-1.3-24.72-9.89-48.89-23.63-69.41-16.12-24.14-39.8-43.05-66.78-53.69m53.35 62.55c.56.56.56.56 0 0z"/><path d="m92.43 103.22c14.03.63 27.79 4.21 40.85 9.23-7 4.8-13.06 11.7-14.39 20.35-2.83 13.54 5.81 28.05 18.82 32.45 10.36 3.79 22.77.83 30.26-7.27 4.74-4.55 7.01-10.96 8.1-17.3 21.58 20.66 35.96 48.74 40.03 78.35.5 4.4 1.03 8.81 1.73 13.2.98-2.98.46-6.15.91-9.2 1.37-6.96 2.18-14.05 4.23-20.86 6.43-23.19 19.08-44.61 36.33-61.4.98 7.73 4.85 15.1 11.04 19.9 8.06 6.56 19.8 8.09 29.27 3.79 10.98-4.68 18.29-16.62 17.26-28.55-.59-9.65-6.62-18.32-14.79-23.24 13-5.4 26.88-8.58 40.91-9.62 9.71 19.43 14.49 41.24 14.2 62.94-.05 22.6.06 45.21-.04 67.81-52.38 0-104.76-.05-157.15 0-17.97.16-35.97-.32-53.94.18-.16.42-.5 1.27-.67 1.69-.01-.5-.04-1.5-.05-2.01-22.32.32-44.66.04-66.99.12.15-23.93-.01-47.86.09-71.79.24-20.32 5.17-40.49 13.99-58.77z"/><path d="m133.68 114.63c2.8-2.18 5.7 1.03 8.4 1.93-9.14 2.42-16.52 10.86-16.7 20.46-.86 11.47 8.95 22.63 20.54 22.77 8.63.86 17.13-4.39 20.92-12.06 2.17-3.52 1.89-7.79 2.58-11.72 1.9.46 3.81 1.31 4.8 3.12-.26 11.82-9.33 22.84-20.96 25.23-9.17 2.13-19.4-.84-25.73-7.87-7.74-7.85-9.45-20.7-4.5-30.47 2.31-4.75 6.06-8.77 10.65-11.39z"/><path d="m291.44 117.7c2.72-1.61 5.67-2.8 8.54-4.13 5.57 3.11 10.46 7.76 12.93 13.74 4.15 9.42 2.37 21.28-4.74 28.8-5.26 5.95-13.28 9.35-21.22 8.88-9.17-.2-17.89-5.66-22.35-13.62-2.24-3.71-3.05-8.01-3.71-12.23 1.4-1.32 2.97-2.47 4.78-3.18.67 3.67.84 7.5 2.44 10.93 3.41 8.02 12.06 13.57 20.81 12.95 7.92-.14 15.44-5.06 18.83-12.2 2.29-4.36 2.49-9.5 1.72-14.27-1.62-7.86-7.92-14.37-15.63-16.49-.89.6-1.79 1.18-2.69 1.75.08-.23.22-.7.29-.93z"/><path d="m78.35 237.31c92.93 0 185.85.01 278.77-.01.07 2.71.08 5.43.09 8.15-43.99.01-87.98.08-131.97-.06 1.11 2.69 1.49 5.58 1.45 8.48 9.8 2.17 18.13 8.41 24.16 16.27 7-5.8 13.98-11.61 21.01-17.37 9.09 7.33 18.27 14.56 27.26 22.01 9.31-7.22 18.36-14.76 27.67-21.99 8.86 7.35 17.99 14.38 26.85 21.73 1.55 1.08.33 3.1.27 4.56-9.41-6.63-18.03-14.34-27.13-21.39-9.39 7.08-18.3 14.79-27.63 21.95-9.01-7.45-18.21-14.66-27.29-22.03-6.04 5.05-12.27 9.91-18.17 15.13-1.63 1.29.46 2.9.95 4.22 5.63-4.96 11.52-9.61 17.28-14.43 8.95 7.54 18.3 14.61 27.26 22.15 9.23-7.3 18.28-14.84 27.61-22.03 8.86 7.42 18.15 14.34 26.95 21.83 1.63 1.12.22 3.16-.34 4.46-8.92-7.1-17.75-14.31-26.62-21.46-9.34 7.14-18.25 14.82-27.61 21.93-9.09-7.32-18.21-14.62-27.26-21.99-5.38 4.44-10.87 8.75-16.07 13.4.38 1.25.76 2.51 1.15 3.77 5.09-3.92 9.9-8.17 14.9-12.19 9.01 7.46 18.23 14.64 27.3 22.02 9.35-7.12 18.23-14.82 27.57-21.93 1.21.94 2.44 1.86 3.69 2.77-.4.8-.81 1.61-1.21 2.42 1-.74 2.21-1.84 3.3-.51 7.43 5.92 14.85 11.84 22.17 17.89-.43 1.24-.86 2.48-1.3 3.72-8.81-7.22-17.83-14.18-26.57-21.48-2.37 1.84-4.76 3.67-7.06 5.59-.73-.18-1.45-.37-2.17-.56.17.41.52 1.23.7 1.64-6.4 5.04-12.62 10.32-19.09 15.27-9.12-7.31-18.29-14.57-27.31-22-4.82 3.84-9.51 7.85-14.27 11.77 0 1.58.03 3.17.07 4.76 4.89-3.65 9.41-7.76 14.2-11.51 9.03 7.41 18.2 14.64 27.28 21.99 9.32-7.19 18.35-14.74 27.61-22 9.14 7.67 18.63 14.93 27.81 22.57-.16.91-.5 2.75-.66 3.67-1.39-.74-2.73-1.54-3.93-2.55-7.65-6.37-15.56-12.42-23.19-18.82-9.39 7.12-18.31 14.83-27.65 22-8.98-7.49-18.3-14.55-27.27-22.06-4.34 3.6-8.77 7.11-13.04 10.79-2.21 1.71-2.09 4.78-2.82 7.24 5.4-4.2 10.47-8.8 15.87-12.99 9.01 7.41 18.19 14.62 27.24 21.98 9.37-7.14 18.28-14.86 27.7-21.93 8.73 7.33 17.81 14.24 26.59 21.5 1.74 1.1.61 3.15.53 4.75-9.48-6.55-18.13-14.27-27.17-21.43-9.36 7.16-18.3 14.85-27.68 21.98-8.99-7.4-18.08-14.66-27.17-21.92-6.45 5.16-13.05 10.2-19.06 15.87-2.69 4.21-6.23 7.76-9.24 11.72 1.29-.67 2.54-1.42 3.67-2.34 8.15-6.83 16.33-13.63 24.57-20.35 8.97 7.47 18.27 14.53 27.23 22.02 9.38-7.13 18.3-14.84 27.67-21.97 8.83 7.31 17.92 14.31 26.75 21.61 1.64 1.1.5 3.11.42 4.63-9.47-6.53-18.1-14.25-27.14-21.37-9.44 7.05-18.33 14.81-27.7 21.95-9-7.43-18.16-14.66-27.24-21.99-9.14 7.37-18.17 14.88-27.12 22.47-1.52-.99-3.02-2.01-4.51-3.02-.99.67-1.98 1.35-2.97 2.03 2.21 2.14 4.62 4.06 6.99 6.02 9.46-7.17 18.28-15.16 27.61-22.5 9.06 7.34 18.23 14.54 27.23 21.95 9.38-7.11 18.32-14.79 27.66-21.95 8.7 7.13 17.53 14.1 26.28 21.16 2.1 1.06 1.06 3.5.9 5.3-6.43-4.55-12.3-9.83-18.55-14.62-1.94-1.66-4.49-2.96-5.34-5.53-1.33-.34-2.66-.69-3.98-1.05-8.99 7.18-17.86 14.5-26.94 21.57-8.99-7.49-18.26-14.62-27.28-22.06-9.26 7.48-18.19 15.37-27.64 22.61-3.61-3.1-7.21-6.22-11.02-9.05-1.29.57-2.58 1.11-3.86 1.68 4.99 3.92 9.68 8.23 14.76 12.04 2.47-.59 4.18-3.07 6.29-4.49 7.12-5.99 14.34-11.87 21.5-17.82 9.03 7.42 18.16 14.73 27.26 22.07 9.34-7.16 18.27-14.82 27.62-21.97 8.18 6.68 16.45 13.25 24.7 19.84 1.5 1.11 2.59 2.64 3.45 4.28 7.36-14.74 14.88-29.42 22.59-43.99-.1 47.07-.02 94.14-.05 141.21-.32 7.34-2.31 14.49-3.87 21.64-2.16 7.41-4.08 15-7.57 21.92-.28-38.71-.16-77.45-.04-116.17 2.27.48 4.55 1.06 6.69 2-.03-3.63-.66-7.27-2.7-10.35.29-.74.59-1.48.88-2.22-.63-.63-1.24-1.28-1.81-1.95-1.23-7.06-1.58-14.59-4.93-21.04-2.38 5.8-3.18 12.1-4.32 18.23-.68 5.82-4.4 10.88-4.38 16.81 2.22-.55 4.47-1.04 6.72-1.48.24 40.88.02 81.78.12 122.66.09 1.76-.23 3.52-1.13 5.06-3.76 7.33-7.9 14.52-12.9 21.08.15-37.69.18-75.38-.02-113.06 2.37.32 4.71.83 6.99 1.56.4-3.54-1.37-6.72-2.45-9.96-2.21-8.12-2.96-16.56-5.39-24.63-.84.16-1.68.32-2.51.48.01 5.97-2.03 11.66-2.76 17.54-.85 5.52-4.5 10.42-3.84 16.16 2.11-.57 4.25-1.03 6.35-1.65-.16 30.46-.03 60.92-.08 91.38-.21 9.08.42 18.25-.26 27.29-4.26 5.46-9.01 10.6-14.38 15-.02-27.43-.04-54.86-.02-82.29.03-4.94-.17-9.9.25-14.83 2.17.48 4.34 1.03 6.47 1.73-.07-2.22-.07-4.5-.94-6.58-3.87-9.12-3.55-19.37-7.05-28.6-2.78 3.05-2.5 7.45-3.56 11.2-1.17 3.77-.99 7.84-2.43 11.55-1.13 4.08-3.4 7.91-3.18 12.28 2.12-.71 4.3-1.19 6.51-1.58.58 32.93.04 65.89.29 98.83.28 1.52-1.08 2.38-2.07 3.21-3.92 3.18-8.21 5.88-12.56 8.43-.03-24.32-.13-48.64.06-72.96 2.01.48 4.05.9 6.08 1.35.01-2.05.36-4.19-.5-6.12-3.81-9.29-3.38-19.73-7.25-29-2.92 5.37-3.14 11.65-4.5 17.51-.3 6.15-4.7 11.34-4.14 17.58 2.12-.5 4.26-.96 6.36-1.54-.06 25.12-.1 50.25.02 75.37-4.9 2.77-10.1 4.95-15.32 7.03.17-14.55.01-29.11.09-43.66 2.15.68 4.32 1.31 6.39 2.24.51-6.12-3.16-11.43-3.61-17.41-.41-4.05-1.78-7.9-2.37-11.91-.54-2.19-.64-4.74-2.47-6.3-3.56 9.19-3.23 19.44-7.31 28.45-.96 2.04-.86 4.33-.97 6.53 2.13-.55 4.27-1.05 6.42-1.55.05 15.02.1 30.04.01 45.06-5.48 1.53-10.93 3.22-16.53 4.3.14-4.47.09-8.93.05-13.39 2.16.53 4.32 1.07 6.46 1.7 0-2.25.05-4.57-.91-6.66-3.46-8.21-3.35-17.31-5.98-25.75-.32-1.74-1.99-2.54-3.2-3.6.91 3.81-.39 7.6-1.1 11.33-1.22 4.03-1.18 8.34-2.65 12.3-1.1 4.09-3.43 7.89-3.24 12.26 2.23-.66 4.5-1.17 6.79-1.62.04 4.52.13 9.06-.09 13.58l-.54.59c-9.38 1.89-19 2.22-28.54 2.43 5.94-11.76 12.27-23.34 18.01-35.2-3.51 2.28-6.47 5.26-9.78 7.81-1.58 1.24-4.26 1.88-5.71.1-8.17-6.82-16.39-13.59-24.56-20.42-8.72 7.1-17.52 14.09-26.27 21.14-5.41-1.02-8.71-5.79-13.19-8.52 5.88 11.77 11.91 23.47 18.06 35.1-10.1-.05-20.21-.84-30.16-2.64-.07-4.81.1-9.61-.08-14.42 2.29.89 4.67 1.47 7.02 2.17-.14-2.56-.71-5.1-1.78-7.43-3.89-8.82-3.5-18.81-7.09-27.72-2.21 2.41-2.2 5.89-2.93 8.92-1.68 6.74-2.07 13.82-4.87 20.26-.92 1.87-.68 3.94-.48 5.93 2.09-.61 4.21-1.13 6.33-1.65.1 4.41.07 8.81.15 13.22-5.57-1.21-11.11-2.65-16.49-4.55-.08-14.87-.1-29.74-.1-44.62 2.16.51 4.31 1.02 6.44 1.61.58-5.1-2.74-9.29-3.63-14.13-.72-3.77-1.12-7.61-2.22-11.31-.33-3.45-1.22-6.84-2.82-9.93-2.67 5.84-3.11 12.37-4.45 18.59-.29 5.82-4.4 10.89-3.73 16.79 2.15-.48 4.3-.96 6.45-1.44.27 14.32.11 28.65.11 42.98-5.12-1.99-10.2-4.17-14.98-6.89-.63-1.76-.42-3.68-.48-5.5.24-23.09-.27-46.19.27-69.27 2.2.42 4.41.82 6.53 1.53.11-6.31-4.07-11.65-4.38-17.9-1.3-5.88-1.95-11.97-4.31-17.55-2.71 4.02-2.38 8.98-3.72 13.46-.65 2.73-.86 5.55-1.54 8.28-.99 4.69-3.3 9.05-3.44 13.92 2.21-.91 4.58-1.3 6.97-1.28.1 23.99.01 47.98.01 71.97-5.12-3.04-9.93-6.56-14.58-10.26-.07-33.27-.1-66.54.02-99.8 2.29.46 4.57.99 6.82 1.66.02-4.32-2.31-8.08-3.37-12.16-2.7-7.45-1.82-16.09-5.99-22.99-3.65 9.51-3.25 20.08-7.35 29.45-.83 1.85-.56 3.88-.45 5.83 2.11-.76 4.26-1.38 6.33-2.21.3 32.26-.08 64.53.19 96.78-5.28-4.76-10.45-9.84-14.48-15.7-.13-38.92-.06-77.86-.03-116.78 2.35.02 4.63.58 6.74 1.63.39-3.56-1.55-6.73-2.77-9.93-2.75-8.37-2.6-17.57-6.34-25.63-2.98 7.17-3.57 15.06-5.25 22.58-.78 4.47-3.52 8.47-3.23 13.14 2.29-.82 4.65-1.43 6.94-2.23 0 37.47-.13 74.95.07 112.42-5.09-7.02-9.4-14.6-13.17-22.41-.96-1.71-.73-3.7-.76-5.56.1-39.88-.1-79.77.06-119.65 2.31.46 4.6.97 6.88 1.54-.16-4.2-2.37-7.89-3.28-11.92-2.85-7.47-1.85-16.18-6.12-23.14-1.26 3.07-2.03 6.31-2.54 9.59-.52 3.18-1.75 6.4-1.02 9.65-2.41 4.93-4.46 10.38-4.27 15.95 2.12-.61 4.26-1.15 6.38-1.74.1 38.04.02 76.08.05 114.12-3.29-6.99-5.19-14.55-7.21-21.98-1.49-7.06-3.41-14.15-3.25-21.42.01-46.26.05-92.52-.01-138.78 7.7 13.78 14.54 28.06 21.86 42.05 9.41-7.5 18.75-15.08 28.13-22.61 9.37 7.11 18.32 14.76 27.62 21.98 9.01-7.45 18.22-14.66 27.29-22.05 9.2 7.32 18.25 14.83 27.58 21.98 4.94-4.04 9.91-8.04 14.91-11.98-1.61-.47-3.44-2.5-5.03-.98-3.41 2.51-6.59 5.31-9.87 7.99-9.33-7.15-18.32-14.74-27.59-21.98-9.1 7.33-18.27 14.57-27.25 22.03-9.29-7.23-18.28-14.86-27.65-22-9.08 7.07-17.66 14.83-27.12 21.37-.26-1.48-1.48-3.4.23-4.48 8-6.75 16.36-13.08 24.43-19.76 1.06-.62 2.28-2.52 3.55-1.19 8.92 6.97 17.61 14.23 26.55 21.18 9-7.45 18.25-14.59 27.27-22.03 9.24 7.29 18.2 14.95 27.65 21.96 2.33-1.98 4.73-3.88 7.15-5.75-1.06-.76-2.12-1.52-3.17-2.27-1.72.74-3.44 3.79-5.4 2.12-8.79-6.95-17.41-14.11-26.26-20.99-9.09 7.32-18.24 14.55-27.25 21.96-9.37-7.12-18.22-14.92-27.69-21.92-9.02 7.05-17.59 14.72-26.97 21.28-.26-.83-.78-2.5-1.04-3.33 8.32-7.29 17.24-13.86 25.73-20.95 1.01-.6 2.15-2.39 3.37-1.15 8.89 7.04 17.63 14.28 26.59 21.23 9.06-7.36 18.18-14.63 27.24-21.99 7.1 5.51 14.06 11.19 21.03 16.86 2.4 1.89 4.67 3.99 7.42 5.39-.81-1.99-2.43-3.45-3.78-5.06-2.35-2.64-3.95-5.95-6.9-8.03-6-4.63-11.75-9.56-17.78-14.16-9.03 7.4-18.25 14.55-27.23 22.01-8.39-6.56-16.63-13.31-24.93-19.99-.92-.6-1.69-1.66-2.85-1.72-9.17 6.76-17.47 14.72-26.94 21.03-.23-.86-.69-2.59-.92-3.45 9.18-7.76 18.81-14.97 27.97-22.75 9.35 7.18 18.3 14.84 27.66 22 9.02-7.4 18.25-14.55 27.23-22 5.72 4.52 11.4 9.09 17.04 13.71-.52-2.1-.84-4.27-1.69-6.28-4.94-4.34-10.21-8.32-15.36-12.43-8.99 7.47-18.22 14.63-27.25 22.05-9.28-7.26-18.29-14.87-27.64-22.03-7.78 6.59-15.85 12.82-23.74 19.26-1.04.86-2.24 1.47-3.44 2.07-.18-.89-.54-2.67-.72-3.56 9.23-7.61 18.71-14.9 27.89-22.57 9.41 7.03 18.26 14.79 27.61 21.91 9.14-7.26 18.28-14.52 27.29-21.94 5.15 3.88 9.98 8.16 15.18 11.97-.07-1.65.22-3.35-.27-4.94-4.93-4.06-9.87-8.13-14.91-12.05-9 7.46-18.2 14.66-27.27 22.01-9.3-7.21-18.25-14.86-27.64-21.96-8.73 7.26-17.68 14.28-26.52 21.43-.72-1.34-2.13-3.23-.47-4.48 8.97-7.3 18.14-14.39 27.05-21.77 5.03 3.73 9.79 7.81 14.73 11.66-.17.8-.34 1.62-.51 2.43.74-.39 1.48-.76 2.22-1.12 3.64 3.1 7.43 6.02 11.16 9 9.08-7.36 18.24-14.61 27.27-22.03 5.4 4.03 10.33 8.68 15.94 12.44.33-1.3.67-2.6 1-3.9-5.65-4.48-11.23-9.06-16.88-13.54-9.08 7.37-18.21 14.66-27.31 22-9.35-7.12-18.22-14.86-27.62-21.92-8.83 7.18-17.77 14.24-26.59 21.45-.65-1.35-2.13-3.28-.35-4.46 8.82-7.46 18.02-14.48 26.94-21.82 9.39 7.1 18.34 14.76 27.63 21.99 8.97-7.51 18.24-14.64 27.27-22.07 6.18 4.8 12.09 9.95 18.41 14.58.53-1.13 1.06-2.26 1.6-3.38-6.53-5.55-13.26-10.86-20.02-16.12-9.07 7.33-18.29 14.47-27.18 22.02-9.34-7.2-18.27-14.93-27.72-21.99-9.07 7.04-17.66 14.74-27.06 21.33-.25-1.47-1.53-3.41.19-4.48 8.83-7.38 18-14.38 26.86-21.74 9.39 7.12 18.35 14.79 27.67 21.99 9.03-7.46 18.25-14.69 27.33-22.09 7.21 5.97 14.58 11.74 21.84 17.66 5.12-6.58 11.63-12.61 19.83-14.94 1.49-.63 3.3-.84 4.45-2.02.02-2.78.41-5.52 1.47-8.1-43.59.29-87.19.11-130.78.1-1.48-2.21-.29-5.48-.69-8.11m134.19 15.58c3.28-.04 6.57-.06 9.85-.05 1.12-3.68-2.26-7.95-6.16-6.71-3.07.62-4.15 4-3.69 6.76m-1.16 6.64c-13.54 2.34-24.93 13.66-27.44 27.16-3.18 15.15 5.46 31.63 19.69 37.68 14.67 6.98 33.71 1.3 42.35-12.4 8.83-12.7 7.09-31.25-3.66-42.29-7.77-8.29-19.77-12.21-30.94-10.15m-130.52 88.29c.56 1.09 1.11 2.19 1.67 3.3 8.51-6.2 16.53-13.07 24.72-19.68 9.29 7.25 18.36 14.77 27.62 22.05 9.01-7.45 18.26-14.59 27.24-22.07 9.29 7.23 18.26 14.85 27.61 22 8.18-6.76 16.66-13.16 24.72-20.06-2.17-.08-4.83-1.38-6.6.48-6.06 4.81-12.05 9.71-18.09 14.55-9.39-7.07-18.33-14.72-27.61-21.94-9.04 7.41-18.25 14.61-27.28 22.03-9.27-7.23-18.23-14.86-27.61-21.95-8.76 7.14-17.67 14.1-26.39 21.29m163.4 1.19c-5.98-5.11-12.1-10.06-18.16-15.06-1.77-1.69-4.38-.47-6.52-.56 8.07 7.06 16.55 13.64 24.67 20.65 9.4-7.33 18.42-15.13 27.65-22.66 9.01 7.49 18.24 14.69 27.33 22.07 9.3-7.19 18.24-14.82 27.56-21.99 8.27 6.74 16.55 13.5 25 20.03.67-1.18 1.36-2.34 2.05-3.49-9.28-6.83-18.04-14.35-27.05-21.51-9.34 7.15-18.27 14.82-27.63 21.95-9.03-7.42-18.27-14.58-27.26-22.04-9.27 7.47-18.21 15.36-27.64 22.61m-136.99-12.72c-7.54 6.28-15.35 12.23-22.85 18.56.62 1.09 1.23 2.17 1.84 3.27 7.13-5.45 14.06-11.16 20.99-16.85 9.32 7.17 18.27 14.82 27.57 22 9.1-7.33 18.3-14.54 27.29-22.01 9.32 7.18 18.19 14.95 27.65 21.95 9.1-7.32 18.19-14.64 27.27-21.97 9.04 7.6 18.27 14.98 27.25 22.65 9.41-7.27 18.25-15.27 27.67-22.54 9.1 7.27 18.16 14.6 27.24 21.91 9.35-7.15 18.29-14.82 27.64-21.98 7.03 5.89 14.29 11.49 21.34 17.35.65-1.2 1.3-2.39 1.95-3.58-7.8-6.2-15.62-12.38-23.28-18.74-9.34 7.16-18.34 14.74-27.63 21.96-9.08-7.37-18.3-14.57-27.3-22.04-9.1 7.55-18.38 14.89-27.21 22.75-9.39-7.38-18.44-15.2-27.69-22.75-9 7.43-18.22 14.61-27.25 22.01-9.37-7.12-18.35-14.74-27.65-21.97-9.04 7.4-18.19 14.66-27.28 22-9.29-7.19-18.26-14.8-27.56-21.98m27.6 31.81c-9.36-7.16-18.28-14.89-27.71-21.96-6.24 5.41-12.9 10.31-19.18 15.67.64 1.11 1.28 2.24 1.93 3.36 5.75-4.67 11.58-9.24 17.25-14.01 9.46 7.01 18.32 14.82 27.7 21.94 9.02-7.41 18.27-14.52 27.23-21.99 8.54 6.73 17 13.57 25.46 20.41.82.44 1.93 1.94 2.88.93 8.89-7.08 17.75-14.2 26.58-21.35 9.11 7.52 18.28 14.99 27.31 22.62 9.39-7.31 18.26-15.27 27.6-22.63 8.99 7.44 18.2 14.62 27.24 22 9.38-7.14 18.28-14.88 27.72-21.94 5.85 4.88 11.74 9.73 17.86 14.28.57-1.15 1.15-2.3 1.73-3.45-6.56-5.26-13.21-10.43-19.63-15.86-9.37 7.14-18.31 14.83-27.67 21.98-9.03-7.41-18.28-14.54-27.25-22.03-9.24 7.5-18.28 15.25-27.59 22.66-9.06-7.59-18.2-15.1-27.29-22.64-8.84 7.15-17.7 14.28-26.61 21.36-.96 1.02-2.06-.5-2.88-.94-8.5-6.8-16.88-13.73-25.48-20.4-9 7.42-18.14 14.66-27.2 21.99m-27.66-12.11c-4.72 4.07-9.77 7.75-14.51 11.79-1.68 1.14.25 2.95.56 4.32 4.84-3.3 9.04-7.44 13.83-10.79l.63-.02c9.15 7.1 17.99 14.61 27.18 21.66 9.01-7.41 18.2-14.62 27.23-22 8.53 6.77 17.04 13.58 25.47 20.49.79.43 1.84 2.01 2.78.96 8.86-7.18 17.78-14.3 26.64-21.48 9.1 7.52 18.21 15.03 27.27 22.59 9.4-7.28 18.33-15.15 27.61-22.58 9.03 7.4 18.2 14.62 27.26 21.97 9.41-7.07 18.29-14.81 27.65-21.94 4.68 3.93 9.49 7.7 14.25 11.54.63-1.18 1.26-2.34 1.9-3.51-5.39-4.32-10.85-8.56-16.13-13.02-9.37 7.15-18.35 14.8-27.67 22-8.99-7.46-18.23-14.62-27.26-22.03-9.31 7.41-18.22 15.31-27.64 22.59-9.02-7.61-18.15-15.09-27.25-22.6-9.05 7.38-18.23 14.61-27.26 22.03-9.35-7.16-18.33-14.79-27.64-22-9.02 7.42-18.21 14.62-27.26 22-9.32-7.19-18.22-14.91-27.64-21.97m-12.07 19.78c.63 1.1 1.25 2.21 1.88 3.32 3.21-2.48 6.28-5.15 9.51-7.6 1-1.11 2.14.49 2.98.97 8.46 6.79 16.83 13.69 25.39 20.35 9.02-7.42 18.18-14.66 27.25-22 9.29 7.21 18.25 14.85 27.61 21.98 9.02-7.45 18.21-14.69 27.31-22.05 8.99 7.63 18.17 15.02 27.21 22.57 9.36-7.3 18.38-15.05 27.58-22.56 9.02 7.42 18.35 14.46 27.17 22.12 9.4-7.17 18.42-14.82 27.77-22.06 3.59 2.87 7.01 5.97 10.84 8.54.54-1.14 1.09-2.28 1.65-3.41-4.14-3.4-8.37-6.68-12.49-10.11-9.35 7.15-18.32 14.8-27.67 21.95-9-7.44-18.2-14.63-27.26-22.01-9.28 7.42-18.14 15.35-27.59 22.55-9.08-7.51-18.09-15.11-27.29-22.48-9.05 7.35-18.31 14.46-27.24 21.97-9.3-7.21-18.33-14.76-27.62-21.98-9.07 7.33-18.22 14.57-27.23 21.97-9.34-7.18-18.28-14.86-27.66-21.96-3.98 3.38-8.23 6.43-12.1 9.93m3.65 6.62c.63 1.19 1.28 2.36 1.95 3.54 2.17-1.75 4.36-3.48 6.53-5.24 9.41 7.05 18.25 14.83 27.61 21.95 9.04-7.41 18.19-14.68 27.29-22 9.24 7.27 18.26 14.81 27.6 21.95 9-7.46 18.28-14.57 27.25-22.05 8.42 7.08 16.97 14.01 25.39 21.08.83.51 1.99 1.93 2.96.85 8.91-7.23 17.64-14.68 26.55-21.9 9 7.44 18.21 14.63 27.24 22.05 9.33-7.15 18.25-14.83 27.61-21.94 2.39 1.91 4.77 3.84 7.16 5.75.61-1.18 1.22-2.36 1.84-3.54-2.98-2.41-5.99-4.79-9-7.17-9.39 7.07-18.27 14.79-27.62 21.91-8.99-7.46-18.25-14.6-27.29-22.01-9.27 7.43-18.18 15.31-27.57 22.59-9.04-7.61-18.18-15.09-27.26-22.64-9.02 7.44-18.28 14.57-27.27 22.05-9.33-7.16-18.33-14.73-27.6-21.97-9.11 7.31-18.24 14.61-27.29 22-9.27-7.23-18.25-14.83-27.6-21.96-2.8 2.27-5.59 4.55-8.48 6.7m3.52 7.38c.58 1 1.15 2.01 1.72 3.03 1.24-.73 2.46-1.46 3.71-2.14 8.97 7.36 18.04 14.6 27.12 21.82 9.08-7.35 18.16-14.7 27.26-22.02 9.28 7.22 18.3 14.79 27.59 22.01 9.03-7.45 18.29-14.61 27.3-22.07 9.27 7.48 18.19 15.41 27.65 22.64 8.97-7.66 18.14-15.1 27.24-22.62 6.7 5.54 13.54 10.9 20.29 16.38 2.73 2.17 5.28 4.68 8.58 5.99.45-1.13.82-2.39 1.92-3.07 7.83-6.28 15.66-12.56 23.47-18.87 1.5.73 2.97 1.51 4.49 2.22.49-1.07.97-2.14 1.47-3.21-1.77-1.48-3.55-2.94-5.32-4.42-9.29 7.25-18.31 14.82-27.64 22.01-9.03-7.42-18.28-14.58-27.26-22.06-8.87 7.29-17.67 14.67-26.56 21.92-.3.12-.89.34-1.19.45-9.17-7.3-18.1-14.92-27.14-22.39-9 7.45-18.21 14.64-27.27 22.03-9.43-7.04-18.33-14.76-27.62-21.99-8.98 7.49-18.23 14.64-27.26 22.07-9.28-7.26-18.3-14.85-27.65-22.02-1.66 1.4-3.32 2.81-4.9 4.31m4.4 5.21c-1.05 3.07 1.28 5.97 3.62 7.7 8.19 6.5 16.29 13.12 24.5 19.59 9.09-7.34 18.28-14.55 27.27-21.99 9.34 7.17 18.23 14.93 27.67 21.96 9.05-7.38 18.19-14.63 27.26-21.97 9.06 7.57 18.25 14.98 27.24 22.62 9.42-7.29 18.31-15.24 27.68-22.59 9.01 7.41 18.21 14.59 27.24 21.99 6.94-5.41 13.75-10.99 20.64-16.49 3.18-2.68 7.01-4.87 8.84-8.8-.44-.46-1.33-1.36-1.78-1.81-9.3 7.27-18.36 14.85-27.69 22.08-9.09-7.34-18.27-14.58-27.27-22.04-8.57 7-17.07 14.09-25.58 21.17-.75.42-1.8 1.84-2.67.88-8.94-7.29-17.75-14.73-26.68-22.03-9.02 7.4-18.21 14.6-27.24 21.99-9.37-7.13-18.38-14.73-27.66-21.97-8.97 7.49-18.21 14.63-27.27 22.01-9.48-7.3-18.53-15.16-28.12-22.3m28.15 32.11c-7.45-5.63-14.47-11.81-21.99-17.35 1.72 3.54 3.11 7.58 6.42 9.99 5.21 4.11 10.32 8.35 15.58 12.41 9.01-7.43 18.24-14.59 27.24-22.03 9.3 7.24 18.28 14.88 27.68 22 8.97-7.48 18.21-14.61 27.23-22.03 9.08 7.57 18.28 15.01 27.29 22.67 9.35-7.35 18.31-15.21 27.59-22.67 9.04 7.41 18.17 14.71 27.27 22.05 5.66-4.32 11.09-8.92 16.72-13.27 3.33-2.45 4.65-6.56 6.47-10.1-7.93 5.85-15.3 12.44-23.2 18.33-8.99-7.44-18.29-14.5-27.23-22-9.32 7.42-18.22 15.37-27.7 22.59-9.03-7.57-18.1-15.1-27.21-22.58-8.83 7.16-17.71 14.27-26.59 21.36-.96 1.02-2.06-.52-2.88-.96-8.47-6.81-16.92-13.65-25.46-20.37-9.03 7.37-18.13 14.67-27.23 21.96m.03 9.86c-4.58-3.34-8.74-7.22-13.39-10.45 1.22 2.69 2.45 5.43 4.14 7.87 2.81 2.85 6.16 5.11 9.28 7.6 8.98-7.44 18.18-14.61 27.21-21.99 9.31 7.2 18.26 14.87 27.64 21.99 8.99-7.49 18.22-14.69 27.33-22.04 9.05 7.55 18.16 15.03 27.19 22.61 9.39-7.3 18.33-15.16 27.62-22.59 9 7.43 18.25 14.54 27.21 22.02 2.83-2.12 5.61-4.31 8.36-6.54 3.3-2.56 4.6-6.73 6.56-10.26-5.05 3.82-9.78 8.04-14.91 11.76-9.02-7.39-18.21-14.59-27.22-21.99-9.3 7.4-18.21 15.29-27.6 22.57-9.08-7.56-18.21-15.04-27.29-22.58-9.07 7.34-18.21 14.6-27.25 22-9.43-7.05-18.31-14.82-27.66-21.96-9.02 7.39-18.19 14.61-27.22 21.98m.03 9.84c-1.65-1.3-3.31-2.59-5.05-3.76 1.45 3.06 3.07 6.05 4.84 8.94 9.06-7.47 18.29-14.73 27.41-22.12 9.4 7.13 18.27 14.95 27.76 21.96 8.95-7.47 18.04-14.76 27.16-22.01 9.04 7.55 18.19 14.97 27.23 22.52 9.42-7.23 18.35-15.08 27.61-22.51 9.07 7.24 18.06 14.59 27.17 21.78 3.31-1.56 4.19-6.15 5.99-9.21-2.05 1.36-3.96 2.92-5.91 4.4-2.44-2.08-4.94-4.09-7.52-5.98.38-.82.76-1.63 1.15-2.43-.79.5-1.57.99-2.37 1.47-6.04-5.17-12.37-9.99-18.5-15.06-8.9 7.15-17.57 14.59-26.42 21.81-1.02 1.15-2.27-.36-3.13-.89-8.46-6.94-16.81-14.02-25.32-20.9-9.06 7.36-18.27 14.55-27.27 21.99-9.32-7.17-18.33-14.75-27.62-21.96-9.04 7.35-18.21 14.55-27.21 21.96m1.81 8.27c-.02 1.56-.08 3.12-.27 4.68 9.03-6.08 17.13-13.41 25.7-20.1 9.27 7.23 18.23 14.86 27.62 21.94 9.05-7.38 18.26-14.56 27.24-22.03 9.04 7.43 17.92 15.07 27.1 22.32l.68.01c9.17-7.25 17.99-14.97 27.11-22.3 8.05 6.65 16.28 13.08 24.34 19.73.69-1.12 1.38-2.23 2.07-3.34-8.71-7.27-17.71-14.17-26.46-21.39-9.24 7.48-18.12 15.39-27.57 22.61-8.98-7.49-18.02-14.91-26.98-22.44-1.51 1.2-3.18 1.84-4.97.88.35.71.69 1.42 1.04 2.14-8.21 5.84-15.69 12.61-23.61 18.83-9.35-7.13-18.35-14.7-27.59-21.97-8.48 6.82-16.93 13.66-25.45 20.43m3.14 7.25c.61 1.22 1.24 2.44 1.89 3.67 6.68-5.62 13.62-10.91 20.32-16.51 9.32 7.19 18.29 14.82 27.65 21.96 8.99-7.47 18.29-14.55 27.29-22.01 9.07 7.4 17.96 15.03 27.11 22.32l.65-.05c9.2-7.21 18.02-14.92 27.13-22.26 6.92 5.66 13.84 11.33 20.94 16.77.63-1.12 1.26-2.23 1.9-3.33-7.55-6.24-15.31-12.21-22.85-18.46-8.85 7.33-17.72 14.63-26.58 21.96-.92 1.09-2.02-.38-2.79-.85-8.52-7.03-17.04-14.06-25.51-21.14-9.01 7.45-18.23 14.64-27.29 22.03-9.39-7.08-18.33-14.74-27.61-21.98-7.32 6.07-14.77 12-22.25 17.88m3.47 7.39c.65 1.03 1.29 2.07 1.93 3.13 5.68-4.43 11.28-8.97 16.84-13.53 8.96 6.9 17.57 14.25 26.52 21.16 1.04 1.13 2.22-.06 3.12-.7 8.33-6.94 16.83-13.7 25.29-20.49 9.02 7.62 18.25 14.98 27.24 22.64 9.39-7.33 18.34-15.19 27.63-22.64 5.71 4.72 11.54 9.28 17.26 13.98.67-1.11 1.34-2.23 2.02-3.33-6.32-5.37-12.99-10.31-19.28-15.7-8.88 7.34-17.76 14.68-26.63 22.03-.89 1-1.93-.33-2.67-.79-8.49-7.13-17.1-14.12-25.59-21.24-9.02 7.42-18.19 14.66-27.27 22.02-9.43-7.07-18.4-14.74-27.66-22.02-5.99 5.47-12.81 9.95-18.75 15.48m3.62 6.6c.64 1.14 1.29 2.28 1.95 3.43 4.48-3.44 8.86-7 13.21-10.61 9.29 7.24 18.26 14.88 27.67 21.97 8.99-7.45 18.25-14.56 27.22-22.03 9.21 7.63 18.38 15.33 27.69 22.84 8.76-7.96 18.14-15.23 27.24-22.8 4.73 3.71 9.08 8.03 14.3 11.05.3-.82.89-2.46 1.19-3.28-4.97-4.5-10.45-8.39-15.5-12.79-9.3 7.43-18.21 15.35-27.63 22.64-9.04-7.62-18.22-15.07-27.28-22.66-8.74 7.28-17.73 14.27-26.59 21.39-.97 1.03-2.07-.48-2.89-.94-8.48-6.8-16.89-13.71-25.45-20.41-4.99 4.13-10.02 8.22-15.13 12.2m3.66 6.91c.55 1.2 1.1 2.4 1.65 3.61 3.37-2.5 6.6-5.17 9.84-7.84 9.34 7.19 18.29 14.85 27.66 22 8.92-7.54 18.21-14.63 27.24-22.04 9.15 7.46 18.22 15.03 27.27 22.61 9.4-7.28 18.32-15.17 27.61-22.6 3.39 2.79 6.8 5.57 10.27 8.26.57-1.25 1.14-2.5 1.71-3.75-4.08-3.05-8.02-6.27-11.95-9.5-9.3 7.4-18.23 15.27-27.63 22.52-9.08-7.53-18.18-15.03-27.28-22.54-9.25 7.28-18.2 14.94-27.6 22.03-8.97-7.48-18.14-14.73-27.28-22-3.82 3.1-7.62 6.23-11.51 9.24m3.53 7.02c.59 1.19 1.19 2.37 1.79 3.57 2.08-1.66 4.15-3.33 6.23-4.99 9.31 7.22 18.19 14.98 27.67 21.97 8.94-7.48 18.14-14.64 27.19-21.99 9.1 7.49 18.17 15.01 27.24 22.54 9.4-7.25 18.38-15.05 27.57-22.56 2.19 1.8 4.38 3.6 6.66 5.3.66-1.09 1.34-2.16 2.02-3.22-2.86-2.39-5.74-4.75-8.65-7.07-9.3 7.38-18.11 15.38-27.59 22.53-9.09-7.5-18.11-15.08-27.25-22.52-9.09 7.34-18.25 14.59-27.29 22-9.29-7.21-18.35-14.7-27.59-21.97-2.67 2.13-5.31 4.3-8 6.41m3.63 6.87c.45 1.03.9 2.07 1.35 3.12 1.22-.41 2.44-.83 3.68-1.21 8.9 7.3 17.81 14.62 26.98 21.58 9.01-7.43 18.23-14.58 27.23-22.02 9.02 7.45 17.94 15.03 27.09 22.3l.68-.02c9.13-7.21 17.92-14.88 27.02-22.15 1.07.77 2.14 1.56 3.21 2.34.6-1.1 1.21-2.19 1.82-3.27-1.63-1.44-3.3-2.83-4.97-4.21-8.81 7.33-17.63 14.66-26.5 21.91-1.24 1.22-2.5-.71-3.53-1.28-8.19-6.94-16.58-13.63-24.69-20.66-9.1 7.4-18.34 14.62-27.38 22.09-9.35-7.14-18.32-14.74-27.61-21.95-1.46 1.14-2.92 2.29-4.38 3.43m3.34 5.93c1.33 3.34 2.54 7.1 5.66 9.22 7.76 5.92 15.15 12.3 22.94 18.17 9.03-7.42 18.32-14.53 27.29-22.02 9.25 7.52 18.19 15.42 27.66 22.66 8.14-7.03 16.56-13.73 24.79-20.64 2.07-1.76 3.04-4.4 3.8-6.92-3.14.7-5.27 3.23-7.7 5.13-6.74 5.58-13.46 11.19-20.23 16.72-.93 1.06-2.03-.33-2.81-.81-8.49-7.05-17.03-14.05-25.49-21.15-9.07 7.36-18.18 14.68-27.29 22-9.81-7.1-18.64-15.51-28.62-22.36m28.64 32.23c-7.17-5.21-13.72-11.2-20.88-16.41 1.8 3.46 3.08 7.5 6.32 9.93 4.87 3.81 9.58 7.82 14.57 11.47 9.02-7.4 18.21-14.6 27.26-21.98 9.06 7.57 18.23 15 27.24 22.63 5.24-3.93 10.13-8.3 15.24-12.38 3.33-2.53 4.74-6.63 6.52-10.24-7.46 5.6-14.31 12-21.75 17.64-8.97-7.69-18.17-15.11-27.25-22.67-9.05 7.39-18.21 14.63-27.27 22.01z"/><path d="m360.61 250.01c.16-3.48-1.15-7.57 1.92-10.15-.25 1.31-1.14 2.62-.72 3.99 1.95 8.55 4.57 16.93 6.8 25.41.65 1.79-.2 3.57-.36 5.36.39-.12 1.18-.37 1.57-.49 2.18 6.87 3.88 13.88 5.86 20.81-5.16 9.31-10.06 18.76-15.16 28.1.18-24.34.06-48.69.09-73.03z"/><path d="m60.16 291.25c5.03-16.7 8.98-33.74 14.17-50.38.08 27.37-.15 54.75.1 82.13-4.84-8.75-9.42-17.63-14.23-26.39-1.33-1.61-.47-3.6-.04-5.36z"/><path d="m312.24 261.24c.55.55.55.55 0 0z"/><path d="m185.89 294.11c5.57-5.81 10.91-11.83 16.37-17.75 2.63 2.61 5.17 5.3 7.74 7.97 2.38-2.59 4.82-5.13 7.22-7.71 2.73 2.33 5.26 4.88 7.78 7.44 2.51-2.6 5.01-5.23 7.68-7.67 5.46 5.91 10.98 11.74 16.51 17.58-1.04 1.04-2.08 2.08-3.12 3.12-4.64-4.83-9.02-9.89-13.85-14.53-1.41 1.57-2.85 3.11-4.31 4.62 2.02 3.01 5.66 5.33 6.89 8.58-5.85 6.24-11.74 12.45-17.56 18.72-5.84-6.24-11.61-12.54-17.52-18.7 2.21-2.81 4.78-5.3 7.06-8.05-.51-2.23-3.02-3.58-4.45-5.31-4.79 4.8-9.11 10.08-14.15 14.63-.76-.99-1.53-1.96-2.29-2.94m19.34 1.52c4.37 4 8.17 8.58 12.58 12.52 3.57-4.23 7.72-7.94 11.15-12.28l.05-.73c-3.66-4.35-7.79-8.3-11.32-12.77-4.46 4.13-8.4 8.76-12.46 13.26z"/><path d="m34.84 359.11c3.46-19.61 8.7-39.05 16.71-57.31.01 59.2-.02 118.41 0 177.62-7.75-16.26-9.94-34.6-10.64-52.43-.33-5.36.46-10.69.48-16.04-3.04 7.75-3.11 16.37-5.58 24.32-5.86-24.94-5.25-51.02-.97-76.16z"/><path d="m383.69 301.71c6.69 14.4 10.93 29.84 14.52 45.28 6.29 28.73 8.03 58.93 1.52 87.78-2.73-7.8-3.03-16.2-5.36-24.1-.26 3.45-.05 6.9.09 10.36.27 18.53-2.2 37.26-8.73 54.68-.5 1.14-1.08 2.24-1.76 3.3-.45-59.09.11-118.2-.28-177.3z"/><path d="m195.75 545.45c6.85-6.06 14.26-11.47 21.27-17.34 6.98 5.95 14.33 11.49 21.1 17.69-2.1.18-4.62 1.23-6.29-.61-4.97-4.04-9.82-8.22-14.8-12.24-5.56 4.17-10.64 8.96-16.32 12.95-1.67.04-3.32-.27-4.96-.45z"/><path d="m206.01 547.09c3.46-3.33 7.38-6.11 11.12-9.1 3.58 3.04 7.34 5.88 10.73 9.14-1.63.09-3.26.1-4.89.04-2.26-.99-3.99-2.85-5.94-4.32-1.98 1.51-3.8 3.25-6.02 4.41-1.67.04-3.34-.02-5-.17z"/><path d="m195.92 597.23c4.21-14.84 7.91-29.83 12.02-44.7 1.33.18 2.66.37 3.99.56-2.01 14.7-4.31 29.37-6.09 44.1-3.31.09-6.62.11-9.92.04z"/><path d="m213.47 553.34c2.81.06 5.62.06 8.44.01 2.83 22.24 5.28 44.53 7.92 66.8-8.45.08-16.89-.01-25.33.02 2.85-22.3 6.14-44.53 8.97-66.83z"/><path d="m223.38 553.41c1.27-.28 2.54-.57 3.8-.85 4.3 14.81 8.02 29.79 12 44.69-3.26.03-6.52 0-9.78-.09-1.87-14.6-3.94-29.18-6.02-43.75z"/><path d="m145.78 566.88c3.36.91 6.71 1.89 9.95 3.18-.19 4.95-.11 9.91-.06 14.87-3.29.09-6.59.09-9.88.06-.05-6.04-.03-12.07-.01-18.11z"/><path d="m278.2 569.94c3.26-1.13 6.57-2.1 9.89-3.04.04 6.01.1 12.02.04 18.04-3.3.05-6.59.07-9.88.02-.03-5.01.11-10.02-.05-15.02z"/><path d="m133.42 593.42c8.09-7.64 21.33-8.43 30.58-2.46 7.31 4.52 11.4 12.9 11.88 21.33-17.05.02-34.1.12-51.15-.01.37-7.09 3.25-14.16 8.69-18.86m5.84-2.17c.54.55.54.55 0 0z"/><path d="m265.89 593.88c7.83-7.88 21.13-9.09 30.47-3.21 7.53 4.43 12.13 12.98 12.23 21.66-16.99-.04-33.98.11-50.97-.04.46-6.87 2.96-13.81 8.27-18.41z"/><path d="m436.9 612.76c1.27-1.02 2.54-2.04 3.84-3.03 5.12 5.63 10.28 11.23 15.42 16.84-2.25 0-4.49.11-6.72-.11-4.67-4.08-8.2-9.28-12.54-13.7z"/><path d="m124.45 615.86c4.09 1.24 8.36 1.27 12.44-.03.09 9.4-.04 18.81.07 28.22.32 6.01-3.76 10.93-6.34 16.03-1.99-4.05-4.34-7.94-6.06-12.12-.31-10.69-.01-21.4-.11-32.1z"/><path d="m143.76 615.89c4.17 1.2 8.49 1.21 12.64-.04.04 10.38.11 20.78-.02 31.16-1.34 4.71-4.23 8.89-6.35 13.31-1.99-4.18-4.36-8.18-6.13-12.45-.42-10.64-.08-21.32-.14-31.98z"/><path d="m163.49 615.94c4.19 1.07 8.51 1.2 12.67-.06.01 10.36.12 20.73-.02 31.1-1.31 4.71-4.32 8.81-6.25 13.32-2.1-4.24-4.7-8.28-6.26-12.74-.3-10.53.01-21.08-.14-31.62m7.76 13.31c.55.55.55.55 0 0z"/><path d="m257.17 615.87c4.19 1.13 8.56 1.26 12.73-.05-.28 10.48.06 20.97-.11 31.46-1.4 4.54-4.03 8.65-6.31 12.81-2.01-4.1-4.46-8.02-6.07-12.31-.38-10.62.09-21.28-.24-31.91z"/><path d="m276.64 615.9c4.15 1.17 8.44 1.2 12.59-.01.11 10.36.14 20.73.04 31.09-1.31 4.73-4.32 8.86-6.3 13.36-2-4.17-4.47-8.12-6.21-12.39-.35-10.67-.04-21.37-.12-32.05z"/><path d="m296.5 615.87c4.14 1.3 8.45 1.21 12.59-.05.01 10.39.17 20.78-.07 31.16-1.36 4.68-4.23 8.8-6.24 13.24-2.2-4.33-5.1-8.47-6.25-13.21-.14-10.38-.02-20.76-.03-31.14z"/><path d="m87.55 628.58c10.58-.02 21.16-.11 31.75-.01.03 4.56.03 9.12-.01 13.68-7.79.08-15.59-.01-23.38.05-2.98-4.46-5.58-9.14-8.36-13.72z"/><path d="m181.73 628.56c23.41-.01 46.81-.1 70.21.03-.18 4.54-.16 9.09-.01 13.64-23.39.07-46.78.07-70.17.01-.1-4.56-.15-9.12-.03-13.68z"/><path d="m313.71 628.58c74.77-.09 149.53-.02 224.29-.03v13.9c-4.98-.69-9.97-.67-14.97-.19-69.76.02-139.53.05-209.3-.02-.07-4.56-.06-9.11-.02-13.66m221.37 5.79c-1.63 2.86 3.39.18 0 0z"/><path d="m374.51 651.5c2.52-2.27 4.84-4.79 7.65-6.72 3.82-.46 7.68-.17 11.52-.11-5.22 5.77-10.98 11.04-16.18 16.82-.49 4.48-.03 9.01-.2 13.52-1.63 1-3.26 2.01-4.9 3-.96-3.69-1.84-7.4-2.98-11.03-9.4 8.07-18.78 16.17-28.3 24.09-3.26 1.36-7.09.51-10.56.69 14.64-13.43 29.34-26.8 43.95-40.26z"/></g></svg>