<svg enable-background="new 0 0 2686 1230" viewBox="0 0 2686 1230" xmlns="http://www.w3.org/2000/svg" xmlns:xlink="http://www.w3.org/1999/xlink"><path d="m2623 609.45c0 0-7.7788 7.9009-22.9021 22.0789-15.1843 14.1169-37.5168 34.8326-67.3198 59.5937-29.7244 24.8461-66.4175 54.3985-110.1467 86.1646-10.8379 8.0804-22.2644 16.0709-33.9778 24.3878-11.6602 8.3997-23.9131 16.6558-36.4417 25.2211-12.4419 8.7043-25.6086 17.0012-38.9863 25.67-13.322 8.7619-27.2522 17.2439-41.4211 26.02-14.1003 8.8956-28.8218 17.4268-43.7539 26.2645-14.8611 8.9667-30.3608 17.4703-46.0364 26.308-15.5754 9.0317-31.9529 17.2072-48.3945 25.8859-16.3865 8.7938-33.458 16.8654-50.6074 25.3867-34.4233 16.7849-70.2894 33.0659-107.4163 48.7059-37.0701 15.7913-75.751 30.0127-115.3568 43.7603-9.84 3.6167-19.9072 6.7103-29.9824 9.9144-10.0778 3.201-20.1949 6.4146-30.3484 9.6398-10.1085 3.379-20.4789 6.0413-30.7959 9.0077-10.337 2.907-20.7083 5.8234-31.1111 8.749l-7.8113 2.1915-7.8966 1.926c-5.2688 1.2845-10.5455 2.5709-15.8298 3.8593-10.5719 2.5748-21.1732 5.1566-31.8009 7.7451-5.3033 1.3434-10.6951 2.3351-16.0771 3.3994-5.3829 1.0598-10.7725 2.1211-16.168 3.1835-10.7925 2.1223-21.6095 4.2495-32.4478 6.3806-21.7769 3.7474-43.7511 6.9509-65.7366 10.4586-22.1005 2.7568-44.324 5.1598-66.5668 7.7526-22.351 1.6184-44.7457 3.2397-67.1625 4.8629-22.719.5917-45.4604 1.1836-68.202 1.7759-22.0425-.5953-44.0853-1.1906-66.1067-1.785-22.6473-1.6305-45.2723-3.2595-67.8527-4.8851-22.2423-2.5922-44.4656-4.9945-66.5659-7.7507-21.985-3.5072-43.9584-6.7102-65.7354-10.4568-10.8383-2.1311-21.6549-4.2578-32.4474-6.3798-5.3959-1.0623-10.785-2.1234-16.168-3.1831-5.3845-1.052-10.7725-2.062-16.0654-3.4514-10.6276-2.5874-21.2286-5.1686-31.8-7.7424-5.2842-1.2878-10.5606-2.5739-15.8295-3.8579l-7.8962-1.9255-7.8113-2.1908c-10.4028-2.9246-20.7736-5.8402-31.1107-8.7463-10.3167-2.9656-20.6866-5.6271-30.795-9.0052-10.1534-3.2241-20.2703-6.4368-30.3484-9.637-10.0747-3.2034-20.1416-6.2961-29.9816-9.912-79.437-26.9167-153.8758-59.0386-222.7601-92.4762-17.15-8.519-34.2217-16.5884-50.6086-25.3798-16.4531-8.655-32.8054-16.879-48.3839-25.902-15.6762-8.8348-31.1772-17.3354-46.0394-26.2993-14.9329-8.8348-29.6552-17.3634-43.7563-26.2562-14.1698-8.7736-28.1011-17.2526-41.4243-26.0123-13.3865-8.6535-26.5353-16.9785-38.9808-25.6763-12.53-8.5621-24.7841-16.8155-36.4457-25.2123-11.7148-8.3141-23.1428-16.3019-33.9817-24.3797-43.7359-31.7551-80.4247-61.3122-110.1595-86.1432-29.8086-24.7525-52.1419-45.4673-67.3325-59.5762-15.1368-14.1815-22.915-22.0769-22.915-22.0769l2.3093-2.5096c0 0 8.0919 7.4272 23.8505 20.7657 15.7581 13.3345 39.1684 32.5665 69.7551 56.0338 61.1553 46.8781 151.1009 110.9296 265.5993 177.0347 57.233 33.0196 120.5904 66.4957 189.3331 98.213 68.7303 31.7099 142.864 61.654 221.3102 87.4094 78.4233 25.7571 161.1816 47.2944 246.5507 62.2129 21.363 3.5631 42.9039 6.5878 64.4561 9.926 21.6523 2.5851 43.4138 4.8245 65.1917 7.2635 21.8376 1.4728 43.7186 2.9484 65.6208 4.4254 22.0204.4838 44.0621.9678 66.1041 1.4519 87.8453.1097 175.9113-8.126 261.2155-23.0756 85.369-14.9177 168.127-36.4545 246.5498-62.2107 78.4463-25.7547 152.5803-55.6982 221.3101-87.4075 68.7434-31.7166 132.1006-65.1921 189.334-98.2113 114.499-66.104 204.4451-130.1549 265.6006-177.0326 30.5869-23.4669 53.9973-42.6989 69.7556-56.033 15.7678-13.3467 23.8567-20.7713 23.8567-20.7713z"/><path d="m64.1546 608.1895c0 0 7.6391-7.9853 22.6753-22.2544 15.0697-14.2227 37.3589-34.9528 66.9148-60.0075 29.491-25.1278 65.9947-54.9189 109.4034-87.1698 10.7629-8.1936 22.1143-16.3026 33.7525-24.7429 11.5849-8.523 23.7623-16.9073 36.2161-25.6053 12.3732-8.8281 25.7906-16.7449 39.5626-24.7639 13.6636-8.1997 27.7939-16.333 42.1727-24.7294 57.6443-33.3496 121.4763-67.1771 190.7857-99.2571 69.2965-32.0723 144.0887-62.3911 223.3147-88.5087 79.2022-26.1184 162.8635-48.0046 249.2717-63.2121 21.6245-3.6354 43.4368-6.7289 65.2587-10.1297 21.9318-2.649 43.9792-4.947 66.0426-7.4387 22.1611-1.5204 44.3656-3.0439 66.5917-4.5688 22.4105-.5146 44.8431-1.0297 67.2758-1.5449 22.0433.5106 44.0867 1.0214 66.1088 1.5316 22.3556 1.5293 44.6891 3.0572 66.9792 4.5821 22.0634 2.4916 44.1108 4.7897 66.0426 7.4387 21.8219 3.4009 43.6342 6.4943 65.2587 10.1297 86.4082 15.2075 170.0696 37.0937 249.2717 63.2121 79.226 26.1176 154.0182 56.4364 223.3148 88.5087 69.3093 32.08 133.1414 65.9075 190.7856 99.2571 14.3914 8.3747 28.4937 16.5555 42.1492 24.7681 6.8936 3.998 13.6609 8.0294 20.3027 12.083 6.6555 4.0322 12.9255 8.5023 19.1636 12.8316 12.4529 8.6974 24.6292 17.0809 36.2129 25.6032 11.6372 8.4395 22.9875 16.5478 33.7498 24.7408 43.3972 32.2582 79.9053 62.0349 109.4224 87.1236 29.5757 25.0237 51.8596 45.7574 66.9409 59.9634 15.0498 14.2504 22.7556 22.1595 22.7556 22.1595s-8.5234-7.0236-24.9971-19.5203c-16.4419-12.5335-40.9751-30.356-72.5679-52.3802-31.6492-21.9492-70.6631-47.7088-116.1523-75.8842-11.312-7.1333-23.2158-14.1388-35.4023-21.4322-12.1331-7.376-24.856-14.5697-37.8479-22.0344-13.0061-7.4422-26.1831-15.3045-39.3994-23.8195-13.2417-8.4767-27.2397-16.3962-41.4141-24.6857-56.8464-32.8881-119.7722-66.2324-188.0266-97.8239-68.2416-31.5844-141.829-61.409-219.6603-87.0666-77.8088-25.6596-159.8828-47.1212-244.5013-62.0139-21.1741-3.5564-42.5209-6.5775-63.8815-9.9168-21.4551-2.5853-43.0159-4.8286-64.5951-7.2763-21.5295-1.4819-43.1008-2.9664-64.6937-4.4525-22.0183-.5102-44.0583-1.0208-66.0984-1.5314-21.6508.5062-43.3015 1.0123-64.9314 1.5179-21.7219 1.4906-43.4226 2.9798-65.0813 4.466-21.5792 2.4477-43.14 4.691-64.5951 7.2763-21.3606 3.3392-42.7074 6.3604-63.8815 9.9168-84.6185 14.8928-166.6924 36.3543-244.5013 62.0139-77.8313 25.6576-151.4187 55.4822-219.6603 87.0666-68.2545 31.5915-131.1801 64.9358-188.0268 97.8239-14.1871 8.2678-28.1569 16.2347-41.3904 24.7242-13.2537 8.4541-26.3511 16.4454-39.3035 23.9707-12.9904 7.4638-25.7123 14.6569-37.8445 22.0321-12.1857 7.2926-24.088 14.2976-35.399 21.4301-45.4782 28.1827-84.4963 53.9279-116.1718 75.838-31.6125 21.9932-56.1408 39.8193-72.5939 52.3361-16.4868 12.4779-25.0781 19.4253-25.0781 19.4253z"/><defs><path id="a" d="m2596.8489 588.6819c12.7209 9.6515 20.7012 16.029 23.6685 18.4163-1.262 1.1254-9.2424 8.3896-23.6685 20.599-15.7563 13.3348-39.186 32.5696-69.7434 56.0334-61.1831 46.8934-151.1162 110.9413-265.6045 177.0356-57.2271 33.0129-120.593 66.5034-189.3472 98.2205-68.7203 31.6829-142.8632 61.6265-221.3031 87.4094-78.4399 25.7488-161.1771 47.2686-246.5402 62.2063-85.3291 14.9376-173.3865 23.1909-261.2393 23.0544-22.0314-.4774-44.0627-.9548-66.0941-1.4324-21.895-1.4664-43.79-2.967-65.6168-4.4335-21.7926-2.4215-43.5511-4.6724-65.2074-7.2643-21.554-3.3422-43.0739-6.3434-64.4572-9.9243-85.3632-14.9037-168.1003-36.4575-246.5403-62.2063s-152.5828-55.6924-221.303-87.4094c-68.7543-31.717-132.1202-65.2075-189.3472-98.2205-114.4881-66.0941-204.4213-130.142-265.6044-177.0354-30.5575-23.4638-53.9872-42.6987-69.7433-56.0334-14.4261-12.2094-22.4065-19.4736-23.6684-20.599 3.0012-2.3532 11.0157-8.6966 23.7366-18.3481 16.4724-12.5163 40.9934-30.3187 72.6081-52.316 31.6829-21.9291 70.6983-47.6779 116.1593-75.848 11.3226-7.1278 23.225-14.1192 35.4003-21.4175 12.1411-7.4006 24.8621-14.5626 37.8558-22.0314 12.9596-7.537 26.0557-15.5175 39.2882-23.9753 13.2325-8.492 27.2153-16.4724 41.4026-24.7256 56.8519-32.8766 119.7744-66.2306 188.0172-97.8112 68.2428-31.6147 141.8399-61.4219 219.666-87.0683 77.7919-25.6806 159.8811-47.1322 244.494-62.0358 21.1787-3.5469 42.5281-6.5821 63.8773-9.9244 21.4517-2.5578 43.0397-4.8087 64.5936-7.2642 21.6563-1.4665 43.3807-2.9671 65.1052-4.4677 21.6221-.5116 43.2783-1.0231 64.9346-1.5006 22.0315.5116 44.0629 1.0231 66.0942 1.5347 21.588 1.4665 43.142 2.9671 64.6959 4.4336 21.554 2.4555 43.142 4.7064 64.5936 7.2642 21.3492 3.3422 42.6986 6.3775 63.8773 9.9244 84.6129 14.9036 166.702 36.3552 244.494 62.0358 77.826 25.6465 151.4232 55.4536 219.666 87.0683 68.2427 31.5806 131.1653 64.9347 188.0171 97.8112 14.1875 8.2874 28.1702 16.1996 41.4026 24.6915 13.2327 8.492 26.397 16.3701 39.4248 23.8048 12.9937 7.4688 25.7146 14.6649 37.8215 22.0314 12.2095 7.2983 24.1118 14.3238 35.4346 21.4516 45.4609 28.1702 84.4763 53.9189 116.1252 75.8821 31.6147 22.0312 56.1359 39.8337 72.5742 52.3841z"/><clipPath id="b"><use overflow="visible" xlink:href="#a"/></clipPath></defs><g clip-path="url(#b)"><g><circle cx="1343.0032" cy="301.2506" r="679.8721"/><path d="m1343.0032 986.764c-377.9925 0-685.5135-307.5211-685.5135-685.5134s307.521-685.5134 685.5135-685.5134 685.5134 307.521 685.5134 685.5134-307.521 685.5134-685.5134 685.5134zm0-1359.7435c-371.7723 0-674.2302 302.4578-674.2302 674.2301s302.4579 674.2301 674.2302 674.2301 674.2301-302.4578 674.2301-674.2301-302.4579-674.2301-674.2301-674.2301z" fill="#fff"/></g><g><circle cx="1343.0032" cy="301.2506" r="611.8849"/><path d="m1343.0032 918.7774c-340.5062 0-617.5269-277.0207-617.5269-617.5269s277.0207-617.5269 617.5269-617.5269 617.5267 277.0207 617.5267 617.5269-277.0206 617.5269-617.5267 617.5269zm0-1223.7703c-334.2833 0-606.2435 271.9603-606.2435 606.2435 0 334.2859 271.9603 606.2434 606.2435 606.2434 334.2859 0 606.2434-271.9575 606.2434-606.2434 0-334.2832-271.9575-606.2435-606.2434-606.2435z" fill="#fff"/></g><g><circle cx="1343.0032" cy="301.2506" r="550.6964"/><path d="m1343.0032 857.5894c-306.7662 0-556.3389-249.5726-556.3389-556.3389s249.5727-556.3389 556.3389-556.3389 556.3388 249.5727 556.3388 556.339-249.5726 556.3388-556.3388 556.3388zm0-1101.3943c-300.5433 0-545.0555 244.5122-545.0555 545.0555 0 300.5461 244.5122 545.0555 545.0555 545.0555 300.546 0 545.0554-244.5095 545.0554-545.0555 0-300.5433-244.5094-545.0555-545.0554-545.0555z" fill="#fff"/></g><g><circle cx="1343.0032" cy="301.2506" r="495.6268"/><path d="m1343.0032 802.517c-276.401 0-501.2692-224.8682-501.2692-501.2664 0-276.4009 224.8682-501.2692 501.2692-501.2692 276.3981 0 501.2664 224.8682 501.2664 501.2692-.0001 276.3981-224.8684 501.2664-501.2664 501.2664zm0-991.2522c-270.178 0-489.9858 219.8078-489.9858 489.9858s219.8079 489.983 489.9858 489.983 489.983-219.8051 489.983-489.983-219.805-489.9858-489.983-489.9858z" fill="#fff"/></g><g><circle cx="1343.0032" cy="301.2506" r="446.0641"/><path d="m1343.0032 752.9539c-249.0713 0-451.7062-202.6321-451.7062-451.7033s202.6349-451.7061 451.7062-451.7061 451.7034 202.6349 451.7034 451.7061-202.6323 451.7033-451.7034 451.7033zm0-892.1261c-242.8512 0-440.4228 197.5717-440.4228 440.4228s197.5716 440.42 440.4228 440.42 440.4199-197.5689 440.4199-440.42-197.5689-440.4228-440.4199-440.4228z" fill="#fff"/></g><g><circle cx="1343.0032" cy="301.2506" r="401.4577"/><path d="m1343.0032 708.3494c-224.4744 0-407.0989-182.6218-407.0989-407.0988 0-224.4743 182.6245-407.0989 407.0989-407.0989 224.4771 0 407.0988 182.6245 407.0988 407.0989-.0001 224.4771-182.6218 407.0988-407.0988 407.0988zm0-802.9143c-218.2542 0-395.8156 177.5613-395.8156 395.8155 0 218.2514 177.5614 395.8155 395.8156 395.8155 218.2513 0 395.8154-177.5641 395.8154-395.8155 0-218.2542-177.5641-395.8155-395.8154-395.8155z" fill="#fff"/></g><g><circle cx="1343.0032" cy="301.2506" r="361.3119"/><path d="m1343.0032 668.202c-202.3402 0-366.9543-164.6114-366.9543-366.9514s164.6141-366.9543 366.9543-366.9543 366.9514 164.6141 366.9514 366.9543-164.6113 366.9514-366.9514 366.9514zm0-722.6223c-196.1172 0-355.671 159.5537-355.671 355.6709 0 196.1144 159.5538 355.6681 355.671 355.6681 196.1144 0 355.6681-159.5537 355.6681-355.6681 0-196.1172-159.5537-355.6709-355.6681-355.6709z" fill="#fff"/></g><g><circle cx="1343.0032" cy="301.2506" r="325.1807"/><path d="m1343.0032 632.071c-182.418 0-330.8233-148.4081-330.8233-330.8205 0-182.4179 148.4053-330.8233 330.8233-330.8233 182.4124 0 330.8204 148.4053 330.8204 330.8233 0 182.4125-148.4081 330.8205-330.8204 330.8205zm0-650.3603c-176.1951 0-319.54 143.3449-319.54 319.5399 0 176.1922 143.3449 319.5371 319.54 319.5371 176.1921 0 319.5371-143.3449 319.5371-319.5371 0-176.195-143.345-319.5399-319.5371-319.5399z" fill="#fff"/></g><g fill="#fff"><circle cx="1174.743" cy="230.2685" r="70.9821"/></g></g><path d="m2621.7449 608.0872l.1025.1023c0 0-.0342-.0341-.1025-.0682z"/><path d="m2621.7449 608.0872v.0341c-.1704-.1705-.5796-.5116-1.2275-1.0231.0681-.0682.1023-.1023.1362-.1364.3411.3411.614.6479.8186.8185.1364.1364.2046.2387.2727.3069z"/><path d="m2620.6877 606.9277l.7844.8526c-.2046-.1705-.4775-.4774-.8186-.8185.0342-.0341.0342-.0341.0342-.0341z"/><path d="m65.3526 606.9618c.0341.0341.0682.0682.1364.1364-.648.5457-1.0572.8526-1.2278 1.0231v-.0341c.0341-.0682.1364-.1705.2728-.3069.2047-.1706.4776-.4774.8186-.8185z"/><path d="m65.3185 606.9277c0 0 0 0 .0341.0341-.341.3411-.6139.6479-.8185.8185z"/><path d="m64.2613 608.0872v.0341c-.0682.0341-.1023.0682-.1023.0682z"/></svg>