<?xml version="1.0" encoding="UTF-8" ?>
<!DOCTYPE svg PUBLIC "-//W3C//DTD SVG 1.1//EN" "http://www.w3.org/Graphics/SVG/1.1/DTD/svg11.dtd">
<svg width="810pt" height="1026pt" viewBox="0 0 810 1026" version="1.1" xmlns="http://www.w3.org/2000/svg">
<g id="#ffffffff">
<path fill="#ffffff" opacity="1.00" d=" M 364.54 351.58 C 358.95 349.96 354.56 343.82 356.02 337.97 C 358.04 342.18 361.00 346.50 365.82 347.68 C 370.12 349.30 374.72 348.13 378.75 346.32 C 376.12 351.35 369.83 353.66 364.54 351.58 Z" />
<path fill="#ffffff" opacity="1.00" d=" M 521.21 372.04 C 519.36 369.72 519.58 366.69 520.20 363.98 C 521.41 365.95 522.20 368.49 524.23 369.81 C 529.64 373.49 537.13 367.66 541.88 373.04 C 536.46 379.06 525.95 378.60 521.21 372.04 Z" />
<path fill="#ffffff" opacity="1.00" d=" M 370.08 512.55 C 396.21 518.79 422.25 525.43 448.47 531.28 C 450.09 531.05 451.61 531.41 452.92 532.42 L 453.13 531.75 C 454.36 532.10 455.61 532.40 456.88 532.64 L 456.61 533.38 C 460.63 533.89 464.49 535.17 468.45 536.00 C 469.31 537.08 470.39 537.89 471.69 538.43 C 469.77 538.49 467.86 538.53 465.96 538.56 C 460.52 543.82 456.56 550.51 450.42 555.06 C 450.19 549.87 450.11 544.67 450.29 539.48 C 449.26 538.39 448.51 536.82 446.91 536.51 C 433.48 533.66 420.52 529.06 407.19 525.78 C 400.10 524.11 393.14 521.80 385.95 520.63 C 383.14 520.18 380.82 521.96 378.60 523.37 C 377.17 525.82 375.11 527.79 373.36 530.00 C 373.53 524.07 373.55 517.65 370.08 512.55 Z" />
</g>
<g id="#000000ff">
<path fill="#000000" opacity="1.00" d=" M 476.41 55.64 C 491.47 51.30 507.18 47.98 522.93 49.61 C 524.43 49.82 525.84 50.36 527.29 50.82 C 522.97 52.86 518.30 53.98 513.94 55.87 C 471.53 72.93 436.52 109.45 424.40 153.89 C 423.41 157.55 422.43 161.23 421.99 165.01 C 413.56 156.24 404.79 147.44 393.98 141.60 C 398.03 122.56 406.57 104.18 419.74 89.72 C 434.69 73.01 455.09 61.96 476.41 55.64 Z" />
<path fill="#000000" opacity="1.00" d=" M 377.34 97.28 C 405.41 73.24 439.99 56.40 476.75 51.38 C 460.89 56.79 444.70 62.73 431.60 73.55 C 410.80 89.57 396.52 113.55 391.87 139.35 C 387.20 139.25 382.61 138.34 377.99 137.74 C 372.12 137.01 366.78 140.12 361.76 142.70 C 341.06 154.18 327.28 175.09 319.54 196.98 C 312.06 219.05 309.55 244.52 320.63 265.87 C 313.75 268.95 305.82 272.16 302.41 279.42 C 292.23 297.90 289.00 319.16 287.45 339.93 C 287.24 339.92 286.82 339.91 286.61 339.91 C 283.96 321.36 285.02 302.58 286.58 283.99 C 289.59 250.89 297.23 218.20 309.29 187.21 C 317.16 167.29 329.35 149.41 342.99 133.02 C 353.57 120.32 364.61 107.88 377.34 97.28 Z" />
<path fill="#000000" opacity="1.00" d=" M 534.38 52.48 C 552.71 51.44 571.26 54.79 588.30 61.61 C 619.04 73.92 643.68 97.89 662.21 124.85 C 673.83 141.72 683.56 159.87 691.05 178.94 C 701.11 203.93 707.80 231.10 704.69 258.17 C 701.28 283.53 687.81 306.32 684.68 331.71 C 692.57 328.78 700.24 324.19 708.95 324.44 C 712.64 324.60 717.25 325.30 719.04 329.03 C 720.36 331.29 719.26 333.89 718.48 336.13 C 710.44 356.97 702.14 377.72 692.84 398.04 C 691.11 401.51 689.91 405.33 687.34 408.31 C 673.56 424.28 658.36 439.21 640.94 451.20 C 666.92 465.07 693.07 478.64 719.04 492.53 C 725.50 496.84 733.71 498.34 739.10 504.21 C 693.16 543.97 647.13 583.62 601.12 623.30 C 594.44 629.55 586.84 634.80 580.68 641.60 C 630.97 658.21 681.55 673.95 731.72 690.93 C 722.77 699.56 714.84 709.15 706.92 718.70 C 654.09 782.29 602.84 847.20 549.05 910.00 C 526.62 936.53 503.64 962.66 478.65 986.83 C 477.35 981.32 476.47 975.74 476.25 970.08 C 470.76 936.74 454.65 906.40 437.03 878.00 C 418.92 849.65 398.47 822.85 376.87 797.08 C 329.16 740.72 276.59 688.68 222.57 638.41 C 163.93 584.12 103.00 532.38 41.45 481.45 C 37.43 478.13 33.72 474.44 29.40 471.49 C 26.59 469.24 22.89 467.13 22.22 463.26 C 29.32 461.43 36.72 461.43 43.93 460.18 C 82.80 455.52 121.85 451.11 159.97 441.86 C 171.38 438.54 183.96 436.29 192.98 427.95 C 198.68 419.33 201.54 409.08 203.01 398.93 C 207.97 367.01 199.94 335.16 193.90 304.00 C 194.40 302.36 195.53 301.02 196.86 299.98 C 201.05 296.72 205.44 293.71 210.00 290.97 C 228.34 279.47 247.59 269.54 266.89 259.77 C 262.35 281.99 262.74 305.66 270.78 327.06 C 281.83 353.25 297.35 377.17 310.83 402.11 C 315.14 410.59 320.52 418.67 322.98 427.96 C 324.13 431.52 323.38 435.46 324.99 438.91 C 329.50 450.62 334.82 462.11 341.26 472.88 C 353.91 457.69 364.70 440.67 380.16 428.06 C 384.01 425.25 388.21 422.18 393.12 421.87 C 395.24 421.56 396.42 423.53 397.64 424.86 C 393.34 431.48 385.25 435.17 382.49 442.79 C 386.86 451.69 397.24 454.44 403.98 461.01 C 410.68 466.96 414.18 475.96 422.04 480.70 C 432.63 476.34 442.13 468.78 453.84 467.56 C 460.37 467.03 467.40 466.23 473.51 469.17 C 476.06 470.34 477.33 472.93 478.67 475.23 C 469.46 477.64 460.15 479.70 450.93 482.10 C 447.81 482.86 445.59 485.38 443.06 487.18 C 437.53 491.69 431.36 495.31 425.79 499.76 C 421.46 503.06 414.48 503.90 410.38 499.83 C 401.57 488.70 394.44 476.08 383.81 466.48 C 371.53 470.05 361.49 478.27 350.15 483.78 C 349.21 485.31 347.87 487.06 348.90 488.92 C 351.12 494.38 355.01 499.00 356.91 504.64 C 359.46 503.23 361.91 500.80 365.08 501.98 C 395.59 507.38 425.28 516.47 454.98 525.13 C 461.37 527.23 468.11 528.35 474.17 531.36 C 481.40 532.31 488.71 531.49 495.96 531.74 C 489.56 538.61 480.98 542.79 474.03 549.01 C 468.72 555.36 466.76 564.06 460.69 569.84 C 457.01 573.51 451.53 572.93 446.87 574.14 C 425.73 577.14 404.93 569.32 386.46 559.73 C 390.94 569.32 396.35 578.43 400.97 587.94 C 401.68 589.39 402.58 591.18 404.43 591.31 C 412.70 592.78 420.85 594.93 429.21 595.88 C 442.96 598.10 457.66 596.87 470.11 590.25 C 474.15 588.29 477.64 585.46 481.36 582.97 C 475.76 589.11 468.73 593.69 461.56 597.76 C 456.22 600.95 449.92 601.70 444.08 603.56 C 438.34 605.43 432.68 607.66 427.51 610.80 C 423.76 613.06 419.84 615.09 415.63 616.36 C 420.16 625.81 425.12 635.10 428.35 645.12 C 420.61 652.61 413.39 660.66 406.83 669.20 C 418.37 670.91 430.66 672.89 441.92 668.74 C 450.82 665.19 458.70 658.78 463.64 650.54 C 483.77 619.00 504.02 587.52 523.73 555.73 C 521.10 551.13 516.58 546.69 516.28 540.93 C 515.86 537.37 514.44 534.07 513.28 530.72 C 511.14 522.66 507.55 515.08 504.42 507.37 C 499.03 494.46 492.24 481.97 482.71 471.62 C 481.73 456.04 477.64 440.91 474.69 425.65 C 481.42 432.87 486.04 441.71 490.41 450.49 C 502.75 475.79 511.50 502.68 519.62 529.55 C 522.36 537.37 523.26 545.67 524.22 553.87 C 525.74 553.27 526.49 551.67 527.36 550.39 C 532.13 542.51 537.11 534.77 541.92 526.92 C 547.39 519.96 550.92 511.64 556.78 504.97 C 553.12 515.02 549.18 524.98 544.99 534.82 C 530.24 568.92 512.52 601.81 490.90 632.07 C 513.55 610.91 534.12 587.68 555.82 565.57 C 561.25 559.78 567.20 554.50 572.44 548.53 C 584.52 535.18 594.47 519.91 601.78 503.46 C 610.90 484.07 618.08 463.47 619.98 442.01 C 621.75 433.38 623.67 423.57 630.98 417.84 C 639.83 414.16 648.20 408.27 652.67 399.56 C 654.95 395.61 655.38 391.01 655.76 386.57 C 648.74 393.28 641.96 400.30 634.35 406.37 C 637.20 398.30 641.09 390.42 642.36 381.92 C 647.49 367.23 650.25 351.64 650.19 336.07 C 649.65 324.94 640.60 317.12 632.92 310.19 C 628.08 306.21 622.06 301.09 623.51 294.05 C 629.84 280.73 635.50 266.76 636.92 251.95 C 639.13 234.84 637.86 216.94 631.01 200.96 C 623.34 181.99 607.21 167.41 588.88 158.90 C 572.39 151.12 553.52 147.50 535.50 151.25 C 519.09 154.23 503.77 162.34 491.64 173.72 C 477.39 186.46 467.05 202.81 457.93 219.44 C 456.13 217.62 455.21 215.19 453.92 213.04 C 445.35 197.95 436.55 182.86 425.39 169.53 C 423.21 166.72 424.80 162.90 425.78 159.92 C 439.15 108.01 483.05 66.37 534.38 52.48 M 688.93 333.53 C 684.79 334.92 682.97 339.57 683.80 343.63 C 687.44 344.16 691.26 344.60 694.48 346.56 C 696.24 347.65 697.47 349.93 696.89 352.00 C 691.93 366.96 685.86 381.71 676.98 394.82 C 671.67 402.34 665.99 409.99 658.40 415.34 C 660.62 410.05 664.32 405.57 666.77 400.40 C 671.28 391.44 677.14 382.41 676.91 371.99 C 676.56 368.93 676.44 364.78 673.06 363.46 C 670.89 366.07 668.64 368.82 667.63 372.09 C 667.36 382.01 667.15 392.51 662.21 401.42 C 657.41 409.02 651.72 416.02 645.55 422.55 C 639.33 428.78 633.38 435.45 626.00 440.37 C 624.69 441.08 624.95 443.16 626.31 443.72 C 629.01 445.28 631.71 446.86 634.47 448.32 C 638.56 449.83 642.02 446.37 644.70 443.78 C 657.32 431.00 669.70 417.88 680.39 403.41 C 681.88 401.46 683.06 399.30 684.00 397.04 C 690.70 381.76 697.23 366.41 703.87 351.11 C 706.18 344.19 711.84 338.39 711.65 330.74 C 703.94 329.83 696.30 331.44 688.93 333.53 M 370.08 512.55 C 373.55 517.65 373.53 524.07 373.36 530.00 C 375.11 527.79 377.17 525.82 378.60 523.37 C 380.82 521.96 383.14 520.18 385.95 520.63 C 393.14 521.80 400.10 524.11 407.19 525.78 C 420.52 529.06 433.48 533.66 446.91 536.51 C 448.51 536.82 449.26 538.39 450.29 539.48 C 450.11 544.67 450.19 549.87 450.42 555.06 C 456.56 550.51 460.52 543.82 465.96 538.56 C 467.86 538.53 469.77 538.49 471.69 538.43 C 470.39 537.89 469.31 537.08 468.45 536.00 C 464.49 535.17 460.63 533.89 456.61 533.38 L 456.88 532.64 C 455.61 532.40 454.36 532.10 453.13 531.75 L 452.92 532.42 C 451.61 531.41 450.09 531.05 448.47 531.28 C 422.25 525.43 396.21 518.79 370.08 512.55 Z" />
<path fill="#000000" opacity="1.00" d=" M 321.14 301.99 C 321.86 288.97 335.10 278.26 348.02 280.96 C 366.03 284.78 381.00 296.50 394.52 308.40 C 399.36 312.60 403.99 317.04 408.77 321.31 C 413.63 326.04 417.96 332.28 425.07 333.64 C 433.69 331.91 434.99 321.84 437.42 314.92 C 439.55 322.05 439.52 329.56 439.11 336.91 C 438.88 342.50 436.30 347.59 434.83 352.91 C 425.09 383.41 414.93 413.77 405.24 444.28 C 405.35 442.71 405.52 441.15 405.78 439.60 C 411.46 413.80 417.04 387.97 422.69 362.17 C 423.57 358.87 420.80 356.41 418.95 354.13 C 410.12 364.94 397.71 372.99 383.91 375.60 C 367.49 379.12 349.47 373.19 338.23 360.73 C 334.68 357.14 333.67 351.79 334.26 346.93 C 334.90 341.69 336.07 336.49 337.57 331.46 C 341.68 326.79 348.67 327.11 353.45 323.50 C 355.82 321.54 355.52 317.62 353.18 315.77 C 348.04 311.15 341.15 307.40 334.03 308.66 C 328.34 309.83 326.18 316.53 327.08 321.65 C 327.35 325.52 329.55 328.79 331.07 332.25 C 323.77 324.08 320.80 312.76 321.14 301.99 M 364.54 351.58 C 369.83 353.66 376.12 351.35 378.75 346.32 C 374.72 348.13 370.12 349.30 365.82 347.68 C 361.00 346.50 358.04 342.18 356.02 337.97 C 354.56 343.82 358.95 349.96 364.54 351.58 M 341.06 344.46 C 340.65 347.81 340.03 351.45 341.69 354.59 C 345.90 364.06 356.38 368.91 366.14 370.34 C 383.88 373.15 401.95 365.89 415.14 354.24 C 415.56 353.68 416.39 352.55 416.81 351.98 C 414.05 350.00 410.51 348.79 407.12 349.53 C 395.78 353.25 384.83 358.54 372.98 360.45 C 360.49 360.78 349.46 353.00 341.06 344.46 Z" />
<path fill="#000000" opacity="1.00" d=" M 545.41 318.54 C 556.27 316.44 568.21 315.58 578.45 320.53 C 591.17 326.69 602.83 337.53 605.69 351.88 C 607.13 360.12 601.18 367.31 595.01 371.94 C 593.11 373.70 590.42 373.62 588.01 373.67 C 581.01 373.88 574.60 370.62 568.08 368.57 C 558.84 377.58 546.05 383.65 532.96 382.77 C 520.53 381.19 508.89 375.75 498.77 368.49 C 504.42 377.56 510.54 386.37 517.57 394.44 C 522.62 399.79 527.77 405.65 534.94 408.11 C 538.89 409.57 543.29 409.03 547.08 407.37 C 561.61 401.90 572.16 389.29 578.79 375.66 C 577.54 381.68 573.84 386.74 570.48 391.75 C 563.55 401.41 553.94 409.90 542.11 412.65 C 532.15 414.34 523.44 407.76 516.68 401.28 C 503.07 388.03 491.80 372.53 481.76 356.46 C 477.79 348.09 466.76 345.95 463.60 336.99 C 461.81 330.98 465.15 325.36 468.35 320.55 C 467.83 325.00 465.69 329.79 467.77 334.13 C 471.58 339.49 479.03 339.29 484.87 338.57 C 505.79 334.26 524.48 322.85 545.41 318.54 M 546.54 351.07 C 553.88 352.97 561.93 354.76 567.31 360.56 C 568.89 362.03 569.74 364.45 572.01 365.04 C 578.78 367.28 586.19 371.48 593.28 367.92 C 595.73 356.39 587.08 343.23 574.93 342.56 C 564.81 342.20 555.44 346.83 546.54 351.07 M 521.21 372.04 C 525.95 378.60 536.46 379.06 541.88 373.04 C 537.13 367.66 529.64 373.49 524.23 369.81 C 522.20 368.49 521.41 365.95 520.20 363.98 C 519.58 366.69 519.36 369.72 521.21 372.04 Z" />
<path fill="#000000" opacity="1.00" d=" M 624.02 368.10 C 627.13 365.01 632.72 365.03 635.71 368.29 C 639.20 371.82 641.34 376.62 642.23 381.47 C 639.09 377.91 638.06 371.91 632.91 370.58 C 627.96 369.40 623.47 373.49 622.02 377.96 C 611.39 399.96 605.25 423.71 596.48 446.43 C 592.78 456.92 586.27 467.08 576.14 472.29 C 568.54 476.36 559.39 475.44 551.50 472.77 C 538.99 468.52 528.83 459.72 519.17 451.02 C 532.24 457.93 544.83 467.31 560.04 468.53 C 570.66 469.55 580.12 461.77 584.47 452.61 C 593.04 434.08 597.68 414.00 606.45 395.55 C 610.94 385.67 615.20 374.98 624.02 368.10 Z" />
</g>
</svg>
