<?xml version="1.0" encoding="UTF-8" ?>
<!DOCTYPE svg PUBLIC "-//W3C//DTD SVG 1.1//EN" "http://www.w3.org/Graphics/SVG/1.1/DTD/svg11.dtd">
<svg width="451pt" height="438pt" viewBox="0 0 451 438" version="1.1" xmlns="http://www.w3.org/2000/svg">
<g id="#000000ff">
<path fill="#000000" opacity="1.00" d=" M 159.06 15.06 C 177.18 6.81 197.01 1.40 217.06 2.31 C 228.61 3.01 240.49 3.24 251.42 7.51 C 264.17 12.44 276.91 17.87 288.14 25.75 C 305.01 38.68 314.48 58.93 319.67 79.07 C 324.00 94.50 320.38 110.51 319.79 126.16 C 319.58 134.83 317.66 143.61 319.61 152.21 C 324.79 147.88 329.78 143.33 334.95 138.99 C 334.74 153.64 333.54 168.27 331.77 182.82 C 330.69 191.50 328.47 200.66 322.07 207.04 C 317.99 211.04 314.22 215.92 308.53 217.66 C 310.67 210.75 316.60 206.18 320.22 200.15 C 322.40 196.57 324.30 192.81 325.87 188.91 C 327.75 184.43 327.03 179.47 326.73 174.77 C 324.27 184.63 319.83 194.94 310.39 199.95 C 310.10 192.73 315.69 187.23 317.31 180.45 C 314.54 179.37 310.11 179.93 308.55 177.17 C 310.06 173.25 312.98 170.11 314.92 166.42 C 311.33 168.92 307.60 172.23 307.16 176.87 C 306.50 185.02 307.34 193.20 307.19 201.36 C 304.08 200.36 300.74 199.76 297.98 197.94 C 295.87 196.51 297.63 193.90 298.19 192.10 C 303.48 180.57 304.38 167.00 300.00 155.04 C 297.36 148.25 291.12 143.34 289.57 136.05 C 287.68 127.03 290.28 117.54 287.28 108.68 C 284.82 101.58 282.15 94.41 277.78 88.23 C 265.99 71.65 241.03 67.69 223.80 77.82 C 216.09 81.16 213.09 89.51 207.69 95.33 C 201.84 86.72 192.96 80.83 183.82 76.18 C 178.18 73.32 171.53 73.65 165.59 75.34 C 150.07 79.69 135.94 89.86 127.99 104.01 C 125.24 108.83 123.01 114.45 124.10 120.08 C 125.16 124.75 127.60 128.95 129.82 133.16 C 133.54 140.72 140.03 146.94 148.14 149.49 C 152.40 150.07 156.70 149.05 160.98 149.35 C 166.07 149.40 171.02 150.78 176.09 150.97 C 178.77 147.04 180.53 142.54 183.43 138.72 C 184.08 144.65 183.42 150.69 184.64 156.55 C 185.22 159.60 187.46 161.86 189.52 164.01 C 190.11 160.59 190.69 157.16 191.81 153.87 C 195.16 158.02 198.00 162.55 201.17 166.84 C 202.32 168.66 203.93 170.72 203.35 173.01 C 201.53 175.91 198.21 177.49 196.44 180.42 C 197.03 186.77 200.36 192.57 200.99 198.97 C 202.39 213.08 197.23 226.82 197.59 240.91 C 197.79 243.13 197.82 245.72 199.53 247.40 C 204.15 249.05 209.25 246.47 213.88 248.15 C 216.80 249.85 218.40 253.34 218.75 256.61 C 217.97 257.87 216.63 258.59 215.34 259.23 C 207.95 262.68 200.02 264.80 192.09 266.63 C 193.41 272.43 195.39 278.05 197.17 283.73 C 200.07 281.91 202.52 279.27 205.80 278.14 C 210.13 280.07 214.04 283.22 218.92 283.66 C 226.90 284.42 234.51 281.08 241.52 277.67 C 240.30 284.08 239.88 290.59 239.47 297.09 C 239.25 301.49 237.07 305.98 232.92 307.89 C 231.22 305.94 230.27 303.43 228.40 301.65 C 226.03 299.83 222.87 299.90 220.04 299.71 C 213.79 299.65 207.31 299.11 201.31 301.25 C 203.42 302.60 205.51 304.43 208.15 304.52 C 211.36 304.64 214.54 303.98 217.72 303.59 C 217.62 307.09 217.55 310.59 217.46 314.09 C 213.17 313.06 208.73 311.11 204.26 312.16 C 201.46 316.01 200.81 321.79 196.16 324.04 C 191.44 325.44 185.86 325.39 182.23 329.22 C 179.56 331.45 180.25 335.45 182.08 337.98 C 184.23 341.07 188.11 342.03 191.45 343.27 C 194.39 340.25 197.27 337.02 200.94 334.86 C 204.55 337.27 206.68 341.48 210.69 343.34 C 213.41 344.55 216.27 342.98 218.62 341.66 C 225.39 337.55 232.24 333.44 239.61 330.49 C 241.92 329.82 244.65 328.64 246.93 330.00 C 248.10 336.14 246.16 343.20 240.69 346.72 C 230.89 353.50 219.04 356.04 207.89 359.72 C 204.43 360.75 201.39 362.82 197.94 363.86 C 194.41 362.71 191.44 360.34 188.06 358.86 C 179.71 354.66 169.83 354.31 161.99 348.98 C 155.68 345.29 151.74 338.80 145.56 334.93 C 144.75 337.54 144.23 340.36 142.51 342.56 C 140.67 344.83 137.92 346.05 135.37 347.32 C 143.36 351.86 153.08 350.21 161.44 353.59 C 168.64 356.99 173.23 364.30 180.73 367.23 C 185.18 369.25 189.51 365.20 194.05 366.05 C 198.86 367.11 202.97 370.61 208.02 370.69 C 210.18 370.28 212.02 368.94 213.91 367.88 C 220.35 363.98 226.91 360.29 233.35 356.38 C 241.97 351.20 252.07 349.40 261.93 348.31 C 266.70 347.83 271.48 346.89 276.29 347.35 C 273.80 352.05 268.88 354.74 265.77 358.99 C 261.06 364.23 258.34 371.95 261.31 378.73 C 262.89 383.61 267.22 387.09 268.53 392.02 C 265.02 394.39 260.68 394.90 256.94 396.80 C 251.26 399.38 245.13 403.32 243.95 409.96 C 242.02 416.67 246.82 422.51 249.06 428.46 C 242.02 427.47 236.30 422.20 229.06 422.08 C 223.90 421.58 219.90 425.64 215.03 426.41 C 213.32 425.19 212.44 423.21 211.44 421.43 C 208.91 416.52 206.44 411.55 203.41 406.92 C 199.71 407.85 195.92 409.08 192.07 408.52 C 189.06 408.04 186.16 407.05 183.25 406.17 C 178.25 414.53 175.25 423.85 171.16 432.64 C 167.35 428.52 163.89 423.84 158.93 421.03 C 152.92 417.88 145.35 418.28 139.39 421.35 C 134.33 424.43 133.18 430.73 130.41 435.54 C 129.90 436.99 128.42 437.57 126.98 437.48 C 84.66 437.27 42.33 437.56 0.00 437.47 L 0.00 386.97 C 6.70 383.59 14.29 382.45 20.94 378.94 C 29.59 374.82 37.60 368.44 41.44 359.43 C 45.78 350.54 43.91 340.31 41.68 331.11 C 37.86 316.31 35.72 301.04 30.30 286.68 C 25.61 274.32 17.92 263.40 9.82 253.06 C 6.89 249.27 3.10 246.29 0.00 242.65 L 0.00 215.82 C 15.83 208.48 33.66 205.14 51.04 207.16 C 64.57 209.02 77.20 214.58 90.42 217.75 C 86.44 209.07 81.09 201.03 78.02 191.92 C 72.65 178.95 72.23 164.31 75.51 150.75 C 81.90 153.69 86.07 159.56 91.70 163.55 C 91.85 156.37 91.25 149.20 91.25 142.02 C 91.45 119.60 94.03 97.16 99.56 75.42 C 102.50 64.14 108.66 53.95 115.88 44.92 C 121.87 37.42 130.14 32.38 137.86 26.89 C 144.47 22.18 151.57 18.19 159.06 15.06 M 207.32 36.86 C 204.92 48.77 204.72 60.96 205.03 73.06 C 205.15 76.52 205.81 79.94 206.73 83.27 C 209.53 74.84 209.82 65.86 210.31 57.07 C 211.03 46.49 211.17 35.79 213.56 25.41 C 215.04 18.59 218.96 12.53 219.78 5.53 C 211.32 13.65 209.31 25.83 207.32 36.86 M 139.01 31.25 C 141.91 30.80 144.76 30.11 147.68 29.79 C 145.18 31.73 142.28 33.02 139.54 34.56 C 142.25 37.49 145.55 34.20 148.59 33.64 C 145.58 36.98 141.52 39.32 139.19 43.27 C 142.59 43.33 145.49 40.41 148.76 40.76 C 146.86 43.01 144.66 44.98 142.58 47.07 C 144.74 47.32 146.90 47.55 149.07 47.77 C 146.98 49.71 144.80 51.53 142.77 53.52 C 145.38 53.50 147.98 53.35 150.58 53.23 C 148.66 55.11 146.61 56.84 144.69 58.72 C 146.97 58.72 149.24 58.70 151.51 58.66 C 150.12 60.29 148.74 61.93 147.53 63.71 C 149.74 63.26 153.61 64.81 154.57 61.98 C 155.47 56.96 153.11 52.08 153.20 47.06 C 153.19 38.27 155.92 29.72 155.64 20.91 C 149.59 23.44 143.87 26.82 139.01 31.25 M 270.15 24.01 C 264.22 29.93 261.24 38.00 259.58 46.05 C 258.87 49.96 256.62 53.74 257.31 57.79 C 259.40 59.47 262.17 59.81 264.70 60.39 C 263.73 58.41 262.36 56.67 261.39 54.69 C 264.29 55.86 267.01 58.41 270.35 57.58 C 268.09 54.93 264.12 54.81 262.01 52.11 C 265.89 52.61 269.79 53.19 273.73 52.93 C 270.98 50.37 267.70 48.46 264.94 45.90 C 268.47 46.32 271.97 46.97 275.51 47.31 C 273.15 45.32 270.80 43.27 268.97 40.75 C 271.82 41.37 274.61 42.23 277.46 42.87 C 275.99 39.97 273.04 38.40 270.74 36.27 C 274.67 37.11 278.41 38.67 282.37 39.44 C 280.00 36.58 276.95 34.42 274.40 31.74 C 278.15 32.48 281.60 34.20 285.27 35.22 C 281.46 30.06 275.74 26.88 270.15 24.01 M 152.69 184.16 C 152.89 185.42 152.32 187.35 153.95 187.84 C 156.34 189.39 157.63 185.84 158.83 184.39 C 156.78 184.29 154.73 184.22 152.69 184.16 M 178.30 243.96 C 180.87 245.56 183.41 247.92 186.64 247.75 C 188.09 244.24 186.28 240.42 185.85 236.84 C 183.25 239.12 180.67 241.43 178.30 243.96 M 232.31 287.51 C 229.68 290.39 229.17 295.11 231.84 298.15 C 232.95 299.26 234.01 301.46 235.84 301.06 C 237.65 296.31 235.97 290.76 232.67 287.08 L 232.31 287.51 M 125.80 355.82 C 124.21 361.77 125.26 367.97 125.69 374.00 C 126.33 380.47 121.19 385.66 120.91 391.97 C 120.69 394.67 122.70 396.74 124.27 398.68 C 128.98 403.99 133.24 410.11 139.80 413.32 C 140.18 408.28 141.04 402.54 137.85 398.18 C 134.84 393.50 129.52 390.92 126.74 386.07 C 129.70 380.19 135.36 375.67 136.48 368.93 C 137.37 361.90 133.65 355.35 133.89 348.34 C 131.03 350.57 126.79 351.93 125.80 355.82 Z" />
<path fill="#000000" opacity="1.00" d=" M 254.06 145.78 C 258.07 144.77 262.90 142.24 266.58 145.41 C 271.03 148.96 274.75 153.67 276.80 159.01 C 277.28 160.96 278.09 165.04 275.15 165.19 C 268.34 163.38 260.36 161.40 253.92 165.34 C 258.74 170.04 265.03 173.45 271.96 172.79 C 269.32 176.11 266.81 179.92 262.81 181.72 C 259.41 183.30 255.64 181.49 252.17 182.25 C 249.20 185.16 246.43 188.84 241.95 189.35 C 234.85 191.29 230.41 184.23 226.02 180.02 C 224.07 181.15 222.32 183.09 219.96 183.22 C 213.90 181.10 208.91 176.17 206.85 170.07 C 204.06 163.36 205.00 155.74 207.58 149.13 C 211.64 151.20 212.45 156.67 214.00 160.64 C 218.44 158.33 222.02 154.71 226.50 152.48 C 230.51 150.45 234.59 148.39 239.00 147.41 C 244.00 146.68 249.21 147.52 254.06 145.78 M 237.21 177.10 C 236.44 178.88 237.82 180.73 238.16 182.47 C 240.22 181.37 242.16 180.06 244.05 178.68 C 241.79 178.05 239.55 177.31 237.21 177.10 Z" />
<path fill="#000000" opacity="1.00" d=" M 224.44 187.17 C 229.60 188.42 234.59 190.66 239.97 190.86 C 242.73 191.03 245.48 190.48 248.25 190.60 C 248.75 191.21 249.74 192.44 250.24 193.05 C 247.74 193.60 245.17 193.93 242.72 194.69 C 239.35 195.48 239.17 200.08 236.12 201.25 C 232.97 200.89 229.27 200.30 227.20 197.65 C 225.40 194.47 224.98 190.72 224.44 187.17 Z" />
<path fill="#000000" opacity="1.00" d=" M 306.70 219.73 C 316.56 215.13 329.03 223.02 330.23 233.57 C 337.10 232.38 344.03 231.38 351.01 231.13 C 370.42 231.40 390.70 235.64 406.32 247.76 C 412.31 252.30 418.61 256.78 422.88 263.09 C 428.82 271.99 434.30 281.19 439.46 290.57 C 442.34 295.99 447.59 299.49 451.00 304.51 L 451.00 307.49 C 442.49 303.90 434.88 298.52 426.61 294.45 C 414.83 288.84 402.91 283.09 389.96 280.80 C 376.70 278.27 361.95 274.46 349.35 281.36 C 342.79 284.13 339.97 291.07 337.23 297.11 C 333.23 305.79 338.11 316.35 346.05 320.89 C 353.24 325.29 362.02 324.30 370.03 323.74 C 377.80 323.15 386.33 323.28 392.89 328.07 C 398.87 331.65 401.96 338.57 408.10 341.90 C 412.98 343.65 418.18 341.55 423.10 340.93 C 432.51 339.55 441.66 336.90 451.00 335.13 L 451.00 437.48 C 400.28 437.44 349.57 437.43 298.85 437.30 C 300.55 427.00 305.40 417.68 309.04 408.01 C 314.11 394.54 320.97 381.58 323.23 367.22 C 323.58 364.13 324.97 360.57 323.28 357.69 C 318.64 352.82 311.62 351.85 305.77 349.10 C 303.44 348.07 301.46 345.61 302.11 342.94 C 302.96 338.65 306.44 335.65 308.36 331.87 C 302.31 329.25 294.91 329.65 289.82 324.94 C 289.29 320.84 291.63 317.09 291.80 313.06 C 291.90 310.47 289.76 308.64 287.94 307.15 C 283.46 303.64 278.77 300.24 275.21 295.74 C 273.53 293.83 274.56 291.18 275.10 289.04 C 277.64 281.29 281.53 273.96 286.69 267.62 C 290.15 263.39 292.92 258.45 293.62 252.95 C 294.67 244.53 293.15 236.05 293.94 227.61 C 299.14 226.66 302.46 222.41 306.70 219.73 Z" />
<path fill="#000000" opacity="1.00" d=" M 212.04 232.82 C 216.35 232.10 220.68 231.37 225.05 231.08 C 229.83 230.85 233.78 234.07 237.42 236.75 C 242.52 240.89 248.00 244.66 252.38 249.60 C 257.31 255.20 259.19 262.69 260.60 269.83 C 257.82 267.38 255.33 264.62 253.01 261.73 C 251.55 265.10 250.64 268.69 249.07 272.02 C 246.86 276.33 240.17 276.35 237.35 272.64 C 232.67 267.23 233.01 259.71 231.99 253.05 C 229.16 251.30 225.93 250.41 222.96 248.96 C 221.11 246.52 223.09 242.48 220.75 240.40 C 217.75 239.73 214.63 240.10 211.58 240.11 C 211.69 237.67 211.85 235.24 212.04 232.82 Z" />
</g>
</svg>
