<?xml version="1.0" encoding="UTF-8" ?>
<!DOCTYPE svg PUBLIC "-//W3C//DTD SVG 1.1//EN" "http://www.w3.org/Graphics/SVG/1.1/DTD/svg11.dtd">
<svg width="663pt" height="842pt" viewBox="0 0 663 842" version="1.1" xmlns="http://www.w3.org/2000/svg">
<g id="#000000ff">
<path fill="#000000" opacity="1.00" d=" M 295.19 13.12 C 319.97 8.44 346.24 7.27 370.45 15.37 C 375.93 17.34 381.48 19.43 386.34 22.68 C 393.54 28.27 394.89 38.35 393.88 46.84 C 390.10 71.53 387.88 96.64 389.95 121.59 C 392.32 118.12 393.65 114.09 395.15 110.20 C 402.21 90.53 404.35 69.49 411.54 49.86 C 438.15 66.74 457.72 93.47 468.52 122.85 C 473.67 138.21 477.18 154.08 482.88 169.26 C 485.01 175.08 487.94 180.65 489.13 186.79 C 491.62 198.77 490.57 211.09 490.42 223.23 C 472.47 221.37 454.31 225.57 438.07 233.13 C 436.10 233.98 434.25 235.25 432.08 235.50 C 369.38 237.82 306.61 234.99 243.91 236.80 C 217.65 236.04 193.22 223.82 166.92 223.40 C 164.06 209.13 164.36 193.80 170.50 180.39 C 181.45 156.79 184.19 130.26 195.82 106.93 C 206.94 84.15 224.11 64.84 243.71 48.97 C 255.22 70.00 257.88 94.17 265.15 116.70 C 266.21 119.68 266.94 122.85 268.83 125.45 C 272.81 95.48 263.47 65.85 264.07 35.89 C 264.10 29.76 268.35 24.53 273.44 21.55 C 280.14 17.54 287.69 15.14 295.19 13.12 Z" />
<path fill="#000000" opacity="1.00" d=" M 185.37 237.59 C 192.76 238.68 200.17 239.70 207.41 241.60 C 213.42 253.77 215.32 267.40 220.09 280.03 C 227.28 299.39 239.21 316.43 248.17 334.94 C 256.63 350.50 265.18 366.47 278.06 378.90 C 284.18 384.57 291.07 389.82 299.08 392.45 C 318.93 395.99 339.84 397.08 359.41 391.46 C 373.00 383.89 383.77 372.13 392.69 359.55 C 406.05 340.50 415.36 319.06 427.02 299.01 C 436.81 282.24 439.04 262.30 448.56 245.40 C 449.48 243.57 451.65 243.08 453.36 242.25 C 459.04 240.01 464.92 238.24 470.89 236.93 C 470.31 252.64 469.55 268.62 464.74 283.72 C 455.17 316.23 432.26 342.35 419.06 373.20 C 416.08 382.90 420.79 393.20 427.29 400.37 C 436.92 411.47 451.03 416.63 463.71 423.28 C 503.17 442.63 544.15 458.91 582.56 480.38 C 590.62 485.11 599.43 489.11 605.60 496.38 C 616.79 509.08 621.43 525.85 625.55 541.88 C 639.61 596.75 646.23 653.18 651.16 709.50 C 651.63 709.86 652.58 710.57 653.06 710.93 C 653.61 714.22 652.87 717.59 653.34 720.91 C 655.09 729.47 655.49 738.24 656.52 746.91 C 656.49 761.85 657.83 777.13 653.76 791.72 C 651.27 801.16 645.78 809.40 640.35 817.37 C 633.99 826.25 625.44 835.00 614.07 836.46 C 558.92 840.20 503.68 832.13 450.07 819.58 C 430.33 814.65 413.18 803.29 395.84 793.15 C 382.27 784.88 367.49 778.93 352.86 772.85 C 311.39 756.14 268.54 743.14 227.08 726.37 C 237.68 705.68 247.28 683.37 265.29 667.86 C 268.36 664.74 272.98 664.69 277.06 664.53 C 282.39 664.56 287.70 665.25 293.00 665.88 C 322.29 669.93 351.75 672.48 381.18 675.25 C 390.13 675.96 399.04 677.25 408.02 677.52 C 446.81 679.29 485.22 686.57 524.11 686.54 C 522.99 665.31 521.06 644.10 517.46 623.14 C 517.11 621.89 517.23 620.21 515.82 619.59 C 514.05 640.52 514.32 661.56 513.97 682.54 C 507.00 681.17 499.88 680.30 493.13 678.08 C 489.56 672.45 489.47 665.46 489.24 659.02 C 488.64 646.36 489.44 633.71 489.30 621.05 C 489.36 606.77 489.16 592.49 488.55 578.23 C 462.73 577.54 436.89 577.95 411.07 577.45 C 353.02 577.47 294.98 577.44 236.93 577.46 C 226.30 577.90 215.65 577.62 205.01 577.70 C 190.32 577.56 175.65 578.14 160.96 577.96 C 160.34 609.79 160.12 641.66 160.98 673.50 C 179.18 666.43 198.37 661.20 217.98 660.79 C 231.00 660.44 244.12 662.44 256.29 667.15 C 237.35 673.72 216.98 671.33 197.48 674.65 C 192.82 675.40 188.99 678.37 185.02 680.72 C 170.18 690.27 156.60 703.03 138.86 706.91 C 134.50 677.47 135.64 647.63 135.80 617.98 C 134.29 617.96 132.79 617.94 131.28 617.93 C 133.47 647.50 126.61 677.08 130.53 706.59 C 148.06 717.14 168.69 719.81 187.90 725.92 C 253.59 745.11 318.90 766.88 380.14 797.77 C 344.37 814.68 304.59 819.15 265.95 825.25 C 258.94 826.29 251.99 827.80 244.91 828.20 C 183.89 833.58 122.28 840.59 61.14 832.88 C 52.42 831.52 43.13 831.31 35.36 826.64 C 22.73 819.32 15.02 805.97 10.37 792.53 C 6.67 782.44 6.26 771.60 5.65 760.99 C 4.38 726.55 10.30 692.40 10.87 658.00 C 13.65 619.48 18.42 581.09 25.70 543.15 C 28.76 528.65 31.83 513.25 41.41 501.45 C 45.93 495.93 52.13 492.22 58.09 488.48 C 88.25 469.89 122.98 460.14 152.70 440.77 C 159.91 434.72 169.05 432.01 177.34 427.94 C 181.60 428.03 185.44 425.94 189.40 424.71 C 205.54 419.00 221.72 410.86 232.27 396.91 C 236.77 390.91 240.88 383.10 238.21 375.47 C 230.42 355.55 218.22 337.83 207.53 319.43 C 200.19 306.73 193.10 293.62 189.86 279.20 C 187.16 268.96 186.72 258.35 185.06 247.95 C 184.91 244.49 185.13 241.04 185.37 237.59 M 266.46 402.07 C 260.60 411.30 254.58 420.42 248.90 429.76 C 260.81 438.90 274.36 445.88 288.74 450.20 C 328.81 462.25 374.31 454.63 408.20 430.08 C 403.07 420.71 397.74 411.45 392.34 402.23 C 380.17 408.98 368.13 417.18 354.01 418.98 C 342.71 420.02 331.35 420.07 320.01 419.89 C 312.25 419.47 304.31 419.79 296.81 417.42 C 285.83 414.18 276.36 407.58 266.46 402.07 M 433.92 429.83 C 431.98 433.21 432.33 437.26 432.18 441.01 C 431.62 455.00 432.30 469.02 431.70 483.02 C 431.72 507.10 431.73 531.19 432.72 555.25 C 450.96 556.34 469.24 556.24 487.49 555.52 C 489.89 520.06 490.81 484.34 487.00 448.94 C 487.13 447.45 485.61 447.01 484.59 446.49 C 469.63 439.53 455.04 431.27 438.86 427.45 C 436.92 426.84 434.97 428.31 433.92 429.83 M 160.72 452.25 C 160.48 486.48 161.10 520.73 160.41 554.95 C 178.49 556.52 196.65 556.31 214.78 556.30 C 215.37 513.78 214.90 471.25 215.05 428.73 C 195.79 433.52 177.70 442.11 160.72 452.25 Z" />
<path fill="#000000" opacity="1.00" d=" M 181.31 593.80 C 194.25 593.68 207.19 593.86 220.12 594.34 C 218.69 602.26 217.07 610.23 213.70 617.60 C 203.09 619.85 192.22 619.07 181.48 618.93 C 181.10 610.56 181.38 602.17 181.31 593.80 Z" />
<path fill="#000000" opacity="1.00" d=" M 430.55 594.05 C 443.73 593.66 456.92 593.75 470.11 594.06 C 468.71 602.12 470.06 611.61 463.78 617.94 C 454.79 619.72 445.14 620.43 436.34 617.48 C 430.44 611.17 431.95 601.90 430.55 594.05 Z" />
</g>
</svg>
