<svg height="201pt" viewBox="0 0 225 201" width="225pt" xmlns="http://www.w3.org/2000/svg"><g fill="#fff"><path d="m56.44 51.39c19.31-16.72 38.15-34.02 57.68-50.49 2.85.76 4.55 3.46 6.64 5.34 30.11 27.21 60.15 54.51 90.24 81.74 4.81 3.93 8.8 8.78 14 12.25v1.53c-2.44 2.48-5.23 5.42-9.01 5.32-5.22.51-9.96-2.2-14.23-4.85-4.44-2.77-7.62-7.05-11.77-10.19-20.72-18.62-41.45-37.24-62.23-55.79-4.21-4.21-9.16-7.61-13.05-12.15-31.49 26-62.32 52.8-93.7 78.93-4.24 2.85-9.74 6.37-14.95 3.99-2.32-.89-4.18-2.59-6.06-4.17v-1.49c2.52-2.62 5.27-4.98 8.08-7.28 16.09-14.26 32.26-28.43 48.36-42.69z"/><path d="m176.02 23.02c7.64-.03 15.29-.08 22.93.03.06 15.42.15 30.84-.05 46.26-4.86-2.61-8.54-6.92-12.91-10.24-3.27-2.81-6.55-5.6-9.94-8.27-.12-9.26-.05-18.52-.03-27.78z"/><path d="m113.37 38.17c6.37 4.7 11.9 10.41 17.9 15.56 20.32 17.73 40.07 36.13 60.61 53.58.28 28.91.03 57.82.14 86.73.52 4.36-4.18 6.81-7.99 6.01-18-.13-36 .02-54.01-.08-.17-16.27.18-32.56-.14-48.82-1.35-4.36-6.83-5.34-10.85-5.2-6.66.14-13.33-.11-19.99.1-3.75.09-6.85 3.39-6.7 7.15-.23 15.66-.25 31.34-.38 47.01-9.2.62-18.51-.74-27.63.79h-28.91c-2.85-.73-5.5-2.83-5.38-6.03-.14-25.99.03-51.98-.07-77.97.03-2.88-.22-5.79.29-8.64 2.19-2.86 5.31-4.77 7.98-7.12 25.01-21.06 50.2-41.92 75.13-63.07z"/></g></svg>