<svg height="500mm" viewBox="0 0 1771.6535 1771.6535" width="500mm" xmlns="http://www.w3.org/2000/svg"><g fill="#fff" transform="translate(-18.061051 884.64085)"><path d="m728.61079 861.43555c-39.25536-6.98996-107.06615-23.64644-150.69066-37.01443-80.67584-24.72161-250.31723-101.99039-288.94439-131.60926-20.96818-16.07814-21.06134-17.07633-6.70054-71.77703 50.4191-192.04775 190.70783-359.85322 376.17131-449.95476 112.28618-54.55069 192.66282-72.820142 321.33079-73.037854 246.6611-.417411 463.7142 115.221464 602.6795 321.088004 37.6443 55.76733 87.8397 170.6871 88.3835 202.34966.226 13.17202-18.2747 30.89718-61.2464 58.67803-139.4876 90.1776-303.0117 154.38364-463.1158 181.83756-99.8979 17.13011-320.17911 16.83488-417.86731-.55992z"/><rect height="119.79085" ry="59.895424" transform="matrix(.76356839 .64572696 -.65192184 .75828617 0 0)" width="1246.9957" x="98.185684" y="-167.32021"/><path d="m971.55127-869.27434a546.39995 527.87793 0 0 0 -546.40263 527.87885 546.39995 527.87793 0 0 0 546.40263 527.87879 546.39995 527.87793 0 0 0 546.39643-527.87879 546.39995 527.87793 0 0 0 -546.39643-527.87885zm-262.70172 338.61404h504.86015c82.1687 0 148.3174 66.15489 148.3174 148.32371v99.39311c0 82.16878-66.1487 148.31734-148.3174 148.31734h-504.86015c-82.16879 0-148.32369-66.14856-148.32369-148.31734v-99.39311c0-82.16882 66.1549-148.32371 148.32369-148.32371z" fill-rule="evenodd"/><ellipse cx="798.72968" cy="-327.19971" rx="61.291084" ry="75.435173"/><ellipse cx="798.72968" cy="-327.19971" rx="61.291084" ry="75.435173"/><ellipse cx="1100.4703" cy="-327.19971" rx="61.291084" ry="75.435173"/></g></svg>