<svg height="585pt" viewBox="0 0 463 585" width="463pt" xmlns="http://www.w3.org/2000/svg"><path d="m271.46 184.54c3.65-1.76 8.23 1.47 7.97 5.47.03 4.35-5.46 7.33-9.01 4.67-3.84-2.29-3.21-8.68 1.04-10.14z" fill="#fff"/><g fill="#000"><path d="m142.02 103.04c30.19-20.74 66.66-31.11 103.01-33.1 27.75-1.11 56.04 1.54 82.31 10.97 25.93 8.75 49.36 25.01 66.37 46.48 7.25 8.11 12.44 17.78 17.49 27.34 13.96 29.08 18.04 62.39 13.81 94.21-4.01 34.53-17.42 67.95-38.68 95.48-4.45 5.51-9.51 10.64-12.8 16.98-4.36 8.49-6.85 18.05-6.25 27.64 1.79 40.58 3.39 81.17 5.3 121.74-44.15-.06-88.3-.03-132.46-.02-2.28-8.38-6.37-16.29-11.85-23.03-7.55-8.42-17.95-14.44-29.28-15.77-23.02-2.12-45.92 2.78-68.94 2.27-7.81-.18-16.53-2.56-21.05-9.45-5.16-8.62-5.34-19.31-2.9-28.82 1.44-6.08 3.94-11.87 5.26-17.97.61-2.03-.73-3.96-2.49-4.84-4.37-2.83-10.01-4.28-13.16-8.66-1.98-6.15 2.32-12.44 7.13-15.96-5.84-1.35-12.16-3.61-15.8-8.66-2.39-3.79.84-7.69 2.59-10.98 2.44-4.29 4.71-9.6 2.88-14.52-1.91-4.46-6.81-6.04-10.77-8.11-6.66-3.5-14.28-5.82-19.43-11.59-2.7-2.8-3.16-7.29-1.2-10.62 8.17-13.32 18.54-25.22 25.9-39.08 5.25-9.79 9.32-21.19 6.51-32.37-7.5-28.35-9.26-59.05-.32-87.29 8.08-25.82 26.88-47.06 48.82-62.27m59.35 187.59c39.75-.22 79.51-.21 119.27 0-.3-54.64-.09-109.3-.11-163.95-39.68.11-79.38.12-119.06 0-.02 54.65.18 109.31-.1 163.95z"/><path d="m208.75 135h77.5v101.99c-25.82 14.71-51.68 29.35-77.52 44.03.04-48.67.01-97.34.02-146.02m62.71 49.54c-4.25 1.46-4.88 7.85-1.04 10.14 3.55 2.66 9.04-.32 9.01-4.67.26-4-4.32-7.23-7.97-5.47z"/></g></svg>