<svg enable-background="new 0 0 40 40" viewBox="0 0 40 40" xmlns="http://www.w3.org/2000/svg"><path d="m6.5 37.5v-35h18.293l8.707 8.707v26.293z" fill="#fff"/><path d="m24.586 3 8.414 8.414v25.586h-26v-34zm.414-1h-19v36h28v-27z" fill="#c74343"/><path d="m24.5 11.5v-9h.293l8.707 8.707v.293z" fill="#ffd9d9"/><g fill="#c74343"><path d="m25 3.414 7.586 7.586h-7.586zm0-1.414h-1v10h10v-1z"/><path d="m12.044 17.535c.481-.104 1.131-.169 1.781-.169 1.014 0 1.82.144 2.379.677.52.455.754 1.183.754 1.924 0 .949-.286 1.625-.741 2.106-.546.585-1.417.845-2.132.845-.117 0-.221 0-.338-.013v3.263h-1.703zm1.703 3.991c.091.014.182.014.286.014.858 0 1.235-.611 1.235-1.431 0-.767-.312-1.364-1.105-1.364-.156 0-.312.025-.416.064z"/><path d="m17.985 17.535c.429-.104 1.053-.169 1.729-.169 1.105 0 1.872.261 2.431.78.754.676 1.144 1.833 1.144 3.536 0 1.769-.455 3.029-1.222 3.705-.598.56-1.456.846-2.665.846-.546 0-1.079-.053-1.417-.104zm1.703 7.281c.091.025.208.025.299.025.819 0 1.534-.806 1.534-3.224 0-1.794-.468-2.887-1.495-2.887-.117 0-.234 0-.338.039z"/><path d="m24.368 17.405h3.809v1.482h-2.106v2.249h1.976v1.417h-1.976v3.614h-1.703z"/></g></svg>