<svg height="1000pt" viewBox="0 0 653 1000" width="653pt" xmlns="http://www.w3.org/2000/svg"><path d="m402.04 0h9.16c2.87 2.04 6.09 3.49 9.34 4.81 6.85 2.04 14.18 1.83 20.9 4.42 6.04 2.2 11.58 5.53 17.59 7.82 9.27 3.69 15.4 11.86 22.22 18.71 3.29 3.56 5.45 7.94 8.21 11.89 6.28 8.74 11.12 18.38 15.87 28 4.27 8.03 7.71 16.9 6.73 26.16-2.03 1.49-4.21 2.76-6.63 3.47-3.08 1.9-5.59 4.6-8.86 6.19-1.97-2.15-3.89-4.46-4.51-7.38-3.26-11.58-7.77-22.73-12.72-33.68-5.23-12.06-13.51-22.67-23.03-31.68-3.73-3.9-9.03-5.92-14.28-6.66-1.91-.31-3.66.78-5.41 1.33.77 5.25 6.35 7.53 7.75 12.49-1.99.06-3.99.03-5.97.25-2.4 1.57-1.07 4.84-1.51 7.21-11.61-2.97-18.59-14.43-29.86-18.19-5.43-1.17-10.41 1.76-15.51 3.06-1.26.69-2.52 1.37-3.77 2.05.47 2.67 1.02 5.31 1.52 7.97-1.84.99-3.71 1.93-5.71 2.51l1.68-1.42c-6.09-.09-11.01-5.47-17.21-4.18-7.47 1.18-14.57 3.95-21.22 7.47-4.63 1.99-8.04 5.8-10.79 9.9-.1 2.16-.26 4.32-.09 6.47.12 3.02 2.53 5.56 2.07 8.64-2.2 1.96-5.66 1.48-7.88 3.46-1.97 1.89-4.12 3.6-6.63 4.72-1.05.31-2.1.64-3.14.98-.92.14-1.82.27-2.73.41-3.04.97-6.07 2.09-8.71 3.93.04 1.21.07 2.42.1 3.64 15.59 11.52 32.29 22.04 45.06 36.84-.31.36-.95 1.09-1.27 1.45-4.87-2.54-8.93-6.28-13.36-9.47-6.21-4.56-12.58-8.91-19.07-13.08-6.28-4.74-12.63-9.43-19.38-13.49-4.65-2.51-9.92-.53-14.42 1.29-5.78 2.55-11.06 6.05-16.55 9.13-.03 1.11-.05 2.22-.08 3.33 16.64 9.23 33.9 17.66 48.76 29.71 1.14 1.42 2.29 2.82 3.48 4.21-.14 4.87-4.7 7.84-8.5 10.02-4.81 2.37-10.14 5.11-15.66 4.09-11.42-4.27-20.22-13.06-30.44-19.39-6.44-3.13-11.47-8.49-18.12-11.25-3.55-1.25-7.49-1.87-10.99-.11-1.51 3.77-4.57 6.53-6.83 9.82 3.17 4.12 8.39 5.4 12.89 7.49 9.49 4.54 20.02 6.63 29.12 12.02 1.08.63 1.88 1.61 2.63 2.6-5.87 7.77-16.75 6.51-25.26 5.38-1.57-.34-3.14-.65-4.7-.98-1.35-.4-2.69-.79-4.01-1.22-1.16-.07-2.3-.12-3.45-.17-.4-.24-1.2-.72-1.6-.96-1.38-.08-2.77-.15-4.15-.23-7.39-2.03-15.18-1.29-22.56-3.37-9.02-2.31-18.34-2.92-27.53-4.31-3.16-.25-6.75-.69-9.48 1.31-3.24 1.96-3.8 6.01-4.74 9.35-1.24 1.09-2.51 2.15-3.79 3.2-.02 3.62-.02 7.23.04 10.85-2.88 2.75-6.56 4.41-9.59 6.97.41 2.71.55 5.45.55 8.2-.95 5.92 6.09 9.04 5.95 14.83-.72 3.15-3.41 5.43-5.99 7.14-6.18 4.04-12.49 8.06-17.26 13.8 5.42 3.67 12.04 8 18.84 5.58 5.99-2.03 12.06-3.85 18.01-6.02 6.97-2.22 13.95-4.43 20.96-6.54 1.69-.98 3.78-1.54 5.03-3.12 1.21-2.32 2.12-4.78 3.11-7.19 1.01-3.29 2.91-6.59 2.25-10.13-1.25-2.35-4.14-1.24-6.03-.45-4.08 1.81-8.23 3.72-12.77 3.9-4.97-.51-10.12-2.84-12.3-7.59 1.88-1.34 3.85-2.54 5.86-3.67.65-1.13 1.31-2.27 1.97-3.4-3.38-3.53-7.3-6.63-9.8-10.9 2.04-1.66 4.31-3 6.69-4.12 7.18-1.53 14.53-3.02 21.88-1.85 4.21 1 6.83 4.55 8.98 8.02-2.14 4.23-7.18 4.98-10.48 7.96.03 1.13.07 2.26.1 3.39 2.65 1.44 5.5 2.51 8.56 2.53 6.27-5.38 8.77-13.64 14.81-19.21 1.05.02 2.11.04 3.16.05 6.04 5.56 11.39 12.13 14.26 19.9.98 4.72-1.13 9.37-.89 14.12-.38 5.07 1.83 10.02.91 15.06-1.16 3.96-3.25 7.55-4.56 11.46-.74 2.55-1.53 5.09-2.43 7.59 1.18 3.2 4.38 4.33 6.96 6.1 2.5 2.17.86 5.75-.42 8.14-2.83 5.06-3.87 10.8-5.27 16.36 1.96 3.07 4.34 5.83 6.65 8.63 2.03 2.2.7 5.48 1.67 8.05 1.6 2.27 3.3 4.49 4.45 7.05.57 2.83 1.36 5.62 2.12 8.41 3.62.99 7.54.64 11.02 2.07 5.72 3.4 9.61 9.11 15.38 12.49-.67 4.04-4.05 6.58-6.29 9.75-3.37 4.32-5.84 9.25-7.85 14.32-.53 1.95-1.1 3.89-1.69 5.83-.29 1.88-.56 3.77-.82 5.67-.34 1.39-.68 2.78-1 4.18 1.63-.07 3.27-.13 4.92-.2 3.9-4.53 8.1-8.97 13.23-12.12 5.63-3.1 12.03-4.49 17.68-7.57 2.71-.86 5.41-1.78 7.97-3.06 2.78-.7 5.53-1.55 8.29-2.39 3.63-1.26 7.54-.61 11.28-1.34 4.6-.93 9.31-.22 13.95-.67 2.77-.63 5.25-2.1 7.94-2.98 9.69-3.17 19.92-4.08 30.02-4.94 6.77-.7 13.24 2.44 18.21 6.83 2.36 2.18 4.52 4.58 6.9 6.75-.14 2.31-.15 4.87-1.81 6.7-3.14 3.65-8.14 4.7-11.9 7.56-3.4.58-6.78 1.26-10.15 1.92-11.78 1.73-23.38 4.75-35.28 5.55-5.31.75-10.69.81-15.97 1.72-3.5.46-7.05 1.54-10.58.63-10.06-1.89-20.2.38-30.02 2.53-5.07 3.26-8.69 8.2-13.45 11.85.16 4.15-.77 8.74 1.66 12.43 2.29 4.22 7.19 6.45 8.97 10.98 1.04 2.2-.49 4.32-1.37 6.27-1.37 3.62-.94 7.43-.14 11.13 1.23 1.1 3.41 3.63 4.74 1.27 1.86-1.48.87-3.62.36-5.46 1.23-2.75 2.97-5.2 4.73-7.63 3.07-4.29 4.92-9.9 10.06-12.23 1.01.71 2.03 1.44 3.05 2.16.01 5.25-.04 10.5-.05 15.75 1.36 1.35 2.73 2.68 4.12 4.01 1.69-2.26 3-4.77 4.29-7.26 6.35-10.5 16.24-18.84 27.76-23.12 2.93-.95 5.85-1.91 8.74-2.96 1.6-.35 3.19-.72 4.82-.94 7.64-1.5 15.57-2.04 23.28-.75 1.82.56 3.65 1.1 5.51 1.58 4.3 1.52 8.54 3.44 11.94 6.56 3.22 2.86 7.36 4.22 11.03 6.38-2.07 2.96-5.21 5.05-8.91 5.08-1.47-1.56-2.96-3.09-4.47-4.6-.06-.56-.19-1.67-.25-2.22-7.68-5.23-17.42-6.07-26.44-5.24-1.41.77-1.27 2.54-1.59 3.88-.63 4.57-1.78 9.04-2.9 13.51-.86 1.24-1.47 2.72-2.68 3.66-5.46 3.6-12.34 6.54-18.78 3.62-4.17-2.74-7.66-6.33-10.98-10.03-5.18.06-8.66 4.43-11.26 8.38-2.03 3.35-4.35 6.53-7.11 9.33-.18 3.28.41 7.69-3.09 9.49-3.89 2.31-6.93 5.69-10.37 8.58-5.53 3.56-12.45 4.63-17.24 9.4 4.34.82 8.87.32 13.15-.59 3.23-.67 4.59-3.94 6.79-6 1.63-1.5 4.03-1.27 6.07-1.61-.48 4.43-4.33 7.07-6.2 10.82-1.07 3.24.86 6.26 1.57 9.34.36 2.3.28 4.65.41 6.98 3.36 7.48-4.02 13.05-7.58 18.71-2.21 3.85-6.4 7.15-6.5 11.83 4.47 7.45 11.17 13.13 17.13 19.32 6.97 7.14 15.53 12.4 23.16 18.77 3.78 3.01 7.2 6.45 11.13 9.29 4.35.49 9.36.54 12.65 3.86 2.82 2.66 6.22 4.56 9.64 6.32 1.27-.01 2.54 0 3.82.01 8.74-7.86 15.32-17.64 22.78-26.61 3.95-4.72 6.09-10.61 9.8-15.49h2.87c2.35 5.27-3.11 9.75-3.09 15.06-.65 6.13-3.46 11.67-5.32 17.46-4.61 10.85-8.04 22.15-12.11 33.2-3.71 2.62-8.35 2.4-12.58 3.46-2.52.59-4.98 1.38-7.44 2.16-1.57.64-3.16 1.25-4.74 1.88-.14 6.24 3.28 11.72 5.92 17.14 8.84 13.71 14.56 29.12 22.97 43.06 2.07 3.51 5.25 7.11 4.21 11.52-1.53 1.99-4.56 1.18-6.68.89-4.63-2.19-7.17-7.02-10.02-11.03-9.92-17.19-20.28-34.17-28.89-52.08-2.88-5.18-4.54-11.28-9.33-15.13-1.99 1.82-4.63 3.59-4.97 6.5.66 5.34 2.22 10.61 4.63 15.44 1.9 3.91 2.6 8.31 4.8 12.08 5.78 9.92 10.25 20.63 17.14 29.87 2.69 4.83 4.75 10.1 8.69 14.13 5.47 5.58 9.64 12.71 16.64 16.57 1.99 1.26 4.38 1.13 6.64 1.03 8.36-8.84 18.32-17.5 21.61-29.68 3.57-6 9.22-10.51 15.24-13.89 3.9-2.14 7.3-5.04 11.05-7.4 4.13-.38 7.6-2.83 11.39-4.27 4.79-2.18 9.79-3.78 14.7-5.64 7.83-2.94 16.37-.94 24.44-.28 8.72.2 17.52.4 26.06-1.66 8.59-.89 16.46-4.67 24.4-7.78 6.16-3.35 11.88-7.59 18.67-9.68 1.24.77 2.48 1.53 3.74 2.3 1.81 6.36 1.35 13.62-2.62 19.09-6.39 6.3-14.93 9.65-23.2 12.74-2.4.98-5 1.69-7.04 3.36-.51 2.46 3.03 2.54 4.6 3.35 12.41 3.42 24.51 8.83 34.11 17.56 3.22 3.09 7.05 5.58 9.73 9.23 6.19 7.98 12.17 16.4 15.29 26.11 1.44 4.77 3.99 9.29 4.21 14.37.25 5.01 1.31 9.97 1.11 15.01-.34 14.27-4.66 28.1-9.83 41.29-2.72 7.49-7.45 13.97-11.06 21.01-2.44 4.87-5.92 9.27-7.43 14.56-10.46 8.32-22.71 13.95-34.17 20.71-6.74 3.66-13.51 7.26-20.06 11.26-5.29 2.02-10.96 2.5-16.53 3.17-6.65-1.02-13.47-.84-19.98-2.71-3.01-.27-5.96-.9-8.97-1.07-3.64.26-7.19 1.22-10.63 2.4-4 1.72-8.04 3.37-11.98 5.23-5.02 1.54-10.29 1.17-15.46 1.15-4.6-.16-8.6 2.41-12.56 4.37-4.98 2.92-10.98 1.26-16.44 1.65-.5 8.16 2.82 15.9 3.04 24.01.04 10.22.84 20.54-.59 30.69-1.13 4.94-2.28 9.87-3.63 14.76-.85 2.04-1.68 4.1-2.55 6.14-.11.45-.33 1.35-.45 1.79-.9 2.03-1.74 4.1-2.57 6.17-.1.47-.3 1.41-.4 1.88-2.79 7.39-6.97 14.14-9.93 21.46-1.49 3.42-2.99 6.85-4.83 10.11-5.44 8.78-9.43 18.38-14.87 27.16-2.45 3.73-7.42 2.81-11.22 2.9-1.52.09-4.01-.24-3.98-2.19 2.9-14.69 15.61-24.92 19.3-39.35 2.3-5.78 6.53-10.46 9.07-16.11 4.67-9.71 8.59-19.81 10.97-30.33 1.93-8.52 3.99-17.28 2.8-26.06-.01-6.57-.56-13.15-1.82-19.6-1.08-3.5-1.21-7.42-3.49-10.42-2.24-3.29-5.25-5.93-8.05-8.72-3.56-3.46-6.34-7.62-9.96-11.01-4.16-3.91-7.73-8.82-13.28-10.83-17.27-6.75-34.28-14.18-51.2-21.74-11.07-5.97-22.41-11.72-31.82-20.23-12.33-9.96-24.46-20.17-36.26-30.74-1.15.44-2.34.86-3.36 1.6 2.4 6.71 9.22 10.07 13.92 14.96 3.19 3.43 7.57 5.9 9.54 10.34 3.51 7.85 9.21 14.77 10.89 23.38.6 3.33 1.89 6.61 1.74 10.03-1.4 10.3-2.28 20.93-6.64 30.51-1.39 4.17-3.02 8.25-4.27 12.46-1.79 6.25-4.94 12.04-6.27 18.44-4.43 9.93-9.19 19.73-12.48 30.13-1.67 5.12-3.63 10.17-4.48 15.52-.41 2.63-1.39 5.11-2.6 7.48-1.01 4.08-1.82 8.28-3.99 11.96-1.07 3.33-2.07 6.68-2.9 10.09-1.72 6.29-3.77 12.57-4.19 19.14.93 4.1 4.82 6.53 7.88 9.06 9.15 7.66 21.01 11.92 28.56 21.49 2.25 2.77 1.93 6.95-.3 9.67l1.23.01h-5.78c-9.62-6.51-17.84-14.82-27.34-21.49-2.95-2.41-6.72-3.81-9.08-6.89-2.92-4-7.05-6.82-10.9-9.84-7.46-5.65-14.61-11.76-22.73-16.46-8.02-4.44-14.84-10.75-23-14.96-6.84-3.2-12.07-8.86-18.63-12.52-7.28-4.81-14.84-9.13-22.44-13.38-10.17-8.1-22.78-12.72-32.02-22.06-2.53-2.35-1.61-6.21-1.44-9.26 2.43-7.67 6.09-14.89 10.23-21.77 3.66-7.87 5.88-16.73 5.55-25.43-3.56-13-11.23-24.33-17.77-35.97-5.88-10.15-11.57-20.4-17.89-30.27-4.45-6.99-7.13-14.88-10.61-22.34-6.98-11.54-11.05-24.48-16.32-36.82-3.5-8.3-7.28-16.5-10.07-25.08-1.45-4.67-3.08-9.27-4.57-13.92-5.45-12.85-10.89-25.72-15.46-38.91-1.71-3.97-1.48-8.43-1.06-12.62 1.05-4.32 4.55-7.31 7.6-10.27 2.7-2.52 4.89-5.51 7.21-8.37-.01-2.27.25-4.6-.38-6.82-2.54-7.58-2.14-15.7-3.36-23.51-.71-5.33.15-10.71-.41-16.05-1.63-10.58-.49-21.32-.87-31.97-.39-5.91 1.22-11.65 2.29-17.39.32-1.04.63-2.07.94-3.1 2.25-6.09 8.5-9.51 10.78-15.57.06-5.1-2.57-9.89-2.03-15.04 1.01-8.63 6.23-15.96 11.72-22.39 3.59-4.69 8.57-8.55 10.46-14.35 2.68-8.39 3.39-17.26 6.08-25.64 2.66-8.89 10.26-14.83 17.64-19.77 3.05-1.89 6.58-3.14 8.96-5.95 3.82-3.51 3.98-9.6 8.43-12.58 6.28-3.87 12.74-7.44 19.44-10.54 2.54-1.34 6.14-2.56 6.27-5.97-.72-7.92-3.64-15.42-5.42-23.13-8.06-24.3-12.28-49.77-13.83-75.27-1.14-6.88-2.68-13.96-1.3-20.91 1.99-4.94 4.59-9.65 5.93-14.83 2.21-6.05 5.85-11.57 6.98-17.98.33-1.01.65-2.02.97-3.03 1.49-5.17 3.44-10.18 5.08-15.3 1.22-3.64 1.25-7.7 3.4-11 .17-.87.35-1.74.52-2.6 1.13-3.82 1.8-7.74 2.34-11.68 1.93-6.14 3.5-12.4 5.72-18.45.36-1.29.72-2.58 1.07-3.87.74-4.02.74-8.49 3.31-11.89 3.24-3.53 8.33-3.91 12.54-5.61 3.97-2.15 7.41-5.17 10.49-8.44 3.07-3.29 6.97-5.65 10.01-8.96 8.04-8.3 16.25-16.48 25.59-23.32 9.5-5.88 18.83-12.04 28.66-17.36 7.61-4.03 14.49-9.32 22.37-12.83 9.58-4.62 19.26-9.09 29.16-13.01 4.35-1.3 8.5-3.19 12.83-4.54 5.95-2.01 12.1-3.64 17.62-6.72 3.77-2.07 7.94-3.18 12.02-4.42 4.89-.85 10.01-.2 14.64-2.3 3.41-.56 6.83-1.23 10.3-1.26 6.74.01 13.31-1.72 20.03-2.03 3.05-.09 6.06-.61 9.02-1.33 12.57-2.1 25.7 1.35 38.04-2.66m-209.63 232.67c-1.34.27-2.64.69-3.99.87-.94.55-1.94.95-2.99 1.21-.46.13-1.39.38-1.85.51-1.05.3-2.08.64-3.09 1.05-2.27 1.12-4.54 2.23-6.94 3.02-.55.21-1.64.61-2.19.81-1.9.85-2.69 2.46-2.55 4.51 1.81 1.47 3.72 3.09 6.13 3.34 2.67.22 5.14-1.02 7.62-1.8.48-.09 1.44-.28 1.92-.37 1.34-.57 2.69-1.09 4.03-1.66.49-.08 1.48-.23 1.97-.31 2.24-1.03 4.37-2.28 6.37-3.72.26-1.46.53-2.91.79-4.36-.28-1.31-.55-2.61-.82-3.91-1.51.07-3 .26-4.41.81m-24.96 31.33c-.81.82-1.63 1.64-2.45 2.46 0 .53 0 1.59-.01 2.12 2.04 2.63 4.57 4.81 7.48 6.42 2.04-.02 4.18.27 6.08-.67 1.65-.55 3.31-1.08 4.98-1.55 1.64-.83 3.25-1.71 4.9-2.52 2.2-1.1 4.56-1.99 6.43-3.62.76-1.21-.66-2.69-1.87-2.6-8.51-.33-17.03.07-25.54-.04m-37.51 55.01c.05 1.88-.16 3.86.81 5.58.13.45.38 1.37.51 1.83.27 1.05.63 2.06 1.08 3.05 1.26 3.01 2.46 6.18 4.95 8.41 2.69.59 5.42.99 8.14 1.38 1.07.26 2.12.59 3.15.98 2.04 1.24 4.11 2.43 6.14 3.71 1.79-.45 3.59-.85 5.4-1.19-.18-1.85.01-3.97-1.42-5.39-5.22-5.35-8.63-12.2-14.1-17.34-1-.06-2-.12-3-.19-3.62-1.69-7.81-.52-11.66-.83m3.48 33.73c-.47.13-1.41.39-1.88.52-1.04.25-2.06.6-3.03 1.05-3.69 1.72-7.33 3.56-10.94 5.45-2.74 1.11-5.45 2.29-8.19 3.41-1.15.7-2.38 1.31-3.39 2.23-.4 2.09.82 3.96 2.25 5.35 3.99 4 8.01 7.99 12.02 11.98 5.96 6.53 10.43 14.21 15.85 21.17 5.09 6.68 9.52 13.86 12.7 21.64.1.47.29 1.41.39 1.88 1.65 3.59 2.63 7.43 4.11 11.09.33 1 .68 1.99 1.02 3 .85 2.67 1.58 5.37 2.45 8.04.15.95.29 1.91.43 2.88 1.41 2.53.2 5.58 1.47 8.16.28 1.35.53 2.74 1.16 4 .03.62.1 1.85.14 2.47.85 1.41 1.63 2.86 2.61 4.21 5.06-6.64 1.1-15.21 1.26-22.68-1.63-2.82-1.67-7.89 2.62-7.92 3.08-1.02 6.16-2.04 9.12-3.39 2.32-.66 4.63-1.34 6.95-2 2.04-.36 4.04-.88 6.02-1.45.95-.54 1.9-1.07 2.85-1.61 3.06-1.9 6.94-2.01 9.69-4.46-.07-1.08-.14-2.16-.21-3.23-1.64-2.36-2.02-5.18-2.07-7.98-1.63-4.06-3.39-8.08-5.04-12.13-1.21-2.27-2.39-4.56-3.5-6.87-.25-.5-.74-1.5-.99-1.99-1.34-2.81-3.02-5.43-4.58-8.11-4.85-7.97-10.55-15.65-17.74-21.67-6.03-4.39-11.59-9.57-18.48-12.61-.48-.1-1.43-.3-1.91-.4-4.16-1.31-8.98-1.2-13.16-.03m49.69 2.24c-.48 1.29-.96 2.59-1.43 3.9 5.03 2.41 10.82.76 15.9-.64.47-.1 1.41-.31 1.89-.42.62-.29 1.88-.86 2.51-1.14.01-.42.02-1.26.03-1.68-6.3-.01-12.6.02-18.9-.02m-4.21 8.79c1.78 3.57 4.64 6.5 8.59 7.54-1.32-3.58-4.63-7.15-8.59-7.54m11.62 6.88c5.19 1.56 10.61 1.51 15.98 1.3 1.2-.73 2.41-1.46 3.61-2.2-.49-.81-.96-1.62-1.43-2.43-.55-.35-1.67-1.05-2.22-1.4-5.42 1.02-11.16 1.84-15.94 4.73m6.19 12.37c-.01 2.81 2.62 3.67 4.73 4.71 1.33.66 2.65 1.33 4.01 1.95 1.37.73 2.72 1.51 4.1 2.26 3.27.53 6.42-.33 9.16-2.12.31-.6.93-1.79 1.24-2.39-.34-.35-1.01-1.03-1.34-1.38-.51-.06-1.53-.19-2.03-.25-6.44-1.77-13.18-2.94-19.87-2.78m-84.31 9.73c-.46.12-1.4.36-1.87.47-2.08.61-3.99 1.67-5.98 2.52-4.16 1.6-8.08 4.15-12.63 4.42-1.57.12-2.74 1.28-4.02 2.05 3.67 6.3 8.79 11.57 13.63 16.96 2.26.13 3.89-1.63 3.58-3.87 1.53-1.61 3.44-2.71 5.42-3.65 4.91-2.2 10.89-2.56 14.51-7.02-.02-.55-.04-1.64-.05-2.19-2.51-4.14-6.11-7.38-9.59-10.65-.97.41-1.97.73-3 .96m240.41 7.82c-1.19 3.29-4.32 5.42-7.8 5.47-3.64.58-5.21-3.53-7.93-5.12-.46.26-1.38.8-1.84 1.06.3 1.23.6 2.45.91 3.68 1.57 1.69 3.36 3.15 5.3 4.41 1.73-.1 3.57.05 5.14-.88.96-.12 1.93-.23 2.91-.31 3.05-1.13 5.24-3.4 6.44-6.4.03-1.95.06-3.9.03-5.85-1.96.46-3.27 1.86-3.16 3.94m-287.48.42c-1.06 2.53-2.68 5.09-2.31 7.96 1.96 4.07 4.45 8.73 9.22 9.89 2.03-.64 4.14-.89 6.26-1 2.35-1.1 4.62-2.42 6.56-4.16-.03-1.09-.06-2.17-.08-3.24-3.01-2.89-5.72-6.29-9.62-8.03-1.66-.38-3.38-.57-4.95-1.27-1.69-.11-3.39-.14-5.08-.15m234.14 24.05c-4.11 2.42-7.6 5.8-11.96 7.81-.49.1-1.46.3-1.94.4-6.3 1.13-12.17 3.67-18.06 6.1-2.28.86-4.6 1.75-7.08 1.75-1.15.85-2.64 1.45-2.76 3.11 1.66-.61 3.28-1.33 4.9-2.04 5.02-.38 10.07-1.05 14.91-2.46 1.03-.26 2.02-.61 2.98-1.06 4.24-1.54 8.16-3.76 12.09-5.95 1.65-.78 3.26-1.63 4.92-2.38 1.97-.64 3.72-1.74 5.46-2.81.03-.63.08-1.89.1-2.52-1.19.01-2.38.02-3.56.05m-226.93 15.79c-6.84 5.91-10.78 14.09-15.45 21.63-.07.5-.21 1.48-.28 1.97-2.21 2.73 1.36 6.46 4.15 6.63 6.35-1.52 13.37-.61 19.11-4.25-.05-1.44-.09-2.88-.13-4.32-.59-.98-1.18-1.96-1.76-2.94-.78-3.85-1.42-7.72-1.22-11.66-.33-2.78-.63-7.32-4.42-7.06m14.88 34.98c-4.31.04-8.46 1.42-12.78 1.35-2.88 1.67-6.46.12-9.41 1.69-2.35.11-4.76.02-6.98.92-3.64.41-7.3.95-10.84 1.94-1.72.27-3.44.58-5.15.97-1.28.3-2.55.62-3.82.96-5.17 1.19-9.97 3.75-13.47 7.79.04 1.32.09 2.64.15 3.97 1.11 2.18 1.92 4.49 2.63 6.84 2.29 5.67.77 11.88 1.33 17.8 2.04 14.19.11 28.6 1.24 42.84 1.51 4.96-.39 10.37 1.87 15.17.58-.04 1.72-.12 2.29-.15 13.71-7.16 24.32-18.67 36.79-27.62 3.66-3.22 8.97-5.2 10.76-10.06-.65-2.44-2.36-4.48-4.43-5.86-4.97-3.36-10.22-6.33-14.87-10.14-1.68-1.19-1.69-3.35-1.91-5.18.81-.02 2.44-.05 3.25-.07 5.58 3.68 11.17 7.46 17.46 9.84.47.1 1.42.31 1.89.42 2.18 1.26 4.75.67 7.14.77 5.04-2.72 7.9-7.81 10.7-12.57 2.42-3.76 4.17-8 7.12-11.38 3.79-1.54 4.55 3.1 2.92 5.51-.12 2.47-2.3 5.51.02 7.49.99-.59 2.05-1.04 3.16-1.34 10.71-7.45 21.95-14.15 32.31-22.07 2.93-2.68-.64-5.31-2.84-6.85-3.39-2.18-5.79-5.49-8.95-7.93-3.68-2.6-6.5-6.63-11.13-7.67-12.21-.9-24.51.46-36.45 2.62m88.13 19.26c-2.3 1.28-4.63 2.51-7.02 3.61-6.81 4.64-14 8.65-20.94 13.08-5.32 2.44-9.96 6.07-15.01 8.99-3.51 1.95-6.88 4.14-10.09 6.56-11.93 6.66-21.53 16.57-32.23 24.92-4.02 3.3-8.48 6.1-11.99 9.99-8.65 7.84-18.9 13.55-28.22 20.51-8.49 7.94-19.34 12.95-27.12 21.74-.25 3.91 1.37 7.53 2.77 11.09.33.97.65 1.94.97 2.93.49 1.77 1.27 3.44 2.17 5.05.08.48.24 1.45.32 1.93 2.19 4.18 3.83 8.63 5.53 13.03.82 2.87 2.05 5.63 3.85 8.03 1.68-3.65-.01-7.73.43-11.59-1.05-6.62-1.66-13.46-.24-20.09.79-3.1-.55-6.55 1.08-9.43.06-.5.19-1.49.25-1.99 2.21-3.76 5.37-7.1 9.48-8.73 1.36-.61 2.68-1.32 3.98-2.04 2.08-.66 3.95-1.83 6.04-2.46.48-.08 1.44-.23 1.92-.31 1-.6 1.99-1.2 2.99-1.78.5-.08 1.49-.22 1.99-.29 1.34-.53 2.69-1.03 4.05-1.5 1.01-.41 2.03-.77 3.06-1.08.47-.11 1.42-.33 1.89-.44 3.62-1.41 7.41-2.27 11.07-3.56.48-.12 1.42-.37 1.9-.49 1.04-.29 2.05-.65 3.03-1.1 7.84-1.93 15.3-5.1 23.05-7.31.99-.43 2-.8 3.03-1.11.47-.12 1.41-.36 1.89-.48 1.04-.31 2.06-.66 3.06-1.07 1.35-.48 2.7-.96 4.05-1.46.47-.11 1.43-.34 1.91-.46 2.65-.99 5.44-1.57 8.11-2.51.47-.12 1.4-.34 1.87-.45 1.36-.56 2.73-1.07 4.09-1.61.48-.1 1.44-.31 1.92-.42 3.43-.99 6.8-2.18 10.09-3.56.47-.12 1.43-.35 1.9-.47 5.43-1.12 11.11-3.72 13.28-9.21 1.04-2.03 2.71-3.59 4.44-5.02 1.91 1.76 3.21 4.02 4.36 6.33 2.76.39 5.6.36 8.35-.17 8.82-1.3 18.04-3.03 26.72.11.47.08 1.42.26 1.89.35.99.54 1.98 1.09 2.97 1.65 7.99 2.92 15.07 7.83 21.7 13.09 3.06 2.2 6.15 4.68 9.94 5.44-.03-1.62-.08-3.22-.11-4.83-1.98-4.25-5.52-7.32-8.36-10.94-7.41-8.36-14.55-16.98-21.67-25.61-6.95-7.96-13.73-16.2-22.14-22.72-4.76-4.89-10.24-9.09-16.35-12.14-1.97-.07-3.93-.07-5.9 0m39.75 2.95c-.86 1.07-1.57 2.25-2.29 3.43-.04 2.66-.08 5.34.1 8.01 1.75 2.37 3.46 4.8 5.62 6.82 5.82 5.27 10.29 11.77 15.43 17.66 2.42 3.31 5.16 6.53 8.91 8.39.19-3.09-.6-6.06-1.86-8.85-.11-.47-.32-1.43-.42-1.91-1.23-3.04-2.33-6.13-3.57-9.16-.12-.46-.36-1.38-.47-1.84-.28-1.05-.65-2.06-1.12-3.03-.78-2.45-1.98-4.73-2.76-7.17-2.14-4.27-6.24-6.91-10.28-9.13-2.5-.9-4.62-2.94-7.29-3.22m-10.11 57.95c.35 1.16.7 2.32 1.04 3.5.51.98 1 1.98 1.47 3 .42 1.04.8 2.09 1.14 3.17-.38.87-.77 1.76-1.15 2.65-5.17-1.36-8.48-6.01-13.19-8.29-3.77-.28-7.44.64-11.02 1.68-3.33.86-6.72 1.53-9.98 2.64-1.76.21-3.33 1.11-5.07 1.42-.47.12-1.42.36-1.89.48-3.38 1.33-6.85 2.42-10.1 4.05-2.06.73-3.95 1.85-6.01 2.57-.97.08-1.94.18-2.91.3-3.34 2.13-7.18 3.14-10.97 4.14-3.74 1.36-7.34 3.04-11.05 4.47-2.31.59-4.64 1.12-7 1.46-1.34.54-2.69 1.05-4.03 1.59-.48.11-1.43.33-1.9.44-1.06.26-2.06.66-3 1.22-1.81-.01-3.41.95-5.15 1.32-.95.14-1.89.29-2.83.45-1.75.44-3.43 1.11-5.18 1.54-.95.14-1.89.29-2.84.45-7.18 2.3-14.91 1.48-22.06 4.04-1.01.31-2 .69-2.95 1.14-1.04.18-2.04.49-3 .93-1.68.71-3.34 1.5-5.14 1.88-4.13 2.24-8.13 5.04-10.44 9.27 1.06 2.42 2.41 4.69 3.77 6.96.36 1.04.7 2.09 1.04 3.15 1.7 15.43 3.06 31.09 7.95 45.97.13.46.39 1.4.53 1.86.3 1.04.62 2.09.95 3.14.62 1.12 1.08 2.44 2.17 3.24 3.61 1.16 7.46 1.03 11.2 1.23 1.13 1.12 2.25 2.24 3.37 3.37.11 2.73-.41 5.61.72 8.21.25 1.32.63 2.62 1 3.93.54 1.98 1.11 3.95 1.64 5.93.21 1.76 1.17 3.32 1.41 5.09.13.47.4 1.42.53 1.89.69 2.33 1.46 4.65 2.02 7.03 1.13 4.38 3.07 8.52 3.99 12.97 1.02 2.67 2.12 5.32 3.06 8.04.56 1.71 1.2 3.4 1.94 5.05 1.45 3.29 2.85 6.6 3.97 10.02.54.98 1.09 1.96 1.64 2.94.08.49.23 1.47.31 1.96.66 1.71 1.36 3.4 2.06 5.1 1.77 3.38 3.11 7.04 5.59 10 .1.46.3 1.39.4 1.85 1.17 2.48.86 5.32.68 7.99-.71 2.91-4.32 3.24-6.54 1.82-.47-.09-1.41-.27-1.88-.36-6.69-2.49-10.71-8.95-12.63-15.51-.84-1.41-1.83-2.73-3-3.86.32 1.7.83 3.37 1.31 5.05.87 1.62 1.75 3.23 2.56 4.89 2.4 5 5.08 9.89 7.05 15.1.12.47.34 1.41.45 1.88 1.86 4.82-.44 10.31 1.98 15.07 1.99 3.22 3.79 6.57 5.5 9.96 3.48 7.43 10.19 14.18 9.31 22.94-.23.38-.69 1.13-.92 1.51-.22 3.3-.81 6.57-1.83 9.72-.14.46-.41 1.37-.54 1.83-.26 1.03-.6 2.03-1.04 3.01-.47.99-.94 1.99-1.41 3-1.22 2.35-2.37 4.75-3.51 7.15-1.8 2.92-3.66 5.82-5.05 8.97-1.38 2.45-2.63 5.02-3.06 7.84-.81 1.59-.67 3.39-.71 5.13 2.62 4.84 7.75 7.28 12.12 10.25 5.17 3.24 10.07 6.91 15.37 9.94 4.93 3.11 9.94 6.09 14.99 9.02 1.65 1.02 3.33 2 5 2.99 6.68 4.23 13.21 8.72 20.13 12.54 1.66.98 3.34 1.96 4.99 2.97 12.22 6.43 21.66 17 34.18 22.91 1.13-.69 2.16-1.53 3.09-2.46.29-1.1.59-2.19.92-3.26.11-.48.33-1.45.45-1.93.52-1.34 1.03-2.68 1.58-3.99.53-2.37 1.26-4.69 1.86-7.03.99-2.7 2.05-5.37 3.15-8.02.12-.47.35-1.42.47-1.89.87-2.65 1.25-5.42 1.93-8.11.88-1.65 1.78-3.29 2.51-5.01.42-1 .77-2.01 1.04-3.04.13-.46.38-1.39.51-1.85.27-1.05.65-2.05 1.14-3 .27-1.04.56-2.06.9-3.07 1.49-4.03 2.89-8.09 4.48-12.08.12-.47.36-1.4.49-1.87.27-1.05.62-2.07 1.05-3.04.49-1.36.96-2.72 1.49-4.04.09-.49.28-1.47.37-1.96.56-1.35 1.09-2.7 1.66-4.03.08-.49.26-1.47.34-1.96.57-1.35 1.09-2.7 1.65-4.03.11-.48.31-1.44.42-1.92.25-1.04.63-2.02 1.13-2.95.6-2.11 1.76-4 2.31-6.12.54-1.76 1.3-3.44 2.16-5.06.07-.48.22-1.46.29-1.94.53-1.01 1.07-2.01 1.61-3 .37-1.03.7-2.05 1.01-3.08.12-.47.35-1.4.46-1.87.92-1.93 1.62-3.94 2.13-6.01.39-1.14 1.42-2.99-.04-3.83-1.26-1.82-3.35.12-4.5 1.03-4.41 4.28-8.68 8.7-13.06 13.02-3.72 3.6-7.1 7.65-11.53 10.45-2.51 1.83-5.88 1.68-8.4 3.51-3.39 1.86-5.61 5.41-9.43 6.53-.81-1.77-1.19-3.88-2.78-5.15-3.04-.11-6.33-.7-9.17.66-1.71.22-3.5.21-5.04 1.08-1.6.1-3.19.18-4.78.32-4.68 1.64-10.09 1.92-14.69-.23 0-.67.02-2.03.03-2.71 1.67-1.3 3.53-2.32 5.54-3.02 1.4-.16 2.79-.39 4.09-.97 1.71-.21 3.49-.17 5.04-1.04 7.05-.56 14.02-1.86 20.92-3.39 2.22-1.13 4.53-2.22 6.33-3.98 8.74-8.67 16.92-17.98 26.5-25.75 2.64-2.33 4.71-5.48 8.12-6.77 4.12-2.9 8.05-6.07 11.51-9.74.22-3.74-.05-7.48-1.26-11.04-1.62-4.58-3.95-8.83-6.47-12.97-9.16-14.94-20.43-28.53-28.54-44.11-1.95-4.23-4.89-7.88-7-12.01-1.37-2.32-2.75-4.62-4.04-6.97-.77-1.66-1.6-3.28-2.45-4.88-1.92-3.86-3.43-7.91-4.55-12.07-.3-1.01-.66-2-1.08-2.94-.45-2.74-1.13-5.41-1.79-8.09-.31-.61-.94-1.83-1.25-2.44-1.68-.02-3.35-.01-5.01.03-3.49 1.89-7 4.34-11.17 4.03-.27-.67-.83-2.01-1.11-2.68.72-1 .87-2.47 2.12-2.99 3.3-2.05 6.65-4.07 10.21-5.63 2.96-1.64 5.88-3.92 7.06-7.2.48-3.07.89-6.15 1.5-9.19.72-.81 1.44-1.62 2.16-2.41 2.34-.01 4.69-.01 7.04-.02.37.25 1.11.75 1.48 1.01 5.91-.2 12 1.14 17.77-.67 1.35-.25 2.68-.6 3.96-1.09.48-.08 1.44-.26 1.92-.35 8.64-5.01 14.77-13.1 21.93-19.88 1.23-.01 2.45-.01 3.69 0-.23 1.68.16 3.64-1.01 5.06-3.62 5.47-8.84 9.64-12.09 15.4-.01 1.07-.02 2.15-.02 3.24 2.37 1.13 4.82 2.13 7.42 2.65 5.81 1.55 12.42 2.81 18.17.78 3.06.27 7.17-1.46 9.39 1.29.5 2.47-1.45 4.42-2.94 6.12.01.48.01 1.43.01 1.91 5.94 8.42 13.03 15.94 18.77 24.5 2.9 3.96 6.95 6.96 11.12 9.48.61-6.78-.3-13.56-1.64-20.2-1.51-6.53-1.38-13.33-3-19.81-.57-2.62-.9-5.29-1.6-7.88-.67-2.34-1.43-4.65-2-7-.25-1.06-.58-2.08-.99-3.07-.46-.98-.94-1.95-1.42-2.91-4.14-8.79-12.41-14.31-19.31-20.73-7.89-6.82-17-12.57-23-21.29.05-1.24.11-2.47.17-3.69 1.68.59 3.58.84 4.99 2.02 5.67 4.6 11.25 9.31 16.75 14.11 2.16 1.52 4.15 3.82 6.95 4 .23-1.46-.01-2.91-.48-4.28-2.19-6.41-5.33-12.44-8.72-18.28-8.45-10.58-20.79-16.7-31.62-24.43-3.52-2.44-6.71-5.37-10.58-7.24-5.1-2.34-9.04-6.47-13.97-9.1-2.67-1.31-5.56-2.18-8.12-3.71-1.12.13-2.18.47-3.16 1.03m260.27 67.66c-.99.39-1.99.72-3.01.98-.98.46-1.99.85-3.02 1.17-.48.09-1.43.26-1.9.35-.51.3-1.54.91-2.05 1.21-3.1 1.12-6.13 2.4-9.05 3.93-.49.25-1.49.76-1.98 1.01-5.06 2.84-11.09 3.99-15.38 8.1-.12 1.11-.2 2.22-.25 3.35 3.95.66 7.21 3.02 10.59 5.01 7.22 3.75 13.77 8.67 19.89 14 10.03 10.27 17.85 22.44 25.01 34.81 3.49 6.91 6.1 14.41 11 20.51 1.08-.04 2.16-.06 3.25-.08 1.46-1.51 2.94-2.99 4.46-4.43-.04-2.09.31-4.3-.82-6.18-.14-.94-.27-1.88-.38-2.81-2.21-5.89-5.73-11.15-9.64-16.02-.45-1.69-.93-3.36-1.36-5.03 2.05-1.93 3.97-4.11 6.61-5.25 6.82-4.04 13.73-7.93 21.06-10.98 2.21-.72 4.42-1.47 6.57-2.38.49-3.64-1.14-7.72 1.04-10.94 4.35 1.62 7.8 4.84 10.38 8.64 2.59 2.93 4.69 6.24 6.23 9.84 2.19 3.88 3.66 8.1 5.53 12.14 1.61 2.84 2.78 5.91 4.01 8.95 1.24 2.97 2.36 5.99 3.55 8.99.1.49.31 1.46.41 1.95.33 1.02.73 2.02 1.21 2.99.8 3.35 1.33 6.77 2.25 10.1.26 1.34.68 2.67 1 4.02.25 1.35.62 2.68 1.07 3.99.23 1.68.32 3.43 1.03 5.02.16 1.69.22 3.42.97 5 .35 3.37 1.09 6.67 1.82 9.97.52 1.28 1.12 2.51 1.71 3.78.43-.41 1.3-1.22 1.73-1.63.45-8.91-2.12-17.62-3.74-26.29-.12-.47-.37-1.42-.49-1.89-.33-1.02-.7-2.02-1.13-2.98-.6-2.35-1.25-4.68-1.94-6.99-.91-2.67-1.72-5.37-2.35-8.11-.32-1.37-.7-2.7-1.08-4.04-.13-.46-.39-1.39-.53-1.86-.8-2.3-1.5-4.62-2.06-6.98-1.01-2.05-.67-4.37-.71-6.56 5.2-.19 10.41.2 15.6-.1.36-.32 1.08-.97 1.44-1.3-1.2-4.95-5.53-8.29-8.56-12.16-2.43-3.21-5.81-5.46-8.73-8.17-5.88-5.3-13.2-8.45-20.15-12.02-1.06-.51-2.1-1.02-3.14-1.52-2.73-1.6-5.68-2.84-8.87-3.02-3.95-1.11-8.04-2.22-11.22-4.94-5.7-4.73-12.08-8.6-18.87-11.55-3.51-.95-7.02-1.92-10.48-3.02-1.57-.17-3.15-.29-4.57-.98-4.01-.64-8.09-1.26-11.96.4m-48.06 31.48c-3.07 1.42-4.56 4.54-6.19 7.3-3.7 5.38-2.66 12.55 1.87 17.09.12 3.35-1.61 6.4-3.84 8.78-3.65 3.65-7.11 7.61-11.76 10.03-1.65.78-3.28 1.62-4.93 2.4-2.36.92-4.46 2.34-6.02 4.37 5.89 5.25 12.79 9.34 18.21 15.14 3.73 4.09 8.04 7.63 12.67 10.66 2.72.76 5.51 1.21 8.34 1.26.92-1.61 1.81-3.24 2.65-4.89 3.12-1.84 6.94-.89 10.18-2.43 3.28-1.9 5.28-5.13 7.78-7.86.55.01 1.67.04 2.23.06 5.3-3.65 7.86-9.99 12.86-14.03.52.01 1.56.04 2.07.05 2.8 3.04 6.52 4.89 10.03 6.96 1-.01 2.01-.04 3.03-.09 2.12-1.03 1.27-3.49 1.33-5.33-.39-1.02-.81-2.03-1.24-3.02-1.35-2.37-2.75-4.7-3.92-7.15-2.49-4.44-5.81-8.33-8.56-12.59-8.31-8.45-16.39-17.42-26.6-23.61-2.49-.69-4.85-1.73-7.09-2.99-4.22-1.58-8.86-1.69-13.1-.11m-154.04 20.85c-.69 1.57-1.47 3.1-2.25 4.63-.17 2.94-.18 5.89.03 8.84 1.2 4.98 3.61 9.6 7.13 13.34 16.36 16.28 32.26 33.9 53.29 44.23 1.55-.19 3.39.32 4.65-.84 4.43-3.84 8.01-8.64 12.87-12 4.86-3.81 10.65-6.16 16.49-8.01 3.65-.03 7.51-.8 11.02.52 2.45.48 4.79 1.39 7.01 2.54 5.72 3 10.66 7.24 15.05 11.94 2.7 1.84 5.13 4.03 6.04 7.31 2.48 5.87 7.99 10.4 8.62 16.98.74 2.66 1.25 5.38 1.97 8.05.77 2.3 1.49 4.63 1.85 7.04.87 1.45 1.8 2.87 2.9 4.18 3.87-1.35 7.83-2.45 11.64-3.98 2.49-2.16 1.55-6.48.58-9.29-.12-.46-.35-1.38-.47-1.84-2.93-7.42-6.49-14.59-11.05-21.15-9.73-17.45-24.76-31.57-42.16-41.23-.53-.28-1.58-.84-2.11-1.12-.53-.03-1.58-.08-2.11-.11-.46-.57-1.39-1.7-1.86-2.27-2.92 2.61-6.34 4.49-9.93 6.03-2 .91-4.03 1.76-6.11 2.47-.5.27-1.49.82-1.98 1.09-3.22 1.59-6.57 2.84-9.95 4.02-2.66 1.03-5.34 2-7.97 3.09-1.35.2-2.66.58-3.97.92-1.59.59-3.29.74-4.96.88-2.5 1.31-5.58 1.07-8.16.13-1.67-.57-3.34-1.11-5.03-1.6-7.17-4.48-11.93-11.66-17.18-18.09-5.59-8.31-12.05-16.02-17.18-24.66-1.1-2.81-4.36-1.87-6.71-2.04m48.72 2.46c-.34 2.58-.23 5.27.57 7.78 2.29 7.6 2.06 15.58 3.49 23.33.6.84 1.2 1.68 1.8 2.53 1.49-.07 2.99-.12 4.48-.21 3.11-1.02 6.24-2.01 9.16-3.52.96-.45 1.96-.82 2.99-1.1.48-.09 1.43-.29 1.91-.39 1.35-.58 2.71-1.12 4.07-1.67.49-.08 1.47-.22 1.97-.29.96-.55 1.92-1.1 2.89-1.63 1.58-.76 3.43-1.28 4.41-2.86-4.73-4.85-10.46-8.67-16.24-12.14-5.05-1.75-8.28-6.4-13.1-8.53-1.76-.81-3.44-1.78-5.09-2.77-1.27.01-2.66.17-3.31 1.47m156.25 136.54c-.43.52-1.3 1.55-1.73 2.07 5.88 2.24 12.22 2.1 18.41 1.96-.01-.41-.03-1.24-.03-1.65-.64-.31-1.9-.92-2.53-1.23-4.78.29-9.35-1.56-14.12-1.15m-85.44 12.88c.02.69.07 2.09.1 2.78 1.5 1.82 3.44 3.18 5.48 4.35 2.7 0 5.41.2 8.1-.06 2.11-1.11 1.27-3.64 1.53-5.54-1.36-1.13-2.48-2.72-4.23-3.22-3.72-.4-7.81-.67-10.98 1.69z"/><path d="m505.26 42.97c1.09.01 2.18.03 3.28.04 4.2 2.16 6.95 6.12 10.89 8.64 15.05 10.72 29.59 22.24 42.4 35.58 2.77 2.86 5.92 5.53 7.48 9.31 1.1 2.27 2.17 4.55 2.97 6.95.47.98.96 1.96 1.48 2.93 1.48 2.94 2.57 6.05 3.9 9.06.3.52.91 1.56 1.22 2.08.06.47.19 1.42.25 1.89.87 1.67 1.82 3.31 2.63 5.01 1.31 3.77 2.67 7.55 4.53 11.09.8 1.6 1.48 3.27 1.95 5.01.53 1 1.07 2 1.63 2.99.06.5.16 1.5.21 2 .61.97 1.22 1.94 1.84 2.92.04.51.13 1.53.17 2.05.58.99 1.18 1.99 1.79 2.99.08.47.26 1.43.35 1.91.52 1.28.83 2.63 1.1 3.99 1.76 8.51 3.6 17.06 4.79 25.67.19.38.57 1.16.76 1.54.24 5.21 2.44 10.16 2.12 15.41-.41 4.4 1.53 8.59 1.01 13-.6 5.08 1.27 9.96 1.01 15.02-.09 1.34.35 2.63.85 3.85.09 1.82.16 3.64.28 5.46 1.31 2.24.38 5 1.63 7.27.14.92.29 1.86.44 2.8 1.64 3.94 1.25 8.34 2.64 12.33.06 1.27.11 2.55.15 3.83 1 1.56 2.11 3.04 3.33 4.44 2.44.04 5.07-.53 7.3.78.49.05 1.49.16 1.98.22 2.94 2.5 4.62 5.99 6.18 9.44 1.54 3.62.96 7.62 1.91 11.38.99 6.32-.62 12.84.99 19.09.77 3.64-.17 7.4.58 11.04 1.15 4.93.83 10.09.53 15.1-1.34 5.19-.77 10.59-.68 15.88 1.51 5.69 1.77 11.7 3.18 17.45.57 1.62.73 3.33.95 5.02 2.21 8.66 3.3 17.64 3.98 26.51.16.46.48 1.38.64 1.84.12 2.71.11 5.43.25 8.15 1.78 3.65.2 7.84 1.22 11.66 1 3.39.58 6.93.62 10.41-.07 2.72.96 5.33 1.04 8.05.18 3.79-.47 7.65.46 11.39 1.1 3.9-.02 8.02 1.03 11.94 1.26 5.24-.25 10.69.99 15.94 1.26 4.98-.26 10.18 1.04 15.15.85 3.05-.09 6.41 1.35 9.31.29 18.53.02 37.07.14 55.6-.25.39-.73 1.16-.98 1.55.26 3.84-.93 7.54-1.3 11.34-1.15 5.11-1.77 10.35-3.47 15.32-.13.46-.39 1.39-.52 1.86-.98 2.57-1.6 5.26-2.06 7.99-.28 1.76-1.08 3.38-1.43 5.14-.13.46-.39 1.39-.53 1.86-.7 2.33-1.4 4.67-2.04 7.03-.42 1.28-.76 2.59-1.02 3.93-.91 2.3-.35 4.9-1.37 7.17-.6 4.14-1.97 8.1-3.62 11.93-1.42 3.23-2.22 6.67-3.4 9.98-.5 2-1.04 4-1.52 6.02-1.03 2.74-2.15 5.47-3.61 8.02-.07.49-.21 1.48-.28 1.97-3.47 7.65-10.74 13.54-12.04 22.11-3.33 3.56-6.9 6.89-10.28 10.4-1.2-.01-2.39-.01-3.57 0 .01-1.83.03-3.65.1-5.47 1.14-1.99 2.24-4 3.17-6.1.49-.96.99-1.91 1.5-2.85 1.49-2.98 2.82-6.05 4.04-9.14.11-.47.31-1.42.41-1.9 1.24-3.01 2.44-6.03 3.44-9.12.46-.97.83-1.97 1.12-2.99.12-.47.34-1.42.46-1.89.5-1.35.98-2.7 1.46-4.05.4-1.01.76-2.03 1.06-3.07.13-.46.39-1.38.52-1.85.44-1.31.81-2.64 1.07-3.99.88-2.96 1.19-6.04 1.99-9.02.38-1.32.76-2.65 1.01-3.99.57-2.4 1.41-4.71 1.8-7.15 1.87-3.89 5.96-6.01 7.86-9.9-.24-7.14.67-14.38-.74-21.44-.88-6.06.6-12.29-.94-18.27-.82-4.04.27-8.23-.84-12.23-1.11-3.71.39-7.8-1.36-11.34-.35-2.93.56-6.14-.94-8.82-.12-1.29-.24-2.56-.36-3.82-1.75-4.95-1.45-10.33-2.54-15.42-.43-2.17-.29-4.39-.4-6.58-1.36-2.09-.76-4.67-1.02-7-1.72-5.66-1.48-11.78-2.77-17.57-.21-5.73-.34-12.25 3.14-17.11 1.11.03 2.23.06 3.36.1.8.8 1.6 1.6 2.42 2.4 0 3.28.04 6.55-.1 9.83-1.43 2.06-.24 4.45-.05 6.68.23 1.89-.05 3.92.95 5.65.32 6 2.11 11.8 2.4 17.8 1.25 2.26.54 4.93 1.15 7.36 1.05 3.74.23 7.68 1.27 11.43.89 3.68-.18 7.55.94 11.2.81 3.09-.04 6.42 1.25 9.42-.1 4.14 1.95 8.16.93 12.29-.87 3.43-.83 6.99-.74 10.51.43.42 1.31 1.27 1.75 1.7 2.94-4.96 2.73-10.96 3.57-16.49.86-3.89.51-7.93 1.61-11.78.02-3.7.07-7.4 1-11.01-.04-6.26.67-12.65-.69-18.82-.7-4.38.33-8.89-.77-13.23-1.21-5.05.3-10.32-1-15.35-1.12-3.72.38-7.81-1.35-11.38-.24-2.6.35-5.42-.95-7.82-.12-4.06-.8-8.09-1.89-12-.28-1.75-.51-3.52-1.11-5.19-.03-4.8-1.69-9.42-1.19-14.25-.32-8.27.88-16.69-.9-24.84-.55-7.33.78-14.81-.9-22.04-.76-4.92.7-10.05-.93-14.85-.26-3-1.03-5.9-1.87-8.78-.45-.97-.81-1.97-1.08-3-.7-3.36-1.95-6.57-2.59-9.93-.61-2.44-1.61-4.74-2.48-7.08-.11-.46-.32-1.38-.43-1.84-.82-2.08-1.98-4.01-2.58-6.16-.1-.47-.31-1.4-.42-1.87-1.98-4.19-3.25-8.66-4.38-13.13-.51-.97-.9-1.97-1.19-3.02-.11-.47-.33-1.42-.44-1.9-.38-1.01-.76-2.02-1.16-3.01-.27-1.74-1.01-3.35-1.35-5.06-.14-.47-.42-1.41-.56-1.88-.37-1.34-.78-2.66-1.05-4.01-.85-1.77-.69-3.75-.71-5.65-.23-.38-.68-1.15-.9-1.53-.05-1.68.03-3.42-.75-4.97-.24-1.36-.59-2.7-1.04-4-.13-.46-.4-1.39-.54-1.85-.81-2.71-1.45-5.48-2.48-8.12-.13-.47-.37-1.41-.49-1.88-.28-1.06-.68-2.06-1.19-3.01-.61-2.75-1.53-5.41-2.28-8.11-.31-2.44-.91-4.83-2.08-7-.11-.45-.34-1.36-.45-1.82-.79-2-1.54-4.02-2.1-6.09-.23-1.05-.55-2.07-.97-3.05-2.08-4.91-5.37-9.17-7.55-14.02-.06-.5-.17-1.5-.23-2-.61-.98-1.22-1.96-1.82-2.93-.06-.49-.2-1.48-.27-1.98-1.43-2.87-2.21-5.98-3.16-9.03-.31-1.18-.64-2.35-.97-3.51-.83-3.87-2.08-7.63-3.03-11.47-.32-1.33-.74-2.63-1-3.97-.36-1.33-.73-2.65-.98-4-.74-2-.59-4.2-1.43-6.16-.21-1.67-.33-3.36-.9-4.94-1.55-4.63-2.51-9.43-4.08-14.05-.13-.47-.4-1.41-.53-1.88-.28-1.78-1.17-3.37-1.51-5.13-.09-.47-.27-1.43-.37-1.91-.53-.98-1.07-1.96-1.61-2.92-.97-2.04-1.99-4.04-2.98-6.07-.49-1.37-.97-2.75-1.44-4.12-.88-1.6-1.77-3.19-2.6-4.81-1.8-3.84-3.3-7.81-5.25-11.57-1.28-2.26-.96-4.91-1.01-7.38 2.96 3.59 7.92 5.32 9.77 9.79.59 1.07 1.18 2.15 1.79 3.22 1.57-2.8 1.52-6.01 1.59-9.12 1.21-2.36 2.55-4.66 3.71-7.05.1-.47.29-1.41.39-1.89 1.92-2.68-1.08-5.34-1.48-8.08-.55-1.01-1.09-2.01-1.62-3.02-.06-.48-.18-1.45-.24-1.94-.55-1-1.1-2-1.64-3.01-.4-1.75-1.18-3.39-1.9-5.02-.93-1.69-1.77-3.43-2.97-4.94-1.13 1.57-2.28 3.13-3.22 4.82-1.13 3.43-2.59 6.74-3.89 10.1-1.98 5.18-1.2 10.6-.1 15.85-2.59-.85-4.95-2.46-7.75-2.5-3.21-1.75-5.81-4.44-8.05-7.28-1.27-3.69.36-7.54 1.23-11.14.5-.96.89-1.96 1.16-3 .13-.47.38-1.41.51-1.88.88-2.62 1.7-5.28 1.83-8.06-2.73 2.24-3.2 5.9-4.3 9.04-.56.85-1.1 1.69-1.64 2.54-.82-.02-2.44-.07-3.26-.1-.05-2.67.4-5.31 1.95-7.55.08-.47.24-1.42.31-1.9 1.43-2.71 2.8-5.45 4.12-8.22.75-.41 1.5-.82 2.26-1.24.98.78 2.57 3.19 3.74 1.24 1.19-.91.54-2.57.8-3.83-2.74-5.36-8.4-7.73-13.51-10.2-1.71-.84-3.42-1.7-5.1-2.6-1.93-.82-3.92-1.53-5.98-1.92-.54-.26-1.62-.76-2.16-1.02-1.9-3.78-4.2-7.35-6.03-11.17-2.15-3.76-4.26-7.58-5.13-11.88.36-.9.73-1.81 1.1-2.71m108.75 235.17c-2.94 2.54-1.89 6.52-1.12 9.76.09 8.85 1.85 17.59 3.83 26.2.38 3.48.32 7.04 1.54 10.39.78 1.62 1.43 3.3 2.06 4.99.69 1.69 1.49 3.34 1.99 5.11.67.86 1.36 1.71 2.05 2.57.45-.41 1.33-1.23 1.77-1.63-.13-3.57-1.29-7.01-1.17-10.58-.04-3.68.43-7.43-.49-11.04-.88-3.26-.26-6.64-.52-9.95-1.48-7.46-1.08-15.2-3.06-22.58-.89-1.36-1.97-2.55-3.3-3.48-1.21.04-2.4.12-3.58.24z"/><path d="m430.03 77.86c5.03.09 8.39 4.66 10.73 8.58 2.15 4.04 5.48 7.54 6.48 12.11.54.98 1.09 1.96 1.64 2.94.07.5.21 1.49.27 1.99.58 1.34 1.11 2.69 1.67 4.04.1.48.29 1.45.38 1.94 1.79 3.51 2.37 7.42 3.64 11.12.07 1.04.14 2.08.21 3.13-.6.35-1.8 1.06-2.41 1.42-4.52-2.29-7.02-6.8-10.29-10.44-.19 1.8-1.84 4.57-3.84 2.75-6.29-4.25-9.22-11.71-13.29-17.84-.81-1.74-1.63-3.46-2.49-5.17-.49-.96-.98-1.92-1.45-2.89-.49-1.2-.93-2.41-1.35-3.62 1.18-.44 2.38-.84 3.6-1.17 5.25 5.74 9.64 12.2 13.76 18.78 1 2.13 2.24 4.14 3.77 5.94.01-1.39-.22-2.74-.72-4.03-.87-2.98-1.73-5.95-2.57-8.94-.27-.5-.82-1.52-1.09-2.03-.84-2.4-1.84-4.74-2.93-7.03-1.41-2.59-2.38-5.38-3.64-8.03-.04-1.19-.06-2.37-.08-3.55z"/><path d="m403.19 84.74c5.56 3.66 9.99 8.79 14.11 13.96 3.19 3.19 5.7 6.97 7.97 10.86 1.56 2.58 3.16 5.15 4.51 7.85 1.38 2.68 2.39 5.55 2.35 8.6-.67 0-2.01-.01-2.68-.01-3.67-3.11-6.99-6.63-9.94-10.41-5.37-8.96-10.86-17.86-16.75-26.5-1.35-1.38-.48-3 .43-4.35z"/><path d="m333.97 101.92c-.19-3 3.69-1.57 5.55-1.94 2.64 1.81 5.29 3.61 8.01 5.3 3.03 1.59 5.77 3.64 8.48 5.71 3.45 2.63 7.64 4.22 10.76 7.29 2.11 2.09 4.57 3.78 6.8 5.75 4.05 1.21 4.53-3.93 7.85-4.97.52-.06 1.55-.18 2.07-.24 1.02-.35 2.05-.69 3.09-1.01 1.86-.91 3.44-2.24 4.89-3.69 4.08.32 8.29-2.5 12.16-.35.47.1 1.4.29 1.86.39 1.65.84 3.26 1.76 4.95 2.54 6.69 3.15 12.02 8.66 14.78 15.55-.76 1.16-1.3 2.51-2.35 3.44-3.43 2.19-7.66 1.07-11.47 1.3-.44.47-1.3 1.41-1.74 1.88-4.53 1.56-9.38 1.23-14.08.98-3.37-.98-6.95-1.76-9.06-4.85-1.76 1.24-3.47 2.55-5.07 3.99-1.63-.01-3.26-.05-4.89-.09-6.95-2.64-12.73-7.46-18.59-11.9-4.15-3.02-7.18-7.27-11.25-10.39-3.67-2.73-6.72-6.15-9.97-9.34-1.37-1.45-3.01-3.2-2.78-5.35z"/><path d="m559.11 191.38c.73-1.57 2.48-1.39 3.91-1.54 2.53 2.73 4 6.09 4.7 9.71.71 3.67.9 7.45 2 11.04.54 3.36.89 6.78 2.03 10.02.17 1.67.32 3.37.92 4.97.25 1.35.65 2.66 1.01 3.99.27 1.37.5 2.77 1.15 4.03.05.64.14 1.91.19 2.55.25.36.76 1.1 1.01 1.47-.02.85-.04 2.57-.05 3.42.28.4.84 1.19 1.12 1.59 0 2.62-.18 5.26-1.28 7.67-3.46-.37-5.38-3.57-7.74-5.71-.49-4.73-.76-9.57-1.82-14.16-1.07-6.71-2.29-13.43-4-20-.13-.47-.38-1.41-.5-1.88-.29-1.04-.68-2.04-1.18-3-1.14-4.63-2.16-9.38-1.47-14.17z"/><path d="m560.53 240.92c2.3-.19 4.14 1.14 5.89 2.45-.34 1.64-1.62 2.65-2.8 3.7-2.04-.08-4.07-.11-6.09-.14-.63-.32-1.89-.95-2.52-1.27-.01-.66-.02-1.98-.03-2.63.63-.02 1.9-.05 2.54-.06.99-.69 2-1.37 3.01-2.05z"/><path d="m559.53 269.06c2.53-.07 5.06-.11 7.6-.06 1.47 1.37 2.95 2.72 4.4 4.11 1.4-.18 2.96-.04 4.09-1.09 2.08-.07 4.22.15 5.98 1.38 7.06 4.53 14.25 10.01 17.32 18.13-.22 4.28 1.04 8.93-.97 12.92-3.58-1.84-5.7-5.57-9.38-7.22-2.68-1.34-5.38-2.64-8.05-3.99-3.01-.88-6.22-1.85-9.13-.15-1.27.88-2.57 1.7-3.86 2.51-2.08.79-4.14 1.61-6.1 2.64-4.02 2.06-7.98 4.22-11.88 6.49-7.29 4.11-14.05 9.06-21.1 13.53-5.87 3.02-11.19 6.94-16.99 10.06-2.61 1.28-5.24 2.52-8 3.43-2.88.29-5.53 1.5-8.32 2.15-2.9.24-5.8.1-8.7.09-1.14-1.16-2.29-2.3-3.44-3.44-.02-2.67-.01-5.35.06-8.02 2.64-6.09 7.33-10.87 11.31-16.08 3.86-4.82 7.55-10.14 13.06-13.22 1.03-.38 2.08-.72 3.14-1.03.97-.12 1.94-.24 2.92-.34 4.19-2.09 8.05-4.74 12.06-7.14.97-.56 1.95-1.11 2.95-1.63 4.79.9 8.47-2.21 11.99-4.9 2.63-.66 5.3-1.13 8.01-1.35 3.48-2.85 6.92-5.84 11.03-7.78z"/><path d="m543.44 324.7c2.35-1.14 5.03-.63 7.55-.71 4.69.24 9.64-.8 14.05 1.28-.04.66-.12 1.97-.17 2.63-6.08.27-12.18-.1-18.26.23-1.91 1.11-4.25.68-6.2 1.68-1.28.13-2.55.24-3.81.38-1.54.87-3.32.85-5.02 1.04-1.17.4-2.36.74-3.56 1.03 0-.48-.01-1.45-.01-1.94 2.19-.93 4.34-1.94 6.46-3.03 2.93-1.06 5.88-2.11 8.97-2.59z"/><path d="m513.5 334.23c3.57-.76 7.17-1.54 10.85-1.25-5.44 4.37-11.24 8.23-16.94 12.23-4.6 4.64-9.49 9-14.83 12.79-1.28 0-2.55.01-3.81.02 3.07-6.67 9.11-11.06 13.99-16.31 2.23-2.44 4.79-4.58 7.8-6.01.97-.5 1.95-.99 2.94-1.47z"/><path d="m541.41 335.68c2.76-1.05 5.74-.57 8.62-.75 5.51-.34 11.14-.26 16.48 1.32 4.62 1.38 8.8 4.09 11.94 7.75 1.66 0 3.33-.03 5.01-.09 4.71-2.14 9.56-7 15.05-4.27 2.89.99 2.38 4.5 2.57 6.91-1.29 2.3-3.26 4.02-5.6 5.19-.99.37-2 .69-3.01.95-3.84 1.39-7.93 1.5-11.96 1.28-3.24-2.42-6.3-5.14-10-6.83-.49-.08-1.47-.23-1.95-.3-2.81-1.39-5.69-2.63-8.58-3.83-2.24-.49-3.78 1.39-5.21 2.77 1.64 2.65 1.79 5.74 1.06 8.71-.35 1.02-.72 2.03-1.12 3.03-1.7 3.41-4.77 5.66-8.13 7.26-1.8.5-3.51 1.23-5.15 2.11-3.87.1-8.25.91-11.46-1.83-3.24-2.65-6.18-5.67-9.62-8.09-1.63.06-3.27-.11-4.85.25-5.51 4.37-7.35 12.31-13.97 15.46-1.35.35-2.68.7-4.02 1.04-.72-.29-2.16-.87-2.89-1.15 1.8-3.08 4.84-5.14 6.8-8.09 3.81-4.88 7.01-10.36 11.99-14.17 7.39-5.56 15.22-10.65 23.98-13.76 1.34-.23 2.67-.58 4.02-.87m5.1 10.83c-2.68 2.35-.26 6.66-3.26 8.74-4.3 3.67-10.02.29-13.95-2.26-.51.81-1.02 1.62-1.53 2.42 1.43 2.27 3.26 4.28 5.68 5.53.48.06 1.45.17 1.94.23 1.05.93 2.13.93 3.23.01.49-.06 1.46-.18 1.95-.24 3.58-2.17 7.64-5.37 7.49-10 .2-1.68-.86-3.03-1.55-4.43z"/><path d="m471.38 342.97c.66.01 1.97.03 2.63.04-.02 1.17-.04 2.34-.05 3.52-.63.97-1.25 1.94-1.88 2.92-.06.5-.17 1.52-.23 2.03-.58 1.34-1.11 2.69-1.7 4.03-.07.5-.23 1.49-.3 1.98-.6 1.29-1.13 2.61-1.62 3.95 1.32 3.36 2.65 6.73 4.05 10.06 1.86 3.9 3.41 7.92 4.58 12.08.17 2.46.16 4.93.15 7.4-1.24.02-2.47.04-3.7.08-1.16-1.42-2.25-2.89-3.21-4.44-.99-4.08-1.97-8.16-3.37-12.11-.67-2.12-1.75-4.06-2.63-6.08-.75-6.19.25-12.29 2.69-18 .07-.5.2-1.5.27-2 1.2-2 2.69-3.8 4.32-5.46z"/><path d="m403.61 355.12c1.95-.12 3.91-.11 5.87-.08 3.27 1.72 6.27 3.9 9.1 6.29 5.05 4.34 10.64 8.01 15.66 12.39 2.73 2.29 3.91 5.76 5.59 8.79.1.48.31 1.43.42 1.91.32 1.75 1.24 3.33 1.41 5.13 1.08 3.96 2.01 7.97 3.02 11.96.59 1.98 1.13 3.97 1.56 6 1.43 3 2.96 5.96 4.48 8.92.68 1.33 1.35 2.66 1.99 4.02 1.25 2.34 2.35 4.75 3.57 7.12.98 2 2.04 3.97 2.97 6 .82 1.71 1.78 3.35 2.68 5.03.3 9.01-.71 18.24 1.85 26.99.09.48.27 1.44.36 1.91.51.98 1.04 1.96 1.57 2.94 2.66 5.06 6.6 9.27 10.06 13.78 3.1 3.87 7.24 6.62 11.74 8.6 1.72.17 3.54.14 5.1 1.06 3.78.29 7.58-.12 11.36.25 1.22.86 1.27 2.75 2.01 4.02-.44 1.12-.85 2.25-1.23 3.4-2.98 6.7-8.45 11.79-12.4 17.88-1.53 2.46-3.66 4.44-5.73 6.43-6.21 1.96-12.79 1.24-19.04-.15-4.9-1.76-10.37-.98-15.19-2.58-6.33-.47-12.8.63-18.97-1.28-6.59-3.64-11.89-9.25-16.19-15.35-2.09-6.67-.94-13.7-1.25-20.56-.21-3.54.21-7.06 1.26-10.45.26-.63.79-1.89 1.06-2.52 2.12-.03 4.26-.04 6.39-.04 1.16 1.43 2.27 2.9 3.22 4.48.05 1.9.12 3.85.97 5.6.69 4.66-1.05 9.78 1.23 14.11.6-.05 1.8-.16 2.4-.22 6.97-4.56 14.79-7.74 23.02-9.12 2.62-.62 5.45-1.96 4.44-5.19-3.19-4.2-6.07-8.63-8.92-13.06-.04-1.35-.07-2.69-.09-4.03-.8-1.53-1.68-3.02-2.99-4.16-.65.21-1.95.64-2.61.85-2.09 2.17-4.5 3.97-6.91 5.75-1.01.02-2.01.04-3.01.07-2.6-2.72-5.33-5.32-7.89-8.08-2.27-.11-4.6.08-6.12 2.01-1.69.04-3.37.06-5.05.09-3.58-3.48-6.63-8-6.63-13.18 0-4.21.64-8.48 2.12-12.43.18-2.99.14-5.99.13-8.97-.82-.82-1.63-1.63-2.43-2.45-.56 0-1.66 0-2.21.01-1.33-1.49-2.8-3-3.26-5.01-.57-2.9.51-5.75 1.1-8.55.53-.96 1.06-1.93 1.59-2.89.92-2.36 1.87-4.7 2.96-6.99 1.01-2.37 2.18-4.68 3.04-7.11.11-.48.34-1.42.45-1.89 1.2-2.2.68-4.78.8-7.17-2.11-2.41-4.43-4.65-7.03-6.51-2.03-1.44-4.59-1.78-6.67-3.07-2.8-2.19-3.36-5.9-5.08-8.81-1.81-2.18-3.86-4.16-5.49-6.48 1.78-1.9 4.15-2.86 6.77-2.68.96-.56 1.93-1.11 2.91-1.66 1.41-.22 2.87-.36 4.16-1.07m52.83 141.44c-1.51.44-2.86 1.21-3.96 2.35 2.66.1 5.39.34 8.02-.27 1.53-.49 3.63-.59 3.84-2.6-2.64-.06-5.35-.33-7.9.52z"/><path d="m132.45 360.2c4.28-2.2 8.94-.24 13.05 1.42 5.73 3.71 11.67 7.49 15.8 13.06 5.65 5.93 11.3 12.2 14.51 19.84.36 1.34.21 2.74.29 4.12-1.24.5-2.48 1.03-3.73 1.52-3.12 1.51-5.14 4.39-7.74 6.56-2.7 1.43-5.61 2.46-8.15 4.21-1.7.04-3.4.08-5.1.12-4.05-3.01-5.67-7.92-8.34-11.99-5.25-8.53-13.02-14.98-19.33-22.64-2.25-2.74-5.55-4.82-6.78-8.26.59-2.36 3.71-2.84 5.65-3.84.97-.44 1.97-.81 3-1.09.48-.1 1.45-.28 1.93-.37.98-.53 1.96-1.07 2.92-1.62.5-.26 1.51-.78 2.02-1.04z"/><path d="m356.59 371.12c3.17-.12 6.4.1 9.48-.84 4.16-1.18 8.28.58 12.42.93 2.23.63 5.14 1.43 4.66 4.39-.68.33-2.03.98-2.71 1.3-1.62.04-3.24.1-4.85.16-.37-.27-1.11-.81-1.48-1.08-5.97.27-12.04-.61-17.93.73-6.9 1.44-14.02 2.08-20.66 4.57-4.97 1.74-9.72 4.06-14.15 6.9-1.98 1.35-4.51.72-6.74.83.91-2.93 3.35-4.86 5.88-6.37 3.94-1.89 7.8-4.04 12.01-5.28.98-.47 2-.83 3.06-1.1.46-.13 1.39-.38 1.86-.51 2.54-1.05 5.23-1.63 7.94-2.04 2.03-.66 4.18-.83 6.22-1.46 1.69-.24 3.49-.19 4.99-1.13z"/><path d="m554.4 372.83c2.4-1.71 5.23-2.11 8.12-1.85 1.48 1.54 3.01 3.05 4.59 4.5-.2 1.78-.14 3.74-1.35 5.21-2.15 1.95-4.89 3.05-7.28 4.68-1.66.66-3.3 1.37-4.95 2.05-1.35.29-2.69.6-4.05.8-1.68.8-3.29 1.73-4.95 2.56-6.23 1.46-12.91 2.05-19.09.04-3.83-1.95-7.45-4.49-9.57-8.32-.27-5.11 6.02-3.6 9.15-2.86 3.15-.79 6.52-.17 9.56-1.35 2.33-.39 4.66-.84 6.93-1.54 2.1-.63 4.04-1.67 6.04-2.55.47-.11 1.4-.32 1.86-.43 1.54-.84 3.28-.82 4.99-.94z"/><path d="m370.54 419.08c2.71-.1 5.42-.09 8.14-.13 1.18 1.5 2.37 3 3.48 4.56-.46 1.73-.92 3.45-1.38 5.18-2.12 2.38-4.57 4.42-7.25 6.13-1.68.44-3.32.98-4.96 1.55-3.44.82-6.98 1.26-10.32 2.49-6.58-.04-13.42 2.7-19.83.36-.48-.08-1.46-.24-1.94-.32-3.31-1.88-6.13-4.55-7.91-7.93 3.59-3.15 8.48-1.59 12.8-2.09 1.9-1.08 4.19-.8 6.21-1.55 1.35-.27 2.67-.63 4-1 1.32-.3 2.62-.68 3.96-.96.98-.39 1.98-.72 3.01-.99.97-.47 1.98-.85 3.02-1.14.46-.11 1.39-.33 1.86-.44 2.43-1.12 4.76-2.43 7.11-3.72z"/><path d="m553 463.96c1.47.03 2.95.09 4.43.16 2.07.71 3.95 1.87 6.06 2.52 4.19 1.82 6.87 5.8 11.07 7.64.98.55 1.96 1.1 2.94 1.66 1.02.02 2.05.05 3.09.08.93-1.02 1.88-2.04 2.82-3.05 2 0 4 .03 6 .16 1.03.39 2.07.78 3.11 1.18 4.5 1.85 8.75 4.55 11.24 8.87 2.64 2.76 2.51 6.7 2.17 10.25-3.27 2.19-6.85 3.83-10.46 5.37-1.86.24-3.71.49-5.56.74-1.17-.24-2.34-.46-3.5-.66-4.08-2.2-6.8-6.06-10.16-9.13-4.61-4.35-8.66-9.34-13.82-13.07-3.44-2.72-6.3-6.07-9.42-9.13-.01-1.21-.02-2.4-.01-3.59z"/><path d="m520.46 471.94c3.25-.36 6.63.64 8.46 3.53.29 2.7-2.52 4.17-4.37 5.54-1.71-.03-3.4-.03-5.1-.01-2.35-1.1-4.15-2.86-3.6-5.66 1.51-1.16 3.03-2.32 4.61-3.4z"/><path d="m571.4 522.23c1.62-.75 3.24-1.53 4.85-2.34 1.32.81 2.64 1.61 3.99 2.41-.53 3.95-2.13 7.65-3.99 11.13-2.54 6.88-6.42 13.11-10.49 19.18-.73 1.05-1.71 1.88-2.73 2.61-2.29-1.28-3.7-3.51-4.93-5.73-.08-.49-.24-1.47-.33-1.96-.68-1.31-.78-2.78-.85-4.21-1.32-1.12-2.73-3.45-4.54-1.53-.46.1-1.4.29-1.86.38-3.51 1.4-6.73 3.41-10.07 5.13-2.02.97-4.01 1.98-5.98 3.02-1.63.74-3.29 1.4-4.99 1.92-1 .54-2 1.08-2.99 1.63-.48.08-1.44.24-1.92.32-2.09.72-4.01 1.86-6.12 2.53-4.34 1.15-8.57 2.69-12.99 3.49-.99.52-1.95 1.05-2.91 1.61-2.33.51-4.67.96-6.99 1.49-1.78.26-3.38 1.1-5.12 1.47-.96.14-1.9.29-2.84.44-1.78.37-3.39 1.3-5.19 1.56-.95.13-1.89.27-2.82.44-1.85 1.03-3.99.75-6 .96-1.3.54-2.66.86-4.01 1.15-1.34.3-2.65.71-3.97 1.02-1.36.3-2.69.69-4.04.99-2.01.61-4.13.69-6.13 1.34-4.34 1-8.73 1.77-13.02 2.99-1.34.26-2.65.63-3.95 1-3.47 1.51-7.27 1.52-10.97 1.38-.54.32-1.61.97-2.15 1.29-.36.55-1.07 1.65-1.43 2.2.37 2.47.68 4.95 1.29 7.38-1.53.99-3.07 1.98-4.64 2.91-5.63 1.29-11.66 2.01-17.1-.46-2.19-.69-2.89-2.99-3.69-4.87 2.99-4.2 8.39-5.51 12.79-7.74 6.15-2.92 11.58-7.18 17.99-9.58.46-.09 1.39-.27 1.85-.37 3.08-1.84 6.74-1.96 10.08-3.07 1.01-.29 1.99-.68 2.94-1.17 2.62-1.03 5.58-.03 8.15-1.28 2.61-.54 5.26-.94 7.86-1.6 3.61-1.29 7.5-1.25 11.13-2.42 3.28-.45 6.52-1.22 9.83-1.51 5.92-1.34 12.01-2.01 18.02-3.04 2-.75 4.17-.71 6.2-1.4 1.34-.27 2.68-.58 3.97-1.07.46-.12 1.4-.34 1.87-.45 3.4-1.46 6.84-2.85 10.09-4.65.47-.08 1.42-.25 1.89-.34 3.64-1.66 7.37-3.12 11.08-4.62.47-.11 1.43-.33 1.9-.44 1.05-.29 2.08-.64 3.11-1.03.97-.47 1.94-.95 2.91-1.45 1.31-.69 2.65-1.34 4.01-1.95 8.1-4.85 15.97-10.05 23.95-15.09z"/><path d="m537.77 567.95c1.54 1.07 3 2.24 4.45 3.44-.38 6.82-6.92 10.52-12.75 12.29-.98.39-1.99.7-3.02.91-.97.5-1.97.89-3.01 1.16-.47.13-1.42.38-1.89.5-2.66.91-5.38 1.64-8.07 2.44-1.99.54-3.97 1.09-5.95 1.63-1.75.21-3.3 1.14-5.03 1.36-2.37.62-4.69 1.41-7.06 2.01-1.37.23-2.71.59-4.02 1.04-12.42 2.56-25.16.46-37.72 1.56-5.43.05-10.69-1.57-16.12-1.41-.7-.33-2.1-1-2.8-1.33.17-.51.49-1.54.65-2.05 11.32-3.8 23.71.61 35.14-2.66.96-.61 1.93-1.19 2.92-1.76 1.63-.06 3.28-.12 4.92-.24 1.72-.5 3.38-1.24 5.16-1.56.47-.14 1.43-.41 1.9-.55 2.98-1.04 6.14-1.43 9.1-2.54 1.27-.14 2.54-.27 3.83-.35 2.11-.68 4.01-1.86 6.13-2.49.97-.49 1.98-.85 3.03-1.09.47-.13 1.4-.39 1.87-.51 1.05-.28 2.06-.66 3.04-1.15 1.71-.33 3.36-.89 5.08-1.22.96-.48 1.97-.85 3.02-1.13.47-.12 1.39-.38 1.86-.5 1.04-.28 2.05-.64 3.04-1.09 2.71-.9 5.31-2.09 8.03-2.95 1.46-.51 2.85-1.15 4.27-1.76z"/><path d="m212.9 597.08c7.3.56 14.5-2.35 21.75-.57 2.57.6 5.22.54 7.84.51.87.76 1.75 1.51 2.63 2.27.59 3.6-3.47 4.28-6.07 4.95-4.24 1.43-8.76.21-13.06 1.18-6.26 1.52-12.81-.42-19.05 1.28-4.25.65-8.63-.14-12.81 1.15-5.7-.04-11.26 1.14-16.93 1.56-4.23.93-8.73.84-12.79 2.46-2.47.17-4.94.09-7.41.11-4.79-.05-9.28 2.05-14.06 2.14-.4.22-1.19.65-1.59.87-2.26-.01-4.52 0-6.77.14-3.84 1.88-8.27.16-12.31 1.17-4.07 1.06-9.04 1.39-12.32-1.7-.36-2.33 1.7-3.59 3.45-4.51 2.72-.72 5.56-.94 8.2-1.93 1.92-.14 3.85-.19 5.78-.3 2.82-1.77 6.42.07 9.22-1.69 2.41-.17 4.91-.03 7.17-1.01 2.36-.12 4.78-.08 7-.99 3.8.11 7.43-1.32 11.23-1.17 1.87-.04 3.85.19 5.58-.71 5.81-.98 11.56-2.55 17.5-2.39 4.23-1.24 8.62-.66 12.93-1.13 4.89-1.33 10.02-.25 14.89-1.69z"/><path d="m438.07 616.53c-.64-1.9 1.83-2.71 3.32-2.56.63.34 1.9 1.02 2.54 1.35.87 1.58 1.84 3.62-.34 4.68-2.22-.21-4.17-1.78-5.52-3.47z"/><path d="m84.42 633.09c2.05-.21 4.11-.11 6.16-.12 2.18 1.77 3.98 3.95 5.28 6.44 1.78 7.41 2.73 15.07 5.81 22.11.43.98.78 2 1.07 3.06.13.46.39 1.4.51 1.87.89 2.68 1.67 5.39 2.49 8.1.13.47.38 1.41.51 1.88.26 1.05.66 2.05 1.19 3 .15 1.04.43 2.06.82 3.05.51.99 1.02 1.98 1.54 2.98.64 1.96 1.94 4.48-.34 5.96-1.85 2.26-4.84 1.65-7.09.45-4.99-2.81-9.09-6.96-11.16-12.36-.16-1.41-.42-2.79-.99-4.09-.15-.96-.3-1.91-.44-2.85-1.21-3.95-1.94-8.03-3.12-11.99-.39-1.34-.73-2.69-.92-4.05-.48-1.35-.97-2.68-1.53-3.98-1.17-3.53-1.33-7.24-1.34-10.93-1.11-1.54-.87-3.44-.94-5.2.81-1.14 1.54-2.32 2.49-3.33z"/><path d="m124 791.38c1.44-2.25 4.3-1.16 6.5-1.39 8.26 5.52 9.9 17.2 18.93 21.73 3.06 1.25 4.97 3.93 6.5 6.73.07.97.15 1.96.24 2.96 1.48 2.5.66 5.53.83 8.3-.96.42-1.92.87-2.87 1.32-1.55-.43-3.09-.87-4.62-1.34-2.67-1.12-5.31-2.3-8.04-3.26-.96-.72-2.05-1.36-2.57-2.48-2.31-4.08-4.56-8.19-6.64-12.38-.5-1.06-1.03-2.1-1.53-3.13-.65-1.35-1.33-2.68-2-4.01-.49-.96-1-1.91-1.52-2.84-1.37-3.28-3.08-6.6-3.21-10.21z"/><path d="m165.57 837.14c5.32-.31 10.65-.08 15.98-.13 2.46 1.24 4.29 3.28 5.72 5.61-.81 1.17-1.65 2.31-2.59 3.39-1.03.02-2.06.07-3.09.14-5.21 1.55-10.73 2.15-16.11 2.95-2.31-1.35-4.27-3.15-5.46-5.56-.01-1.06-.03-2.11-.04-3.14.8-.74 1.61-1.46 2.43-2.16 1.05-.38 2.1-.75 3.16-1.1z"/><path d="m198.43 878.01c.57-.02 1.71-.06 2.28-.08.77 1.08 1.55 2.18 2.3 3.3-.56 1.04-.99 2.14-1.28 3.3-.48.97-.97 1.93-1.48 2.9-1.94 4.02-3.71 8.14-5.95 12.03-2.65 5.16-6.94 9.36-11.74 12.54-1.63-.02-3.25-.04-4.87-.03 1.52-4.01 3.65-7.72 5.6-11.52 2.89-6.58 7.7-12.04 10.8-18.5.81-1.91 2.72-2.85 4.34-3.94z"/></svg>