<svg enable-background="new 0 0 64 64" viewBox="0 0 64 64" xmlns="http://www.w3.org/2000/svg"><g fill="#fff"><path d="m32 2c-16.6 0-30 13.4-30 30s13.4 30 30 30 30-13.4 30-30-13.4-30-30-30zm0 59c-16 0-29-13-29-29s13-29 29-29 29 13 29 29-13 29-29 29z"/><path d="m48 17h-20c-1.3 0-2 .7-2 2v4h-11c-1.3 0-2 .7-2 2v14c0 1.3.7 2 2 2h2v6l7-6h11c1.3 0 2-.7 2-2v-4h2l7 6v-6h2c1.3 0 2-.7 2-2v-14c0-1.3-.7-2-2-2zm-12 22c0 .7-.3 1-1 1h-11-.4l-.3.2-5.3 4.6v-3.8-1h-1-2c-.7 0-1-.3-1-1v-14c0-.7.3-1 1-1h20c.7 0 1 .3 1 1zm13-6c0 .7-.3 1-1 1h-3v4.8l-5.3-4.6-.3-.2h-2.4v-9c0-1.3-.7-2-2-2h-8v-4c0-.7.3-1 1-1h20c.7 0 1 .3 1 1z"/><circle cx="20" cy="32" r="1"/><circle cx="25" cy="32" r="1"/><circle cx="30" cy="32" r="1"/></g></svg>