<svg height="512pt" viewBox="0 0 512 512" width="512pt" xmlns="http://www.w3.org/2000/svg"><path d="m364.47 0h22.06c42.12 4.03 82.18 27.83 104.44 64.01 12.26 18.26 18.07 40.02 21.03 61.59v21.93c-2.57 22.13-9.33 44.11-21.68 62.78-8.06 12.61-18.71 23.24-29.08 33.93-34.92 35.09-70.13 69.9-104.89 105.14-3.12 3.35-7.11 6.43-12.09 5.55-6.23-4.02-11.42-9.35-16.6-14.59-53.8-54.47-107.4-109.14-161.89-162.93-10.76 9.67-20.77 20.14-31.03 30.34-23.42 23.57-47.16 46.83-70.28 70.7-14.54 13.78-28.45 28.83-36.68 47.34-12.67 28.53-14.67 62.23-3.06 91.45 14.47 39.86 51.7 70.29 93.73 76.17 36.44 6.36 75.28-6.56 101.34-32.61 30.9-31.11 62.06-61.97 92.88-93.16 3.22-3.18 7.51-7.26 12.49-5.93 4.18.8 7.35 5.49 6.13 9.62-3.37 6.32-8.83 11.13-13.86 16.1-26.49 26.51-53.08 52.92-79.46 79.54-7.92 8.14-16.39 15.78-25.81 22.16-19.18 13.04-41.86 20.16-64.77 22.87h-21.92c-43.64-4.13-84.79-29.61-106.81-67.68-10.56-17.57-15.96-37.73-18.66-57.92v-21.8c2.68-19.23 7.35-38.56 17.11-55.51 9.28-17.28 23.56-30.99 37.13-44.85 29-29 58.05-57.95 86.98-87.02 6.55-6.45 12.58-13.5 19.93-19.07 2.89-2.09 7.22-1.37 9.93.77 8.11 6.85 15.09 14.91 22.67 22.33 50.98 50.89 101.78 101.96 152.87 152.74 37.96-38.17 76.06-76.19 114.18-114.2 23.81-23.92 36.95-58.57 33.67-92.3-2.87-45.36-34.43-87.4-77.19-102.8-27.8-10.96-59.7-9.78-87.25 1.32-17.81 6.98-33 19.19-46.31 32.71-26.89 27.11-54.11 53.9-80.85 81.15-5.14 5.3-11.04 10-18.14 12.35-1.36-4.35-5.79-9.02-3.37-13.81 2.46-4.35 6.39-7.65 9.78-11.26 29.79-29.22 58.94-59.07 88.67-88.34 22.63-22.27 53.19-35.66 84.66-38.81z" opacity=".98"/><path d="m347.66 47.39c2.42-.24 6.19-2.78 7.43.43 2.92 8.06 4.84 16.53 6.38 24.96-2.06.29-4.19.69-6.24.11-3.97-8-5.53-16.87-7.57-25.5z" opacity=".98"/><path d="m395.24 49.09c.8-3.1 5.33-2.46 7.21-4.02.47 9.75-3.71 18.87-6.35 28.07-1.63-.27-4.9-.8-6.53-1.06 1.1-7.84 3.26-15.47 5.67-22.99z" opacity=".98"/><path d="m306.38 73c1.51-1.56 3.04-3.08 4.6-4.58 6.98 5.94 13.77 12.19 19.48 19.39-1.31 1.49-2.62 2.98-3.92 4.48-7.58-5.45-14.42-11.93-20.16-19.29z" opacity=".98"/><path d="m419.87 90.16c5.56-8.84 12.66-17.69 22.33-22.21.53 1.98 1.22 3.95 1.41 6.01-4.38 6.06-9.79 11.39-15.41 16.3-2.34 2.41-5.65.45-8.33-.1z" opacity=".98"/><path d="m368.44 78.5c21.68-3.18 44.57 7.21 56.46 25.57 9.5 13.38 12.24 31.1 8.15 46.89-3.73 15.5-14.28 29.1-28.03 37.04-11.93 7.27-26.4 7.18-39.33 11.69-9.37 3.36-18.72 7.22-26.61 13.43-10.17 7.35-18.2 17.12-27.38 25.58-4.71 4.75-12.4 6.66-18.69 4.3-8.02-4.26-14.16-11.2-20.17-17.84-4.76-5.36-5.05-13.95-1.79-20.13 7.18-9.71 16.98-17.03 24.68-26.3 9.31-10.45 14.99-23.57 19.01-36.84 2.99-10.96 3.33-22.87 9.39-32.81 8.48-16.77 25.78-28.31 44.31-30.58m-30.24 23.7c-10.13 9.96-12.68 24.42-15.37 37.77-3.15 18.72-13.58 35.25-26.01 49.21 8.87 9.17 17.95 18.14 27.07 27.06 10.11-9.61 21.96-17.39 34.96-22.48 16.09-6.42 35.5-4.63 49.1-16.83 17.97-13.37 23.89-39.07 15.66-59.57-4.02-8.67-9.86-16.66-17.7-22.24-20.12-15.01-51.25-11.97-67.71 7.08m-49.42 94.65c8.22 10.05 16.24 20.27 24.3 30.46 1.75-1.78 3.51-3.55 5.27-5.32-9.01-9.24-18.12-18.38-27.38-27.35-.73.73-1.46 1.47-2.19 2.21m-6.49 4.62c.14 6.58 5.74 10.97 9.23 15.96 5.1 5.87 9.28 12.87 15.8 17.33-1.52-4.97-4.96-8.96-8.07-13-5.58-6.83-10.83-13.95-16.96-20.29m-6.48 9.76c.53 3.33 1.01 6.94 3.38 9.54 5.12 5.73 10.89 10.88 17.02 15.52-5.74-9.13-12.51-17.68-20.4-25.06z" opacity=".98"/><path d="m338.14 115.68c.74-6.12 4.72-11.09 10.18-13.62.12 2.98 2.81 6.95-.08 9.26-2.04 3.83-6.21 4.57-10.1 4.36z" opacity=".98"/><path d="m402.26 102.87c6.31.7 10 6.03 12.82 11.06 11.19 18.68 6.92 46.17-11.73 58.38-2.33 2.06-4.14-1.13-4.34-3.25 4.1-6.76 10.32-12.47 12.82-20.16 2.39-9.3 3.08-20.09-2.24-28.56-2.53-5.69-9.22-10.57-7.33-17.47z" opacity=".98"/><path d="m285.82 109.72c7.99 2.07 16.48 2.98 24.02 6.54 2.92 1.41 1.19 4.89.91 7.29-9.25-1.86-18.36-4.37-27.25-7.55.73-2.11 1.5-4.2 2.32-6.28z" opacity=".98"/><path d="m438.6 116.91c8.8-2.69 17.69-5.03 26.61-7.24.8 2.1 1.55 4.22 2.27 6.35-8.65 3.08-17.49 5.62-26.5 7.38-.83-2.15-1.62-4.32-2.38-6.49z" opacity=".98"/><path d="m330.5 132.54c1.17-4.19.79-12.97 7.28-12.56 1.7 1.38 2.38 3.54 1.98 5.67-2.1 16.22-6.6 32.31-14.67 46.61-1.89-.49-3.77-1.01-5.65-1.51 3.88-12.67 9.82-24.85 11.06-38.21z" opacity=".98"/><path d="m440.2 151.47c7.83.92 15.44 3.17 22.96 5.45 2.94.79 3.71 4.09 4.97 6.44-10.08 2.4-20.25-2.39-29.45-6.09.5-1.94 1.01-3.87 1.52-5.8z" opacity=".98"/><path d="m378.06 176.04c4.93-2.61 10.67-3.17 16.02-4.45.27 1.65.8 4.94 1.07 6.58-5.2 1.56-10.37 3.2-15.68 4.33-.6-2.13-1.22-4.26-1.41-6.46z" opacity=".98"/><path d="m423.6 182.2c7.83 5.07 14.45 11.78 20.45 18.88-.89 1.63-1.78 3.26-2.67 4.89-8.43-4.3-14.93-11.41-20.75-18.72.99-1.68 1.98-3.37 2.97-5.05z" opacity=".98"/><path d="m389.69 202.12c1.87-.48 3.74-.97 5.62-1.44 3.89 8.56 6.01 17.79 8.08 26.92-2.44.24-6.21 2.78-7.5-.41-3.1-8.03-4.48-16.66-6.2-25.07z" opacity=".98"/><path d="m63.33 341.28c5.06-.57 9.84 4.24 9 9.34-1.68 9.68-4.9 19.22-4.01 29.2.22 8.38 4.42 16.12 4.02 24.54-.27 4.39-5.55 6.41-9.35 5.65-3.76-.1-6.2-3.57-7.24-6.84-5.61-17.57-6.43-37.06-.23-54.59 1.16-3.57 3.89-6.81 7.81-7.3z" opacity=".98"/></svg>