<svg height="464pt" viewBox="0 0 356 464" width="356pt" xmlns="http://www.w3.org/2000/svg"><path d="m130.94 7.02c2.48-.5 7.09-2.63 8.21-.18l.2.86c-2.85.09-5.69.15-8.53.2z" fill="#ddd"/><path d="m129.08 7.03c.47 0 1.39-.01 1.86-.01l-.12.88c-1.74 12.28-.41 24.74-.83 37.1-2.22-10.73-.56-25.62-.91-37.97z" fill="#252525" opacity=".16"/><path d="m139.15 6.84c.45.06 1.34.18 1.79.24.09 14.29.15 28.59.01 42.88h-.92c-.49-14.07.87-28.26-.68-42.26z" fill="#555" opacity=".37"/><path d="m129.99 45c.42-12.36-.91-24.82.83-37.1.4 13.96-.05 27.92.27 41.87 2.69.2 5.5.27 8.18.83-6.52 1.75-11.54 2.61-9.28-5.6z" fill="#dedede"/><path d="m72.26 124.78c-.62-1.26-1.9-4.53.8-3.9.23.22.68.65.9.86-.56 1.02-1.07 2.06-1.7 3.04z" fill="#dedede"/><path d="m130.82 7.9c2.84-.05 5.68-.11 8.53-.2 1.55 14 .19 28.19.68 42.26-.19.16-.57.48-.76.64-2.68-.56-5.49-.63-8.18-.83-.32-13.95.13-27.91-.27-41.87z" fill="#989898"/><path d="m29.37 62.6c-6.13-3.13 2.21-14.07 6.31-8.28 9.06 8.76 19.99 15.26 29.16 23.91-.2 2.99-4.72 9.39-7.82 5.42-.89-1.27-2.06-2.3-3.48-2.93-9.06-4.78-15.28-13.02-24.17-18.12z" fill="#acacac"/><path d="m238.07 53.02c3.57-2.04 6.72 2.2 7.44 5.35-1.6 2.12-3.7 3.76-5.44 5.75-7.26 7.54-16.14 13.21-24.24 19.72-3.75 3.83-8.73-2.87-7.66-6.57 9.78-8.25 20.94-15.39 29.9-24.25z" fill="#9b9b9b" opacity=".98"/><path d="m245.51 58.37c2 .62-2.13 6.79-5.44 5.75 1.74-1.99 3.84-3.63 5.44-5.75z" fill="#d3d3d3"/><path d="m125.97 78.53c1.27-.45 2.54-.96 3.85-1.28.34.2 1.02.61 1.36.81-4.7 1.89-2.35 7.39-3.92 11.24-1.42 6.11-2.2 12.66-1.27 18.9-.19.22-.57.66-.76.88l-.91-.04c-8.59-6.8-19-11.54-26.22-19.9 1.7-.2 2.91-1.44 3.93-2.69 2.34-.64 4.54-1.65 6.41-3.2 1.18-.05 2.59.01 3.37-1.07 2-1.76 5.23-1.5 7.44-3.12 2.32.33 4.56.16 6.72-.53z" fill="#a8a8a8"/><path d="m185.04 100.95c4.36 2.04 7.36 7.42 8.46 11.87-.17 3.07 1.56 5.94 3.51 8.18.69.81 1.04 1.77 1.04 2.87.31 2.74 1.1 5.38 1.83 8.03-12.62-2.3-25.71 2.62-38.25.35.37-.51 1.11-1.53 1.48-2.04 9.51-4.49 15.98-13.6 24.64-19.43 3.67-3.17-2.3-6.45-2.71-9.83z" fill="#a8a8a8"/><path d="m129.82 77.25c4.15-.28 8.3-.27 12.45.02-3.69.36-7.39.63-11.09.79-.34-.2-1.02-.61-1.36-.81z" fill="#e1e1e1"/><path d="m142.27 77.27c1.24-.22 2.31.64 3.43 1 .54.21 1.61.63 2.15.84 2.45.75 4.97 1.4 7.5 1.82.47.08 1.4.26 1.87.34-10.29 9.12-21.14 17.6-31.23 26.93-.93-6.24-.15-12.79 1.27-18.9 1.57-3.85-.78-9.35 3.92-11.24 3.7-.16 7.4-.43 11.09-.79z" fill="#959595"/><path d="m119.25 79.06c.78-2.28 4.95-1.52 6.72-.53-2.16.69-4.4.86-6.72.53z" fill="#404040" opacity=".27"/><path d="m145.7 78.27c3.69.52 10.62-2.62 11.52 3-.47-.08-1.4-.26-1.87-.34-.79-3.41-4.92-1.36-7.5-1.82-.54-.21-1.61-.63-2.15-.84z" fill="#3c3c3c" opacity=".25"/><path d="m147.85 79.11c2.58.46 6.71-1.59 7.5 1.82-2.53-.42-5.05-1.07-7.5-1.82z" fill="#d4d4d4"/><path d="m53.54 80.72c1.42.63 2.59 1.66 3.48 2.93-1.66 1.23-4.43-1.13-3.48-2.93z" fill="#4a4a4a" opacity=".33"/><path d="m157.22 81.27c1.07-.39 2.05-.08 2.94.91l-.06.62c-4.82 13.26.38 28.27-.16 42.23-3.34 7.1.78 4.75 3.12 4.15l.05 1.03c-.37.51-1.11 1.53-1.48 2.04-.43.19-1.29.57-1.73.76-11.78-7.68-23.31-15.77-35.13-23.38l.46-.55c.19-.22.57-.66.76-.88 10.09-9.33 20.94-17.81 31.23-26.93z" fill="#868686"/><path d="m108.44 83.25c-.58-1.75 2.48-2.13 3.37-1.07-.78 1.08-2.19 1.02-3.37 1.07z" fill="#3f3f3f" opacity=".29"/><path d="m160.16 82.18c.86-.72 3.65-.76 3.47.71-.71.09-2.11.26-2.82.34l-.71-.43z" fill="#505050" opacity=".35"/><path d="m159.94 125.03c.54-13.96-4.66-28.97.16-42.23l.71.43c1.18.85 2.43 1.65 3.86 1.98 2.41 1.35 4.79 2.76 7.32 3.9.52.28 1.56.85 2.08 1.14.3.42.89 1.28 1.19 1.71 0 12.93-10.44 24.28-12.2 37.22-2.34.6-6.46 2.95-3.12-4.15z" fill="#797979"/><g fill="#d2d2d2"><path d="m160.81 83.23c.71-.08 2.11-.25 2.82-.34.26.58.78 1.74 1.04 2.32-1.43-.33-2.68-1.13-3.86-1.98z"/><path d="m197.01 121c-1.95-2.24-3.68-5.11-3.51-8.18 2.07 2.36 4.43 4.74 3.51 8.18z"/><path d="m192.1 178.75c-.01-1.91 1.45-3.28 2.76-4.48 1.02 1.79-.8 4.63-2.76 4.48z"/></g><path d="m164.67 85.21c3.81-2.31 5.6 1.01 7.32 3.9-2.53-1.14-4.91-2.55-7.32-3.9z" fill="#d9d9d9"/><path d="m98.1 89.14c-.24-1.78 2.29-3.89 3.93-2.69-1.02 1.25-2.23 2.49-3.93 2.69z" fill="#343434" opacity=".22"/><path d="m78.3 110.48c5.03-8.44 11.4-16.32 19.8-21.34 7.22 8.36 17.63 13.1 26.22 19.9-15.59 2.56-31.41 3.59-46.99 6.24-1.23 1.49-2.23 3.16-3.49 4.64.17-2.17.89-4.38 2.55-5.86 1.16-.87 1.78-2.16 1.91-3.58z" fill="#8e8e8e"/><path d="m174.07 90.25c1.02-1.06 3.45.33 2.69 1.71-.38 0-1.12 0-1.5 0-.3-.43-.89-1.29-1.19-1.71z" fill="#575757" opacity=".38"/><path d="m175.26 91.96h1.5c3.14 2.13 7 5.1 8.28 8.99.41 3.38 6.38 6.66 2.71 9.83-8.66 5.83-15.13 14.94-24.64 19.43l-.05-1.03c1.76-12.94 12.2-24.29 12.2-37.22z" fill="#959595"/><path d="m77.33 115.28c15.58-2.65 31.4-3.68 46.99-6.24l.91.04-.46.55c-10.27 6.59-19.14 15.14-29.38 21.8-3.44 2.86-8.27 4.8-9.67 9.44l-.68-.39c-3.99-6.05-6.23-13.33-11.08-18.74-.22-.21-.67-.64-.9-.86.2-.24.58-.72.78-.96 1.26-1.48 2.26-3.15 3.49-4.64z" fill="#6c6c6c"/><path d="m76.39 114.06c-1.13-1.21.18-4.27 1.91-3.58-.13 1.42-.75 2.71-1.91 3.58z" fill="#3d3d3d" opacity=".26"/><path d="m95.39 131.43c10.24-6.66 19.11-15.21 29.38-21.8 1.42 13.32 3.93 26.53 5.63 39.85.59 2.73.31 8.38 4.67 7.79-.82.92-1.59 1.88-2.38 2.82-16.08-5.31-31.18-13.13-46.97-19.22 1.4-4.64 6.23-6.58 9.67-9.44z" fill="#5f5f5f"/><path d="m124.77 109.63c11.82 7.61 23.35 15.7 35.13 23.38l.25.66c-8.71 7.49-15.72 16.86-25.08 23.6-4.36.59-4.08-5.06-4.67-7.79-1.7-13.32-4.21-26.53-5.63-39.85z" fill="#686868"/><path d="m72.26 124.78c.63-.98 1.14-2.02 1.7-3.04 4.85 5.41 7.09 12.69 11.08 18.74-5.44 2.18-10.71 4.73-15.93 7.39l-.17-.77c0-1.73-.01-5.18-.02-6.91-.02-1.31.11-2.61.39-3.9.36-1.41.69-2.82 1.02-4.24.75-1.63 1.81-3.63.77-5.37.29-.48.87-1.43 1.16-1.9z" fill="#8b8b8b"/><path d="m198.05 123.87c3.55 2.01 2.31 7.14 2.83 10.4-.19-.39-.57-1.18-.76-1.57l-.24-.8c-.73-2.65-1.52-5.29-1.83-8.03z" fill="#d7d7d7"/><path d="m221.94 175.8c-1.79-.14-1.79-4.47 0-4.62.1 1.54.1 3.08 0 4.62z" fill="#d7d7d7"/><path d="m69.31 136.29c.71-2.5-2.05-8.48 1.04-9.37-.86 1.61-.46 3.46-.02 5.13-.33 1.42-.66 2.83-1.02 4.24z" fill="#383838" opacity=".24"/><path d="m70.35 126.92.75-.24c1.04 1.74-.02 3.74-.77 5.37-.44-1.67-.84-3.52.02-5.13z" fill="#dcdcdc"/><path d="m161.63 132.25c12.54 2.27 25.63-2.65 38.25-.35l.24.8c-10.2 8.66-17.7 20.05-28.05 28.54-4.88-8.77-7.35-18.64-11.92-27.57l-.25-.66c.44-.19 1.3-.57 1.73-.76z" fill="#909090"/><path d="m172.07 161.24c10.35-8.49 17.85-19.88 28.05-28.54.19.39.57 1.18.76 1.57.05.98.3 1.92.73 2.8.51 5.17 1.01 10.75-.07 15.93-.62 1.19-.76 2.53-.54 3.84-.16 4.18-1.47 9.36-4.07 12.34-8.35-.22-15.87-4.19-23.98-5.25 3 9.99 9.47 19.57 9.27 30.19-2.75 4.57-6.43 8.85-10.53 12.33-1.41-14.5 1.17-29.04.35-43.61.01-.4.02-1.2.03-1.6z" fill="#7f7f7f"/><path d="m135.07 157.27c9.36-6.74 16.37-16.11 25.08-23.6 4.57 8.93 7.04 18.8 11.92 27.57-.01.4-.02 1.2-.03 1.6-9.3-1.17-18.7-1-28.03-1.83-2.87 1.39-7.73-2.25-10 .95-.33-.47-.99-1.4-1.32-1.87.79-.94 1.56-1.9 2.38-2.82z" fill="#a8a8a8"/><path d="m200.88 134.27c2.25-1.71 3.15 2.53.73 2.8-.43-.88-.68-1.82-.73-2.8z" fill="#eaeaea"/><path d="m68.52 147.07c-.99-1.86-1.56-5.77.4-6.88.01 1.73.02 5.18.02 6.91z" fill="#eaeaea"/><path d="m69.11 147.87c5.22-2.66 10.49-5.21 15.93-7.39-2.17 13.49-3.79 27.06-6.15 40.53-4.85-8.45-9.39-18.22-10.02-28.22.11-1.64.17-3.28.24-4.92z" fill="#a9a9a9"/><path d="m85.04 140.48.68.39c9.89 12.92 20.09 25.63 30.5 38.13-.12.7-.35 2.08-.46 2.77-11.22 2.09-22.78 2.61-34.12 2.86-1.57.09-1.92-2.51-2.75-3.62 2.36-13.47 3.98-27.04 6.15-40.53z" fill="#8b8b8b"/><path d="m85.72 140.87c15.79 6.09 30.89 13.91 46.97 19.22.33.47.99 1.4 1.32 1.87 6.05 8.58 13.61 16.04 19.33 24.85-8.36 7.78-16.83 15.53-24.39 24.09.53.06 1.58.17 2.11.23-4.2 1.66-2.96 6.39-3.24 10.08-.07-4.44-.66-12.64-7.84-10.22-6.02.13-12.04-2.56-17.95-1.18-.27-.19-.81-.56-1.09-.75-1.59-.85-2.35-2.5-3-4.09 8.47-4.03 12.47-13.9 18.29-20.86 4.2.13 6.76 5.07 8.12 8.68 3.56.91 2.96-4.35 2.67-6.67-2.65-3.56-7.48-4.34-10.8-7.12-10.41-12.5-20.61-25.21-30.5-38.13z" fill="#737373"/><path d="m68.52 147.07.42.03.17.77c-.07 1.64-.13 3.28-.24 4.92-1.76-.79-1.32-4.25-.35-5.72z" fill="#505050" opacity=".34"/><path d="m201 156.84c-.22-1.31-.08-2.65.54-3.84 1.09.84 1.3 3.99-.54 3.84z" fill="#ccc"/><path d="m134.01 161.96c2.27-3.2 7.13.44 10-.95 9.33.83 18.73.66 28.03 1.83.82 14.57-1.76 29.11-.35 43.61-.18.15-.54.43-.72.58-7.51-5.01-12.21-13.2-17.63-20.22-5.72-8.81-13.28-16.27-19.33-24.85z" fill="#939393"/><path d="m172.95 163.93c8.11 1.06 15.63 5.03 23.98 5.25.45 1.98-.66 3.81-2.07 5.09-1.31 1.2-2.77 2.57-2.76 4.48-.08.48-.25 1.44-.33 1.92-1.17 1.96-2.33 3.93-3.25 6.02-1.95 2.57-3.68 5.46-6.3 7.43.2-10.62-6.27-20.2-9.27-30.19z" fill="#8e8e8e"/><path d="m5.95 170.01c12.49-2.3 28.98-.49 43.03-.95l.01.94-.96.02c-13.69-.01-27.38-.07-41.07.01z" fill="#272727" opacity=".17"/><path d="m221.92 170.1c12.17-2.53 28.41-.5 42.13-1.03l-.29.96c-13.95-.02-27.9-.12-41.84.07z" fill="#222" opacity=".15"/><path d="m5.95 170.01 1.01.02c-.05 2.63 0 5.27.13 7.91 13.61.13 27.22.16 40.83-.01.06-2.64.1-5.27.11-7.91l.96-.02c.09 2.97.15 5.98-.06 8.96-14.3.04-28.61.16-42.91-.02-.01-.79-.05-2.35-.07-3.14.1-1.2.1-2.4.01-3.6-.01-.55-.01-1.64-.01-2.19z" fill="#929292"/><path d="m6.96 170.03c13.69-.08 27.38-.02 41.07-.01-.01 2.64-.05 5.27-.11 7.91-13.61.17-27.22.14-40.83.01-.13-2.64-.18-5.28-.13-7.91z" fill="#767676"/><path d="m221.92 170.1c13.94-.19 27.89-.09 41.84-.07.47 2.94 2 6.12 0 8.84-13.91.25-27.83.17-41.74.08-.02-.79-.06-2.36-.08-3.15.1-1.54.1-3.08 0-4.62z" fill="#818181"/><path d="m5.95 175.8c-1.77.25-1.77-3.86.01-3.6.09 1.2.09 2.4-.01 3.6z" fill="#f3f3f3"/><path d="m116.22 179c3.32 2.78 8.15 3.56 10.8 7.12.29 2.32.89 7.58-2.67 6.67-1.36-3.61-3.92-8.55-8.12-8.68-5.82 6.96-9.82 16.83-18.29 20.86-6.21-5.69-12.9-12.43-16.3-20.34 11.34-.25 22.9-.77 34.12-2.86.11-.69.34-2.07.46-2.77z" fill="#7e7e7e"/><path d="m188.52 186.69c.92-2.09 2.08-4.06 3.25-6.02.67 2.29-.95 5.72-3.25 6.02z" fill="#333" opacity=".22"/><path d="m153.34 186.81c5.42 7.02 10.12 15.21 17.63 20.22-4.49 6.99-.51 16.37-2.33 24.19-.74-6.77-.57-13.57-.7-20.36-.02-.46-.06-1.39-.08-1.85-12.33-.65-24.51 1.73-36.8 2.12-.53-.06-1.58-.17-2.11-.23 7.56-8.56 16.03-16.31 24.39-24.09z" fill="#898989"/><path d="m100.94 209.06c.28.19.82.56 1.09.75.02.49.04 1.47.05 1.97-.04 6.4-.12 12.81-.08 19.23-2.42-5.35-.35-15-1.06-21.95z" fill="#5b5b5b" opacity=".48"/><path d="m102.03 209.81c5.91-1.38 11.93 1.31 17.95 1.18 7.18-2.42 7.77 5.78 7.84 10.22-.68 4.15 1.71 9.44-.6 13.17-8.37-7.54-16.74-15.08-25.14-22.6-.01-.5-.03-1.48-.05-1.97z" fill="#7d7d7d"/><path d="m131.06 211.13c12.29-.39 24.47-2.77 36.8-2.12.02.46.06 1.39.08 1.85-12.74 7.44-25.22 15.44-37.29 23.91 1.58.06 4.74.17 6.32.23l.05.96c-10.12-.79-23.55 1.71-32.03-.95 7.25-.58 15.34 1.16 22.23-.63 2.31-3.73-.08-9.02.6-13.17.28-3.69-.96-8.42 3.24-10.08z" fill="#676767"/><path d="m130.65 234.77c12.07-8.47 24.55-16.47 37.29-23.91.13 6.79-.04 13.59.7 20.36-.21 1.77-1.42 4.33-3.63 3.79-9.35-.01-18.69-.02-28.04-.01-1.58-.06-4.74-.17-6.32-.23z" fill="#4c4c4c"/><path d="m102.08 211.78c8.4 7.52 16.77 15.06 25.14 22.6-6.89 1.79-14.98.05-22.23.63-2.4.63-2.73-2.31-2.99-4-.04-6.42.04-12.83.08-19.23z" fill="#4c4c4c"/><path d="m136.97 235c9.35-.01 18.69 0 28.04.01-7.47 2.23-18.92.56-27.99.95z" fill="#858585" opacity=".9"/><path d="m107.99 241.99c16.11-1.67 38.92-1.67 55.01.01-18.34 0-36.67 0-55.01-.01z" fill="#848484" opacity=".86"/><path d="m107.99 250.01c-4.76.86-4.64-8.84 0-8.02 18.34.01 36.67.01 55.01.01 4.06-.19 4.02 7.51-.06 7.99-18.32.03-36.63-.01-54.95.02z" fill="#343434"/><path d="m109.98 264c-4.09.64-6.3-7.4-1.92-7.99 17.96-.03 35.92-.03 53.89.01 4.55.79 3.77 8.37-.93 7.99-17.02-.02-34.03-.01-51.04-.01z" fill="#343434"/><path d="m107.99 250.01c18.32-.03 36.63.01 54.95-.02-15.88 1.7-38.89 1.68-54.95.02z" fill="#717171" opacity=".65"/><path d="m108.06 256.01c15.89-2.26 36.27-.53 53.93-.94l-.04.95c-17.97-.04-35.93-.04-53.89-.01z" fill="#717171"/><path d="m109.98 264c17.01 0 34.02-.01 51.04.01-14.73 1.55-36.33 1.82-51.04-.01z" fill="#3a3a3a" opacity=".28"/><path d="m111.96 269.03c13.31-2.19 31.4-1.17 46.3-.26-15.44.42-30.87.14-46.3.26z" fill="#666" opacity=".57"/><path d="m111.96 269.03c15.43-.12 30.86.16 46.3-.26.2 7.71-11.46 12.46-19.23 12.33-1.94 27.78-1.28 59.16-.39 88.18.23 1.54.44 3.1.65 4.65-.45 1.64-.62 3.36-.28 5.06.14 1.51.41 4.55.54 6.07 2.78 14.64 3.94 31.13 15.17 42.2 8.58 10.54 21.8 15.77 35.03 16.99 4.11.63 8.46 1.22 12.55.1 18.05-3.05 37.78-7.84 50.69-21.44-2.52-6.73-11.53-9.94-13.28-17.61.13-3.88.28-7.7.06-11.56.97-5.61 5.16-11.13 11.06-11.94 1.83-.03 5.49-.11 7.32-.15 5.78.26 10.06 5.02 12.15 10.06-.04 3.14-.08 6.36-.04 9.53-.18 6.35-3.39 12.24-4.04 18.39 14.23 7.41 29.65 12.98 45.68 14.6 1.11 1.13 2.75 1.18 4.19.74 13.53-.03 26.99-2.24 39.91-6.21v9.03c-8.24 1.89-16.45 4.12-24.89 4.88-6.39-.6-12.9-1.29-19.27-.19-10.8-1.23-21.66-3.2-31.7-7.5-4.52-2.38-9.28-5.08-14.45-5.44-.91-.15-1.56-.74-1.99-1.53-2.04-4-5.3-.5-6.65 2.1-1.17 1.49-2.21 3.23-4 4.06-2.23.86-4.22 2.2-5.93 3.86-6.96 5.13-15.27 8.82-23.82 10.24-10.75 2.01-21.56 3.99-32.55 3.87-.43-.08-1.31-.25-1.74-.34-2.5-1.77-4.86-1.89-7.06-.36-28.65-4.13-48.92-32.2-49.16-60.32-.16-1.56-.46-4.68-.61-6.24-.13-1.27-.26-2.54-.39-3.81.41-1.34.44-2.68.08-4.02-.42-31.69 1.47-65.57-.91-95.9-7.69-.48-17.07-3.69-19-12.12m137.24 123.17c-3.68 1.45-3.65 12.26.01 13.51 1.98 2.79 4.04 5.72 7.19 7.3-1.23 3.3 5.6 1.67 2.51-.18 1.61-3 2.77-6.4 3.1-9.8 1.77-.43 1.8-9.7-.02-8.97-2.01-5.11-9.46-6.95-12.79-1.86z" fill="#393939"/><path d="m130.96 281.15c2.38 30.33.49 64.21.91 95.9l-.78-.02c-.25-31.96.03-63.92-.13-95.88z" fill="#696969"/><path d="m138.64 369.28c-.89-29.02-1.55-60.4.39-88.18-.28 29.39.43 58.8-.39 88.18z" fill="#525252"/><path d="m139.29 373.93c1.08 1.47 1.2 3.4.38 5.04l-.66.02c-.34-1.7-.17-3.42.28-5.06z" fill="#3c3c3c" opacity=".3"/><path d="m131.09 377.03.78.02c.36 1.34.33 2.68-.08 4.02-1.04-1.09-1.28-2.68-.7-4.04z" fill="#4b4b4b" opacity=".39"/><path d="m139.01 378.99.66-.02c1.14 1.89.84 4.18-.12 6.09-.13-1.52-.4-4.56-.54-6.07z" fill="#7b7b7b" opacity=".89"/><path d="m250.83 381.8c1.79-2.53 4.81-1.34 7.32-.15-1.83.04-5.49.12-7.32.15z" fill="#777" opacity=".91"/><path d="m132.18 384.88c.15 1.56.45 4.68.61 6.24-.16-1.56-.46-4.68-.61-6.24z" fill="#717171" opacity=".82"/><path d="m249.21 405.71c-3.66-1.25-3.69-12.06-.01-13.51-1.3 4.42-1.21 9.07.01 13.51z" fill="#a6a6a6"/><path d="m270.3 391.71c1.44 3.03.24 6.38-.04 9.53-.04-3.17 0-6.39.04-9.53z" fill="#9d9d9d" opacity=".95"/><path d="m239.71 405.3c-1.58-3.64-.47-7.85.06-11.56.22 3.86.07 7.68-.06 11.56z" fill="#686868" opacity=".87"/><path d="m261.99 394.06c1.82-.73 1.79 8.54.02 8.97.02-2.98-.02-6.01-.02-8.97z" fill="#6e6e6e" opacity=".75"/><path d="m256.4 413.01c.63-.04 1.88-.13 2.51-.18 3.09 1.85-3.74 3.48-2.51.18z" fill="#afafaf"/><path d="m257.05 430.11c1.35-2.6 4.61-6.1 6.65-2.1-2.41-.06-4.58 1-6.65 2.1z" fill="#878787" opacity=".93"/><path d="m265.69 429.54c5.17.36 9.93 3.06 14.45 5.44-5.11-.44-10.54-2.02-14.45-5.44z" fill="#989898" opacity=".96"/><path d="m247.12 438.03c1.71-1.66 3.7-3 5.93-3.86 2.55 5.63-1.64 5.07-5.93 3.86z" fill="#acacac"/><path d="m311.9 434.23c1.39-.59 3.32-.8 4.19.74-1.44.44-3.08.39-4.19-.74z" fill="#4d4d4d" opacity=".4"/><path d="m311.84 442.48c6.37-1.1 12.88-.41 19.27.19-6.41.63-12.88.42-19.27-.19z" fill="#7d7d7d"/><path d="m189.75 444.25c4.18 0 8.37.04 12.55.1-4.09 1.12-8.44.53-12.55-.1z" fill="#727272"/><path d="m190.75 452.14c10.99.12 21.8-1.86 32.55-3.87-9.11 7.11-22.1 3.56-32.55 3.87z" fill="#aaa"/><path d="m181.95 451.44c2.2-1.53 4.56-1.41 7.06.36-2.26 1.11-4.61.99-7.06-.36z" fill="#757575" opacity=".92"/></svg>