<svg height="661pt" viewBox="0 0 575 661" width="575pt" xmlns="http://www.w3.org/2000/svg"><path d="m289.65 0h6.01l.43.27c-1.99 1.4-4.91 1.54-6.91.09z" fill="#4d4d4d" opacity=".34"/><path d="m285.43 2.54c1.32-.58 2.56-1.34 3.75-2.18 2 1.45 4.92 1.31 6.91-.09.6.36 1.81 1.09 2.41 1.45-.89.32-1.77.63-2.66.95.66.53 1.33 1.05 1.99 1.6-1.93 2.12-2.92 4.83-2.74 7.7.02 16.68.14 33.35-.04 50.03-.17 5.23 2.33 10.77-.75 15.61 1.67.03 3.33.08 5.01.07-2.6 2.13-6.05 1.61-9.16 1.52-2.82-2.12-5.73-4.1-8.66-6.06-.66-1.09-.81-2.39-1.1-3.61.36-3.16.66-6.35.64-9.54-.11-16.72.13-33.45-.23-50.18.1-.97.29-1.92.57-2.86 1.74-1.08 3.25-2.5 4.06-4.41z" fill="#8e8e8e"/><path d="m295.84 2.67c.89-.32 1.77-.63 2.66-.95 1.36.84 2.65 1.82 3.72 3.01 2.76 2.44 2.47 6.44 3.25 9.75-.78 6.48-.35 13.01-.43 19.52.04 11.83-.14 23.65.05 35.48-.91 1.96-1.71 3.98-2.55 5.97-.64.31-1.93.94-2.57 1.25-.31-.23-.92-.68-1.22-.91 2.35-5.63 2.06-11.83 2.09-17.8-.32-13.01.15-26.02-.21-39.03-.23-3.9.77-7.82.22-11.7-.86-1.14-1.97-2.06-3.02-2.99-.66-.55-1.33-1.07-1.99-1.6z" fill="#6a6a6a"/><path d="m228.17 616.61c-1.82.6-1.79-3.01.02-2.37 0 .59-.02 1.78-.02 2.37z" fill="#6a6a6a"/><path d="m283.42 3.13c.5-.14 1.51-.44 2.01-.59-.81 1.91-2.32 3.33-4.06 4.41.63-1.3 1.31-2.57 2.05-3.82z" fill="#cdcdcd"/><path d="m444.93 62.82c-.78-1.43 1.26-4.95 3.02-3.84-.24 1.77-1.39 3.16-3.02 3.84z" fill="#cdcdcd"/><path d="m249.34 532.25 2.44-.04c.57 1.66-3.07 1.72-2.44.04z" fill="#cdcdcd"/><path d="m295.09 11.97c-.18-2.87.81-5.58 2.74-7.7 1.05.93 2.16 1.85 3.02 2.99.55 3.88-.45 7.8-.22 11.7.36 13.01-.11 26.02.21 39.03-.03 5.97.26 12.17-2.09 17.8.3.23.91.68 1.22.91l.51.62c-.29.09-.88.27-1.17.36-1.68.01-3.34-.04-5.01-.07 3.08-4.84.58-10.38.75-15.61.18-16.68.06-33.35.04-50.03z" fill="#7f7f7f"/><path d="m194.57 156.08c6.34-.4 12.05 2.47 17.94 4.27 2.89 3.47 7.49 4.17 11.56 5.41-2.79 2.94-5.22 6.58-9.19 8.03-3.14 1.26-6.23 2.63-9.18 4.28-3.75 1.66-7.86 1.93-11.91 2.01 4.78-3.34 9.67-6.51 14.71-9.43-1.18-.82-2.36-1.65-3.53-2.48 1.02-1.44 2.02-2.9 3.05-4.34-4.72-2.14-9.66-4.09-13.45-7.75z" fill="#7f7f7f"/><path d="m407.19 352.22c.66-.05 1.98-.14 2.65-.19 1.51.9 3.08 1.69 4.68 2.45 5.15 2.85 11.87 5.81 12.17 12.62-.97 6.99-1.76 14.11-.68 21.14.2.28.62.83.82 1.1-.26.22-.78.65-1.04.87-1.05.6-1.45 1.77-1.57 2.92-1.35 3.4-3.25 6.61-4.44 10.12l-.69-.1c-1.44-.65-2.03 1.14-1.35 2.14-.64.99-1.37 1.93-2.04 2.9-.14-3.47.47-6.92 1.94-10.07 1.04-2.09.14-4.41-.07-6.57-.7-3.98 1.1-8-.04-11.95-1.24-4.78-1.67-9.71-1.43-14.63-.21-2.46.58-5.7-1.78-7.34-2.61-1.98-5.72-3.09-8.63-4.52.37-.22 1.12-.67 1.5-.89z" fill="#7f7f7f"/><path d="m279.86 47.99c.26-12.72-.77-25.53.94-38.18.36 16.73.12 33.46.23 50.18.02 3.19-.28 6.38-.64 9.54-1.15-7.1-.23-14.37-.53-21.54z" fill="#cbcbcb" opacity=".95"/><path d="m305.47 14.48c.45 1.79.6 3.64.58 5.49-.05 13.02-.02 26.03-.05 39.05-.2 3.53 2.86 7.87-.91 10.46-.19-11.83-.01-23.65-.05-35.48.08-6.51-.35-13.04.43-19.52z" fill="#e2e2e2"/><path d="m108.84 54.49c4.67-.72 9.42-.63 14.12-.4 3.06.9 4.79 3.82 5.97 6.58 1.66 3.42 4.07 6.36 6.43 9.31l.31.57c.6 1.49 1.36 3.22 3.12 3.57l1.4.52c.19.51.56 1.54.75 2.05 1.18 4.54 4.37 8.03 7.42 11.41.14.28.42.85.56 1.13.49 1.62 1.63 2.89 3.14 3.64 3.1 2.68 4.99 6.42 7.23 9.8.92 1.21.76 2.83.9 4.27.07 2.82-.03 5.65-.16 8.48-.08.59-.24 1.77-.31 2.36-.47.22-1.41.64-1.88.85-3.15 1.23-6.41 2.51-9.84 2.51-3.2-.4-6.11-1.94-9.14-2.95l-.42-.15-.06-.35c-1.01-5.87-5.34-10.74-9.8-14.43-.33-.41-.58-.86-.73-1.37-.38-1.81-1.85-3.04-3.28-4.05l-.08-.24c-.87-4.44-4.74-7.19-7.44-10.51-.39-.45-1.15-1.35-1.53-1.8-.57-1.19-1.26-2.33-2.26-3.2-.35-.57-1.03-1.71-1.38-2.28-1.32-3.63-3.3-7.03-6.15-9.67-.19-.18-.56-.56-.75-.74.88-5.42 2.69-10.76 7.05-14.38-.6-.1-1.8-.3-2.41-.4z" fill="#8c8c8c"/><path d="m282.41 120.61c15.37 7.06 30.15 15.31 45.4 22.61 10.12 4.79 19.69 10.66 29.98 15.07 15.22 7.66 30.09 16.03 45.4 23.53 11.36 5.92 22.91 11.46 34.13 17.65-1.48.67-2.94 1.33-4.41 1.99-4.31-1.7-8.78-2.96-13.29-4.02-.58-1.36-1.16-2.71-1.72-4.06-3.56 1.4-7.2 3.17-11.13 2.85-3.55-.29-7.1-1.04-10.32-2.58-2.07-.88-4.12-2.15-6.44-2.1-4.03.24-7.87 2.56-11.96 1.58-6.72-1.39-13.35-3.35-20.23-3.92-13-1.47-25.95-3.64-38.43-7.6-2.97 3.08-7.07 1.19-10.75 1.6-1.06.02-2.27.19-3.03-.75-3.45-3.14-3.77-8.09-4.92-12.32-1.15-5.29-4.46-9.78-5.75-15.02-.74-2.97-1.02-6.02-1.36-9.06 1.3-1.21 2.58-2.44 3.88-3.64-3.17-.93-7.31-.44-9.38-3.52-2.52-3.46-4.08-7.52-5.58-11.5-.92-2.18-.46-4.56-.09-6.79z" fill="#8c8c8c"/><path d="m164.92 162.92c4.79-4.11 8.37-9.7 14.44-12.14 4.99 1.98 10.14 3.53 15.21 5.3 3.79 3.66 8.73 5.61 13.45 7.75-1.03 1.44-2.03 2.9-3.05 4.34 1.17.83 2.35 1.66 3.53 2.48-5.04 2.92-9.93 6.09-14.71 9.43-1.62.56-3.24 1.11-4.91 1.52-4.96.85-9.76 2.53-14.81 2.83-4.2.2-7.79 2.77-11.95 3.13-6.26.61-12.33 2.37-18.59 3.01-.55-1.03-1.1-2.05-1.66-3.06-.1-.75-.19-1.49-.31-2.23-.04-.25-.12-.73-.16-.97l-.06-.3c3.7-2.86 6.2-7.08 10.29-9.47 1.72-.89 2.87-2.48 4.33-3.69.97-.27 1.68-.84 2.13-1.73 1.37-1.71 3.05-3.16 5.04-4.1.92-.41 1.52-1.11 1.79-2.1z" fill="#8c8c8c"/><path d="m249.34 168.68c1.73 2.54 3.38 5.16 4.59 8 1.65-1.38 3.18-3.42 5.53-3.43 4.36-.19 8.55 1.31 12.66 2.59-2.27.05-4.53.24-6.79.41-.07 9.67-4.05 19.95.61 29.11-2.79 1.72-5.76 3.16-8.39 5.14-7.44 6.86-16.22 12.12-25.23 16.64-.35 1.13-.71 2.26-1.07 3.39-2.51 3.27-6.73 4.28-9.92 6.7-5.49 4.09-11.54 7.34-17.11 11.31-.43-.35-1.29-1.04-1.72-1.39 3.37-5.87 6.38-11.94 10.12-17.58 5.69-10.7 13.04-20.37 19.2-30.78 2.81-4.95 6.38-9.52 8.21-14.97.23-.44.69-1.32.92-1.75 3.87-3.68 6.93-8.22 8.39-13.39z" fill="#8c8c8c"/><path d="m200.41 254.42c4.82 1.66 9.99 1.56 15.01 1.28 7.4 1.92 15.12 2.27 22.45 4.53 6.45 1.95 13.33 1.59 19.8 3.49-2.5 3.11-6.2 1.79-9.4.83-1.69 1.61-3.3 3.35-5.33 4.53-7.14-3.02-14.27-8.96-22.51-6.41 3.23 5.51 10.24 5.32 14.81 9.07 2.64 1.85 5.37 4.06 8.77 4.09 4.64.22 9.32.15 13.92 1.02-1.29 1.75-2.59 3.49-3.89 5.22.11.66.34 1.98.45 2.64 4.78-.04 9.56-.35 14.34-.47-1.03 2.2-2.32 4.35-2.75 6.77-.17 2.06 1.69 3.69 3.49 4.31 2.22.19 4.33-.82 6.45-1.35 1.54 2.76 2.74 5.76 4.76 8.23 2.59 2.15 6.11 3.27 7.76 6.46-5.9-1.96-11.07-5.48-16.21-8.88-.13 1.56-.31 3.15-.01 4.71 2.07 2.45 5.82 3.29 7.27 6.23.89 4.02-4.5 3.73-7.04 4.53 4.54.87 9.17 1.24 13.8 1.17.95-1.11 1.91-2.2 2.86-3.31 3.04.54 6.06 1.62 7.32 4.71-15.45-.11-30.86-1.48-46.29-2.14-6.72-.53-13.49-.1-20.2-.81-4.58-.47-9.18-.81-13.78-1.04-7.54-.91-15.17-.02-22.67-1.25-4.43-.69-8.88-1.17-13.32-1.7 1.06-2.67 1.92-5.41 3.13-8.02 1.11-2.4 3.27-4.08 4.57-6.36-.15-2.87-.71-5.79.23-8.59 1.36 1.62 2.69 3.27 4.02 4.93-.95-3.88-2.67-7.62-2.93-11.64.5-2.86 2.06-6.13 4.98-7.14 2.46-.89 4.43 1.1 6.35 2.29 4.26 3.05 10.03 2.86 14.74 1-.24-.68-.73-2.04-.97-2.72-4.71-.92-9.38-2.09-14.02-3.32-.21-3.67.16-7.34 1.14-10.88-1.43-.26-2.87-.51-4.29-.76-.07-.61-.19-1.82-.25-2.43 1.15-.94 2.29-1.88 3.44-2.82z" fill="#8c8c8c"/><path d="m346.34 298.27c2.74-1.58 4.77-4.05 6.84-6.38 1.35.09 2.7.2 4.05.31-1 4.44-2.44 9-5.56 12.44-1.86 1.78-4.31 2.73-6.58 3.87 1.45.99 2.91 1.98 4.3 3.08-4.68 6.24-5.18 14.28-8.85 21-2.62 5.03-3.3 10.84-6.2 15.74-3.21 5.44-4.65 11.69-7.79 17.16-3.01 5.18-3.73 11.28-6.57 16.52-2.81 5.1-4.81 10.59-6.79 16.05-.79 2.08-.71 4.34-.58 6.53 3.51-4.96 4.59-10.98 6.78-16.51 5.04-8.6 8.15-18.13 12.37-27.13 4.64-10.76 8.97-21.66 13.85-32.32 5.71 4.9 2.72 12.9 3.35 19.37.62 6.84.35 13.67-.22 20.49 1.12-.08 2.24-.17 3.37-.25-4.8 4.83-9.92 9.35-14.3 14.58-3.02 3.63-6.44 6.9-9.94 10.05-4.17 3.58-6.39 9.02-11.24 11.86-.18 1.04-.35 2.1-.52 3.16-.99.09-1.98.18-2.97.24-1.04 1.47-2.07 2.94-3.09 4.43-.57-.07-1.7-.22-2.27-.29-.18-12.57-1.91-25.05-2.47-37.6-.56-10.53-1.94-20.99-2.53-31.51-.35-7.69-1-15.37-1.67-23.04 5.54-1.31 11.88-1.59 16.13-5.85 3.94-3.96 9.07-6.29 13.62-9.41 4.68-3.26 10.58-3.78 15.48-6.59z" fill="#8c8c8c"/><path d="m377.68 340.59c.34.12 1.03.37 1.38.5.2 1.34.48 2.69.76 4.03 9.68-.16 17.69 6.93 27.37 7.1-.38.22-1.13.67-1.5.89 2.91 1.43 6.02 2.54 8.63 4.52 2.36 1.64 1.57 4.88 1.78 7.34-.24 4.92.19 9.85 1.43 14.63 1.14 3.95-.66 7.97.04 11.95.21 2.16 1.11 4.48.07 6.57-1.47 3.15-2.08 6.6-1.94 10.07-.11 2.99-2.35 5.37-3.47 8.04-4.72 7.68-7.08 16.83-13.29 23.54.07-7.77-3.63-14.8-5.27-22.24-1.2-5.31-2.36-10.63-4.01-15.83-1.07-4.03-1.9-8.13-3.07-12.13-3.92-12.36-5.28-25.37-9.38-37.68-1.27 4.18-1.49 8.58-1 12.9.91 8.82.28 17.71 1.18 26.53.66 20.79.04 41.62.76 62.42-.55 9.74-.32 19.51-.26 29.26-5.74-2.92-9.49-8.26-14.56-12.03-.13.74-.39 2.24-.51 2.99-3.57-3.99-6.8-8.37-11.18-11.54-5.49-3.84-8.71-10.08-14.29-13.82-2.58-2.46-5.96.48-8.94.07-1.66-.88-2.19-2.98-2.37-4.71-.49-2.45 2.61-3.07 4.05-4.36-.35-.32-1.05-.96-1.4-1.28-1.18.37-2.34.78-3.51 1.18.21-1.15.42-2.3.64-3.43-2.31-2.41-4.93-4.45-7.48-6.58-2.13-1.73-2.72-4.53-3.66-6.96 1.77.69 3.54 1.4 5.31 2.11-2.11-3.75-4.18-7.51-6.07-11.37 1.78-.96 3.67-1.8 5.22-3.14.72-1.78 1.06-3.69 1.48-5.55 5.42-4.9 10.66-10.08 14.7-16.19 4.8-4.15 10.03-7.94 13.8-13.14 2.08-2.94 4.76-5.35 7.44-7.72 4.39-3.95 7.22-9.4 12.13-12.82 1.82-1.23 3.55-2.77 3.75-5.1-.28-.23-.84-.71-1.11-.94l-.52-.44c2.64-2.21 4.93-4.8 6.87-7.64z" fill="#8c8c8c"/><path d="m447.95 58.98c1.46-4.36 6.39-5.62 10.52-4.98.74 2.34 1.83 4.55 3.31 6.52-2.34 1.01-4.68 2.06-7 3.12 2.09 1.75 4.97 3.02 6.15 5.59.91 4.98-1.02 9.89-2 14.72.52-.27 1.56-.83 2.08-1.1-.5 1.14-1.02 2.29-1.89 3.2-1.47 1.64-2.73 3.47-3.68 5.46-.29.71-.76 1.26-1.4 1.66-1.69.68-2.68 2.24-2.55 4.06.05 1.04-.43 1.68-1.42 1.94-1.06.23-1.71.88-1.92 1.94-.28.48-.82 1.45-1.09 1.93-1.22 1.09-2.69 2.24-2.73 4.02-.06.38-.17 1.13-.23 1.5l-.58.45c-4.02 2.53-5.89 7.08-9.25 10.24-3.37 2.54-7.87 2.13-11.84 2.57-.16.01-.49.04-.65.05l-.3-.42c-3.21-4.16-6.91-8.49-6.29-14.16.58-5.13 3.93-9.35 7.14-13.17 3.99-3.82 7.61-8.13 9.67-13.32.66-1.4 1.42-2.74 2.16-4.09l.67.11c1.41.67 2.07-1.09 1.41-2.12 1.39-2.89 3.48-5.47 5.61-7.82 1.36.22 2.25-1.21 1.2-2.22.43-.81 1.06-1.43 1.88-1.84 1.63-.68 2.78-2.07 3.02-3.84z" fill="#909090"/><path d="m268.51 118.56c8.72-1.66 17.71.36 26.52.29l.01 1.18c-5.06.22-10.08-.6-15.1-1.06.81.56 1.64 1.1 2.47 1.64-.37 2.23-.83 4.61.09 6.79 1.5 3.98 3.06 8.04 5.58 11.5 2.07 3.08 6.21 2.59 9.38 3.52-1.3 1.2-2.58 2.43-3.88 3.64.34 3.04.62 6.09 1.36 9.06 1.29 5.24 4.6 9.73 5.75 15.02 1.15 4.23 1.47 9.18 4.92 12.32.76.94 1.97.77 3.03.75 3.68-.41 7.78 1.48 10.75-1.6 12.48 3.96 25.43 6.13 38.43 7.6 6.88.57 13.51 2.53 20.23 3.92 4.09.98 7.93-1.34 11.96-1.58 2.32-.05 4.37 1.22 6.44 2.1 3.22 1.54 6.77 2.29 10.32 2.58 3.93.32 7.57-1.45 11.13-2.85.56 1.35 1.14 2.7 1.72 4.06 4.51 1.06 8.98 2.32 13.29 4.02 1.47-.66 2.93-1.32 4.41-1.99 2.51 1.24 5.12 2.27 7.73 3.28.66.83 1.32 1.68 1.96 2.55-3.3-.34-6.57-.84-9.83-1.4-5.5-.92-11.06-1.59-16.64-1.44 2.15 1.15 4.45 2.1 6.39 3.62 2.72 8.85 1.48 18.28 2.33 27.4 5.9-3.07 7.89-10.23 13.65-13.57.23 8.03-1.76 16-.78 24.04 1.15 9.31.67 18.7.77 28.06.12 6.36-1.98 12.84-.09 19.09 1.11 3.78 4.17 6.46 6.84 9.17 4.24 4.14 8.66 9.12 8.66 15.42-.37 3.85-1.83 7.53-1.96 11.44-.15 1.21-.26 2.43-.41 3.66-.6 1.43-1.4 2.76-2.15 4.11-2.25 3.87-4.06 7.98-5.58 12.18-.14.35-.44 1.06-.59 1.41-1.41 2.19-2.78 4.44-3.57 6.95-.5 1.42-.8 2.9-1.11 4.38-.51.39-1.52 1.16-2.02 1.55-6.3-17.68-12.57-35.37-18.08-53.31-2.39-6.19-4.14-12.64-6.98-18.65-1.07-6.15-3.43-11.92-5.54-17.76-.78-2.06-1.28-4.48-3.25-5.77-3.67-2.65-7.52-5.08-10.94-8.07-5.11-4.49-10.86-8.16-16.12-12.45-3.71-2.88-7.42-5.76-11.1-8.67-4.13-3.09-8.75-5.52-12.52-9.08-5.69-5.46-12.74-9.16-18.67-14.32-4.75-3.95-9.79-7.54-14.59-11.44-5.25-4.16-9.95-9.17-16.2-11.87-4.56-4.89-7.8-10.85-9.8-17.21-2.71-8.32-7.72-15.9-8.32-24.82-.56.27-1.1.57-1.62.9.38 7.49 5.28 13.79 6.09 21.19.58 4.04 2.35 7.9 2.03 12.04-2.06-.43-4.12-.88-6.15-1.46-5.64-1.73-11.38-3.13-17.04-4.78-4.11-1.28-8.3-2.78-12.66-2.59-2.35.01-3.88 2.05-5.53 3.43-1.21-2.84-2.86-5.46-4.59-8-.12-.48-.35-1.44-.46-1.92.05-6.69 4.87-11.6 7.79-17.17 1.5-2.67-.18-5.74.45-8.54 1.93-2 4.28-3.53 6.43-5.28-2.33-.67-4.66-1.29-6.99-1.92 2.43-2.13 5.42-3.41 8.42-4.49-2.2-2.66-5.53-3.49-8.83-3.74 1.22-.42 2.43-.85 3.65-1.29-1.01-.13-2.02-.25-3.03-.37.18-.65.34-1.31.51-1.96-.29-.2-.86-.61-1.14-.81l-.78-.53c1.69-.53 3.47-.77 5.26-.66 2.74.32 5.48-.04 7.89-1.44z" fill="#909090"/><path d="m138.7 187.05c.87-.94 1.77-1.85 2.7-2.74.04.24.12.72.16.97.12.74.21 1.48.31 2.23.56 1.01 1.11 2.03 1.66 3.06-3.01.69-5.99 1.52-8.98 2.25 2.63 2.92 5.41 5.7 8.36 8.3 4.22 3.75 7.66 8.31 12.05 11.89 5.16 4.14 8.65 9.99 13.97 13.96 2.44 1.86 5.52 3.1 7.09 5.9 2.09 3.81 5.69 6.32 8.88 9.13.98 4.75 3.31 8.92 6.5 12.52-.15 2.44-1.45 4.68-1.75 7.13-.77 6.73-3.88 12.97-4.09 19.81 5.03-9.26 7.68-19.52 11.16-29.39 1.22.8 2.43 1.61 3.69 2.35-1.15.94-2.29 1.88-3.44 2.82.06.61.18 1.82.25 2.43 1.42.25 2.86.5 4.29.76-.98 3.54-1.35 7.21-1.14 10.88 4.64 1.23 9.31 2.4 14.02 3.32.24.68.73 2.04.97 2.72-4.71 1.86-10.48 2.05-14.74-1-1.92-1.19-3.89-3.18-6.35-2.29-2.92 1.01-4.48 4.28-4.98 7.14.26 4.02 1.98 7.76 2.93 11.64-1.33-1.66-2.66-3.31-4.02-4.93-.94 2.8-.38 5.72-.23 8.59-1.3 2.28-3.46 3.96-4.57 6.36-1.21 2.61-2.07 5.35-3.13 8.02-1.41-.21-2.81-.45-4.2-.72-1.57-7.3-4.97-14-7.22-21.09-8.31-21.52-16.19-43.21-24.58-64.7-3.7-9.79-7.57-19.51-10.64-29.52-1.54 2.13-3.07 4.27-4.44 6.52.56-1.97.94-3.99 1.57-5.93 1.45-2.37 3.46-4.36 5.51-6.21.93-.59 1.75-1.32 2.43-2.18z" fill="#909090"/><path d="m458.47 54c1.94-.02 3.88.01 5.83.12.69 1.07 1.61 1.95 2.54 2.82.72.7 1.4 1.46 2.02 2.27.44 1.9.9 3.8 1.39 5.69.96 4.94-1.63 9.91-5.15 13.23-1.41 1.53-2.17 3.7-4.09 4.72-.52.27-1.56.83-2.08 1.1.98-4.83 2.91-9.74 2-14.72-1.18-2.57-4.06-3.84-6.15-5.59 2.32-1.06 4.66-2.11 7-3.12-1.48-1.97-2.57-4.18-3.31-6.52z" fill="#838383"/><path d="m365.41 239.45c1.07-1.03 2.3-1.88 3.5-2.76 3.68 2.91 7.39 5.79 11.1 8.67-1.43 1.31-3.65 2.41-3.31 4.7.08 3.81-.74 7.53-1.42 11.25-.67 3.31 1.83 6.01 3.35 8.68-3.44 5.49-7.71 11.24-14.53 12.45-.78-.65-1.53-1.32-2.26-2.01-1.53-1.9-2.52-4.15-3.56-6.33 1.18-.32 2.37-.57 3.58-.74 2.35 1.48 4.36 3.43 6.6 5.08-1.21-9.78-1.32-19.65-1.55-29.49-.15-3.22-1.26-6.3-1.5-9.5z" fill="#838383"/><path d="m329.6 277.91c6.14.85 12.25 2.02 18.15 3.97 2.32.98 4.64 1.97 7 2.87-1.11.56-2.21 1.12-3.3 1.68.53 1 1.06 1.99 1.61 2.99-3.92 2.74-7.85 5.52-12.31 7.34-6.13 2.51-11.14 7.5-17.91 8.42 2.87-5.83 9.24-7.81 14.59-10.55-.19-1.3-.55-2.57-.86-3.83.75-1.04 1.51-2.07 2.28-3.1-3.09-3.26-6.54-6.19-9.25-9.79z" fill="#838383"/><path d="m351.34 315.09c1.56-3.38 3.08-6.78 4.39-10.27-.73 2.68-.02 5.35 1.55 7.58-.75 4.16-1.45 8.35-1.36 12.6.21 12.26-.07 24.52.08 36.79 1.35-.58 2.71-1.13 4.05-1.75-2.6 2.78-5.25 5.51-7.94 8.2-1.13.08-2.25.17-3.37.25.57-6.82.84-13.65.22-20.49-.63-6.47 2.36-14.47-3.35-19.37 1.89-4.52 3.62-9.11 5.73-13.54z" fill="#838383"/><path d="m464.3 54.12c1.53-1.52 4.08 1.39 2.54 2.82-.93-.87-1.85-1.75-2.54-2.82z" fill="#3d3d3d" opacity=".27"/><path d="m109.62 54.62c.61.1 1.81.3 2.41.4-4.36 3.62-6.17 8.96-7.05 14.38-.87-2.54-1.76-5.44-.78-8.05 1.98-2.1 4.08-4.13 5.42-6.73z" fill="#c2c2c2" opacity=".96"/><path d="m468.86 59.21c1.94-.16 3.43 5.01 1.39 5.69-.49-1.89-.95-3.79-1.39-5.69z" fill="#d9d9d9"/><path d="m203.9 515.77c2.21 2.81 3.27 6.26 3.94 9.72-3.91-1.36-2.69-6.55-3.94-9.72z" fill="#d9d9d9"/><path d="m128.93 60.67c5.07-.45 5.8 5.58 6.43 9.31-2.36-2.95-4.77-5.89-6.43-9.31z" fill="#cfcfcf"/><path d="m441.65 66.01c.35-.34 1.05-1.02 1.4-1.35 1.05 1.01.16 2.44-1.2 2.22z" fill="#cfcfcf"/><path d="m434.73 75.88c.38-.3 1.13-.88 1.51-1.18.66 1.03 0 2.79-1.41 2.12z" fill="#cfcfcf"/><path d="m448.15 101.11c.21-1.06.86-1.71 1.92-1.94.37 1.67-.27 2.32-1.92 1.94z" fill="#cfcfcf"/><path d="m163.13 165.02c-.58-1.71.01-2.41 1.79-2.1-.27.99-.87 1.69-1.79 2.1z" fill="#cfcfcf"/><path d="m105.73 70.14c2.85 2.64 4.83 6.04 6.15 9.67-.62-.15-1.86-.46-2.49-.61-1.4-2.93-3.49-5.7-3.66-9.06z" fill="#bababa" opacity=".89"/><path d="m135.67 70.55c1.77-1.31 3.96 2.06 3.12 3.57-1.76-.35-2.52-2.08-3.12-3.57z" fill="#adadad" opacity=".85"/><path d="m281.49 73.14c2.93 1.96 5.84 3.94 8.66 6.06-4.1.61-6.52-3.19-8.66-6.06z" fill="#ccc"/><path d="m299.97 76.7c.64-.31 1.93-.94 2.57-1.25-.25 1.11-.93 1.73-2.06 1.87z" fill="#d3d3d3"/><path d="m140.94 76.69c2.02 2.53 4.45 4.64 6.95 6.68.59 1.5.33 3.16.47 4.73-3.05-3.38-6.24-6.87-7.42-11.41z" fill="#c8c8c8" opacity=".97"/><path d="m429.3 80.86c.67-.01 2.03-.05 2.7-.06-2.06 5.19-5.68 9.5-9.67 13.32 2.85-4.15 4.42-8.95 6.97-13.26z" fill="#bbb" opacity=".84"/><path d="m113.26 82.09c1 .87 1.69 2.01 2.26 3.2-1.67 1.19-3.76-1.96-2.26-3.2z" fill="#464646" opacity=".31"/><path d="m455.44 91.51c.95-1.99 2.21-3.82 3.68-5.46-.01.67-.03 2.02-.05 2.7-1.18.96-2.36 1.93-3.63 2.76z" fill="#d6d6d6"/><path d="m198.75 502.01c2.37 3.35 3.67 7.29 4.11 11.36-2.58-3.27-3.44-7.36-4.11-11.36z" fill="#d6d6d6"/><g fill="#a4a4a4"><path d="m117.05 87.09c2.7 3.32 6.57 6.07 7.44 10.51-3.9-2.24-5.63-6.63-7.44-10.51z"/><path d="m124.57 97.84c1.43 1.01 2.9 2.24 3.28 4.05-2.2-.18-2.59-2.39-3.28-4.05z"/><path d="m260.62 120c1.72-2.39 5.35-.94 7.89-1.44-2.41 1.4-5.15 1.76-7.89 1.44z"/><path d="m315.12 122.46c1.25-1.19 3.75-.82 4.79.5-1.61.62-3.36.49-4.79-.5z"/><path d="m203.56 138.11c2.25-1.82 4.86-3.69 7.8-4-2.38 1.72-5.05 2.98-7.8 4z"/><path d="m201.21 138.59.97-.46.77.45c-.47.23-1.42.68-1.89.91z"/><path d="m193.31 142.62c.44-.04 1.34-.12 1.79-.16-.47.26-1.4.79-1.87 1.05z"/><path d="m182.21 149.32c2.5-2.88 6.22-4.29 9.83-5.19-3.09 2.06-6.41 3.74-9.83 5.19z"/><path d="m416.7 166.72c3.06-.14 3.35 3.69 5 5.58-1.96-1.58-3.66-3.45-5-5.58z"/><path d="m5.6 194.67c2.67-3.1 7.16-2.14 10.79-2.25-3.63.6-7.23 1.35-10.79 2.25z"/><path d="m559.65 192.5c2.85-.17 5.76-.23 8.57.36 1.79 1.17 3.06 2.96 4.28 4.69-3.64-3.02-8.14-4.75-12.85-5.05z"/><path d="m31.64 198.27c2.37.47 5.73-.52 7.05 2.08-2.43-.38-4.78-1.15-7.05-2.08z"/><path d="m534.07 201.29c3.13-1.73 6.43-3.16 10.08-3.15-3.12 1.73-6.6 2.53-10.08 3.15z"/><path d="m128.48 202.3.85-.23c-.17.49-.5 1.47-.67 1.96-.04-.43-.14-1.3-.18-1.73z"/><path d="m49.84 204.66c1.12-.86 4.5-.38 4.09 1.43-1.52.17-3-.36-4.09-1.43z"/><path d="m125.48 210.29.85-.22c-.17.48-.5 1.45-.66 1.93-.05-.42-.14-1.28-.19-1.71z"/><path d="m3.53 211.94c.26.45.77 1.34 1.03 1.79l-.91-.05c-.03-.44-.09-1.3-.12-1.74z"/><path d="m570.21 214.3c-.54-1.59 1.25-3.4 2.83-2.54-.14 1.49-1.42 2.43-2.83 2.54z"/><path d="m7.53 215.15c1.96.81 3.89 1.67 5.82 2.54-2.18-.29-5.45.48-5.82-2.54z"/><path d="m562.68 217.67c1.86-.94 3.72-1.9 5.66-2.69-.16.55-.46 1.64-.62 2.19-1.69.15-3.37.3-5.04.5z"/><path d="m551.72 220.68c2.69-.91 5.47-1.51 8.25-2.07-1.73.7-3.45 1.4-5.18 2.06-.77 0-2.3.01-3.07.01z"/><path d="m20.89 219.74c1.34-.39 2.6.34 3.34 1.43-.95 1.3-4.14.34-3.34-1.43z"/><path d="m24.65 221.59c1.94.66 3.87 1.32 5.81 1.96-1.93-.58-5.24.68-5.81-1.96z"/><path d="m119.24 229.1c.43-2.56 1.05-5.16 2.69-7.25-.68 2.49-1.57 4.92-2.69 7.25z"/><path d="m32.04 223.9c1.45.07 2.81.61 3.96 1.5-1.13 1.14-4.56.45-3.96-1.5z"/><path d="m539.72 225.69c.97-1.62 2.89-2.04 4.63-1.6-1.07 1.49-2.9 1.94-4.63 1.6z"/><path d="m527.78 229.66c2.48-1.14 5.06-2.14 7.81-2.41-.78.64-1.52 1.32-2.2 2.06-1.88.07-3.75.18-5.61.35z"/><path d="m41.6 228.02c.54-.02 1.62-.05 2.16-.07 1.52.49 2.99 1.11 4.45 1.76-2.15-.54-5.34.61-6.61-1.69z"/><path d="m516.88 233.84c.33-.31.99-.94 1.33-1.25l.86.19c-.55.26-1.65.79-2.19 1.06z"/><path d="m458.94 236.54c.49.1 1.47.31 1.96.41.47 2.44.54 4.92.72 7.39-.93-2.59-1.87-5.17-2.68-7.8z"/><path d="m114.43 240.34.85-.23c-.18.5-.55 1.5-.73 2-.03-.45-.09-1.33-.12-1.77z"/><path d="m112.38 248.97c-1.32-1.35 0-4.63 1.71-4.75.02 1.74-.58 3.41-1.71 4.75z"/><path d="m108.54 259.28c.27-3.12-.46-7.25 3.02-8.9-.82 3.03-1.72 6.04-3.02 8.9z"/><path d="m110.21 286.73c1.06 4.01 2.07 8.09 1.88 12.28-.58 0-1.72-.01-2.29-.01.62-4.08 1.32-8.16.41-12.27z"/><path d="m461.92 316.42c.56-.93 1.12-1.86 1.7-2.78-.22 2.78-.48 5.68-2.98 7.4.44-1.54.84-3.09 1.28-4.62z"/><path d="m363.23 356.7c2.62-2.76 5.33-5.42 8.1-8.03.27.23.83.71 1.11.94-.2 2.33-1.93 3.87-3.75 5.1-4.91 3.42-7.74 8.87-12.13 12.82-2.68 2.37-5.36 4.78-7.44 7.72-3.77 5.2-9 8.99-13.8 13.14-4.04 6.11-9.28 11.29-14.7 16.19-1.46 1.16-2.94 2.3-4.51 3.31.17-1.06.34-2.12.52-3.16 4.85-2.84 7.07-8.28 11.24-11.86 3.5-3.15 6.92-6.42 9.94-10.05 4.38-5.23 9.5-9.75 14.3-14.58 2.69-2.69 5.34-5.42 7.94-8.2 1.08-1.1 2.12-2.23 3.18-3.34z"/><path d="m393.78 451.82c.16-.49.49-1.48.66-1.97.04.43.13 1.3.18 1.73z"/><path d="m385.82 470.01c.03-1.47.58-2.85 1.56-3.94 1.03 1.12.33 4.54-1.56 3.94z"/><path d="m368.84 518.11c.71-2.62 1.74-5.14 2.85-7.61-.55 2.64-.73 5.67-2.85 7.61z"/></g><path d="m148.92 89.23c1.54-.61 4.14 2.14 3.14 3.64-1.51-.75-2.65-2.02-3.14-3.64z" fill="#b8b8b8" opacity=".96"/><path d="m451.49 97.23c-.13-1.82.86-3.38 2.55-4.06.62 1.46-.87 4.05-2.55 4.06z" fill="#cecece"/><path d="m128.58 103.26c4.46 3.69 8.79 8.56 9.8 14.43-3.14-3-5.08-6.96-7.73-10.35-.99-1.19-1.67-2.6-2.07-4.08z" fill="#c3c3c3"/><path d="m444.33 107.06c.04-1.78 1.51-2.93 2.73-4.02.85 1.34-1.05 4.7-2.73 4.02z" fill="#d0d0d0"/><path d="m160.19 106.94c.5.02 1.5.06 1.99.08-.33 2.85-.63 5.94-2.15 8.4.13-2.83.23-5.66.16-8.48z" fill="#d1d1d1"/><path d="m424.22 393.13c.12-1.15.52-2.32 1.57-2.92 1.18.98.03 3.85-1.57 2.92z" fill="#d1d1d1"/><path d="m412.98 106.63c.55.16 1.66.49 2.21.66-.62 5.67 3.08 10 6.29 14.16-1.43-.87-2.82-1.78-4.18-2.74-1.39-2.36-2.33-5.01-4.48-6.83-.09-1.75.04-3.51.16-5.25z" fill="#d3d3d3" opacity=".98"/><path d="m434.27 119.25c3.36-3.16 5.23-7.71 9.25-10.24-2.96 4.87-6.34 9.53-9.81 14.08-3.29-.07-6.57.25-9.85.16-.36-.35-1.07-1.07-1.43-1.43 3.97-.44 8.47-.03 11.84-2.57z" fill="#d4d4d4"/><path d="m108.12 265.54c.84 3.87 1.34 7.8 1.31 11.76-2.29-3.52-1.65-7.81-1.31-11.76z" fill="#d4d4d4"/><path d="m138.86 118.19c3.03 1.01 5.94 2.55 9.14 2.95 3.43 0 6.69-1.28 9.84-2.51-1.53 1.61-2.93 3.47-4.89 4.57-3.54.19-7.15.31-10.66-.22-1.48-1.34-2.61-2.98-3.43-4.79z" fill="#bfbfbf" opacity=".9"/><path d="m279.94 118.97c5.02.46 10.04 1.28 15.1 1.06 4.03-.14 8.16.09 12.04 1.24.84.7 1.79.94 2.86.73 1.71.02 3.6-.39 5.18.46 1.43.99 3.18 1.12 4.79.5 2.1-.42 4.26-.21 6.39-.26-1.34.07-2.64.33-3.89.78 1.69.86 3.61.92 5.45.6 4.34-.39 8.67.35 13 .56-1.5-.1-3 .15-4.4.65 1.53 1.17 3.56 1.18 5.27.38 1.8.11 3.64.21 5.39.72 1.46.52 2.98.86 4.53 1.01.83.22 1.66.47 2.48.76l.26.69c1.7 5.67 7.84 7.9 12.04 11.4-2.14 4.48-7.32 4.66-11.59 5.36.5 3.24 2.72 5.5 5.54 6.97-1.2 1-2.4 1.98-3.61 2.96.34.91.67 1.83 1.02 2.75-10.29-4.41-19.86-10.28-29.98-15.07-15.25-7.3-30.03-15.55-45.4-22.61-.83-.54-1.66-1.08-2.47-1.64z" fill="#565656"/><path d="m211.36 134.11c1.58-1.04 3.27-1.91 4.99-2.71-.16 3.78-3.27 6.2-5.67 8.72.57 5.14.07 10.33.84 15.45 1.84 1.47 3.64 2.99 5.51 4.43-1.51.13-3.01.25-4.52.35-5.89-1.8-11.6-4.67-17.94-4.27-5.07-1.77-10.22-3.32-15.21-5.3.93-.51 1.88-1 2.85-1.46 3.42-1.45 6.74-3.13 9.83-5.19.29-.16.89-.47 1.19-.62.47-.26 1.4-.79 1.87-1.05l.85-.29c1.47-.27 2.82-.94 3.96-1.92.29-.19.86-.57 1.15-.76.47-.23 1.42-.68 1.89-.91l.61-.47c2.75-1.02 5.42-2.28 7.8-4z" fill="#565656"/><path d="m376.21 364.79c-.49-4.32-.27-8.72 1-12.9 4.1 12.31 5.46 25.32 9.38 37.68 1.17 4 2 8.1 3.07 12.13-1.66 2.62-4.17 5.23-3.83 8.57.2 3.5.85 6.96 1.25 10.45-1.25 1.69-3.55 3.1-3.78 5.26 1.62 4.5 4.8 8.5 5.17 13.41-.41 3.41-5.24 5.47-3.95 9.24 1.29 4.21-.28 8.95 2.42 12.75 1.79-1.8 3.58-3.6 5.27-5.48-1.23 3.55-2.65 7.09-4.83 10.17-.98 1.09-1.53 2.47-1.56 3.94-1.07 3.99-2.82 7.82-4.99 11.33-3.95-8.7-1.05-18.46-2.68-27.6-.72-20.8-.1-41.63-.76-62.42-.9-8.82-.27-17.71-1.18-26.53z" fill="#565656"/><path d="m242.88 122.23c3.85-1.8 8.33-2.04 12.48-1.57l.78.53c-7.79 1.37-15.56 4.46-23.56 3.18 3.16-1.83 6.84-1.43 10.3-2.14z" fill="#c0c0c0" opacity=".94"/><path d="m307.08 121.27c1.41-1.12 2.36-.88 2.86.73-1.07.21-2.02-.03-2.86-.73z" fill="#aeaeae"/><path d="m232.58 124.37c8 1.28 15.77-1.81 23.56-3.18.28.2.85.61 1.14.81-.17.65-.33 1.31-.51 1.96 1.01.12 2.02.24 3.03.37-1.22.44-2.43.87-3.65 1.29 3.3.25 6.63 1.08 8.83 3.74-3 1.08-5.99 2.36-8.42 4.49 2.33.63 4.66 1.25 6.99 1.92-2.15 1.75-4.5 3.28-6.43 5.28-.63 2.8 1.05 5.87-.45 8.54-2.92 5.57-7.74 10.48-7.79 17.17l-.19 1.03c-2.62-6.02-6.23-11.53-9.17-17.39-4.38-8.06-8.54-16.25-13.3-24.11 2.13-.59 4.04-2.38 6.36-1.92z" fill="#8b8b8b"/><path d="m361.86 133.01c.5-.02 1.5-.07 1.99-.09 6.41 3.19 12.18 7.61 18.82 10.37 1.09.59 2.16 1.24 3.15 2 .2 1.18 2 2.18 2.4.52.21.34.65 1.01.86 1.34.72 1.53 2.31 2.24 3.88 2.6 1.79.37 3.22 1.56 4.69 2.58 2.58 2.09 5.54 3.64 8.78 4.42 3.6 1.06 5.98 4.07 8.57 6.57l-.05.81c-1.22 4.91 3.93 7.7 5.38 11.89-2.56-.21-5.35-.2-7.47-1.87-3.91-2.87-7.71-5.9-12.03-8.14-3.63-2.55-7.28-5.09-10.59-8.04-3.15-4.58-8.2-7.16-12.02-11.07-2.87-2.79-6.52-4.64-9.19-7.66-2.13-2.36-4.66-4.3-7.17-6.23z" fill="#8b8b8b"/><path d="m261.84 474.12c1.16-1.83 2.38-3.62 3.65-5.38.27 6.1 2.3 11.89 5.78 16.89 3.05.25 6.09.59 9.11 1.02-1.47 1.57-2.94 3.14-4.42 4.71 3.13 3.56 7.9 4.25 12.26 5.33 3.49.72 5.44 4.17 8.74 5.29 3.3 1.19 6.78 1.81 10.07 3.03 4.46 1.51 7.92 5.05 12.48 6.34 3.25.93 6.51 2.14 8.82 4.74-2.89-.02-5.77-.39-8.63-.78 1.1 4.23 5.54 4.68 9.16 5.34-.52 1.6-1.02 3.21-1.55 4.82 5.6.43 12.01-.81 16.31 3.76-1.96.76-3.98 1.67-6.13 1.37-5.69-.59-11.36-1.31-17.07-1.49-.14.75-.4 2.26-.54 3.01-10.59-.22-21.19-.2-31.79-.1-.1-.47-.3-1.41-.4-1.89.29-6.87-5.51-11.35-7.87-17.29-1.73-4.21-4.04-8.13-6.76-11.76-2.5-3.18-2.89-8.29-7.36-9.48 2.62 8.67 9.15 15.34 12.52 23.67-2.34 3.45-1.54 7.51-.91 11.33.49 2.1-1.18 3.75-2.16 5.4-6.73.08-13.45-.27-20.17.09-.8.03-2.4.09-3.2.12 4.37-9.62 8.31-19.46 10.44-29.84 2.59-5.13 3.38-10.98 1.99-16.59-.65-3.92-1.74-7.74-2.37-11.66z" fill="#8b8b8b"/><path d="m322.41 123.48c1.25-.45 2.55-.71 3.89-.78.42.21 1.26.62 1.69.83l-.13.55c-1.84.32-3.76.26-5.45-.6z" fill="#b0b0b0"/><path d="m336.46 125.29c1.4-.5 2.9-.75 4.4-.65.22.25.65.77.87 1.03-1.71.8-3.74.79-5.27-.38z" fill="#959595"/><path d="m220.87 129.09c1.61-1.23 3.52-1.97 5.35-2.8 4.76 7.86 8.92 16.05 13.3 24.11 2.94 5.86 6.55 11.37 9.17 17.39-4.29.4-7.95-2.21-11.89-3.4-3.87-1.43-7.98-1.95-12.08-2.07-2.71-.14-5.48-.65-7.69-2.32-1.87-1.44-3.67-2.96-5.51-4.43-.77-5.12-.27-10.31-.84-15.45 2.4-2.52 5.51-4.94 5.67-8.72l.15-.79c.81-.22 1.63-.42 2.46-.58.48-.24 1.44-.71 1.91-.94z" fill="#4a4a4a"/><path d="m456.12 236.09c.57.95 1.15 1.91 1.74 2.87.28-1.07.56-2.14.83-3.2l.25.78c.81 2.63 1.75 5.21 2.68 7.8 1.62 5.64 2.79 11.43 5.02 16.87.04.13.12.39.17.52.11.73.33 2.19.45 2.92-.05 3.81-.12 7.62-.1 11.43-.77 8.96-1.17 18.09-3.08 26.88-.6 1.34-1.26 2.66-1.9 3.98-.84-3.95-.79-8.01-.2-11.99 1.05-6.05-1.78-11.82-1.69-17.85-.05-7.54-1.65-14.93-2.09-22.44-1.23-6.13-2.45-12.28-2.08-18.57z" fill="#4a4a4a"/><path d="m385.83 410.27c-.34-3.34 2.17-5.95 3.83-8.57 1.65 5.2 2.81 10.52 4.01 15.83 1.64 7.44 5.34 14.47 5.27 22.24-.9 3.54-2.26 7.17-4.5 10.08-.17.49-.5 1.48-.66 1.97.43 1.5-.91 2.83-1.57 4.08-1.69 1.88-3.48 3.68-5.27 5.48-2.7-3.8-1.13-8.54-2.42-12.75-1.29-3.77 3.54-5.83 3.95-9.24-.37-4.91-3.55-8.91-5.17-13.41.23-2.16 2.53-3.57 3.78-5.26-.4-3.49-1.05-6.95-1.25-10.45z" fill="#4a4a4a"/><path d="m250.9 503.19c3.7-2.82 7.09-6.25 11.68-7.58-.09 2.25-.18 4.51-.36 6.76-2.13 10.38-6.07 20.22-10.44 29.84-.61.01-1.83.03-2.44.04-.8-1.67-1.61-3.32-2.41-4.98-2.67 1.48-5.43 2.79-8.25 3.94-1.1-5.89.24-11.89-.89-17.76 4.26-3.55 8.75-6.83 13.11-10.26z" fill="#4a4a4a"/><path d="m347.12 126.39c1.06-1.24 4.87-1.1 4.53 1.01-1.55-.15-3.07-.49-4.53-1.01z" fill="#7c7c7c" opacity=".77"/><path d="m219.1 129.11.98-.48.79.46c-.47.23-1.43.7-1.91.94z" fill="#a9a9a9"/><path d="m29.01 197 .83-.42.97.52.09.92c-.47-.26-1.41-.77-1.89-1.02z" fill="#a9a9a9"/><path d="m366.43 140.25c-4.2-3.5-10.34-5.73-12.04-11.4 3.13 1.42 6.44 2.41 9.46 4.07-.49.02-1.49.07-1.99.09 2.51 1.93 5.04 3.87 7.17 6.23 2.67 3.02 6.32 4.87 9.19 7.66 3.82 3.91 8.87 6.49 12.02 11.07-9.5-3.65-15.76-11.95-23.81-17.72z" fill="#727272"/><path d="m195.95 142.17c-.58-1.84 2.69-3.02 3.96-1.92-1.14.98-2.49 1.65-3.96 1.92z" fill="#959595" opacity=".84"/><path d="m366.43 140.25c8.05 5.77 14.31 14.07 23.81 17.72 3.31 2.95 6.96 5.49 10.59 8.04 4.86 5.96 11.36 10.21 17.62 14.56 5.28 3.64 10.52 7.35 15.73 11.08.99-.61 1.97-1.21 2.97-1.81.85 1.1 1.89 2.11 2.53 3.37.37 1.15 1.12 2.14 2.18 2.75 1.6 1.27 3 2.81 4.18 4.49.16.72.48 2.15.63 2.86-.4-.14-1.21-.42-1.62-.56-2.61-1.01-5.22-2.04-7.73-3.28-11.22-6.19-22.77-11.73-34.13-17.65-15.31-7.5-30.18-15.87-45.4-23.53-.35-.92-.68-1.84-1.02-2.75 1.21-.98 2.41-1.96 3.61-2.96-2.82-1.47-5.04-3.73-5.54-6.97 4.27-.7 9.45-.88 11.59-5.36z" fill="#4d4d4d"/><path d="m278.16 202.14c2.62-2.27 5.36-4.42 8.4-6.11 1.74 1.16 3.51 2.3 5.29 3.41.49 18.87.11 37.76.14 56.64-.17 2.98 1.43 5.58 3 7.98-1.16 1.08-2.31 2.16-3.49 3.21.36 1.07.81 2.11 1.16 3.19-5.17-1.2-10.49-2.08-15.31-4.39-1.77-1.69-3.66-3.34-4.86-5.5-.81-3.12-.43-6.39-.46-9.58.25-10.67-.18-21.36.09-32.03 1.09-4.19 3.61-8.1 2.54-12.63 1.26-.18 2.53-.35 3.8-.52-.1-1.22-.2-2.45-.3-3.67z" fill="#4d4d4d"/><path d="m385.82 145.29c.46-.05 1.38-.17 1.84-.22l.56.74c-.4 1.66-2.2.66-2.4-.52z" fill="#dedede"/><path d="m365.62 527.43c.25-.28.75-.85 1-1.13 1.12 1.14.96 1.99-.46 2.54-.13-.35-.4-1.05-.54-1.41z" fill="#dedede"/><path d="m389.08 147.15c1.47-1.35 4.89.71 3.88 2.6-1.57-.36-3.16-1.07-3.88-2.6z" fill="#d7d7d7"/><path d="m287.19 148.85c.52-.33 1.06-.63 1.62-.9.6 8.92 5.61 16.5 8.32 24.82 2 6.36 5.24 12.32 9.8 17.21 6.16 11.91 14.37 22.61 20.86 34.33 2.67 4.66 5.88 9 8.07 13.93-4.77-4.52-7.43-10.61-11.26-15.84-7.16-10.94-13.55-22.36-21.01-33.09-1.29-2.01-4.03-1.47-5.89-.71-4.11 1.84-7.2 5.28-11.14 7.43-3.04 1.69-5.78 3.84-8.4 6.11-1.81.73-3.69 1.27-5.53 1.91 1.89-5.18 6.39-8.55 9.78-12.67 1.56-1.53-.75-3.46-1.18-5.03 2.32-2.32 5.03-4.2 7.93-5.73 2.03.58 4.09 1.03 6.15 1.46.32-4.14-1.45-8-2.03-12.04-.81-7.4-5.71-13.7-6.09-21.19z" fill="#6b6b6b"/><path d="m153.83 293.8c6.73 2.62 11.68 8.24 16.49 13.39.48-.12.96-.25 1.45-.37.25.87.5 1.74.75 2.62 1.18.24 2.36.48 3.55.72 1.39.27 2.79.51 4.2.72 4.44.53 8.89 1.01 13.32 1.7 7.5 1.23 15.13.34 22.67 1.25-10.02.42-20.1.39-30.04-1.02-2.34-.41-4.61.37-6.79 1.13-2.86-3.28-7.26-3.53-11.24-2.58-.79-.58-1.57-1.17-2.34-1.76-.34-1.91-.3-4.15-1.82-5.58-3.42-3.42-8.51-5.3-10.2-10.22z" fill="#6b6b6b"/><path d="m397.65 152.33c3.48.1 6.31 2.17 8.78 4.42-3.24-.78-6.2-2.33-8.78-4.42z" fill="#b0b0b0" opacity=".89"/><path d="m212.51 160.35c1.51-.1 3.01-.22 4.52-.35 2.21 1.67 4.98 2.18 7.69 2.32 3.59 2.64 7.91 3.94 11.66 6.31-4.12 1.79-8.44 3.14-12.37 5.35-5.01 2.64-10.7 3.78-16.33 3.97-.5.03-1.48.09-1.98.12 2.95-1.65 6.04-3.02 9.18-4.28 3.97-1.45 6.4-5.09 9.19-8.03-4.07-1.24-8.67-1.94-11.56-5.41z" fill="#737373"/><path d="m467.26 264.65c1.4 3.7.46 7.66-.1 11.43-.02-3.81.05-7.62.1-11.43z" fill="#737373"/><path d="m224.72 162.32c4.1.12 8.21.64 12.08 2.07 3.94 1.19 7.6 3.8 11.89 3.4l.19-1.03c.11.48.34 1.44.46 1.92-1.46 5.17-4.52 9.71-8.39 13.39 1.79-4 3.73-7.94 5.27-12.04-7.45 1.16-14.51 4.54-22.21 3.95 3.93-2.21 8.25-3.56 12.37-5.35-3.75-2.37-8.07-3.67-11.66-6.31z" fill="#616161"/><path d="m251.22 634.85c18.22-1.43 36.53-.14 54.78-.05 6.24.23 12.5-1.2 18.72-.35.36 1.06.25 2.29-.24 3.31-.69-1.86-2.36-3.22-4.42-2.89-15.03.33-30.05-.03-45.06-.32-7.93-.19-15.85.77-23.78.3z" fill="#616161"/><path d="m414.95 164.13c.58.86 1.16 1.73 1.75 2.59 1.34 2.13 3.04 4 5 5.58 2.16 1.99 4.53 3.86 6.13 6.37-1.02 1.02-.09 2.41 1.25 2.21 2.06.84 2.94 3.41 4.16 5.18.44.29 1.3.87 1.74 1.15.8.8 1.47 1.73 2.17 2.63-1 .6-1.98 1.2-2.97 1.81-5.21-3.73-10.45-7.44-15.73-11.08-6.26-4.35-12.76-8.6-17.62-14.56 4.32 2.24 8.12 5.27 12.03 8.14 2.12 1.67 4.91 1.66 7.47 1.87-1.45-4.19-6.6-6.98-5.38-11.89z" fill="#777"/><path d="m446.04 200.45c4.42 1.64 5.3 7.23 5.95 11.35-.57 5.4.12 10.86-.73 16.24-.69 4.19.67 8.28 1.2 12.4.5 3.82-.34 7.74.7 11.49.74 2.86 1.71 5.73 1.44 8.73-.52 6.22.37 12.45-.12 18.68-.33 4.6 1.48 8.96 1.79 13.5.23 3.36-.78 6.65-.68 10.01.88 2.42 2.96 4.15 4.34 6.28 1.59 2.07 1.72 4.79 1.99 7.29-.44 1.53-.84 3.08-1.28 4.62-.2.29-.6.88-.81 1.18-1.14.59-2.23 2.28-.77 3.21-.39.24-1.18.74-1.57.99-.28.17-.85.53-1.14.71.13-3.91 1.59-7.59 1.96-11.44 0-6.3-4.42-11.28-8.66-15.42-.22-9.45-.43-18.92-1.39-28.33-.39-3.94-.22-7.9.02-11.84.48-7.02-.83-14.03-.06-21.04.39-5.57 2.14-11.26.42-16.77-1.17-3.42-.78-7.02.02-10.46-3.38 2.17-6.24 5.96-10.63 5.75.95-1.57 1.91-3.14 2.92-4.67-1.54-.5-3.08-1.01-4.58-1.6.21-1.73 1.51-3.01 2.43-4.39-1.39-.64-2.77-1.29-4.14-1.93.63-.27 1.89-.82 2.52-1.09 3.26.56 6.53 1.06 9.83 1.4-.64-.87-1.3-1.72-1.96-2.55.41.14 1.22.42 1.62.56-.15-.71-.47-2.14-.63-2.86z" fill="#777"/><path d="m239.78 470.12c1.14.16 2.27.34 3.41.52 3.55 5.5 9.25 9.08 13.01 14.41 1.25 2.37 3.09 4.91 2.74 7.7-2.07 3.95-7.08 5.74-8.04 10.44-4.36 3.43-8.85 6.71-13.11 10.26-7.2 4.91-13.89 10.56-21.57 14.73 1.23-1.72 2.42-3.5 4.08-4.83 7.24-5.83 15.03-10.94 22.2-16.87 3.55-2.83 4.77-7.39 6.92-11.2-.89-1.13-1.78-2.25-2.51-3.47.37-2.42 1.57-4.6 2.57-6.8-2.41-5.47-6.27-10.06-9.7-14.89z" fill="#777"/><path d="m277.31 526.6c-.63-3.82-1.43-7.88.91-11.33 3.03 5.03 6.43 9.83 9.47 14.86.1.48.3 1.42.4 1.89-4.32 0-8.63-.04-12.94-.02.98-1.65 2.65-3.3 2.16-5.4z" fill="#777"/><path d="m155.96 170.85c-.28-1.81.43-2.39 2.13-1.73-.45.89-1.16 1.46-2.13 1.73z" fill="#dfdfdf"/><path d="m231.2 532.01c1.2-.09 2.4-.08 3.6.01.41 1.77-3.99 1.74-3.6-.01z" fill="#dfdfdf"/><path d="m224.01 173.98c7.7.59 14.76-2.79 22.21-3.95-1.54 4.1-3.48 8.04-5.27 12.04-.23.43-.69 1.31-.92 1.75-4.29 4.61-6.98 10.38-10.79 15.36-2.73 3.6-4.39 8.03-7.97 10.94-1.6 1.4-3.03 2.97-4.37 4.63-2.88-1.82-2.96-5.34-3.41-8.37-2.16-.35-4.32-.69-6.48-1.03-.05-5.21 4.6-9.02 4.24-14.29.53-4.7-1.15-9.18-3.57-13.11 5.63-.19 11.32-1.33 16.33-3.97z" fill="#464646"/><path d="m44.81 202.22c1.91.25 3.57 1.23 5.03 2.44 1.09 1.07 2.57 1.6 4.09 1.43 2.46.01 4.65 1.34 6.98 1.97 4.69 1.62 9.99 2.75 13.2 6.89 3.5 5.13 2.67 12.99-2.25 16.95-2.32 2.29-5.76 2.72-8.87 2.6-5.21-.53-9.97-2.91-14.78-4.79-1.46-.65-2.93-1.27-4.45-1.76.14-.87.26-1.75.42-2.61-2.73-1.58-5.33-3.4-7.78-5.39 1.07-5.19.42-10.89 2.86-15.7 2.27-1.51 5.54-.28 8.18-.44-.87-.54-1.75-1.07-2.63-1.59z" fill="#464646"/><path d="m527.58 203.6c3.2.18 6.67-.28 9.67 1.07 4 3.18 3.28 8.88 3.28 13.41.31 3.6-3.8 4.72-6.2 6.4.46.5 1.39 1.48 1.85 1.98l.26.68-.85.11c-2.75.27-5.33 1.27-7.81 2.41-2.88 1.11-5.76 2.24-8.71 3.12l-.86-.19c-.34.31-1 .94-1.33 1.25-3.18.51-6.51 1.08-9.63 0-3.77-1.45-6.6-4.8-7.52-8.72.88-1.67.85-3.63-.08-5.26.89-6.19 6.76-9.44 12.31-10.71.58-.18 1.73-.55 2.31-.73 4.38-1.75 8.77-3.48 13.31-4.82z" fill="#464646"/><path d="m265.33 176.25c2.26-.17 4.52-.36 6.79-.41 5.66 1.65 11.4 3.05 17.04 4.78-2.9 1.53-5.61 3.41-7.93 5.73.43 1.57 2.74 3.5 1.18 5.03-3.39 4.12-7.89 7.49-9.78 12.67-3.73 1.92-7 4.57-10.32 7.09-7.4 5.44-15.51 9.82-22.89 15.29-2.45 1.85-5.3 3.06-8.17 4.1.36-1.13.72-2.26 1.07-3.39 9.01-4.52 17.79-9.78 25.23-16.64 2.63-1.98 5.6-3.42 8.39-5.14-4.66-9.16-.68-19.44-.61-29.11z" fill="#7c7c7c"/><path d="m193.79 180.08c4.05-.08 8.16-.35 11.91-2.01.5-.03 1.48-.09 1.98-.12 2.42 3.93 4.1 8.41 3.57 13.11.36 5.27-4.29 9.08-4.24 14.29 2.16.34 4.32.68 6.48 1.03.45 3.03.53 6.55 3.41 8.37 1.34-1.66 2.77-3.23 4.37-4.63-3.12 9.14-9.48 16.6-14.5 24.71-4.07 5.6-6.56 12.34-11.76 17.09-1.44-2.27-2.9-4.55-4.7-6.56 2.17-2.42 2.97-5.52 2.55-8.71-1.76-.36-3.51-.73-5.27-1.11.94-4.64-1.82-8.89-1.62-13.5.19-9.12-.14-18.25.56-27.36-.06-4.48.4-8.99 2.35-13.08 1.67-.41 3.29-.96 4.91-1.52z" fill="#4b4b4b"/><path d="m140.58 226.76c.94-1.16 2.46-1.62 3.69-2.39 8.39 21.49 16.27 43.18 24.58 64.7 2.25 7.09 5.65 13.79 7.22 21.09-1.19-.24-2.37-.48-3.55-.72-.25-.88-.5-1.75-.75-2.62-.49.12-.97.25-1.45.37-4.81-5.15-9.76-10.77-16.49-13.39-2.97-2.78-5.97-5.59-9.41-7.79-1.6-2.73-3.64-5.55-3.14-8.9.58-5.55-1.48-10.98-.75-16.52.84-7.17.56-14.41.54-21.61.01-4.08-.96-8.15-.49-12.22z" fill="#4b4b4b"/><path d="m406.07 300.96c-.06-7.32 2-14.51 5.11-21.09.93 3.46 1.69 7.21 4.68 9.54 2.84 6.01 4.59 12.46 6.98 18.65 5.51 17.94 11.78 35.63 18.08 53.31-.19.6-.56 1.82-.74 2.43-3.79-1.78-6.94-4.81-11.06-5.85-4.81-1.4-9.52-3.4-14.6-3.47-1.6-.76-3.17-1.55-4.68-2.45-3.89-5.91-3.79-13.24-3.81-20.03.11-10.35-.02-20.69.04-31.04z" fill="#4b4b4b"/><path d="m241.27 316.24c2.98-.24 5.97-.48 8.97-.56 15.43.66 30.84 2.03 46.29 2.14.76.12 2.28.35 3.04.46-5.48 4.26-11.78 7.22-17.88 10.43-12.36 6.4-24.55 13.1-36.8 19.71-1.2-1.55-2.39-3.1-3.57-4.65-1.64-.11-3.28-.22-4.92-.32-.39-5.65-1.08-11.43.13-17.02 1.22-3.56 3.66-6.57 4.74-10.19z" fill="#4b4b4b"/><path d="m429.08 180.88c-1.34.2-2.27-1.19-1.25-2.21.36.33 1.08 1 1.45 1.33z" fill="#c3c3c3"/><path d="m174.07 184.43c5.05-.3 9.85-1.98 14.81-2.83-1.95 4.09-2.41 8.6-2.35 13.08-.7 9.11-.37 18.24-.56 27.36-.2 4.61 2.56 8.86 1.62 13.5 1.76.38 3.51.75 5.27 1.11.42 3.19-.38 6.29-2.55 8.71-1.78-1.16-3.63-2.2-5.41-3.36-3.19-2.81-6.79-5.32-8.88-9.13-1.57-2.8-4.65-4.04-7.09-5.9-5.32-3.97-8.81-9.82-13.97-13.96-4.39-3.58-7.83-8.14-12.05-11.89-2.95-2.6-5.73-5.38-8.36-8.3 2.99-.73 5.97-1.56 8.98-2.25 6.26-.64 12.33-2.4 18.59-3.01 4.16-.36 7.75-2.93 11.95-3.13z" fill="#555"/><path d="m557.78 192.6c.47-.03 1.4-.07 1.87-.1 4.71.3 9.21 2.03 12.85 5.05 1.04 1.54 1.74 3.28 2.5 4.98v3.39c-.28.32-.84.96-1.12 1.28l.31.85c-.39 1.24-.78 2.47-1.15 3.71-1.58-.86-3.37.95-2.83 2.54-.46.17-1.4.51-1.87.68-1.94.79-3.8 1.75-5.66 2.69-.91.31-1.82.62-2.71.94-2.78.56-5.56 1.16-8.25 2.07.77 0 2.3-.01 3.07-.01-1.49.57-2.99 1.08-4.49 1.6-1.34-.64-2.43-.35-3.27.87-.9.31-1.79.63-2.68.95-1.74-.44-3.66-.02-4.63 1.6l-.49.52c-.76.06-2.29.19-3.05.25-.46-.5-1.39-1.48-1.85-1.98 2.4-1.68 6.51-2.8 6.2-6.4 0-4.53.72-10.23-3.28-13.41-3-1.35-6.47-.89-9.67-1.07 2.14-.83 4.31-1.59 6.49-2.31 3.48-.62 6.96-1.42 10.08-3.15l.78-.19c.5-.31 1.49-.95 1.98-1.27h.71c1.24.18 2.43.03 3.57-.44 1.52-1.34-1.35-1.93-2.24-1.41 1.47-.27 2.96-.5 4.44-.78 1.57.69 4.03.68 4.39-1.45z" fill="#555"/><path d="m129.19 201.37c1.37-2.25 2.9-4.39 4.44-6.52 3.07 10.01 6.94 19.73 10.64 29.52-1.23.77-2.75 1.23-3.69 2.39-.47 4.07.5 8.14.49 12.22.02 7.2.3 14.44-.54 21.61-.73 5.54 1.33 10.97.75 16.52-.5 3.35 1.54 6.17 3.14 8.9-6.23-3.4-10.89-8.9-16.89-12.62-2.06-1.33-4.21-2.51-6.31-3.78-4.21-3.28-8.63-6.3-13.28-8.93.15-.35.45-1.05.6-1.4 1.3-2.86 2.2-5.87 3.02-8.9.21-.35.62-1.06.82-1.41 1.13-1.34 1.73-3.01 1.71-4.75.12-.53.35-1.59.46-2.11.18-.5.55-1.5.73-2 .48-3.78 2.65-7.37 3.96-11.01 1.12-2.33 2.01-4.76 2.69-7.25 1.24-3.26 1.74-6.98 3.74-9.85.16-.48.49-1.45.66-1.93-.16-2.13 1.39-4.18 2.33-6.04.17-.49.5-1.47.67-1.96z" fill="#555"/><path d="m270.91 380.94c5.46-10.95 10.59-22.06 16.02-33.03 1.12 2.87 3.96 5.98 2.25 9.14-1.47 3.54-3.06 7.13-5.77 9.92 1.2 2.18 4.01 4.83 2.04 7.37-2.53 3.26-6.39 7.02-4.46 11.53 2.05 1.07 4.28 1.71 6.47 2.43-1.62 1.12-3.37 2.08-4.76 3.48-1.57 5.14-1.44 11.3 2.3 15.51-.21.73-.42 1.47-.62 2.21 1.41.42 2.82.83 4.23 1.24.11 1.28.21 2.56.33 3.86-4.92 3.05-10.9.99-16.26 2.27-6.49 1.38-13.14 1.43-19.73 1.18 5.61-12.55 12.02-24.72 17.96-37.11z" fill="#555"/><path d="m150.05 393.1c12.62-3.92 24.33-10.27 36.58-15.2 2.13 1.84 4.08 3.87 5.74 6.15-3.09-.52-6.14-1.2-9.18-1.97-.42 4.35-1.15 8.65-1.82 12.97-.88 5.62.44 11.84 4.43 16.05.94 1.22 3.12 2.59 1.75 4.3-1.31 2.02-1.99 4.34-2.07 6.75-5.27-4.61-10.15-9.65-15.69-13.93-5.67-4.35-10.02-10.42-16.61-13.5-1.04-.56-2.08-1.1-3.13-1.62z" fill="#555"/><path d="m228.88 435.81c6.04-4.29 11.5-9.37 17.81-13.31-.9 2.07-1.33 4.47-3.01 6.1-1.41 1.6-3.45 2.81-4.11 4.95-1.22 4.03-1.6 8.28-1.6 12.47 0 4.73 1.79 9.18 2.36 13.83.44 3.43-.12 6.87-.55 10.27-8.2-8.14-17.05-15.62-25.85-23.12 4.74-4.04 9.5-8.12 14.95-11.19z" fill="#555"/><path d="m229.24 199.18c3.81-4.98 6.5-10.75 10.79-15.36-1.83 5.45-5.4 10.02-8.21 14.97-6.16 10.41-13.51 20.08-19.2 30.78-3.74 5.64-6.75 11.71-10.12 17.58.43.35 1.29 1.04 1.72 1.39-.92.98-1.8 2-2.68 3.03 4.14 2.74 9.34 2.42 13.88 4.13-5.02.28-10.19.38-15.01-1.28-1.26-.74-2.47-1.55-3.69-2.35-3.48 9.87-6.13 20.13-11.16 29.39.21-6.84 3.32-13.08 4.09-19.81.3-2.45 1.6-4.69 1.75-7.13-3.19-3.6-5.52-7.77-6.5-12.52 1.78 1.16 3.63 2.2 5.41 3.36 1.8 2.01 3.26 4.29 4.7 6.56 5.2-4.75 7.69-11.49 11.76-17.09 5.02-8.11 11.38-15.57 14.5-24.71 3.58-2.91 5.24-7.34 7.97-10.94z" fill="#787878"/><path d="m197.45 366.63c1.79-1.28 3.53-2.77 5.65-3.47 2.69.38 5.15 1.62 7.6 2.73-2.96 3.26-7.06 4.89-11.17 6.14-.65-1.82-1.35-3.62-2.08-5.4z" fill="#787878"/><path d="m222.27 572.25c-.53-1.8 2.81-2.94 3.9-1.67-1.13.88-2.43 1.59-3.9 1.67z" fill="#787878"/><path d="m128.17 186.17c1.63-.52 2.18.03 1.66 1.66-1.63.52-2.19-.04-1.66-1.66z" fill="#2c2c2c" opacity=".2"/><path d="m433.24 186.06.86-.33.9.57-.02.91c-.44-.28-1.3-.86-1.74-1.15z" fill="#c4c4c4"/><path d="m136.27 189.23c-1.53-1.43 1.11-3.5 2.43-2.18-.68.86-1.5 1.59-2.43 2.18z" fill="#ddd"/><path d="m156.35 403.83c1.67 2.18 2.79 4.7 3.56 7.32-.65-.1-1.96-.32-2.62-.42-1-2.21-3.41-4.83-.94-6.9z" fill="#ddd"/><path d="m297.7 188.6c1.86-.76 4.6-1.3 5.89.71 7.46 10.73 13.85 22.15 21.01 33.09 3.83 5.23 6.49 11.32 11.26 15.84 3.27 6.85 7.23 13.33 11.33 19.71 3.74 5.35 8.37 10.14 11.09 16.15 1.04 2.18 2.03 4.43 3.56 6.33-.01 1.18-.03 2.37-.04 3.56-4.62-1.07-9.29-1.99-14.05-2.11-5.9-1.95-12.01-3.12-18.15-3.97-12.3-2.55-24.7-4.62-36.94-7.45-.35-1.08-.8-2.12-1.16-3.19 1.18-1.05 2.33-2.13 3.49-3.21-1.57-2.4-3.17-5-3-7.98-.03-18.88.35-37.77-.14-56.64-1.78-1.11-3.55-2.25-5.29-3.41 3.94-2.15 7.03-5.59 11.14-7.43z" fill="#474747"/><path d="m306.93 189.98c6.25 2.7 10.95 7.71 16.2 11.87 4.8 3.9 9.84 7.49 14.59 11.44 5.93 5.16 12.98 8.86 18.67 14.32 3.77 3.56 8.39 5.99 12.52 9.08-1.2.88-2.43 1.73-3.5 2.76.24 3.2 1.35 6.28 1.5 9.5.23 9.84.34 19.71 1.55 29.49-2.24-1.65-4.25-3.6-6.6-5.08-1.21.17-2.4.42-3.58.74-2.72-6.01-7.35-10.8-11.09-16.15-4.1-6.38-8.06-12.86-11.33-19.71-2.19-4.93-5.4-9.27-8.07-13.93-6.49-11.72-14.7-22.42-20.86-34.33z" fill="#8d8d8d"/><path d="m107.94 260.68c4.65 2.63 9.07 5.65 13.28 8.93 3.53 6.53 10.59 9.51 16.02 14.13 7.14 4.86 15.12 9.98 18.05 18.57-.04 3.38-1.38 6.58-2.17 9.83-10.44 1.44-21.17-1.03-31.47 1.62 2.97.31 5.97.47 8.96.49-.44.57-.89 1.14-1.33 1.72 7.65.4 15.09-1.91 22.73-1.73 5.66.03 11.33-.19 17-.33-.79-.79-1.58-1.58-2.36-2.37.39-.04 1.16-.13 1.54-.18 3.98-.95 8.38-.7 11.24 2.58 2.49 3.99 5.13 7.88 7.86 11.71 4.29 6.02 6.17 13.44 10.94 19.17 3.57 4.27 6.12 9.23 8.92 14.01 1.59 2.16 2.94 5.37 5.84 5.87 4.36-.99 8.05-3.79 12.08-5.62 6.55-3.66 13.31-6.94 19.82-10.66 12.25-6.61 24.44-13.31 36.8-19.71 6.1-3.21 12.4-6.17 17.88-10.43l.76.12c-3.89 10.09-8.99 19.65-13.4 29.51-5.43 10.97-10.56 22.08-16.02 33.03-5.94 12.39-12.35 24.56-17.96 37.11 6.59.25 13.24.2 19.73-1.18 5.36-1.28 11.34.78 16.26-2.27 6.3-.33 12.6-.05 18.9-.36 1.28 2.63 3.5 4.59 5.7 6.44-.85 1.38-1.9 2.7-2.34 4.28 1.42 4.7 4.91 8.35 7.36 12.51 2.01 3.05 3.02 6.58 4.13 10.02-.87 1.2-2.08 2.26-2.44 3.75-1.49 9.14 1.09 18.39-.39 27.52 1.57 4.06 2.39 8.36 3.91 12.44-2.51-2.48-5.25-4.85-6.74-8.13-1.84-4.33-6.16-6.61-9.28-9.88-1.26-1.64-3.36-1.63-5.21-1.83.13-1.4.26-2.79.4-4.18-5.15-5.91-12.07-10.01-16.79-16.32-5.05-6.83-11.73-12.2-16.9-18.94.94-.76 1.87-1.51 2.81-2.26-.53-.38-1.06-.74-1.59-1.1-2.19.57-4.38 1.11-6.59 1.59.64-2.26 1.32-4.51 2.03-6.74-3.68-1.24-7.58-1.35-11.42-1.1-.29 1.62-.59 3.24-.81 4.88-.75-3.52-2.17-6.83-3.88-9.97-1.04 1.75-2.08 3.52-3.11 5.28-6.31 3.94-11.77 9.02-17.81 13.31-5.45 3.07-10.21 7.15-14.95 11.19 8.8 7.5 17.65 14.98 25.85 23.12 3.43 4.83 7.29 9.42 9.7 14.89-1 2.2-2.2 4.38-2.57 6.8.73 1.22 1.62 2.34 2.51 3.47-2.15 3.81-3.37 8.37-6.92 11.2-7.17 5.93-14.96 11.04-22.2 16.87-1.66 1.33-2.85 3.11-4.08 4.83-1.79 1.62-4.09 2.42-6.38 3.03l-.65.19c-.38-2-.9-3.95-1.35-5.91-.67-3.46-1.73-6.91-3.94-9.72-.58-.71-.93-1.51-1.04-2.4-.44-4.07-1.74-8.01-4.11-11.36-1.43-2.13-2.19-4.61-2.61-7.11.04-1.08-.28-2.04-.95-2.88l-.13-.86c-.09-1.55-.37-3.26-1.76-4.18-.31-.28-.93-.83-1.24-1.11-.2-1.44-.36-2.88-.63-4.3-.38-3.2-1.96-6.04-3.94-8.51-.49-.81-.79-1.69-.89-2.65-.4-2.33-1.19-4.56-2.27-6.65-.13.53-.39 1.59-.52 2.12-.18-.7-.34-1.4-.49-2.09-.46-3.71-2.07-7.13-4.59-9.88-.64-.74-1.01-1.65-1.14-2.6-.38-2.37-.95-4.73-2.03-6.89-3.61-7.44-7.27-14.88-10.23-22.61-1.15-3.06-2.82-5.91-5.02-8.32-.75-1.42-2.38-1.46-3.57-2.2-.48-2.37-1.51-4.52-3.01-6.41.3-.26.9-.79 1.2-1.06.07-.7.22-2.09.3-2.79.12-1.29-.74-2.33-1.36-3.34-.17-.74-.52-2.23-.69-2.97 6.59 3.08 10.94 9.15 16.61 13.5 5.54 4.28 10.42 9.32 15.69 13.93 9.12 7.92 17.6 16.61 27.16 24.03.83-24.76-.99-49.49-.5-74.24.02-2.1-.02-4.36-1.44-6.05-2.45-1.11-4.91-2.35-7.6-2.73-2.12.7-3.86 2.19-5.65 3.47.73 1.78 1.43 3.58 2.08 5.4-4.49 1.52-8.65 3.81-12.9 5.87-12.25 4.93-23.96 11.28-36.58 15.2l.05-1.28c.37-2.11-.54-4.12-2.06-5.54-2.45-2.48-3.55-5.86-4.31-9.18-.7-2.64-2.24-4.92-4-6.96-1.01-1.12-1.37-2.63-1.79-4.02-.63-3.02-1.92-5.83-3.53-8.44l-.16-.36c-.82-2.72-1.84-5.47-4.03-7.41-2.1-1.66-1.93-4.51-2.76-6.82-2.73-7.23-6.24-14.19-10.06-20.9-.11-.19-.33-.57-.44-.76-1-1.83-2.05-3.63-3.16-5.39-2.35-5.25-1.7-11.38-1.71-17.03.19-4.19-.82-8.27-1.88-12.28-.51-3.12-.62-6.28-.78-9.43.03-3.96-.47-7.89-1.31-11.76-.22-1.61-.16-3.24-.18-4.86m48.41 143.15c-2.47 2.07-.06 4.69.94 6.9.66.1 1.97.32 2.62.42-.77-2.62-1.89-5.14-3.56-7.32z" fill="#8d8d8d"/><path d="m5.6 194.67c3.56-.9 7.16-1.65 10.79-2.25.42.21 1.26.62 1.68.83 1.21 1 2.75 1.35 4.29 1.08.42.2 1.28.6 1.71.81 1.15.99 2.58 1.6 4.11 1.69l.83.17c.48.25 1.42.76 1.89 1.02l.74.25c2.27.93 4.62 1.7 7.05 2.08 2.1.38 4.13 1.08 6.12 1.87.88.52 1.76 1.05 2.63 1.59-2.64.16-5.91-1.07-8.18.44-2.44 4.81-1.79 10.51-2.86 15.7 2.45 1.99 5.05 3.81 7.78 5.39-.16.86-.28 1.74-.42 2.61-.54.02-1.62.05-2.16.07l-.87.03c-.2-.29-.6-.88-.8-1.17-.5-.19-1.49-.57-1.99-.76-.48-.18-1.46-.54-1.94-.72-1.15-.89-2.51-1.43-3.96-1.5-.39-.09-1.19-.27-1.58-.35-1.94-.64-3.87-1.3-5.81-1.96l-.42-.42c-.74-1.09-2-1.82-3.34-1.43-.45-.01-1.35-.02-1.8-.03-.46-.26-1.38-.78-1.83-1.04-1.36.02-2.65-.52-3.91-.98-1.93-.87-3.86-1.73-5.82-2.54-1.01-.44-2.01-.9-2.97-1.42-.26-.45-.77-1.34-1.03-1.79-1.29-.74-1.42-2.44-1.93-3.7.11-2.8.28-5.6.45-8.4.03-.47.1-1.41.14-1.88l.71-.09c.35-.36 1.06-1.09 1.42-1.45.32-.44.96-1.31 1.28-1.75z" fill="#545454"/><path d="m272.63 204.05c1.84-.64 3.72-1.18 5.53-1.91.1 1.22.2 2.45.3 3.67-1.27.17-2.54.34-3.8.52 1.07 4.53-1.45 8.44-2.54 12.63-.27 10.67.16 21.36-.09 32.03.03 3.19-.35 6.46.46 9.58 1.2 2.16 3.09 3.81 4.86 5.5-6.7 1.03-13.23-.89-19.68-2.35-6.47-1.9-13.35-1.54-19.8-3.49-7.33-2.26-15.05-2.61-22.45-4.53-4.54-1.71-9.74-1.39-13.88-4.13.88-1.03 1.76-2.05 2.68-3.03 5.57-3.97 11.62-7.22 17.11-11.31 3.19-2.42 7.41-3.43 9.92-6.7 2.87-1.04 5.72-2.25 8.17-4.1 7.38-5.47 15.49-9.85 22.89-15.29 3.32-2.52 6.59-5.17 10.32-7.09z" fill="#545454"/><path d="m179.43 313.94c2.18-.76 4.45-1.54 6.79-1.13 9.94 1.41 20.02 1.44 30.04 1.02 4.6.23 9.2.57 13.78 1.04 6.71.71 13.48.28 20.2.81-3 .08-5.99.32-8.97.56-1.08 3.62-3.52 6.63-4.74 10.19-1.21 5.59-.52 11.37-.13 17.02 1.64.1 3.28.21 4.92.32 1.18 1.55 2.37 3.1 3.57 4.65-6.51 3.72-13.27 7-19.82 10.66-4.03 1.83-7.72 4.63-12.08 5.62-2.9-.5-4.25-3.71-5.84-5.87-2.8-4.78-5.35-9.74-8.92-14.01-4.77-5.73-6.65-13.15-10.94-19.17-2.73-3.83-5.37-7.72-7.86-11.71z" fill="#545454"/><path d="m18.07 193.25c1.18-1.18 3.99-.73 4.29 1.08-1.54.27-3.08-.08-4.29-1.08z" fill="#c1c1c1"/><path d="m24.07 195.14c1.2-1.33 4.99-.43 4.11 1.69-1.53-.09-2.96-.7-4.11-1.69z" fill="#c1c1c1"/><path d="m547.62 196.68c.34-.46 1-1.39 1.33-1.85.89-.52 3.76.07 2.24 1.41-1.14.47-2.33.62-3.57.44z" fill="#c1c1c1"/><path d="m439.68 193.21c1.39-.92 3.34 1.56 2.18 2.75-1.06-.61-1.81-1.6-2.18-2.75z" fill="#bcbcbc"/><path d="m553.39 194.05c1.18-1.11 2.78-1.52 4.39-1.45-.36 2.13-2.82 2.14-4.39 1.45z" fill="#bebebe"/><path d="m3.45 196.26.87.16c-.36.36-1.07 1.09-1.42 1.45.14-.4.41-1.21.55-1.61z" fill="#3c3c3c" opacity=".32"/><path d="m544.93 197.95c.5-.31 1.49-.95 1.98-1.27-.49.32-1.48.96-1.98 1.27z" fill="#a7a7a7"/><path d="m1.6 208.24c-1.34-2.72-.53-5.71.45-8.4-.17 2.8-.34 5.6-.45 8.4z" fill="#9a9a9a"/><path d="m511.96 209.15c.58-.18 1.73-.55 2.31-.73-.58.18-1.73.55-2.31.73z" fill="#9a9a9a"/><path d="m121.65 313.76c10.3-2.65 21.03-.18 31.47-1.62 4.5-.47 9.03-.24 13.53-.6.78.79 1.57 1.58 2.36 2.37-5.67.14-11.34.36-17 .33-7.64-.18-15.08 2.13-22.73 1.73.44-.58.89-1.15 1.33-1.72-2.99-.02-5.99-.18-8.96-.49z" fill="#9a9a9a"/><path d="m420.54 202.46c5.58-.15 11.14.52 16.64 1.44-.63.27-1.89.82-2.52 1.09 1.37.64 2.75 1.29 4.14 1.93-.92 1.38-2.22 2.66-2.43 4.39 1.5.59 3.04 1.1 4.58 1.6-1.01 1.53-1.97 3.1-2.92 4.67 4.39.21 7.25-3.58 10.63-5.75-.8 3.44-1.19 7.04-.02 10.46 1.72 5.51-.03 11.2-.42 16.77-.77 7.01.54 14.02.06 21.04-.24 3.94-.41 7.9-.02 11.84.96 9.41 1.17 18.88 1.39 28.33-2.67-2.71-5.73-5.39-6.84-9.17-1.89-6.25.21-12.73.09-19.09-.1-9.36.38-18.75-.77-28.06-.98-8.04 1.01-16.01.78-24.04-5.76 3.34-7.75 10.5-13.65 13.57-.85-9.12.39-18.55-2.33-27.4-1.94-1.52-4.24-2.47-6.39-3.62z" fill="#828282"/><path d="m378.15 453.74c1.63 9.14-1.27 18.9 2.68 27.6l.29.74c-2.25 2.36-2.75 5.59-3.38 8.66-2.31 6.49-3.95 13.2-6.05 19.76-1.11 2.47-2.14 4.99-2.85 7.61-.9 2.69-1.05 5.6-2.22 8.19-.25.28-.75.85-1 1.13-.35-1.44-.69-2.88-1.02-4.31-.52 1.28-1.03 2.55-1.55 3.83-.12-5.97 1.76-11.62 3.36-17.27.42-6.56.57-13.16.63-19.73.25-2.35-1.62-3.82-3.22-5.16.84-1.56 1.99-3.03 2.29-4.8-.1-2.4-1.92-4.22-3.29-6.03.12-.75.38-2.25.51-2.99 5.07 3.77 8.82 9.11 14.56 12.03-.06-9.75-.29-19.52.26-29.26z" fill="#828282"/><path d="m573.88 207.2c.28-.32.84-.96 1.12-1.28v1.78l-.81.35z" fill="#525252" opacity=".46"/><path d="m451.99 211.8c2.11 2.29 2.42 5.41 2.73 8.37.23.48.68 1.44.9 1.91.83 4.59 2.83 9.05 3.07 13.68-.27 1.06-.55 2.13-.83 3.2-.59-.96-1.17-1.92-1.74-2.87-.37 6.29.85 12.44 2.08 18.57.44 7.51 2.04 14.9 2.09 22.44-.09 6.03 2.74 11.8 1.69 17.85-.59 3.98-.64 8.04.2 11.99.64-1.32 1.3-2.64 1.9-3.98-.29 3.54.43 7.24-.46 10.68-.58.92-1.14 1.85-1.7 2.78-.27-2.5-.4-5.22-1.99-7.29-1.38-2.13-3.46-3.86-4.34-6.28-.1-3.36.91-6.65.68-10.01-.31-4.54-2.12-8.9-1.79-13.5.49-6.23-.4-12.46.12-18.68.27-3-.7-5.87-1.44-8.73-1.04-3.75-.2-7.67-.7-11.49-.53-4.12-1.89-8.21-1.2-12.4.85-5.38.16-10.84.73-16.24z" fill="#686868"/><path d="m17.26 218.67c.45.26 1.37.78 1.83 1.04-.43-.04-1.3-.12-1.74-.16z" fill="#a2a2a2"/><path d="m265.7 491.6c4.47 1.19 4.86 6.3 7.36 9.48 2.72 3.63 5.03 7.55 6.76 11.76 2.36 5.94 8.16 10.42 7.87 17.29-3.04-5.03-6.44-9.83-9.47-14.86-3.37-8.33-9.9-15-12.52-23.67z" fill="#a2a2a2"/><path d="m454.72 220.17.92.14.46.98-.48.79c-.22-.47-.67-1.43-.9-1.91z" fill="#434343" opacity=".31"/><path d="m499.73 225.12c-1.06-1.63-1.09-3.6-.08-5.26.93 1.63.96 3.59.08 5.26z" fill="#7b7b7b"/><path d="m327 469.99c.24-2.64 1.51-4.93 3.68-6.46 3.03 6.5 6.42 12.83 9.42 19.35 3.54 7.78 8.09 15.13 10.74 23.31-2.79-4.17-4.83-8.8-7.86-12.81-3.45 3.01-3.77 8.04-2.46 12.17 1.22 2.88 3.43 5.16 5.38 7.56 3.68 4.23 6.75 8.93 10.13 13.39-.22.73-.44 1.46-.64 2.2-8.11-3.61-16.69-6.21-24.42-10.65 6.58-.05 12.71 2.52 19.09 3.7-5.81-8.02-12.07-15.7-19.22-22.57-1.66-4.79-3.51-9.85-2.58-14.99.67-3.79.69-7.67-.01-11.46.9-.12 1.81-.25 2.72-.36-.11-1.47-.22-2.93-.33-4.38-1.21.66-2.43 1.33-3.64 2z" fill="#7b7b7b"/><path d="m547.03 223.14c.84-1.22 1.93-1.51 3.27-.87-.88 1.06-1.96 1.35-3.27.87z" fill="#b1b1b1"/><path d="m37.94 226.12c.5.19 1.49.57 1.99.76l-.76.48c-.31-.31-.92-.93-1.23-1.24z" fill="#adadad"/><path d="m536.18 226.46c.76-.06 2.29-.19 3.05-.25-.71.89-1.64 1.2-2.79.93z" fill="#bdbdbd"/><path d="m376.7 250.06c-.34-2.29 1.88-3.39 3.31-4.7 5.26 4.29 11.01 7.96 16.12 12.45-2.63-1.05-5.42-1.57-8.2-2.02 0 4.19 1.4 8.29 1.25 12.47-.56 4.16-4.8 5.34-8.02 6.87-.25 1.08-.31 2.19-.39 3.3-2.44 4.08-7.41 4.61-11.66 5.32-1.7-.35-3.37-.78-5.01-1.31 6.82-1.21 11.09-6.96 14.53-12.45-1.52-2.67-4.02-5.37-3.35-8.68.68-3.72 1.5-7.44 1.42-11.25z" fill="#7a7a7a"/><path d="m121.22 269.61c2.1 1.27 4.25 2.45 6.31 3.78 6 3.72 10.66 9.22 16.89 12.62 3.44 2.2 6.44 5.01 9.41 7.79 1.69 4.92 6.78 6.8 10.2 10.22 1.52 1.43 1.48 3.67 1.82 5.58.77.59 1.55 1.18 2.34 1.76-.38.05-1.15.14-1.54.18-4.5.36-9.03.13-13.53.6.79-3.25 2.13-6.45 2.17-9.83-2.93-8.59-10.91-13.71-18.05-18.57-5.43-4.62-12.49-7.6-16.02-14.13z" fill="#7a7a7a"/><path d="m355.73 304.82c1.74-4.84 4.11-9.42 6.4-14.02 2.3 10.69-.59 21.45-.12 32.2.2 10.66-.04 21.32-.29 31.98.37.43 1.13 1.29 1.51 1.72-1.06 1.11-2.1 2.24-3.18 3.34-1.34.62-2.7 1.17-4.05 1.75-.15-12.27.13-24.53-.08-36.79-.09-4.25.61-8.44 1.36-12.6-1.57-2.23-2.28-4.9-1.55-7.58z" fill="#7a7a7a"/><path d="m387.93 255.79c2.78.45 5.57.97 8.2 2.02 3.42 2.99 7.27 5.42 10.94 8.07 1.97 1.29 2.47 3.71 3.25 5.77-2.01 1.57-4.07 3.09-6.03 4.72.63-2.08 1.14-4.19 1.65-6.3-8.61 2.1-16.58 6.16-25.17 8.36.08-1.11.14-2.22.39-3.3 3.22-1.53 7.46-2.71 8.02-6.87.15-4.18-1.25-8.28-1.25-12.47z" fill="#6d6d6d"/><path d="m466.64 261.21c.04.13.12.39.17.52-.05-.13-.13-.39-.17-.52z" fill="#d5d5d5"/><path d="m220.43 262.67c8.24-2.55 15.37 3.39 22.51 6.41 2.03-1.18 3.64-2.92 5.33-4.53 3.2.96 6.9 2.28 9.4-.83 6.45 1.46 12.98 3.38 19.68 2.35 4.82 2.31 10.14 3.19 15.31 4.39 12.24 2.83 24.64 4.9 36.94 7.45 2.71 3.6 6.16 6.53 9.25 9.79-.77 1.03-1.53 2.06-2.28 3.1.31 1.26.67 2.53.86 3.83-5.35 2.74-11.72 4.72-14.59 10.55 6.77-.92 11.78-5.91 17.91-8.42 4.46-1.82 8.39-4.6 12.31-7.34 3.22-1.85 6.72-3.11 10.22-4.32-.38 1.9-.77 3.8-1.15 5.7-2.29 4.6-4.66 9.18-6.4 14.02-1.31 3.49-2.83 6.89-4.39 10.27-.63-1.18-1.24-2.37-1.95-3.5-1.39-1.1-2.85-2.09-4.3-3.08 2.27-1.14 4.72-2.09 6.58-3.87 3.12-3.44 4.56-8 5.56-12.44-1.35-.11-2.7-.22-4.05-.31-2.07 2.33-4.1 4.8-6.84 6.38-4.9 2.81-10.8 3.33-15.48 6.59-4.55 3.12-9.68 5.45-13.62 9.41-4.25 4.26-10.59 4.54-16.13 5.85-.19-.43-.59-1.29-.78-1.72l-.76-.12c-.76-.11-2.28-.34-3.04-.46-1.26-3.09-4.28-4.17-7.32-4.71-.95 1.11-1.91 2.2-2.86 3.31-4.63.07-9.26-.3-13.8-1.17 2.54-.8 7.93-.51 7.04-4.53-1.45-2.94-5.2-3.78-7.27-6.23-.3-1.56-.12-3.15.01-4.71 5.14 3.4 10.31 6.92 16.21 8.88-1.65-3.19-5.17-4.31-7.76-6.46-2.02-2.47-3.22-5.47-4.76-8.23-2.12.53-4.23 1.54-6.45 1.35-1.8-.62-3.66-2.25-3.49-4.31.43-2.42 1.72-4.57 2.75-6.77-4.78.12-9.56.43-14.34.47-.11-.66-.34-1.98-.45-2.64 1.3-1.73 2.6-3.47 3.89-5.22-4.6-.87-9.28-.8-13.92-1.02-3.4-.03-6.13-2.24-8.77-4.09-4.57-3.75-11.58-3.56-14.81-9.07z" fill="#929292"/><path d="m316.11 407.89c1.57-1.01 3.05-2.15 4.51-3.31-.42 1.86-.76 3.77-1.48 5.55-1.55 1.34-3.44 2.18-5.22 3.14 1.89 3.86 3.96 7.62 6.07 11.37-1.77-.71-3.54-1.42-5.31-2.11.94 2.43 1.53 5.23 3.66 6.96 2.55 2.13 5.17 4.17 7.48 6.58-.22 1.13-.43 2.28-.64 3.43 1.17-.4 2.33-.81 3.51-1.18.35.32 1.05.96 1.4 1.28-1.44 1.29-4.54 1.91-4.05 4.36.18 1.73.71 3.83 2.37 4.71 2.98.41 6.36-2.53 8.94-.07 5.58 3.74 8.8 9.98 14.29 13.82 4.38 3.17 7.61 7.55 11.18 11.54 1.37 1.81 3.19 3.63 3.29 6.03-.3 1.77-1.45 3.24-2.29 4.8 1.6 1.34 3.47 2.81 3.22 5.16-.06 6.57-.21 13.17-.63 19.73-1.6 5.65-3.48 11.3-3.36 17.27.52-1.28 1.03-2.55 1.55-3.83.33 1.43.67 2.87 1.02 4.31.14.36.41 1.06.54 1.41-1.39.17-2.78.3-4.16.47-3.23-7.93-7.21-15.53-11.16-23.12-2.65-8.18-7.2-15.53-10.74-23.31-3-6.52-6.39-12.85-9.42-19.35-2.48-5.44-5.84-10.45-7.99-16.04-1.11-3.44-2.12-6.97-4.13-10.02-2.45-4.16-5.94-7.81-7.36-12.51.44-1.58 1.49-2.9 2.34-4.28-2.2-1.85-4.42-3.81-5.7-6.44-.01-.49-.04-1.48-.06-1.97.57.07 1.7.22 2.27.29 1.02-1.49 2.05-2.96 3.09-4.43.99-.06 1.98-.15 2.97-.24z" fill="#929292"/><path d="m380.77 278.43c8.59-2.2 16.56-6.26 25.17-8.36-.51 2.11-1.02 4.22-1.65 6.3-.21.42-.63 1.24-.85 1.65-1.79 3.57-3.85 7-6.25 10.19-2.5 3.23-1.94 7.68-3.96 11.14-1.05 2.16-2.76 4.1-3.16 6.52.48 1.27 1.17 2.43 1.84 3.6l-.13.76c-1.16-.09-2.31-.18-3.46-.26-1.4 3.69-3.07 7.28-4.29 11.04-.04 1.62 0 3.23-.01 4.85-.68.14-2.04.41-2.73.55-1.37 3.52-3.06 6.91-5.15 10.07-1.92-5.26-3.45-10.67-4.18-16.23.46-6.74-3.23-12.64-4-19.19-.63-4.29-1.91-8.54-1.74-12.91-.11-1.98 1.5-3.28 2.89-4.4 4.25-.71 9.22-1.24 11.66-5.32z" fill="#898989"/><path d="m404.29 276.37c1.96-1.63 4.02-3.15 6.03-4.72 2.11 5.84 4.47 11.61 5.54 17.76-2.99-2.33-3.75-6.08-4.68-9.54-3.11 6.58-5.17 13.77-5.11 21.09-.06 10.35.07 20.69-.04 31.04.02 6.79-.08 14.12 3.81 20.03-.67.05-1.99.14-2.65.19-9.68-.17-17.69-7.26-27.37-7.1-.28-1.34-.56-2.69-.76-4.03 1.72-5.06 5.29-9.64 4.96-15.23.01-1.62-.03-3.23.01-4.85.99.61 1.98 1.22 2.99 1.83 2.21-3.93 4.19-8.08 4.76-12.61l.13-.76c2.36-4.41 4.99-8.74 6.16-13.66 1.55-6.03 6.74-11.2 5.37-17.79.22-.41.64-1.23.85-1.65z" fill="#535353"/><path d="m397.19 288.21c2.4-3.19 4.46-6.62 6.25-10.19 1.37 6.59-3.82 11.76-5.37 17.79-1.17 4.92-3.8 9.25-6.16 13.66-.67-1.17-1.36-2.33-1.84-3.6.4-2.42 2.11-4.36 3.16-6.52 2.02-3.46 1.46-7.91 3.96-11.14z" fill="#707070"/><path d="m361.84 280.43c.73.69 1.48 1.36 2.26 2.01 1.64.53 3.31.96 5.01 1.31-1.39 1.12-3 2.42-2.89 4.4-.17 4.37 1.11 8.62 1.74 12.91.77 6.55 4.46 12.45 4 19.19-1.03-3.56-2.27-7.06-3.58-10.52-2.27 4.26-1.38 9.15-.59 13.67 1.36 6.84-.88 13.75-.09 20.63.04 1.93 1.86 3.01 3.11 4.2l.52.44c-2.77 2.61-5.48 5.27-8.1 8.03-.38-.43-1.14-1.29-1.51-1.72.25-10.66.49-21.32.29-31.98-.47-10.75 2.42-21.51.12-32.2.38-1.9.77-3.8 1.15-5.7-3.5 1.21-7 2.47-10.22 4.32-.55-1-1.08-1.99-1.61-2.99 1.09-.56 2.19-1.12 3.3-1.68-2.36-.9-4.68-1.89-7-2.87 4.76.12 9.43 1.04 14.05 2.11.01-1.19.03-2.38.04-3.56z" fill="#707070"/><path d="m367.79 323.4c-.79-4.52-1.68-9.41.59-13.67 1.31 3.46 2.55 6.96 3.58 10.52.73 5.56 2.26 10.97 4.18 16.23 2.09-3.16 3.78-6.55 5.15-10.07.69-.14 2.05-.41 2.73-.55.33 5.59-3.24 10.17-4.96 15.23-.35-.13-1.04-.38-1.38-.5-1.94 2.84-4.23 5.43-6.87 7.64-1.25-1.19-3.07-2.27-3.11-4.2-.79-6.88 1.45-13.79.09-20.63z" fill="#666"/><path d="m388.32 309.97c1.15.08 2.3.17 3.46.26-.57 4.53-2.55 8.68-4.76 12.61-1.01-.61-2-1.22-2.99-1.83 1.22-3.76 2.89-7.35 4.29-11.04z" fill="#6e6e6e"/><path d="m414.52 354.48c5.08.07 9.79 2.07 14.6 3.47 4.12 1.04 7.27 4.07 11.06 5.85-1.19 3.33-2.87 6.48-5.18 9.18-1.41 1.93-2.31 4.16-3.14 6.4-.26.45-.77 1.36-1.03 1.82-1 1.04-1.74 2.28-2.15 3.66-.21.36-.62 1.08-.83 1.44-.67.59-1.29 1.24-1.84 1.94-1.08-7.03-.29-14.15.68-21.14-.3-6.81-7.02-9.77-12.17-12.62z" fill="#6e6e6e"/><path d="m349.39 311.59c.71 1.13 1.32 2.32 1.95 3.5-2.11 4.43-3.84 9.02-5.73 13.54-4.88 10.66-9.21 21.56-13.85 32.32-4.22 9-7.33 18.53-12.37 27.13-2.19 5.53-3.27 11.55-6.78 16.51-.13-2.19-.21-4.45.58-6.53 1.98-5.46 3.98-10.95 6.79-16.05 2.84-5.24 3.56-11.34 6.57-16.52 3.14-5.47 4.58-11.72 7.79-17.16 2.9-4.9 3.58-10.71 6.2-15.74 3.67-6.72 4.17-14.76 8.85-21z" fill="#a3a3a3"/><path d="m113.8 316.04c1.11 1.76 2.16 3.56 3.16 5.39-.72-.11-2.15-.33-2.87-.44-.16-1.65-.2-3.3-.29-4.95z" fill="#dbdbdb"/><path d="m241.16 532.05c.42 0 1.26 0 1.68-.01v.8c-.42 0-1.26.01-1.68.01z" fill="#dbdbdb"/><path d="m300.33 318.4c.19.43.59 1.29.78 1.72.67 7.67 1.32 15.35 1.67 23.04.59 10.52 1.97 20.98 2.53 31.51.56 12.55 2.29 25.03 2.47 37.6.02.49.05 1.48.06 1.97-6.3.31-12.6.03-18.9.36-.12-1.3-.22-2.58-.33-3.86-1.41-.41-2.82-.82-4.23-1.24.2-.74.41-1.48.62-2.21-3.74-4.21-3.87-10.37-2.3-15.51 1.39-1.4 3.14-2.36 4.76-3.48-2.19-.72-4.42-1.36-6.47-2.43-1.93-4.51 1.93-8.27 4.46-11.53 1.97-2.54-.84-5.19-2.04-7.37 2.71-2.79 4.3-6.38 5.77-9.92 1.71-3.16-1.13-6.27-2.25-9.14 4.41-9.86 9.51-19.42 13.4-29.51z" fill="#454545"/><path d="m210.7 365.89c1.42 1.69 1.46 3.95 1.44 6.05-.49 24.75 1.33 49.48.5 74.24-9.56-7.42-18.04-16.11-27.16-24.03.08-2.41.76-4.73 2.07-6.75 1.37-1.71-.81-3.08-1.75-4.3-3.99-4.21-5.31-10.43-4.43-16.05.67-4.32 1.4-8.62 1.82-12.97 3.04.77 6.09 1.45 9.18 1.97-1.66-2.28-3.61-4.31-5.74-6.15 4.25-2.06 8.41-4.35 12.9-5.87 4.11-1.25 8.21-2.88 11.17-6.14z" fill="#454545"/><path d="m117.4 322.19c3.82 6.71 7.33 13.67 10.06 20.9-1.32-.22-2.19-.94-2.6-2.16-1.87-5.36-4.99-10.15-7.38-15.27-.43-.09-1.3-.29-1.73-.39.6-1 1.13-2.05 1.65-3.08z" fill="#b7b7b7" opacity=".9"/><path d="m459.06 325.43c-1.46-.93-.37-2.62.77-3.21.76 1.34.51 2.41-.77 3.21z" fill="#cacaca"/><path d="m178.73 453.91c2.52 2.75 4.13 6.17 4.59 9.88-2.42-2.73-4.34-6.19-4.59-9.88z" fill="#cacaca"/><path d="m456.35 327.13c.29-.18.86-.54 1.14-.71 1.42.94-.07 4.54-1.55 4.37.15-1.23.26-2.45.41-3.66z" fill="#d2d2d2"/><path d="m431.86 379.38c.83-2.24 1.73-4.47 3.14-6.4 0 1.24.01 2.5.02 3.76-1.05.88-2.09 1.78-3.16 2.64z" fill="#d2d2d2"/><path d="m448.21 347.08c1.52-4.2 3.33-8.31 5.58-12.18-.85 2.57-.79 5.26-.31 7.89-.51 1.44-1.19 2.81-1.76 4.22-1.17.02-2.34.04-3.51.07z" fill="#dcdcdc" opacity=".96"/><path d="m444.05 355.44c.79-2.51 2.16-4.76 3.57-6.95-.45 2.48-.3 6.58-3.57 6.95z" fill="#aeaeae" opacity=".78"/><path d="m130.22 349.91c2.19 1.94 3.21 4.69 4.03 7.41-.51-.06-1.54-.19-2.05-.25-.48-2.44-1.21-4.81-1.98-7.16z" fill="#b5b5b5" opacity=".89"/><path d="m134.41 357.68c1.61 2.61 2.9 5.42 3.53 8.44-2.54-1.73-4.65-5.4-3.53-8.44z" fill="#c5c5c5" opacity=".92"/><path d="m139.73 370.14c1.76 2.04 3.3 4.32 4 6.96-.64-.03-1.93-.08-2.57-.11-.21-2.34-.91-4.58-1.43-6.85z" fill="#dcdcdc"/><path d="m428.68 384.86c.41-1.38 1.15-2.62 2.15-3.66 1.3 1.26-.4 4.39-2.15 3.66z" fill="#dadada"/><path d="m148.04 386.28c1.52 1.42 2.43 3.43 2.06 5.54-1.49-.89-3.02-3.75-2.06-5.54z" fill="#9e9e9e" opacity=".78"/><path d="m426.01 388.24c.55-.7 1.17-1.35 1.84-1.94.76 1.42.42 2.44-1.02 3.04-.2-.27-.62-.82-.82-1.1z" fill="#c6c6c6"/><path d="m153.87 397.69c.62 1.01 1.48 2.05 1.36 3.34-1.6.43-2.84-2.54-1.36-3.34z" fill="#c6c6c6"/><path d="m417.74 405.29c-.68-1-.09-2.79 1.35-2.14-.11.47-.35 1.41-.47 1.89z" fill="#bfbfbf"/><path d="m160.31 413.49c2.2 2.41 3.87 5.26 5.02 8.32 2.96 7.73 6.62 15.17 10.23 22.61 1.08 2.16 1.65 4.52 2.03 6.89-1.31-3.2-3.67-5.72-5.39-8.64-1.12-5.49-4.44-10.17-6.67-15.24-1.79-3.17-1.83-7.02-3.88-10.08-.81-1.14-1.19-2.49-1.34-3.86z" fill="#c8c8c8" opacity=".98"/><path d="m249.8 417.22c1.71 3.14 3.13 6.45 3.88 9.97 1.97 15.77 5.79 31.22 8.16 46.93.63 3.92 1.72 7.74 2.37 11.66-.12 1.85-.34 3.7-.56 5.55-1.28-2.52-2.18-5.19-2.77-7.94-1.56.55-3.12 1.1-4.68 1.66-3.76-5.33-9.46-8.91-13.01-14.41-1.14-.18-2.27-.36-3.41-.52.43-3.4.99-6.84.55-10.27-.57-4.65-2.36-9.1-2.36-13.83 0-4.19.38-8.44 1.6-12.47.66-2.14 2.7-3.35 4.11-4.95 1.68-1.63 2.11-4.03 3.01-6.1 1.03-1.76 2.07-3.53 3.11-5.28z" fill="#484848"/><path d="m254.49 422.31c3.84-.25 7.74-.14 11.42 1.1-.71 2.23-1.39 4.48-2.03 6.74 2.21-.48 4.4-1.02 6.59-1.59.53.36 1.06.72 1.59 1.1-.94.75-1.87 1.5-2.81 2.26 5.17 6.74 11.85 12.11 16.9 18.94 4.72 6.31 11.64 10.41 16.79 16.32-.14 1.39-.27 2.78-.4 4.18 1.85.2 3.95.19 5.21 1.83 3.12 3.27 7.44 5.55 9.28 9.88 1.49 3.28 4.23 5.65 6.74 8.13 2.21 2.78 4.54 5.47 7.07 7.98 7.15 6.87 13.41 14.55 19.22 22.57-6.38-1.18-12.51-3.75-19.09-3.7 7.73 4.44 16.31 7.04 24.42 10.65 1.98 1.03 3.89 2.22 5.86 3.28-13.77.68-27.58.32-41.37.14.14-.75.4-2.26.54-3.01 5.71.18 11.38.9 17.07 1.49 2.15.3 4.17-.61 6.13-1.37-4.3-4.57-10.71-3.33-16.31-3.76.53-1.61 1.03-3.22 1.55-4.82-3.62-.66-8.06-1.11-9.16-5.34 2.86.39 5.74.76 8.63.78-2.31-2.6-5.57-3.81-8.82-4.74-4.56-1.29-8.02-4.83-12.48-6.34-3.29-1.22-6.77-1.84-10.07-3.03-3.3-1.12-5.25-4.57-8.74-5.29-4.36-1.08-9.13-1.77-12.26-5.33 1.48-1.57 2.95-3.14 4.42-4.71-3.02-.43-6.06-.77-9.11-1.02-3.48-5-5.51-10.79-5.78-16.89-1.27 1.76-2.49 3.55-3.65 5.38-2.37-15.71-6.19-31.16-8.16-46.93.22-1.64.52-3.26.81-4.88z" fill="#919191"/><path d="m320.25 451.24c.36-1.49 1.57-2.55 2.44-3.75 2.15 5.59 5.51 10.6 7.99 16.04-2.17 1.53-3.44 3.82-3.68 6.46 1.21-.67 2.43-1.34 3.64-2 .11 1.45.22 2.91.33 4.38-.91.11-1.82.24-2.72.36.7 3.79.68 7.67.01 11.46-.93 5.14.92 10.2 2.58 14.99-2.53-2.51-4.86-5.2-7.07-7.98-1.52-4.08-2.34-8.38-3.91-12.44 1.48-9.13-1.1-18.38.39-27.52z" fill="#848484"/><path d="m184.33 463.76c1.08 2.09 1.87 4.32 2.27 6.65-1.91-.76-2.48-2.69-2.79-4.53.13-.53.39-1.59.52-2.12z" fill="#b6b6b6" opacity=".97"/><path d="m187.49 473.06c1.98 2.47 3.56 5.31 3.94 8.51-2.54-2.04-3.68-5.36-3.94-8.51z" fill="#c8c8c8"/><path d="m256.2 485.05c1.56-.56 3.12-1.11 4.68-1.66.59 2.75 1.49 5.42 2.77 7.94.22-1.85.44-3.7.56-5.55 1.39 5.61.6 11.46-1.99 16.59.18-2.25.27-4.51.36-6.76-4.59 1.33-7.98 4.76-11.68 7.58.96-4.7 5.97-6.49 8.04-10.44.35-2.79-1.49-5.33-2.74-7.7z" fill="#5b5b5b"/><path d="m193.3 486.98c1.39.92 1.67 2.63 1.76 4.18-1.52.02-2.72-2.98-1.76-4.18z" fill="#c2c2c2"/><path d="m195.19 492.02c.67.84.99 1.8.95 2.88-1.68-.41-2-1.37-.95-2.88z" fill="#d8d8d8"/><path d="m340.52 505.55c-1.31-4.13-.99-9.16 2.46-12.17 3.03 4.01 5.07 8.64 7.86 12.81 3.95 7.59 7.93 15.19 11.16 23.12 1.38-.17 2.77-.3 4.16-.47-.48 1.13-.92 2.28-1.33 3.45l-.64-.05c-.73-.07-2.2-.2-2.94-.26-1.97-1.06-3.88-2.25-5.86-3.28.2-.74.42-1.47.64-2.2-3.38-4.46-6.45-9.16-10.13-13.39-1.95-2.4-4.16-4.68-5.38-7.56z" fill="#6f6f6f"/><path d="m216.22 528.18c7.68-4.17 14.37-9.82 21.57-14.73 1.13 5.87-.21 11.87.89 17.76 2.82-1.15 5.58-2.46 8.25-3.94.8 1.66 1.61 3.31 2.41 4.98-2.17-.09-4.34-.1-6.5-.21-.42.01-1.26.01-1.68.01-2.12.09-4.24.04-6.36-.03-1.2-.09-2.4-.1-3.6-.01-3.45.03-6.91.08-10.36.01-.42 0-1.26.01-1.67.01-3.13.15-6.31.06-9.33-.82 2.29-.61 4.59-1.41 6.38-3.03z" fill="#575757"/><path d="m219.17 532.03c.41 0 1.25-.01 1.67-.01l.01.8c-.42 0-1.27 0-1.69 0z" fill="#e6e6e6"/><path d="m254.98 532.09c6.72-.36 13.44-.01 20.17-.09 4.31-.02 8.62.02 12.94.02 10.6-.1 21.2-.12 31.79.1 13.79.18 27.6.54 41.37-.14.74.06 2.21.19 2.94.26-.9.84-1.96 1.23-3.18 1.16-23.33.08-46.67.01-70-.12-12.29-.56-24.59-.04-36.89-.11z" fill="#c5c5c5"/><path d="m215.38 538.5c2.78-.86 5.76-.43 8.63-.52 44.35.05 88.69.01 133.04.02 8.02.17 14.37 8.7 12.46 16.44-.89 4.94-4.89 9.04-9.64 10.44-4.27.55-8.58.09-12.87.17-42.68.03-85.37-.08-128.05.06-5.47.27-10.39-3.78-12.18-8.78-2.79-7.02 1.48-15.56 8.61-17.83z"/><path d="m226.17 570.58c1.37-.97 3.22-.44 4.8-.62 38.02.07 76.03.06 114.05 0 1.59.19 3.49-.39 4.87.62 1.41 1.17 3.02 2.11 4.85 2.47 4.97 1.66 6.8 8.13 6.14 12.9-.23.48-.68 1.43-.9 1.91.04 2.46-2.03 4.23-3.32 6.13l-.63-.17c-1.51-.89-3 .44-2.96 2.03l-.16.77c-1.22.21-2.45.37-3.68.48-40.81-.1-81.63-.19-122.44.04-8.88-.41-14.58-11.36-10.7-19.13 1.34-2.46 3.06-5.52 6.18-5.76 1.47-.08 2.77-.79 3.9-1.67z"/><path d="m228.19 614.24c-.83-6.84 6.52-12.03 12.76-12.24 31.03-.02 62.07.03 93.11-.02 2.53-.12 5.02.56 7.23 1.79 5.68 2.8 7.86 10.07 6.37 15.94-1.47 4.99-6.1 9.15-11.39 9.47-32.51-.25-65.02-.18-97.53-.02-5.68-1.06-11.5-6.37-10.57-12.55 0-.59.02-1.78.02-2.37z"/><path d="m251.22 634.85c7.93.47 15.85-.49 23.78-.3 15.01.29 30.03.65 45.06.32 2.06-.33 3.73 1.03 4.42 2.89-5.75 12.22-17.93 20.85-31.23 22.76-3.5-.36-7.01-.33-10.49.07-12.89-1.85-24.8-9.91-30.72-21.57-.39-1.26-1.73-2.98-.82-4.17z"/><path d="m349.89 570.58c1.53-1.21 5.35.42 4.85 2.47-1.83-.36-3.44-1.3-4.85-2.47z" fill="#494949" opacity=".76"/><path d="m359.98 587.86c.22-.48.67-1.43.9-1.91l.45.79-.46.97z" fill="#2b2b2b" opacity=".51"/><path d="m353.07 595.85c-.04-1.59 1.45-2.92 2.96-2.03.13 1.34-1.75 2.71-2.96 2.03z" fill="#444" opacity=".75"/><path d="m226.79 597.14c40.81-.23 81.63-.14 122.44-.04-2.6 1.12-5.48.93-8.23.92-33.34-.01-66.67.01-100.01-.01-4.73-.16-9.59.5-14.2-.87z" fill="#272727" opacity=".25"/><path d="m238.74 629.16c32.51-.16 65.02-.23 97.53.02-1.67.67-3.45.98-5.25.89-27-.31-54.01-.07-81.02-.07-3.75-.09-7.68.6-11.26-.84z" fill="#161616" opacity=".2"/><path d="m282.76 660.59c3.48-.4 6.99-.43 10.49-.07l-1.1.48h-8.28z" fill="#242424" opacity=".73"/></svg>