<svg height="583pt" viewBox="0 0 600 583" width="600pt" xmlns="http://www.w3.org/2000/svg"><g fill="#120010"><path d="m279.71 63.53c4.96 1.85 7.97 6.62 10.76 10.84 3.31 8.84 4.52 18.34 5.27 27.71.77 14.44-2.64 29.88 4.36 43.3 1.72-14.18 8.98-27.27 18.79-37.47 7.95-7.17 14.75-15.59 20.19-24.8 2.62-4.34 2.64-9.77 5.55-13.97 2.07-2.01 2.43 1.35 2.75 2.83.91 8.58-3.68 16.42-8.6 23.05-3.15 3.79-4.54 8.6-6.27 13.13-3.28 11.17-5.77 22.6-7.22 34.15 6.79-7.76 15.19-14.06 24.4-18.68 4.12-2.15 8.31-4.19 12.35-6.51 10.18-5.51 18.6-14.27 23.46-24.81 2.2-4.35 3.37-9.12 5.5-13.5.59-.22 1.77-.68 2.36-.91.63 8.93.31 18.29-4.11 26.32-5.69 9.97-13.35 18.62-20.43 27.61 6.62-4.81 13.15-9.81 20.47-13.54 11.7-6.73 24.05-12.74 34.12-21.89 1.38-1.31 3.05-2.23 4.91-2.71.09 5.79-4.96 9.34-7.9 13.69-3.76 7.72-5.62 16.35-10.54 23.51-2.77 4.83-7.12 8.4-10.9 12.38 11.77-5.75 25.16-6.76 37.04-12.23 4.64-2.24 9.32-4.51 13.33-7.79 3.08-2.37 5.53-5.62 9.25-7.09-.01 4.26-2.58 7.74-4.25 11.46-1.86 3.84-4.05 7.6-7.08 10.63-8.31 7.88-17.89 14.2-27.35 20.57 5.6-2.37 11.79-2.37 17.7-3.32 5.2-.76 10.29-2.13 15.36-3.47 7.56-2.11 14.22-6.35 21.09-10.01 1.25-.88 2.75-.75 4.18-.52-4.12 4.8-8.8 9.13-14.06 12.66-9.99 6.87-14.79 18.54-23.06 27.05-5.13 4.85-9.47 10.43-14.57 15.3 10.56-6.14 21.29-12 32.07-17.77 10.12-4.92 22.17-7.35 33.06-3.5 5.88 1.43 10.77 5.24 15.01 9.4.02.62.06 1.86.08 2.48-5.69-2-11.02-4.91-16.81-6.62-5.97 1.59-11.19 5.03-16.02 8.76-11.18 9.3-20.46 20.57-30.6 30.93 6.47-2.81 13.62-3.93 20.64-3.1 12.45.51 23.93 8.36 36.58 6.33 8.36-1.88 16.5-4.98 24.03-9.07.68.06 2.03.17 2.71.22-4.65 6.23-11.41 10.21-18.15 13.76-11.8 8.83-26.44 12.33-40.62 15.21-6.9 1.75-13.41 4.73-19.53 8.32 8.89.04 17.7 1.3 26.57 1.69 11.2 1.36 22.61 2.75 33.87 1.19 8.24-1.72 16.68-4.15 23.37-9.48.63.01 1.9.01 2.54.01-2.37 5.27-6.81 9.4-12.19 11.49-6.95 3.2-12.36 8.94-19.34 12.14-6.88 3.14-14.28 5.26-21.8 6.15 18.41 4.06 34.69 15.27 53.63 17.33.05.6.16 1.8.22 2.4-5.72 1.33-11.74.11-17.33 2.02-8.35 2.68-16.73 5.86-25.6 6.13-4.64.09-9.28.03-13.91.01-7.85-.07-15.58-1.68-23.37-2.31 1.12.4 2.24.77 3.38 1.15 10.46 4.36 19.66 11.38 30.49 14.96 8.2 3.03 16.9 4.18 25.28 6.58 4.52 1.33 9.76 1.26 13.39 4.67-4.42.52-8.96-.11-13.26 1.28-14.88 2.38-30.04-1.34-44.89 1.4-6.8.78-13.39 2.71-20.04 4.29 6.77 2.35 12.86 6.28 18.39 10.77 8.16 6.72 16.06 13.76 24.08 20.65 9.15 6.98 19.47 12.19 29.29 18.15-.04.61-.12 1.83-.16 2.44-7.74-1.63-14.94-5.46-23.05-5.22-10.66-1.9-22.25-.2-32.08-5.47 4.29 9.51.56 19.78 1.16 29.68.08 5.55 4.05 9.98 8.01 13.43 4.01 3.77 8.63 6.8 13.28 9.72 1.22.58 1.67 1.85 2.24 2.98-4.81-1.21-9.28-3.39-13.71-5.57-4.49-2.25-9.29-3.82-13.67-6.28-6.25-3.41-11.98-7.87-16.48-13.42-.56 10.41-4.04 20.87-1.71 31.27 1 4.64 4.2 8.89 8.69 10.65 5.65 2.67 12.08 2.24 17.96 4.15-1.37.62-2.64 1.5-4.14 1.74-6.58 1.06-13.36 2.59-19.97.85-11.11-1.46-20.41-9.49-25.3-19.3-2.59-5.18-5.13-10.38-7.67-15.57-.52 7.41-2.96 14.66-2.41 22.14.76 6.06 1.6 12.77 6.15 17.31 5.4 6.05 13.99 6.8 21.15 9.65.59.59 1.19 1.18 1.79 1.79-20.93 6.85-45.15-2.48-57.91-20.05.88 16.55 8.63 31.54 12.37 47.46.69 1.13-.53 1.76-1.08 2.55-1.42-2.43-2.6-5.05-4.44-7.19-11.35-11.14-15.79-27.13-26.01-39.13-7.08-7.93-13.85-16.44-22.94-22.17-2.09 8.49-5.9 16.98-4.32 25.92 1.42 4.76 5.01 8.48 6.49 13.22 6.11 15.19 1.07 32.12-5.84 46.13-.46.25-1.39.76-1.86 1.02-2.87-10.2-3.82-20.89-7.61-30.83-2.92-6.22-8.18-10.93-13.39-15.22-1.34 3.1-2.74 6.19-4.18 9.25-2.68 3.64-4.64 7.78-7.77 11.08-.95.08-1.9.17-2.85.26-4.62-6.95-8.65-14.25-11.47-22.12-8.85 7.38-17.78 15.91-21.03 27.34-1.01 3.93.51 7.85 3.07 10.83 1.66 2.47 4.79 4.09 5.1 7.31-7.22-3.15-12.91-9.49-14.78-17.2-4-15.78 1.23-32.2 8.39-46.26 3.43-6.42 3.55-14.55.3-21.07-2.47 6.44-6.86 12.11-12.56 16.01-4.92 3.18-10.22 5.69-15.29 8.61-7.43 4.25-14 10.48-17.63 18.33-1.57 5.55-2.88 11.77-.48 17.29 1.43 3.67 4.25 6.55 5.94 10.08-.8.6-1.62.7-2.46.32-5.39-2.34-9.09-7.65-10.18-13.33-1.48-11.96 2.98-23.67 8.53-34.03 4.06-7.04 6.8-14.72 10.16-22.1-8.22 8.01-19.41 12.97-25.62 22.93-5.17 7.79-4.81 17.79-9.96 25.6-2.63 3.73-5.23 8.52-10.21 9.22 2.24-5.8 4.91-11.45 6.67-17.43 1.32-4.65 3.28-9.26 3.02-14.18.27-7.78-2.9-15.19-2.73-22.96-.12-3.15.72-6.2 1.47-9.22-7.08 5.29-14.32 10.38-21.65 15.32-10.73 7.75-19.3 17.96-28.61 27.25-.15-.77-.46-2.32-.61-3.1 2.18-5.07 6.35-9.04 8.1-14.31.9-2.68 1.79-5.36 2.82-7.98 3.62-9.21 5.06-19.71 11.91-27.3-4.71.21-9.67.74-14.09-1.32-5.8-1.9-11.47-4.69-17.65-5.04-3.5-.42-6.61 1.58-9.54 3.19-6.7 3.87-12.18 9.39-17.84 14.58.7-6.49 6.57-10.59 10.13-15.61 5.77-8 12.45-15.64 21.25-20.37 6.58-3.39 14.17-4.42 20.46-8.43 8.31-5.13 13.3-14.76 13.45-24.44-2.89 3.11-6.48 5.93-10.86 6.33-10.66.9-21.38.88-32.04 1.65-15.08-.29-31.14-.48-44.69 7.14-4.57 2.09-8.18 5.65-12.47 8.17.22-6.14 5.5-10.38 10.23-13.48 5.43-2.98 9.39-7.86 14.39-11.43 8.49-6.7 19.02-10.17 29.57-11.97 7.25-1.68 14.88-2.43 21.59-5.87 3.86-1.88 6.99-4.89 9.99-7.89-1.33-2.09-2.18-4.73-4.44-6.03-5.51-3.19-11.99-3.93-18.25-3.96-10.62 0-21.25-1.48-31.45-4.43-10.06-3.54-18.09-10.89-25.67-18.13-3.95-4.09-7.82-8.41-12.76-11.34-2.49-1.72-6.55-2.71-6.08-6.52 3.03-.04 6.08.41 8.63 2.16 6.67 4.25 14.79 4.64 22.39 5.77 12.74 1.36 25.36-1.63 38.05-2.29 5.04-.18 10.09 0 15.13.37-11-3.91-22.73-4.85-33.98-7.76-5.7-1.52-11.73-1.86-17.11-4.44-9.31-3.66-17.31-10.62-22.08-19.43-2.61-4.96-3.59-10.83-2.42-16.34 3.16 4.14 4.44 9.33 7.28 13.66 2.05 4.05 6.98 5.11 11.07 5.78 13.02 1.21 26.15.22 39.07-1.57 4.09-.87 8.27-1.01 12.43-1.27-7.65-2.72-14.47-7.53-19.73-13.7-6.53-6.99-10.04-16.33-17.16-22.83-5.12-4.55-11.75-6.74-18.08-9.03-4.09-1.61-8.96-1.43-12.36-4.51 7.23-1.66 14.64-.57 21.78.89 12.95.63 24.98 6.05 36.31 11.94 7.93 4.53 16.59 8.07 25.72 9.15-10.54-9.46-20.07-19.95-30.14-29.89-6.66-6.56-14.2-12.49-23.03-15.82-5.37-1.85-10.88-3.35-16.58-3.65.12-.5.36-1.49.48-1.99 6.92-2.87 14.36-.98 21.26.82 13.53.21 27.3 3.87 38.15 12.2-11-15.12-16.77-33.5-28.9-47.87-.17-.66-.5-1.97-.67-2.63 6.52 1.96 10.51 8.14 16.93 10.32 10.43 3.68 20.41 8.95 28.62 16.45 6.21 5.18 11.33 11.46 17.04 17.15-3.31-9.48-6.7-18.99-11.26-27.95-6.4-10.7-14.41-20.31-21.52-30.53-1.05-1.27-1.08-2.97-1.32-4.52 3.9 2.75 6.98 6.48 10.96 9.14 9.91 6.19 17.46 15.3 26.69 22.37 8.37 6.41 17.83 11.18 27.27 15.79-7.6-11.73-8.69-25.92-11.17-39.3-.68-5.06-1.25-10.13-2.21-15.14-2.77-10.46-6.55-20.62-10-30.86-.01-.8-.03-2.41-.04-3.21 5.57 3.94 6.98 11.2 11.94 15.69 3.76 3.56 6.93 7.69 10.65 11.29 5.57 4.99 10.92 10.52 14.05 17.42 2.34-10.47 12.71-15.43 18.39-23.74 3.35-4.77 3.37-11.02 2.18-16.51-1-4.53-1.82-9.12-3.34-13.52-.62-1.54-.65-3.21-.57-4.85 4.67 4.88 6.33 11.62 9.31 17.51 4 7.76 7.52 16.05 8.04 24.88.52 5.98-.67 11.91-1.49 17.81 4.27-7 10.15-12.81 14.7-19.61 2.46-3.35 4.12-7.17 6.21-10.74 1.79-5.64 3.61-11.43 3.19-17.44.22-5.11-3.73-9.33-3.01-14.53m-37.59 62.66c-2.01 4.4-3.37 9.06-5.37 13.47-.71 2.74-2.11 5.49-1.74 8.38 2.91 6.38 8.2 11.96 15.11 13.88 5.59 2.36 10.85-1.9 16.27-2.78-.63-.67-1.26-1.34-1.9-2-3.24-2.63-6.29-5.57-8.5-9.13-3.7-5.63-4.65-12.5-5.29-19.05.82-6.37 2.84-12.56 3.77-18.92.43-3.69-.59-7.32-1.47-10.87-1.43 9.79-7.32 17.99-10.88 27.02m41.86-8.27c-1.64 7.68-5.11 15.1-4.74 23.1.58 6.07 4.63 12.25 10.84 13.67 2.92.25 5.87.03 8.81.07-6.08-6.92-8.16-16.15-9.42-25.02-.65-10.27.24-20.57-.4-30.84-1.27 6.45-2.96 12.8-5.09 19.02m-80.29-12.42c1.48 4.8 2.67 9.69 3.21 14.69 2.15 14.67 4.24 29.5 9.58 43.41 1.24 2.6 3.32 4.65 5.47 6.51 2.66 2.6 6.71 2.1 10.07 3.06 4.21-2.5 8.9-4.11 13.03-6.72-7.43-1.92-11.99-8.51-16.07-14.49-4.97-7.46-6.12-16.55-8.7-24.96-3.4-8.6-10.57-14.77-16.59-21.5m70.45 20.86c-2.93 6.66-3.61 14.71-.52 21.43-3.17.61-4.24-2.94-5.25-5.23-2.48-8.94 1.06-18 5.05-25.92-4.24 4.87-9.12 9.59-11.05 15.94-1.23 2.98-.91 6.27-.93 9.42 3.13 6.28 8.41 11.29 14.77 14.22 1.92.16 3.85-.1 5.79-.19-4.25-4.28-7.09-9.99-7.34-16.05 1.41-10.95 4.91-21.44 7.96-32.01-2.8 6.14-6.18 12.03-8.48 18.39m-40.11-4.39c-3.16 4.85-2.21 10.9-2.14 16.36 3.95-9.51 7.32-19.3 12.57-28.21-4.22 3.2-7.65 7.37-10.43 11.85m80.3 10.95c-1.57 4.73-.69 9.76-1.17 14.64-.84-1.06-1.85-2.03-2.37-3.29-1.23-5.9-.69-12.07.99-17.83-3.77 7.64-7.68 16.22-5.92 24.92 2.03 6.21 9.47 4.26 14.37 5.88-2.67-13.92.59-28.11 3.72-41.67-3.96 5.3-8.08 10.79-9.62 17.35m48.43-7.12c-8.68 5.41-15.32 14.22-17.83 24.15-.76 6.42 1.39 13.79 7.25 17.24-.59-6.5-.58-13.24 1.71-19.44 2.61-6.06 5.77-11.89 9.71-17.19 3.08-4.28 6.76-8.08 9.66-12.48-3.34 2.79-6.79 5.44-10.5 7.72m40.78-3.37c-5.89 5.02-12.98 8.33-18.94 13.24-7.22 5.49-12.84 12.65-18.01 20.01-.04-.9-.13-2.71-.17-3.62 2.52-4.28 4.74-8.79 8.02-12.57 5.41-7.2 13.16-12.11 20.76-16.7-11.43 3.92-21.4 11.2-30.93 18.47-5.01 3.66-5.46 10.21-6.66 15.78-.91 4.1.68 8.08 1.53 12.04 2.89 1.86 6.04 3.26 9.1 4.8.38-2.98.53-6.08 1.71-8.88 2.73-5.64 7.31-10.07 11.73-14.4 6.53-6.07 13.23-12.02 19.23-18.63 3.82-3.94 5.72-9.17 8.47-13.81-2.16 1.11-4.01 2.7-5.84 4.27m-72.44 19.67c-2.72 2.31-4.86 5.41-5.71 8.89.06 2.53 1.03 4.93 1.58 7.38 5.22 1.84 10.71 2.76 15.91 4.66-3.01-7.11-2.22-15.45 1.15-22.3-2.83 3.41-5.4 7.07-7.06 11.22-.62-.18-1.86-.55-2.48-.73.72-3.58 1.47-7.25 3.4-10.4 2.09-3.46 5.01-6.29 7.77-9.21-4.98 3.32-10.02 6.58-14.56 10.49m59.9 11.92c-1.98 1.17-4.23 1.72-6.32 2.62-5.61 4.57-10.23 10.94-10.97 18.32-.03 2.01 1.7 3.43 2.68 5.04.65-9.23 7.04-16.96 14.19-22.3 8.06-5.52 16.79-10.1 25.98-13.45-9.05 1.45-17.84 4.82-25.56 9.77m-1.39 10.62c-4.56 4.63-9.89 10.68-7.93 17.7 2.19 3.52 6.02 5.64 8.86 8.6 1.5-10.15 5.64-20.13 12.89-27.52 8.21-7.43 17.97-12.85 26.77-19.52-13.63 6.66-28.92 10.62-40.59 20.74m-248.59-6.39c4.06 4.63 6.93 10.12 10.81 14.88 5.57 7.36 11.23 15.15 19.51 19.67.03.52.11 1.56.15 2.09-5.73-2.78-11.38-5.95-15.83-10.58-4.61-4.15-7.64-9.63-11.64-14.32 2.47 3.44 3.58 7.6 5.91 11.12 5.53 9.37 12.16 18.8 22.06 23.94-1.69-2.49-2.01-5.61.48-7.63 4.92.12 9.84.25 14.76.3-2.33-1.95-4.59-3.99-6.58-6.29-11.66-12.7-23.77-25.73-39.63-33.18m38.04.09c.96 4.81 3.21 9.18 5.02 13.7 3.75 8.9 8.3 17.85 15.92 24.09.74-.04 2.23-.13 2.97-.17 1.71-1.74 3.49-3.39 5.36-4.96-5.96.57-10.98-3.39-14.64-7.63-5.78-7.78-9.82-16.65-14.63-25.03m4.18-.21c3.07 4.9 6.19 9.77 8.85 14.9 3.08 5.47 6.64 11.45 12.92 13.61 2.62.65 5.98 1.89 8.23-.3 3.37-2.99 6.93-5.77 10.62-8.36-15.34-1.94-27.85-11.95-40.62-19.85m232.77 5.81c-5.54.72-9.83 4.9-12.76 9.38-3.91 6.33-6.82 13.71-5.74 21.27 5.69 1.59 11.63 1.82 17.45 2.69 4.16-2.85 8.05-6.1 11.44-9.85 6.19-6.97 13.43-13.07 18.5-20.99-12.91 5.42-25.17 12.52-35.64 21.87.09-.69.27-2.06.36-2.75 5.57-8.98 15.1-14.47 24.55-18.59-7.9 1.87-15.38 5.13-22.82 8.33-2.08.82-3.94 2.06-5.68 3.45-.19-.54-.59-1.61-.78-2.14 7.23-7.39 17.13-11.4 27.08-13.53 1.47-.44 2.97-.86 4.42-1.38-6.84-.19-13.67 1.02-20.38 2.24m-146.49.53c2.31 10.11 5.1 20.13 6.78 30.39 6.53-.1 13.06-.12 19.58-.48-.04-10.97-.01-21.95.21-32.92-8.92.21-17.78 1.5-26.57 3.01m31.19-2.95c-.43 10.73-.58 21.47-.56 32.21 13.75-.17 27.51-.77 41.27-.48 2.42-4.41 3.8-9.28 5.98-13.8 1.19-2.51 2.01-5.17 2.59-7.87-2.78-.84-5.53-1.8-8.16-3.03-5.23-1.44-10.49-2.79-15.73-4.18-8.35-1.72-16.9-2.35-25.39-2.85m-55.48 11.8c-8.66 3.91-16.32 9.6-24.14 14.92 1.76 2.95 3.77 5.74 5.87 8.46 7.33.06 14.65-.33 21.97-.46-1.7-4.04-3.69-7.96-5.22-12.08.18-.92.53-2.76.71-3.69 1.08.54 2.59.66 3.07 1.97 2.42 4.47 4.3 9.2 6.38 13.84 6.05-.23 12.12-.05 18.15-.69-2.41-9.82-3.99-19.82-6.72-29.57-7.05 1.31-13.58 4.36-20.07 7.3m108.91.17c-2.39 6.67-4.91 13.28-7.54 19.85 6.97-.27 13.83 1.18 20.78 1.48 1.28-1.56 2.57-3.12 3.86-4.69.76.38 1.53.76 2.3 1.14-.04.85-.14 2.55-.19 3.4 4.48-.1 8.96-.18 13.45-.32-4.14-4.76-9.62-7.97-14.82-11.4-5.79-3.43-11.7-6.69-17.84-9.46m81.94 24.71c.03 2.64.15 5.46-1.46 7.71-4.61 7.08-7.55 15.06-11.25 22.62-1.44 2.19-.46 4.67.28 6.9 3.52-10.51 13.69-16.16 20.43-24.33 5.48-6.79 11.73-12.88 17.83-19.12 4.48-4.57 9.71-8.28 14.93-11.95-15.31 1.19-27.37 11.82-40.76 18.17m-312.35-12.8c7.71 5.51 13.73 12.89 20.55 19.39 4.43 4.53 8.87 9.06 13.27 13.63 5.16 5.46 10.81 11.64 18.73 12.49 1.5-3.02 3.47-5.79 4.81-8.88-.47-3.57-2.73-6.57-4.81-9.39-5.01-.25-9.57-2.53-13.62-5.33-12.44-8.07-23.84-19.21-38.93-21.91m86.5 11.87c3.82-.07 7.64-.06 11.47-.09-1.28-2.08-2.69-4.07-4.26-5.92-2.42 1.99-4.82 4-7.21 6.01m-4.21 21.55c-1.27 3.15 3.36-.21 0 0m-84.9 2.39c5.23 6.43 11.73 11.84 18.84 16.08 4.61 2.83 10.09 2.93 15.32 3.28.08.5.24 1.48.32 1.98-5.29.51-10.84.81-15.85-1.3-9.59-4.17-16.31-12.47-24.13-19.06 6.46 7.98 10.77 17.75 18.83 24.39 5.85 5.27 13.71 8.16 21.55 8.26 4.3.39 8.14-2.07 11.51-4.42 1.95-4.91 3.9-9.85 6.07-14.69-7.6.63-15.2.06-22.71-1.17-10.8-2.26-19.92-8.73-29.75-13.35m311.43 11.22c-2.23 3.73-4.2 8.04-4.14 12.46 1.36 4.03 3.32 7.85 4.44 11.98 6.47-5.53 12.75-11.55 20.57-15.18 9.58-4.96 20.52-5.47 30.61-8.88-7.48-2.15-15.32-2.58-23.06-2.37-5.22.22-10.64.59-15.4 2.94-2.63 1.26-4.59 3.47-6.65 5.46-.14-.46-.42-1.39-.57-1.86 2.24-3.05 5.1-5.6 8.62-7.07 10.87-4.61 22.93-3.36 34.37-2.3-7.23-1.23-14-4.59-21.42-4.82-9.97-1.1-20.44 2.3-27.37 9.64m-60.59 5.23c8.45-3.83 17.79-6.85 24.22-13.88-8.05 4.68-15.95 9.57-24.22 13.88m-198.59 16.74c7.96 3.3 16.15 6.03 24.02 9.56-3.22-7.9-6.83-15.63-9.83-23.62-.93-2.9-3.24-4.92-5.66-6.58-4.69 6.02-6.47 13.48-8.53 20.64m238.29.04.59.27c4.05-1.36 7.86-3.36 11.91-4.75-.87-4.32-3.11-8.16-4.81-12.18-2.85 5.42-5.09 11.13-7.69 16.66m-157.4 8.87c-12.95 6.83-24.08 16.78-33.21 28.15 5.79-5.03 11.32-10.47 18.04-14.27 13.86-8.63 30.03-12.58 46.05-14.69 32.98-5.24 66.72 5.19 94.26 23.21-10.41-10.96-22.12-21.28-36.55-26.48-7.43-2.49-15.05-5.85-23.01-5.16-1.62-.57-3.04-1.73-4.78-1.89-20.73-1.72-42.25 1.42-60.8 11.13m158.44-3.66c-2.01.84-4.51 1.54-5.17 3.9-4.32 10.07-9.29 19.83-14.41 29.51 2.2 3.6 4.76 7.05 6.2 11.07 11.33.07 22.65-.11 33.98-.08 1.21-16.91-1.84-33.77-7.16-49.78-4.57 1.57-8.92 3.68-13.44 5.38m-240.31-.96c-1.9 7.15-.65 15.23-4.66 21.7-.63-.01-1.87-.04-2.5-.06-3.08-6.8 0-14.32.43-21.35-6.84 3.98-14.95 3.5-22.56 3.81-7.85.03-15.41 2.52-23.22 2.94-9.51.87-19.24 2-28.68-.05 12.33 9.31 28.56 8.6 42.79 12.82 11.23 2.66 22.7 7.55 29.43 17.42-.06-3.15-1.29-9.85 3.68-9.22 3.72 5.13 1.77 11.87 2.52 17.76 11.76-.65 23.46 1.12 35.21.94 1.95-3.39 3.92-6.76 5.72-10.22-3.15-8.51-6.84-16.78-10.52-25.07-9.17-3.93-18.45-7.56-27.64-11.42m262 3.6c.62 2.49 1.2 4.99 1.65 7.52 9.73-8.65 23.61-9.94 36.06-9.44-10.01-.75-20.05-2.43-30.1-1.5-2.87.2-5.5 1.53-7.61 3.42m34.63 3.25c-11.13-.19-23.48 1.22-31.75 9.49.45 2.52.95 5.03 1.37 7.56 2.33-3.04 5.15-5.71 8.52-7.56 6.47-4.16 14.41-4.24 21.78-5.24 8.58-.49 17.2-1.24 25.6-3.13-.02-.24-.04-.7-.06-.93-8.49.28-16.97-.37-25.46-.19m-30.39 27.93c.5.03 1.49.07 1.98.09-.39 1.22-.78 2.45-1.16 3.68 2.26-1.45 4.69-2.83 7.46-2.82 9.76-.65 19.38 1.77 29.12 1.98 8.66.9 17.39.39 25.99-.76-7.6-1.44-14.77-4.39-22.16-6.57-8.95-3.16-18.72-3.48-27.86-.94 1.24-1.39 2.51-2.92 4.39-3.43 9.76-3.31 20.13-.55 29.65 2.28 8.67 2.1 17.21 4.81 26.02 6.29-11.29-3.87-21.51-10.37-33.18-13.21-6.82-1.44-13.91-3.49-20.89-1.92-8.54 1.42-15.06 8.23-19.36 15.33m-226.52-13.1c-.41 1.71.15 2.25 1.69 1.62.42-1.71-.14-2.25-1.69-1.62m26.97 3.69c-11.08 6.99-19.48 17.3-30.17 24.79-4.39 3.22-9.05 7.83-8.79 13.69 1.9.4 3.96 1.17 5.83.23 3.66-1.57 6.62-5.65 11.05-4.4 2.81 1.2 4.25 4.21 6.14 6.46 6.23 8.88 16.23 13.89 25.88 18.18 12.88 5.92 27.03 8.28 41.08 9.34 8.61 1.02 17.37 1.6 25.98.16 16.78-1.77 33.85-5.21 48.57-13.83 12.33-7.15 22.04-17.84 31.13-28.63-7.53-10.48-17.99-18.35-29.04-24.81 1.64 5.39.86 11.21-1.21 16.37-5.46 14.13-15.96 26.61-29.86 33-13.19 6.01-28.3 8.69-42.64 5.83-12.35-1.74-24.42-7.27-32.78-16.7-10.78-11.71-15.3-28.03-14.69-43.71-2.16 1.35-4.35 2.65-6.48 4.03m14.54 11.29c-.1.62-.29 1.87-.39 2.49 5.31-1.42 10.81-2.19 15.91-4.34 3.35-1.44 7.2-1.87 10.15-4.14-8.73.77-17.86 1.7-25.67 5.99m-141.79 1.4c-6.64 1.38-13.39.57-20.03-.19 5.74 2.5 11.7 4.5 17.79 5.99 5.1 1.03 10.33 1.24 15.5 1.81 6.49.73 12.77 2.64 18.94 4.71 2.18.69 4.09 2.02 5.75 3.56-4.76-.13-9.18-2.15-13.86-2.84-8.98-2.41-18.38-1.88-27.5-3.47-6.57-1.37-13.11-3.58-18.54-7.63 4.06 4.76 8.91 8.9 14.38 11.95 14.16 5.98 29.81 5.35 44.83 6.78 6.88.63 13.09 4.4 17.21 9.89.6-2.55.16-7.69 3.93-7.69 2.66 3.62 2.94 8.36 4.42 12.5 7.51-2.17 15.2-3.63 22.88-5.07-1.31-2.46-2.62-4.99-2.87-7.8 1.53-3.31 3.12-6.63 5.49-9.44-9.78.1-19.55-.51-29.33-.61-1.31 1.77-1.92 5.54-4.87 4.2-2.38-3.1-1.34-7.49-3.8-10.55-2.2-4.02-6.4-6.12-10.3-8.15-.59.27-1.77.81-2.36 1.07.11-.47.32-1.41.43-1.89-12.79-1.84-25.44 1.53-38.09 2.87m160.38.49c-5.78 1.5-11.29 4.09-17.26 4.76.52 1.53 1.06 3.05 1.61 4.58 3.61-2.49 7.16-5.2 11.33-6.69 3.82-1.42 7.62-2.95 11.18-4.97-2.43.32-4.68 1.26-6.86 2.32m49.05 11.41c6.12 4.45 14.43-1.22 16.23-7.64-1.84-5.23-7.85-5.96-12.62-6.18-6.48.41-9.01 10.31-3.61 13.82m16.99-13.42c2.85 2.71 6.85 3.42 10.18 5.33 3.09 1.78 6.27 3.42 9.57 4.8.81-1.58 1.65-3.15 2.47-4.72-7.26-2.29-14.7-4.16-22.22-5.41m-79.75 14.96c1.26 2.03 2.65 3.98 4.16 5.84 5.01-6.12 10.92-11.58 17.6-15.83-.8.03-2.4.08-3.2.11-6.2 3.28-12.36 6.61-18.56 9.88m81.43-8.88c1.43 2.52 4.18 3.7 6.45 5.3 2.73 1.48 5.41 3.35 8.47 4.02.42-.5 1.26-1.49 1.68-1.98-5.91-1.61-10.87-5.32-16.6-7.34m-75.04 17.73c1.83 1.72 3.58 3.52 5.36 5.3 2.33-3.48 4.26-7.21 6.17-10.93 1.78-3.5 4.44-6.42 6.57-9.7-6.8 4.1-12.28 10-18.1 15.33m175.52-14.78c-1.61 4.37-1.34 9.07-2.13 13.59-.48 2.58-2.19 5.22-5.07 5.29-1.91-4.65-.76-9.69-.33-14.5-9.98-.09-19.96-.12-29.94-.25-.4 4.57-4.61 7.25-6.23 11.3-2.89 7.09-7.92 12.96-13.02 18.57 12.34 4.28 24.36 9.41 36.59 13.97 1.59-3.63 3.57-7.08 5.11-10.74 1.85-4.26 3.19-8.74 5.58-12.75 1.18.32 2.34.69 3.5 1.1.62 1.83-.6 3.44-1.22 5.08 4.76-2.25 9.52-4.63 14.6-6.11 13.36-2.91 26.93-5.58 40.69-4.81-10.09-4.1-20.92-5.83-31.6-7.62-3.88-.84-7.61.64-11.3 1.55 1.21-2.51 3.85-3.73 6.4-4.46 6.54-1.11 13.06.35 19.46 1.53-9.37-5.91-20.07-9.53-31.09-10.74m-101.15 1.14c-.2.6-.62 1.78-.82 2.38 3.97 2.88 7.2 6.84 11.69 8.98.84-.76 1.65-1.55 2.44-2.36-4.99-2.14-9.02-5.78-13.31-9m-55.47 4.4c-4.01 5.2-6.5 11.35-10.07 16.84.58.41 1.73 1.24 2.31 1.65 3.48-5.95 6.45-12.17 9.75-18.21.35-.56 1.06-1.67 1.41-2.23-1.3.35-2.72.64-3.4 1.95m28.62-.45c1.35 8.42 3.48 16.71 4.36 25.2 1.37 0 2.75-.02 4.13-.05-2.29-6.69-4.7-13.35-5.85-20.37-.53-1.8-.14-4.51-2.64-4.78m20.7 3.38c2.91 4.18 4.85 8.94 7.6 13.22 2.34-1.95 4.63-3.97 6.87-6.03-4.44-2.75-8.5-6.06-12.58-9.31-.64.7-1.27 1.41-1.89 2.12m-43.28 7.17c-1.75 4.03-3.61 8.03-4.79 12.28 1.72.47 3.45.97 5.17 1.46.74-7.84 3.43-15.32 5.5-22.88-2.94 2.32-4.35 5.85-5.88 9.14m3.52 14.64c.63.08 1.89.26 2.52.34 1.34-7.68 2.26-15.43 3.49-23.14-2.31 7.52-3.76 15.27-6.01 22.8m14.42-18.56c-.05 6.65.27 13.3.51 19.94 1.41-.14 2.82-.29 4.23-.45-1.68-8.15-3.12-16.35-3.73-24.65-.67 1.64-1.06 3.38-1.01 5.16m10.64-3.97c1.5 7.11 4.07 13.92 6.42 20.78 1.35-.27 2.7-.54 4.06-.8-1.63-3-3.46-5.9-4.91-8.99-1.84-3.68-2.53-8.01-5.57-10.99m6.72 2.39c1.74 5.71 4.63 10.93 7.24 16.27 1.59-.97 3.2-1.92 4.81-2.87-3.86-3.87-4.78-9.5-8.3-13.58-1.25.06-2.5.11-3.75.18m-23.47 8.03c0 4.43-.44 8.86-1.54 13.16 1.41.12 2.83.24 4.25.37-.24-4.61-.59-9.21-.77-13.82-.49.07-1.46.22-1.94.29m-105.6 9.64c-6.74 1.67-13.63 2.67-20.38 4.32 4.77 13.46 11.47 26.35 20.79 37.25 6.07-4.19 12.11-8.42 18.33-12.38.86.52 2.91.08 2.61 1.64.61 1.53-.9 2.63-1.87 3.51-5.29 3.71-10.86 6.99-16.23 10.58 4.1 4.55 8.28 9.03 12.34 13.62 10.27-10.4 20.98-20.41 31.07-30.95.42-3.74-4.17-5.52-7.06-6.69-4.08 2.98-8.35 5.67-12.54 8.49-.93-.04-2.8-.12-3.73-.16.52-6.75 9.24-7.34 12.53-12.07-7.14-5.98-12.99-13.33-17.87-21.23-5.76 2.26-12.03 2.55-17.99 4.07m83.7-1.64c1.45.64 2.46-1.84 1.59-2.83-1.46-.68-2.44 1.83-1.59 2.83m-138.25 20.27c-12.51 2.41-25.92 4.19-36.45 11.97 7.74-2.15 15.82-1.07 23.73-1.69 9.69-.87 19.44-.56 29.16-.62 4.25-.08 8.67-.28 12.59-2.08 2.21-1.31 4.29-2.84 6.54-4.09-3.51-6.38-5.7-13.34-8.05-20.19-4.84 10.55-16.65 15.31-27.52 16.7m215.08-1.28c-21.88 9.16-46.25 10.38-69.64 8.38-6.74-.21-13.33-1.75-19.94-3.01-11.63-2.59-22.42-7.81-33.09-12.92 16.12 13.89 36.71 23.01 58.09 24.03 8.26 1.05 16.7.94 24.95-.18 11.86-.82 23.74-3.59 34.18-9.43 8.61-4.88 16.69-10.7 23.87-17.53-6.11 3.61-11.83 7.89-18.42 10.66m73.91-4.94c-2.49 3.69-3.34 8.34-5.99 12.01 6.37-3.15 13.56-1.4 20.13.05 7.22 1.85 13.39 6.18 19.25 10.61 4.47 3.38 9.67 5.58 15.08 6.94 5.41.95 10.88 1.49 16.36 1.98-7.63-5.04-14.16-11.47-21.2-17.25-7.58-6.94-15.95-12.96-24.8-18.15-1.62-.89-3.38-1.63-5.24-1.76-5.19-.77-9.46 3.05-13.59 5.57m-59.66 5.63c2.49 1.45 4.87 3.08 7.09 4.93-.2.73-.59 2.18-.79 2.91-3.69-.92-6.65-3.4-10.05-4.94-3.53 3.25-4.3 8.54-5.59 12.94 8.57 9.51 18.54 17.68 27.13 27.19 12.53-9.69 21.18-23.16 29.17-36.6-12.12-5.59-24.74-9.96-37.02-15.17-3.25 2.99-6.62 5.83-9.94 8.74m47.85 16.48c-2.82 3.14-4.9 6.87-7.89 9.86 4.41-.31 8.88-.66 13.28-.02 9.26 2.05 17.5 7.88 22.65 15.83 3.13 5.3 5.03 11.4 9.35 15.94-1.65-6.99-2.94-14.29-6.48-20.63-2.03-4-6.19-6.01-9.51-8.72 5.03-.67 9.31 3.11 12.22 6.79 3.42 4.18 3.76 9.79 6.16 14.49.26 1.36.52 2.74.82 4.11-.33-6.73-1.64-13.42-3.59-19.85-3.58-9.72-14.95-11.82-23.8-14.08-.13-.46-.37-1.38-.5-1.83 3.55.45 7.1.91 10.65 1.35 3.67 1.18 7.6 1.99 10.72 4.42 4.3 2.64 6.78 7.12 8.41 11.75.33 1.43.66 2.89 1.05 4.32.63-6.1-1.53-12.4-5.58-16.98-4.17-4.83-9.42-9.03-15.72-10.57-7.42-2.26-16.4-1.83-22.24 3.82m-235.22-1.52c-.53 10.98-7.44 21.1-16.83 26.58-5.89 3.89-13.19 4.01-19.71 6.27-5.43 1.48-9.63 5.47-13.72 9.12 4.19-.73 8.07-2.64 12.27-3.36 6.38-1.14 12.86-1.96 19.01-4.09 7.57-2.62 14.01-8.07 17.99-15 1.18 4.16-2.47 7.29-4.33 10.6-6.78 9.52-19.47 10.23-30 11.98 7.46 1.92 15 5.89 22.89 3.65 7.09-2.84 14.41-6.71 18.3-13.61 3.71-5.24 5.36-11.95 4.05-18.28-2.85-4.91-6.78-9.12-9.92-13.86m49.12 11.48c-5.91 5.67-11.74 11.42-17.43 17.3 5.52 4.95 11.45 9.39 17.64 13.47 5.17-7.44 9.55-15.39 14.68-22.86 1.51-2.41 3.32-4.69 4.38-7.35-1.74-4.61-4.52-8.73-6.74-13.11-3.67 4.68-8.43 8.29-12.53 12.55m121.79 7.6c5.09 7.79 10.61 15.27 15.76 23.01.91-.6 1.82-1.2 2.73-1.8.86.08 2.57.26 3.43.35-.54 1.57-1.14 3.13-1.84 4.65 3.75 4.85 5.85 10.67 7.59 16.48 1.33 4.54.81 9.41 2.13 13.93 4.87 9.12 12.58 16.73 21.94 21.19 1.08.57 2.17 1.13 3.28 1.68-7.98-9.31-15.92-19.18-20.08-30.88.14-.67-.54-3.24.83-2.34 2.14 3.65 3.61 7.71 6.32 11.04 4.79 5.91 9.04 12.29 14.58 17.56-5.53-8.17-5.72-18.67-3.35-27.95 1.69-6.96 1.78-14.12 1.58-21.23-2.22-3.11-4.23-6.51-7.46-8.68-3.38-2.54-7.86-2-11.82-1.87-2.9 1.09-5.08 3.69-8.22 4.34-.39-.34-1.17-1.03-1.56-1.37.92-2.69 3.1-4.57 5.02-6.54-8.62-8.4-16.92-17.11-25.57-25.47-1.79 4.62-3.82 9.15-5.29 13.9m-108.85 11.41c-2.65 4.7-6.1 8.97-8.28 13.91 4.8 3.09 10.27 5.02 15.49 7.31 2.73-4.08 3.94-8.88 5.92-13.32.45-1.34 1.36-2.72.9-4.17-1.54-5.55-3.68-10.91-5.62-16.33-3.42 3.75-5.59 8.42-8.41 12.6m158.98-10.28c-4.05 2.62-6.68 6.93-10.49 9.89 3.96-.64 8.46-.7 11.64 2.16 10.81 9.25 15.45 23.13 21.35 35.61 2.52 5.73 6.47 10.93 11.87 14.21-3.16-4.79-5.16-10.34-5.39-16.09-.54-9.88.12-20.58-5.29-29.33-1.69-3.02-4.92-4.59-7.83-6.19.06-.52.16-1.55.22-2.07 3 1.13 6.47 1.76 8.63 4.35 5.1 6.01 6.78 13.99 7.97 21.57.39 4.79-.1 9.61.8 14.38 1.19-7.55 1.63-15.19 3.02-22.7.54-5.19 1.12-10.87-1.27-15.7-3.28-4.48-7.72-8.34-13.08-10.04-7.01-3.08-15.03-2.26-22.15-.05m-203.99 1.62c-1.87 10.18-7.61 19.46-15.3 26.3-3.96 3.7-8.68 6.65-11.81 11.17-4.81 6.49-6.12 14.66-9.77 21.75 12.94-11.78 28.87-19.81 41.36-32.13 4.26-3.49 8.22-8.2 8.36-13.97-4.43-4.22-8.69-8.62-12.84-13.12m151.87 2.28c-1.57 6.27-4.7 11.97-6.91 18.01.23 3.39 2.46 6.37 3.43 9.62 5.98-1.36 11.4-4.33 16.89-6.97-3.43-7.48-8.82-13.87-13.41-20.66m-134.42 14.79c-1.2 8.35-9.05 13.18-12.28 20.58-3.63 6.02-1.58 13.19-1.27 19.74 2.09-4.76 3.68-9.82 6.78-14.06 3.01-4.29 6.15-8.59 7.85-13.6.88-.19 1.75-.36 2.63-.53-1.18 9.45-8.11 16.48-11.17 25.21 4.25-4.09 8.4-8.36 11.35-13.52 3.64-5.12 4.9-11.36 6.1-17.4-3.36-2.11-6.75-4.14-9.99-6.42m43.02 4.96c-1.07 3.2-2.21 6.39-3.52 9.5 3.16.88 6.34 1.73 9.55 2.44-2.25-3.96-4.04-8.18-4.95-12.65-.27.18-.81.54-1.08.71m-30.01 3.1c-.25 9.14-4.44 17.62-9.9 24.76 5.31-3.39 10.45-7.4 13.93-12.74 1.83-2.56 1.34-5.85 1.26-8.79-1.77-1.07-3.53-2.14-5.29-3.23m110.96 1.45c-.93 2.34-2.06 4.6-3.3 6.8 2.02-.65 4.06-1.26 6.11-1.86-.58-1.57-1.15-3.14-1.71-4.71-.27-.06-.83-.17-1.1-.23m-.69 11.35c3.78 2.5 7.64 4.91 11.06 7.89 4.19 3.51 7.54 7.83 11.22 11.84 6.48 7.59 12.48 15.67 17.04 24.58-3.43-13.69-1.99-28.03-5.06-41.77-1.73-4.79-2.92-10.03-6.47-13.88-8.81 4.76-17.9 9.35-27.79 11.34m-10.58-2.8c2.92-.12 3.76-3.01 4.44-5.33-1.83 1.45-3.39 3.23-4.44 5.33m-86.26-3.04c-.04 4.02.17 8.08-.49 12.07-.78 5.8-3.56 11.03-5.56 16.46 5.82-5.47 12.53-10.63 15.4-18.4.43.17 1.29.51 1.72.68-.14 5.4-2.98 10.26-6.82 13.91-4.89 4.94-12.22 7.12-15.89 13.29.92-.45 1.82-.94 2.69-1.48 7.69-5.75 17.07-9.16 23.74-16.26 3.64-3.46 5.81-8.23 5.13-13.32-6.6-2.46-13.39-4.32-19.92-6.95m58.67 5.75c.62-.11 1.85-.33 2.47-.44-.25-1.79-.53-3.58-.87-5.34-.67 1.89-1.14 3.83-1.6 5.78m19.79 30.22c2.79 7.8 7.22 14.83 10.96 22.19 2.9 6.33 5.05 13.1 5.25 20.11 1.56-7.06 2.04-14.77-.84-21.57-1.95-5.47-5.54-10.15-7.5-15.62-.28-4.09-.66-8.29.44-12.29 1.27-6.35 4.96-11.92 5.89-18.34-.59.09-1.77.26-2.35.35-4.5 8.09-7.9 16.78-11.85 25.17m-50.61 9.16c-1.58 4.1-3.18 8.2-4.35 12.45 4.66-6.94 10.44-13.1 14.49-20.43-1.16-2.23-2.19-4.52-3.16-6.83-1.29 5.4-5.07 9.67-6.98 14.81m48.57-5.22c-.99 2.77-2.1 5.5-3.38 8.15 6.35 5.42 12.25 11.78 15.52 19.57-1.05-4.38-2.89-8.53-5.27-12.35-3.02-4.76-5.16-10.01-6.87-15.37m-53.84 30.29c4.45-9.3 12.74-15.77 19.84-22.94-.73-1.66-1.44-3.34-2.11-5.02-5.88 9.31-15.1 16.89-17.73 27.96z"/><path d="m403.89 280.8c6.08-1 11.93-3.38 18.1-3.67 1.84-.48 2.47 1.23 3.23 2.5-3.27 2.34-7.35 2.86-11.22 3.45-4.75.66-9.26 2.7-14.12 2.54.21-1.32.42-2.63.63-3.94.77-.14 2.31-.43 3.08-.57-.06-.61-.18-1.83-.24-2.44.14.53.4 1.6.54 2.13z"/><path d="m379.77 359.29c.53-.52 1.58-1.54 2.11-2.06 4.69 2.46 9.09 5.42 13.63 8.14 3.63 2.33 7.59 4.32 10.44 7.65-1.49.62-3.06 2.42-4.78 1.34-5.73-3.83-11.53-7.56-17.4-11.17-1.67-.92-2.85-2.43-4-3.9z"/></g></svg>