<?xml version="1.0" encoding="UTF-8" ?>
<!DOCTYPE svg PUBLIC "-//W3C//DTD SVG 1.1//EN" "http://www.w3.org/Graphics/SVG/1.1/DTD/svg11.dtd">
<svg width="500pt" height="500pt" viewBox="0 0 500 500" version="1.1" xmlns="http://www.w3.org/2000/svg">
<g id="#00b2eeff">
<path fill="#00b2ee" opacity="1.00" d=" M 31.01 13.01 C 177.34 12.99 323.66 13.00 469.99 13.00 C 470.01 51.33 470.01 89.66 469.99 127.99 C 323.66 128.01 177.33 128.00 31.01 128.00 C 30.99 89.67 30.99 51.34 31.01 13.01 M 34.00 16.01 C 33.99 52.34 33.99 88.66 34.00 124.99 C 178.33 125.00 322.66 125.01 467.00 124.99 C 467.01 88.66 467.01 52.34 467.00 16.01 C 322.66 16.00 178.34 15.99 34.00 16.01 Z" />
<path fill="#00b2ee" opacity="1.00" d=" M 31.01 154.01 C 177.34 153.99 323.66 154.00 469.99 154.00 C 470.01 192.33 470.01 230.66 469.99 268.99 C 323.66 269.01 177.33 269.00 31.01 269.00 C 30.99 230.67 30.99 192.34 31.01 154.01 M 34.00 157.01 C 33.99 193.34 33.99 229.66 34.00 265.99 C 178.33 266.00 322.66 266.00 467.00 265.99 C 467.01 229.66 467.01 193.33 467.00 157.01 C 322.66 157.00 178.34 156.99 34.00 157.01 Z" />
<path fill="#00b2ee" opacity="1.00" d=" M 33.01 296.01 C 179.34 295.99 325.66 296.00 471.99 296.00 C 472.01 334.33 472.01 372.66 471.99 410.99 C 325.66 411.01 179.33 411.00 33.01 411.00 C 32.99 372.67 32.99 334.34 33.01 296.01 M 36.00 299.01 C 35.99 335.34 35.99 371.66 36.00 407.99 C 180.33 408.00 324.66 408.00 469.00 407.99 C 469.01 371.66 469.01 335.33 469.00 299.01 C 324.66 299.00 180.34 298.99 36.00 299.01 Z" />
<path fill="#00b2ee" opacity="1.00" d=" M 33.01 437.01 C 179.33 437.00 325.66 436.99 471.99 437.01 C 471.98 458.01 472.05 479.00 471.99 500.00 L 468.99 500.00 C 469.05 480.00 468.98 460.00 468.99 440.01 C 324.66 440.00 180.33 439.99 36.01 440.01 C 36.01 460.00 35.96 480.00 36.01 500.00 L 33.01 500.00 C 32.95 479.00 33.02 458.00 33.01 437.01 Z" />
</g>
</svg>
