<svg viewBox="0 0 476 578" xmlns="http://www.w3.org/2000/svg"><g fill="#fff"><path d="m6.64 0h381.52c2.15.51 3.96 1.76 5.65 3.14.34 1.57.71 3.15.73 4.76.05 75.97-.06 151.94.05 227.91-4.11-1.87-8.57-2.7-13.03-3.19.15-73.13.04-146.26.05-219.4-122.76-.05-245.52-.06-368.27.01.02 155.48.01 310.97.01 466.45 81.85.05 163.71.02 245.57.02-1.68 4.26-3.3 8.53-4.84 12.85-82.33.18-164.67.04-247.01.06-3.56.19-5.82-2.9-7.07-5.82v-479.53c.48-1.48.97-2.97 1.47-4.45 1.61-1.13 3.29-2.18 5.17-2.81z"/><path d="m96.09 44.41c1.18-1.43 3.15-1.79 4.91-1.78h193.03c2.01-.19 3.8.88 5.52 1.79 2.64 4.1 1.29 9.17 2.57 13.66 2.12 10.63 9.01 19.74 17.64 26.07 3.27 1.83 6.55 3.7 10.14 4.88 1.03.31 2.06.64 3.09.99 4.77 1.45 10.01.34 14.55 2.47.98 1.7 2.41 3.36 2.17 5.47.02 50.26.03 100.52-.01 150.79l-.76-.06c-.79 1.03-1.79.98-2.83.44-2.88-2.57-6.3-4.42-9.32-6.8-.03-46.22.09-92.45-.06-138.67-3.27-.41-6.49-1.15-9.67-2.01-.48-.18-1.44-.53-1.92-.71-1.71-.6-3.39-1.29-5.06-1.96-8.3-3.86-15.34-9.97-21.02-17.09-2.78-4.08-5.26-8.36-7.1-12.95-.35-1-.7-1.99-1.06-2.98-1.1-3.41-1.7-6.95-2.33-10.47-60.73.12-121.46.07-182.19.02-.42 2.17-.74 4.36-1.23 6.52-.37 1.29-.72 2.59-1.09 3.88-1.9 4.95-3.73 10.22-7.33 14.2-.01.2-.02.61-.02.82-5.02 6.24-10.81 12.08-17.88 15.98-1.29.68-2.59 1.34-3.88 2.01-1.66.7-3.32 1.39-5 2.03-3.81 1.37-7.78 2.2-11.78 2.78-.03 95.15-.03 190.3 0 285.46 2.95.36 5.86 1.02 8.75 1.72 1.02.35 2.05.71 3.07 1.07 1 .36 1.99.72 2.98 1.1 13.64 5.72 24.71 17.19 30.04 30.98 1.68 4.29 2.64 8.79 3.31 13.33 40.46-.18 80.94-.04 121.4-.07.01.71.03 2.13.04 2.84 1.17 3.48 2.42 6.94 4.25 10.14-43.69-.09-87.37-.01-131.05-.04-1.96.09-3.7-.9-5.41-1.72-2.58-3.67-1.65-8.29-2.42-12.45-.49-2.45-1.3-4.81-1.97-7.21-2.03-4.7-4.52-9.24-8.02-13.02-5.44-6.4-13-10.64-21-12.98-4.96-1.63-10.61.03-15.12-2.84-.73-1.62-1.92-3.15-1.79-5.01.03-97.68.01-195.35 0-293.02.16-2.87-.63-6.16 1.49-8.51 2.22-2.92 6.19-2.28 9.39-2.31 8.78-1.48 17.44-4.87 24.02-11.04 6.55-6.12 11.03-14.16 13.02-22.89.71-4.33-.17-9.07 2.34-12.93z"/><path d="m146.99 117.95c1.61-.67 3.16-1.7 4.98-1.59 28.35-.04 56.7 0 85.06-.02 3.53.02 7.23-.42 10.52 1.22l.12.48c4.65 3.74 1.12 11.79-4.71 11.24-30 .05-60.01 0-90.01.03-2.18-.07-4.64-.38-6.12-2.17-2.68-2.42-1.8-6.6.16-9.19z"/><path d="m106.22 166.4c4.53-.94 9.17-.56 13.77-.61 54.34.01 108.67-.02 163.01.02 2.7.09 5.96.02 7.67 2.53 1.86 1.72.9 4.49 1.11 6.7-1.63 2.07-3.91 4.02-6.73 3.67-58.36.03-116.71 0-175.07.02-3.7.32-7.62-2.8-6.91-6.77-.26-2.39 1.59-4.06 3.15-5.56z"/><path d="m103.09 221.12c-.22-3.61 3.5-6.07 6.8-5.88 51.7-.02 103.4 0 155.1-.01 7.67.08 15.34-.17 23.01.19 1.24 1.14 2.98 1.96 3.6 3.63.24 1.67.19 3.37.27 5.06-1.67 2.83-4.56 4.36-7.87 4.08-58.01 0-116.02-.01-174.03.01-3.82.26-7.57-3.14-6.88-7.08z"/><path d="m302.01 250.97c2.55-2.33 5.84-3.53 9.14-4.33 3.97-.13 8.13.49 11.47 2.8 7.78 5.21 15.45 10.6 23.24 15.81h3.31c7.92-5.45 15.84-10.9 23.83-16.25 8.25-5.25 20.63-1.35 24.17 7.83 3.39 8.7 6.21 17.62 9.57 26.33.78 2.07 3.07 3 5.14 3.03 8.76.11 17.54.19 26.29.72 7.41.27 13.86 6.12 15.39 13.28 1.22 5.78-1.26 11.32-2.78 16.77-1.75 6.76-4.44 13.31-5.3 20.27 7 6.2 14.71 11.56 22.04 17.35 4.52 3.29 7.83 8.66 7.31 14.4.38 5.41-2.63 10.66-6.95 13.75-4.41 3.31-8.7 6.77-13.13 10.04-3.17 2.51-6.52 4.84-9.27 7.83 1.75 10.32 5.83 20.1 8.2 30.29 1.26 7.05-2.34 14.62-8.76 17.86-4.19 2.64-9.26 1.89-13.95 2.13-6.59.41-13.19.51-19.79.67.15 1.26.27 2.53.43 3.8l.26.17c1.52 2.13 2.21 4.7 3.14 7.12 10.77 28.63 21.57 57.26 32.32 85.9 1.7 4.22-3.1 9.01-7.3 7.43-11.09-4.01-21.87-8.87-32.94-12.93-5.31 10.71-10.76 21.35-16.13 32.02-1.49.96-3.02 1.86-4.41 2.94h-1.28c.16-.12.48-.36.64-.49-2.37-.78-4.78-2.13-5.5-4.67-10.7-28.86-21.81-57.56-32.38-86.46l-1.07-.01c-9.98 27.21-20.4 54.26-30.54 81.42-1.08 3.15-2.16 6.39-4.49 8.88-1.91.08-3.87.44-5.74-.09-1.95-.52-2.6-2.66-3.53-4.2-4.88-9.81-9.98-19.51-14.75-29.37-11.07 4.06-21.85 8.9-32.93 12.95-4.21 1.75-9.21-3.37-7.26-7.56 4.34-11.84 8.89-23.6 13.27-35.41 7.68-20.47 15.51-40.89 23.02-61.42-9.36-.15-18.71-.66-28.07-.91-8.89-.94-16.08-9.78-14.74-18.74 2.04-10.6 6.54-20.63 8.31-31.3-6.73-6.46-14.6-11.61-21.86-17.47-4.95-3.33-8.17-9.28-7.57-15.31-.09-5.42 3.3-10.17 7.45-13.33 6.58-5.03 13.13-10.09 19.69-15.14 1.71-1.22 2.58-3.45 1.85-5.48-2.37-8.75-5.14-17.38-7.56-26.1-1.61-6.82 1.27-14.06 6.87-18.18 2.99-1.56 6.19-2.78 9.61-2.81 8.36-.34 16.74-.56 25.12-.6 2.14.01 4.46-1.06 5.15-3.25 2.31-5.77 4.18-11.7 6.36-17.51 1.92-5.04 3.01-10.87 7.39-14.47m8.14 8.58-.29.09c-.37.29-1.1.88-1.47 1.17.11.41.33 1.21.44 1.62l-1-.03c-.2 1.18-.44 2.36-.7 3.54-.43.96-.86 1.92-1.28 2.89-.44 1.58-.96 3.14-1.4 4.73l-.59-.14c-.22 1.19-.45 2.37-.71 3.55-.4.95-.8 1.92-1.19 2.89-.36.99-.72 1.99-1.09 2.98-1.31 5.75-4.87 11.11-10.37 13.56-3.17 1.88-6.93 1.04-10.4 1.54-8.23.45-16.48.58-24.72.71l.32 1.09-1.06-.31c-3.63 3.74-.56 8.45.36 12.66.33 1.02.65 2.05.97 3.1.69 2.31 1.38 4.64 1.97 7 .73 2.29 1.37 4.62 2.11 6.92.65 2.93 1.48 5.99.75 8.99-.55 4.97-4 8.96-7.88 11.83-1.74 1.25-3.38 2.63-5.13 3.87-3.04 2.3-5.94 4.78-9.06 6.97-1.36 1.06-2.71 2.16-4.13 3.15l-.2.2c-2.84 1.73-3.41 5.31-1.68 8.06 1.36.96 2.68 2 4.01 3.02 1.75 1.26 3.39 2.67 5.11 3.97 1.33.99 2.62 2.03 3.94 3.03 1.52 1.14 2.99 2.34 4.53 3.46 1.56 1.2 3.05 2.48 4.5 3.82l.46-.12c.35.33 1.03 1 1.38 1.33v.4c1.38 1.49 2.57 3.16 3.43 5.01 1.14 4.19 1.35 8.61-.13 12.76-.31 1.01-.64 2.02-.96 3.04-.32 1.13-.65 2.27-.99 3.41-.37 1.15-.67 2.34-1.05 3.5-.91 3.38-1.93 6.73-2.92 10.09-1.02 2.77-1.87 5.68-.26 8.41 2.37 1.69 5.36 1.77 8.15 1.96 7.35.03 14.71.13 22.05.44 3.59.2 6.97 1.4 9.96 3.38 1.75 1.5 3.19 3.31 4.49 5.21.52 1.25 1.06 2.5 1.59 3.77.35.99.7 1.99 1.05 3 .58 1.7 1.19 3.4 1.75 5.12.39.96.77 1.93 1.16 2.9.33 1.01.65 2.04.96 3.07 1.92 4.07 2.41 8.86 5.43 12.36 1.92.89 4.05.86 5.93-.15 3.93-2.9 7.91-5.76 12.14-8.23l.04-.4c.99-.53 1.98-1.04 2.98-1.55l.06-.42c4.08-2.53 7.78-6 12.65-6.94 6.06-1.54 12.08 1.51 16.66 5.3 2 1.32 3.99 2.67 5.97 4.04 2.03 1.29 4.02 2.66 5.99 4.06 2.67 1.72 5.14 3.77 8.05 5.09 2.49.3 5.14-1.45 5.82-3.9 1.16-3.08 2.18-6.21 3.38-9.27.31-1.02.63-2.04.96-3.05.38-.98.77-1.96 1.17-2.93.48-1.56 1.01-3.1 1.47-4.66l.54.02c.2-1.18.42-2.36.66-3.52 1.49-3.35 3.18-6.8 6.3-8.94 1.27-.74 2.54-1.5 3.81-2.26 1.09-.25 2.19-.49 3.29-.71 10.62-1.41 21.46.05 32.05-1.76 2.17-2.75 1.82-6.26.73-9.37-.34-1.06-.67-2.13-.97-3.2-.71-2.31-1.37-4.63-2-6.96-1.07-3.29-2.01-6.61-2.99-9.93-1.55-4.15-1.25-8.59-.19-12.81 1.4-2.64 3.02-5.28 5.56-6.98l.17-.28c1.2-.87 2.37-1.8 3.56-2.7 1.67-1.31 3.33-2.64 5.06-3.88 1.32-1.02 2.62-2.07 3.96-3.08 1.49-1.13 2.97-2.28 4.45-3.44 1.53-1.21 3.03-2.47 4.63-3.61 2.13-2.88.74-6.37-1.89-8.34-1.31-.81-2.54-1.73-3.81-2.59l-.18-.3c-1.81-1.28-3.51-2.69-5.26-4.03-1.32-1.01-2.63-2.03-3.94-3.02-1.35-1-2.65-2.05-3.98-3.05-3.09-2.11-5.81-4.76-7.69-8.01-2.59-5.65-1.51-11.97.65-17.56.26-1.02.54-2.05.82-3.06.69-2.33 1.37-4.65 2.11-6.96 1.03-4.9 3.89-9.69 2.4-14.81l-.63.09c-.78-.62-1.56-1.23-2.34-1.83-10.68-.12-21.35-.49-32.01-1.12l.07-.7c-5.52-.86-9.73-5.84-11.5-10.92-.34-1.02-.66-2.04-.96-3.06-.41-.97-.81-1.93-1.22-2.9-.29-1.15-.54-2.31-.75-3.47l-.53.05c-.7-2.6-1.67-5.11-2.54-7.65-.38-.97-.77-1.95-1.15-2.91-.31-1.21-.57-2.43-.78-3.64l-.95.15c.08-.4.24-1.19.32-1.58-.34-.32-1.03-.95-1.38-1.27l-.82.05.3-1.11c-2.33-.01-4.75-.11-6.8 1.17-3.13 2.64-6.63 4.76-10.02 7.04-1.99 1.39-3.97 2.78-5.98 4.13-1.2.8-2.39 1.61-3.55 2.45-5.39 4.18-13.08 4.95-19.1 1.64-.49-.33-1.48-1-1.97-1.33-1.37-.9-2.7-1.85-4.04-2.79-5.93-4.13-12.06-8-17.88-12.31-1.66.32-3.97-.62-5.12 1m-19.26 206.44c-.35 1.87-.92 3.69-1.44 5.52l-.6-.12c-.23 1.2-.55 2.37-.95 3.52-.59 1.52-1.15 3.06-1.5 4.66l-.61-.29c-.09 1.28-.41 2.49-.96 3.63-.51 1.51-1.01 3.02-1.44 4.55l-.53-.06c-.25 1.19-.56 2.35-.94 3.51-.6 1.49-1.14 3.02-1.57 4.58l-.47-.14c-.28 1.19-.62 2.37-1.04 3.54-.54 1.51-1.07 3.04-1.48 4.6l-.52-.16c-.25 1.19-.55 2.37-.88 3.55-1.82 4.27-3.35 8.66-5.01 12.99-.6 1.7-1.27 3.36-1.93 5.04-.36 1-.72 2.01-1.08 3.02-.58 1.7-1.31 3.34-1.89 5.04-.4.97-.8 1.96-1.19 2.95-.32 1.15-.62 2.32-.92 3.49.67.01 2.02.01 2.69.01l-.17-.81c2.32-.59 4.52-1.54 6.65-2.61 1.14-.33 2.28-.61 3.44-.85l-.01-.51c2.24-.73 4.44-1.6 6.56-2.63 1.15-.32 2.3-.61 3.47-.86l-.04-.62c2.52-.98 5.16-1.25 7.64.05 1.51 2 2.68 4.23 3.76 6.5 1.14 2.07 2.36 4.14 2.91 6.46l.95-.01c-.1.51-.29 1.54-.38 2.05l1.42-.05c-.13.56-.38 1.66-.51 2.21l1.61-.39c-.15.54-.44 1.62-.59 2.16l1.33-.08c.01.39.03 1.17.03 1.56 1.86 1.37 1.17 4.94 4.04 4.83l-.37-1.42.82.16c.25-1.17.54-2.32.88-3.45.69-1.65 1.33-3.32 2.01-4.97.34-1.02.7-2.03 1.08-3.02.6-1.67 1.23-3.32 1.92-4.95.31-1.04.65-2.07 1.02-3.08.62-1.66 1.31-3.29 2-4.92.87-2.72 1.86-5.4 3.01-8.01.32-1.03.66-2.05 1.03-3.06.2-.51.61-1.52.81-2.03.38-.98.77-1.96 1.17-2.93.34-1.03.69-2.05 1.06-3.05.62-1.66 1.25-3.31 1.93-4.93.34-1.01.7-2 1.08-2.99.59-1.67 1.23-3.33 1.88-4.97.95-2.71 2-5.38 3.05-8.05 1.22-3.75 2.94-7.32 4.01-11.12-.61.14-1.84.4-2.45.54-.96.76-1.93 1.52-2.92 2.25-1.97 1.33-3.95 2.66-5.94 3.98-.99.69-1.98 1.37-2.96 2.06-.48.28-1.43.85-1.91 1.14-3.91 2.01-8.68 2.35-12.83.95-.99-.37-1.98-.73-2.97-1.09-1.22-.89-2.41-1.83-3.63-2.71l.13-.89-.94.28c-.95-1.51-1.91-3.01-2.79-4.55-.63-1.7-1.28-3.4-1.82-5.12-.38-.99-.74-1.99-1.09-2.98-1.45-2.26-.8-6.62-4.12-6.9m110.49 3.56-.58-.19c-.14 1.23-.4 2.44-.79 3.62-.4.95-.8 1.9-1.19 2.86-.44 1.57-.93 3.12-1.4 4.69l-.55-.04c-.21 1.87-1.46 3.28-2.56 4.71-2.13 2.09-4.57 3.8-7.38 4.87-3.54.92-7.32.89-10.85-.06-2.29-1.09-4.46-2.41-6.6-3.76l.05-.37c-1.14-.63-2.25-1.29-3.36-1.97-.98-.73-1.97-1.42-2.94-2.14-1.69-1.12-3.35-2.35-5.26-3.06.22.89.67 2.66.9 3.55.39.94.76 1.9 1.1 2.88.67 1.64 1.3 3.3 1.92 4.97.36 1.01.72 2.03 1.06 3.06.68 1.63 1.33 3.28 1.92 4.96 1.03 2.63 2.02 5.28 2.98 7.95.38.99.75 2 1.11 3.01.69 1.67 1.35 3.35 2.04 5.03.31 1.12.59 2.27.85 3.42l.51.01c.47 1.55 1.03 3.08 1.5 4.64 1.11 2.61 2.1 5.27 3.01 7.96 1.09 2.61 2.12 5.26 3 7.97.4.99.8 1.98 1.19 2.99.65 1.66 1.31 3.32 1.84 5.03 1.11 2.78 2.4 5.53 2.95 8.5.54.11 1.6.31 2.14.41 2.04-4.52 4.41-8.9 6.65-13.32.73-1.43 1.41-2.88 2.05-4.33l.62.29c.14-1.36.66-2.61 1.28-3.8.72-1.11 1.47-2.2 2.23-3.27 3.68-2.31 7.51.12 11.01 1.54 1.7.62 3.39 1.27 5.06 1.98 2.18.89 4.36 1.8 6.62 2.49l-.06.54c1.7.4 3.41.84 5.09 1.36l-.23.92 2.82-.11c-.89-2.88-1.91-5.69-3.05-8.47-.36-1.16-.67-2.33-.93-3.5l-.52.14c-.43-1.57-.91-3.12-1.48-4.64-.45-1.13-.78-2.29-1.01-3.47l-.49.07c-.46-1.55-1-3.06-1.49-4.58-.41-1.01-.81-2-1.21-2.99-.68-1.8-1.43-3.59-1.74-5.49l-.74.09c-.01-.8-.05-2.4-.07-3.2l-.79.26c-.43-1.58-.94-3.12-1.51-4.64-.46-1.16-.76-2.36-.92-3.59l-.59.15c-.46-1.73-.99-3.43-1.38-5.16l-.77.24c-.01-.8-.04-2.39-.05-3.19l-.83.16c-.47-1.71-1.01-3.39-1.35-5.12l-.61.07c-.1-.62-.32-1.87-.43-2.5-.82-1.65-1.51-3.36-2.06-5.11-.68-1.67-1.36-3.33-2.08-4.96-.37-1.3-.66-2.61-.89-3.93-2.26-.03-2.59 1.75-2.76 3.57z"/><path d="m105.09 265.96c1.61-.49 3.16-1.39 4.89-1.28 56.66.05 113.31-.07 169.96.06-.33 2.73-1.54 5.22-2.43 7.79-11.92.81-24.87-1.47-35.63 5.01-43.94.18-87.9.03-131.85.07-3.91.37-7.2-2.73-7.33-6.61.43-1.84 1.28-3.51 2.39-5.04z"/><path d="m326.07 296.95c12.58-3.65 26.07-4.06 38.8-.96 1.32.34 2.66.66 3.97 1.04 1.01.31 2.02.64 3.03.97 1.01.34 2.02.68 3.03 1.04 6.23 2.56 12.16 5.8 17.64 9.73l-.03.32c1.92 1.09 3.52 2.62 5.17 4.07.28.25.83.76 1.11 1.02.74.61 1.49 1.21 2.25 1.81.19.4.56 1.2.74 1.6l.89-.18-.19 1.11.74.03c1.49 1.92 3.14 3.71 4.58 5.68 1.8 2.57 3.54 5.18 5.04 7.95 3.09 5.65 5.58 11.65 7.25 17.88.32 1.35.56 2.72.87 4.1 2.44 11.08 1.86 22.66-.96 33.62-.32 1.04-.63 2.1-.93 3.15-.35 1-.69 1.99-1.02 3-.39.98-.78 1.96-1.16 2.95-1.67 4.15-3.7 8.16-6.11 11.94-1.77 2.82-3.88 5.4-5.83 8.09-3.14 3.54-6.44 6.96-10.06 10.01-1.38.95-2.7 1.98-4.04 2.98-1.94 1.4-3.93 2.74-6.01 3.93-.51.26-1.53.77-2.03 1.02-.48.28-1.43.83-1.91 1.11-.51.22-1.54.68-2.05.91-2.59 1.22-5.28 2.22-7.96 3.21-1.04.28-2.07.55-3.1.81-14.21 4.06-29.65 3.78-43.67-.94-1.01-.33-2.02-.66-3.02-.99-3.08-1.21-6.06-2.63-9-4.12-.46-.27-1.39-.81-1.85-1.08-1.05-.62-2.1-1.21-3.13-1.83-2.42-1.57-4.73-3.29-7.01-5.04-5.18-4.48-10.12-9.32-13.88-15.08-.73-.97-1.44-1.96-2.14-2.94-1.19-2.06-2.33-4.15-3.49-6.22-.85-1.91-1.73-3.79-2.57-5.7-.37-1-.74-2-1.1-3-.71-2.02-1.39-4.04-1.93-6.11-2.71-10.97-3.42-22.56-.9-33.65.24-1.39.51-2.77.85-4.14.65-2.32 1.34-4.64 2.12-6.93 1.51-3.73 3.08-7.46 5.07-10.96.98-1.67 1.97-3.32 3-4.95.67-.99 1.37-1.94 2.06-2.91 1.97-2.79 4.45-5.16 6.58-7.82l.43.05c.25-.34.76-1.02 1.01-1.36 2.27-2.06 4.46-4.22 6.92-6.05 3.5-2.59 7.16-4.97 11.03-6.98 2.28-1.12 4.61-2.13 6.93-3.17 1.98-.7 3.97-1.38 5.97-2.02m7.99 10.07c-2.54.63-5.03 1.52-7.65 1.79l.01.53c-2.34.76-4.59 1.76-6.93 2.51l-.09.85c-.35-.03-1.07-.08-1.42-.11-1.8 1.36-3.76 2.49-5.66 3.69-1.17.84-2.32 1.71-3.51 2.52-4.1 3.2-7.66 7.03-11.07 10.93-.93 1.38-1.93 2.72-2.92 4.07-2.22 3.56-4.2 7.26-5.94 11.08-.67 1.94-1.33 3.89-2.06 5.82-.79 3-1.28 6.08-2.08 9.08-.53 7.86-.68 15.83 1.18 23.54.51 1.41.7 2.89.85 4.39l.5-.27c.28 1.21.6 2.41.96 3.61 1.18 2.69 2.45 5.33 3.7 7.98.63 1.06 1.36 2.06 1.99 3.14.24.47.74 1.42.98 1.9.23.31.69.92.92 1.23 1.39 1.69 2.81 3.38 4.04 5.2l.29.07c1.72 2.43 3.95 4.43 6.29 6.25l.19.31c1.4 1 2.74 2.07 4.11 3.11 1.22.75 2.39 1.57 3.59 2.37 2.74 1.68 5.62 3.12 8.53 4.47 2.95 1.13 5.96 2.07 8.97 3.04 10.29 2.4 21.13 2.31 31.44.04 1.94-.7 3.9-1.35 5.88-1.95.98-.4 1.97-.79 2.98-1.16 1.3-.68 2.63-1.31 3.99-1.87.97-.51 1.88-1.1 2.75-1.76.37.02 1.12.06 1.49.08l.18-1.04c1.34-.74 2.66-1.51 4.03-2.2v-.34c1.19-.92 2.37-1.86 3.56-2.81 2.06-1.69 4.15-3.39 5.84-5.47l.75-.04-.38-.79c.32-.37.97-1.11 1.3-1.48l.46.18c.9-1.51 1.97-2.91 3.03-4.31.66-1.03 1.39-2 2.09-3.01.92-1.72 1.86-3.43 2.79-5.15.27-.5.8-1.49 1.06-1.99.57-1.49 1.13-2.97 1.63-4.47h.66c.02-.79.08-2.37.1-3.16l.78.22c.12-1.53.32-3.05.88-4.48 1.78-7.67 1.61-15.58 1.13-23.38-.84-2.96-1.31-6-2.1-8.96-.73-1.97-1.37-3.96-2.04-5.93-.69-1.31-1.32-2.64-1.91-3.98-.26-.52-.79-1.55-1.05-2.06-1.07-1.74-2.09-3.51-3.04-5.32l-.36-.05c-3.25-5.33-7.8-9.73-12.51-13.75-1.74-1.22-3.38-2.58-5.05-3.89-1.59-.87-3.18-1.73-4.8-2.52l.27-.63c-.67-.26-2.01-.79-2.68-1.05-.38.05-1.14.15-1.51.2l.16-1.02c-1.75-.35-3.43-.94-5.13-1.44l.09-.52c-4.58-.9-9.01-2.41-13.66-2.91-6.95-.7-14.03-.39-20.87 1.07z"/><path d="m104.79 325.17c-3.77-3.54-1.29-11.21 4.24-10.94 40.07.04 80.16-.21 120.23.13.43 2.29 1.14 4.51 1.81 6.75.33 1.06.66 2.13.99 3.2.25.93.49 1.87.72 2.82-40.25-.1-80.5-.01-120.76-.05-2.49-.1-5.4.14-7.23-1.91z"/><path d="m105.05 365.43c1.33-1.25 3.11-1.99 4.95-1.84 32.19-.05 64.39.08 96.58-.07-.51 4.36-.25 8.74.34 13.08-32.7-.22-65.4.02-98.1-.13-2.6-.17-4.98-1.82-5.56-4.44-1.2-2.28.38-4.61 1.18-6.72z"/></g></svg>