<?xml version="1.0" encoding="UTF-8" ?>
<!DOCTYPE svg PUBLIC "-//W3C//DTD SVG 1.1//EN" "http://www.w3.org/Graphics/SVG/1.1/DTD/svg11.dtd">
<svg width="453pt" height="364pt" viewBox="0 0 453 364" version="1.1" xmlns="http://www.w3.org/2000/svg">
<g id="#000000ff">
<path fill="#000000" opacity="1.00" d=" M 200.96 31.71 C 219.44 28.33 238.49 28.34 256.97 31.72 C 289.08 37.44 319.18 53.74 341.63 77.39 C 362.81 99.64 377.58 128.22 382.35 158.64 C 377.58 161.07 372.79 163.48 368.07 166.01 C 365.72 160.43 363.34 154.38 358.16 150.80 C 353.82 147.70 348.21 146.84 343.03 147.78 C 340.48 142.66 337.80 137.03 332.34 134.45 C 325.70 130.70 317.51 131.95 311.22 135.82 C 307.33 133.27 303.61 130.27 299.12 128.81 C 292.02 126.21 284.26 126.52 276.89 127.55 C 275.94 126.66 275.00 125.77 274.07 124.87 C 275.53 123.62 276.98 122.36 278.45 121.12 C 277.04 121.09 275.63 120.99 274.23 120.85 C 272.79 119.61 273.07 117.31 271.79 115.94 C 269.64 116.23 267.53 116.73 265.37 116.92 C 264.07 115.72 264.13 113.86 263.68 112.28 C 266.11 110.08 268.97 108.46 271.53 106.45 C 272.00 104.96 272.27 103.42 272.86 101.97 C 273.95 100.95 275.63 101.09 276.98 100.64 C 278.10 102.34 279.24 104.07 279.77 106.06 C 280.80 110.36 283.75 113.83 284.86 118.10 C 288.48 115.35 294.10 114.44 295.78 109.73 C 296.74 103.98 289.17 100.18 291.19 94.30 C 293.13 90.56 297.34 89.03 300.25 86.22 C 303.08 83.63 304.00 79.38 307.42 77.38 C 310.55 75.84 314.09 75.52 317.47 74.83 C 314.35 72.48 311.27 70.06 308.04 67.87 C 304.97 65.65 301.12 65.16 297.64 63.90 C 298.02 63.50 298.77 62.70 299.15 62.30 C 262.19 40.91 215.41 37.73 175.92 53.98 C 165.24 58.32 155.07 63.93 145.90 70.93 C 147.14 71.00 148.38 71.08 149.63 71.16 C 150.86 72.03 152.08 72.95 153.43 73.65 C 155.71 73.49 156.94 71.16 158.55 69.82 C 156.82 69.91 155.09 70.00 153.36 70.09 C 156.47 66.46 161.11 63.81 165.99 64.01 C 166.73 64.94 167.38 65.95 168.05 66.94 C 169.40 67.24 170.75 67.55 172.10 67.89 C 171.45 70.17 170.82 72.45 170.15 74.73 C 167.72 75.23 165.32 75.83 162.89 76.35 C 163.15 76.70 163.66 77.40 163.92 77.75 C 166.68 77.11 169.53 76.31 172.33 77.28 C 173.32 75.72 174.34 74.17 175.41 72.66 C 177.45 71.44 177.92 69.03 179.29 67.28 C 180.16 67.04 181.90 66.56 182.77 66.32 C 181.61 67.67 180.42 68.99 179.24 70.33 C 182.39 69.27 185.59 68.36 188.85 67.70 C 188.61 67.41 188.14 66.84 187.91 66.55 C 189.03 65.42 190.15 64.29 191.27 63.15 C 192.18 62.88 194.01 62.34 194.93 62.07 C 194.95 62.79 195.00 64.23 195.03 64.95 C 195.59 64.98 196.72 65.04 197.28 65.07 C 197.12 63.91 196.99 62.74 196.87 61.58 C 198.90 60.79 200.80 59.43 203.01 59.23 C 211.65 59.22 220.31 58.49 228.93 59.30 C 239.53 61.21 250.26 58.92 260.92 59.52 C 265.39 60.27 269.86 61.11 274.42 61.13 C 271.54 61.64 269.00 63.20 266.19 63.95 C 265.93 66.07 265.81 68.46 263.91 69.83 C 260.04 73.00 257.06 77.51 252.17 79.23 C 247.66 80.88 242.78 81.34 238.42 83.42 C 233.53 85.69 227.81 87.04 224.31 91.45 C 222.43 93.54 220.71 96.03 217.95 97.03 C 213.51 97.15 211.00 91.98 211.73 88.06 C 211.91 83.89 215.30 81.12 218.16 78.55 C 217.69 78.12 216.74 77.25 216.27 76.82 C 217.55 75.88 218.84 74.95 220.13 74.02 C 219.93 73.70 219.51 73.05 219.31 72.72 C 220.05 70.95 221.08 69.21 221.10 67.23 C 218.82 65.76 215.99 65.61 213.46 64.78 C 215.28 62.93 217.60 61.76 220.10 61.12 C 213.66 61.87 207.54 63.96 201.78 66.90 L 201.58 64.93 C 201.57 65.40 201.54 66.36 201.53 66.83 C 200.66 67.62 199.80 68.42 198.93 69.21 C 198.98 69.78 199.08 70.93 199.13 71.51 C 200.25 72.45 201.68 73.14 202.50 74.39 C 201.84 77.30 201.66 80.19 203.83 82.57 C 201.70 85.06 198.59 85.43 195.75 83.93 C 195.84 85.27 195.94 86.60 196.04 87.94 C 194.48 90.14 192.10 92.42 189.15 91.78 C 186.80 91.28 185.92 88.82 184.67 87.07 C 183.82 86.94 182.13 86.68 181.28 86.54 C 183.78 84.31 187.07 83.49 190.03 82.07 C 192.10 81.23 192.65 78.91 193.52 77.08 C 191.78 76.57 190.02 74.71 188.13 75.72 C 185.55 77.56 183.33 79.87 180.63 81.56 C 177.86 83.15 176.43 86.28 173.63 87.79 C 170.21 88.25 166.39 87.18 163.35 89.27 C 160.10 91.25 156.89 93.72 155.00 97.09 C 153.67 100.48 157.30 102.58 158.96 104.98 C 161.42 107.49 159.77 111.20 160.07 114.29 C 162.41 111.54 164.62 108.64 167.48 106.40 C 172.09 102.72 172.28 95.84 176.99 92.22 C 178.90 90.44 181.63 90.58 184.05 90.75 C 184.46 93.44 182.96 96.95 185.11 99.05 C 187.29 98.54 189.19 97.30 191.18 96.33 C 190.87 100.79 190.71 105.36 192.48 109.57 C 193.72 112.33 192.43 115.20 192.18 118.01 C 192.49 120.71 192.93 123.40 193.23 126.10 C 190.10 126.42 186.89 126.06 184.92 123.32 C 186.46 121.05 188.06 118.81 189.49 116.47 C 185.03 118.06 182.00 121.91 177.74 123.88 C 175.08 125.04 176.33 128.26 176.71 130.40 C 175.74 131.26 174.85 132.23 173.72 132.89 C 171.28 133.41 168.70 132.34 166.32 133.12 C 163.73 135.65 162.11 139.21 158.61 140.71 C 153.52 143.15 153.21 149.66 149.22 153.17 C 146.77 155.41 143.75 157.26 142.38 160.43 C 140.00 164.68 142.43 170.07 139.32 174.03 C 137.55 170.59 138.71 165.85 135.76 163.10 C 131.87 162.37 127.61 162.99 124.34 165.31 C 121.95 167.36 121.07 170.58 120.36 173.53 C 119.51 178.29 119.50 183.94 123.35 187.46 C 125.58 185.34 126.68 181.45 129.92 180.77 C 131.65 184.13 129.07 187.55 128.70 190.93 C 130.56 192.29 133.54 193.29 133.52 196.04 C 133.38 199.57 133.43 203.27 135.83 206.12 C 138.13 206.00 140.46 206.09 142.74 205.69 C 145.12 204.53 146.57 202.07 148.97 200.94 C 156.87 203.78 165.45 206.34 171.37 212.67 C 174.15 215.66 178.55 215.89 181.72 218.25 C 184.46 221.59 184.95 226.69 189.06 228.88 C 195.87 233.74 205.03 233.23 211.74 238.21 C 214.27 239.82 214.32 242.87 214.12 245.54 C 193.80 249.87 173.04 252.31 152.25 252.03 C 147.88 245.28 142.20 239.14 139.59 231.42 C 137.85 226.72 140.62 222.18 141.67 217.69 C 142.48 214.81 141.62 211.87 140.92 209.07 C 139.07 209.06 137.21 209.23 135.39 208.92 C 130.96 205.57 130.28 199.44 126.28 195.72 C 123.02 192.46 118.05 191.40 115.28 187.60 C 112.68 183.69 112.71 178.79 111.84 174.33 C 111.01 174.93 110.18 175.53 109.35 176.14 C 108.71 171.43 107.85 166.72 107.96 161.94 C 108.14 156.60 106.67 151.36 106.96 146.02 C 107.22 137.91 110.96 130.52 112.68 122.71 C 114.32 115.32 115.66 107.84 116.13 100.28 C 88.77 135.29 80.73 183.91 93.79 226.22 C 95.72 232.71 98.34 238.97 101.02 245.18 C 95.38 243.46 89.65 241.92 84.22 239.58 C 82.21 238.84 81.98 236.43 81.25 234.70 C 74.47 213.96 71.62 191.77 73.95 170.03 C 76.83 137.39 90.67 105.88 112.54 81.50 C 135.31 55.63 167.01 37.73 200.96 31.71 M 182.73 71.27 C 178.76 71.19 178.97 75.78 178.59 78.54 C 179.97 77.64 181.50 76.89 182.64 75.67 C 182.94 73.38 183.73 71.26 185.33 69.55 C 184.47 70.13 183.60 70.70 182.73 71.27 M 316.46 85.40 C 313.88 87.38 312.25 90.38 309.76 92.51 C 310.23 95.07 311.11 97.52 311.89 99.99 C 311.27 104.33 307.16 106.86 304.66 110.12 C 308.43 111.22 312.98 110.73 315.97 108.01 C 317.44 104.47 317.99 100.32 321.54 98.07 C 319.32 96.89 315.97 96.01 315.73 93.02 C 315.28 90.19 318.03 88.50 319.51 86.51 C 318.58 85.81 317.71 84.42 316.46 85.40 Z" />
<path fill="#000000" opacity="1.00" d=" M 170.39 61.08 C 173.11 60.54 175.84 60.12 178.58 59.70 C 177.53 60.62 177.00 61.71 176.99 62.97 C 178.52 62.81 180.04 62.54 181.57 62.32 C 180.58 64.96 177.47 65.49 174.99 65.33 C 172.47 65.46 171.75 62.65 170.39 61.08 Z" />
<path fill="#000000" opacity="1.00" d=" M 191.09 60.62 C 191.33 59.38 193.70 59.25 193.88 60.59 C 193.63 61.87 191.28 61.99 191.09 60.62 Z" />
<path fill="#000000" opacity="1.00" d=" M 249.45 89.16 C 250.41 84.43 256.00 84.05 259.90 84.32 C 261.59 84.63 264.73 85.36 263.94 87.69 C 260.65 92.17 253.77 91.97 249.45 89.16 Z" />
<path fill="#000000" opacity="1.00" d=" M 266.95 144.25 C 271.58 143.43 276.25 142.82 280.91 142.12 C 286.25 141.54 292.12 141.27 296.85 144.25 C 301.35 147.13 305.78 150.13 310.19 153.15 C 314.47 151.18 318.42 148.40 322.96 147.03 C 327.18 147.07 328.17 152.20 329.89 155.16 C 328.87 158.56 325.68 160.08 322.75 161.53 C 326.37 163.80 329.91 166.19 333.43 168.60 C 338.00 166.62 342.15 163.59 346.99 162.25 C 350.89 162.42 352.37 166.89 353.29 170.03 C 353.66 174.01 349.00 175.09 346.43 176.97 C 350.86 180.50 355.82 183.26 360.41 186.57 C 377.05 178.26 393.51 169.58 410.11 161.18 C 419.53 156.74 430.29 154.93 440.62 156.42 C 443.83 156.80 446.75 158.23 449.22 160.29 C 449.21 163.77 449.31 167.45 447.52 170.58 C 442.68 179.96 434.53 187.32 425.33 192.33 C 408.97 200.75 392.57 209.07 376.24 217.56 C 376.00 223.32 376.02 229.08 375.89 234.84 C 378.59 233.20 381.50 231.84 384.72 231.74 C 387.02 234.63 389.07 237.87 389.30 241.66 C 385.16 245.44 379.80 247.28 375.03 250.07 C 375.02 254.28 374.99 258.49 374.90 262.69 C 377.34 261.75 379.80 259.46 382.57 260.30 C 385.57 261.80 386.34 265.44 387.89 268.14 C 387.05 269.51 386.64 271.30 385.14 272.13 C 381.54 274.27 377.68 275.92 374.06 278.01 C 373.88 283.85 374.32 289.74 373.45 295.53 C 371.95 303.11 365.78 308.28 360.76 313.65 C 358.54 315.80 356.62 318.52 353.61 319.61 C 351.76 320.39 349.85 319.40 348.02 319.06 C 340.50 293.94 332.25 269.05 324.40 244.03 C 313.56 249.76 302.60 255.24 291.70 260.82 C 287.03 262.75 286.47 268.39 284.37 272.38 C 282.55 277.99 278.06 281.98 274.20 286.21 C 272.42 288.14 269.30 289.96 266.80 288.21 C 265.07 287.27 265.00 285.12 264.51 283.45 C 262.69 275.09 260.73 266.76 258.84 258.42 C 252.97 251.55 246.94 244.82 240.90 238.10 C 239.89 236.79 238.20 235.10 239.29 233.35 C 241.60 228.57 247.72 229.55 252.06 228.62 C 259.50 226.83 266.56 231.94 273.95 230.88 C 285.61 225.29 297.00 219.11 308.53 213.26 C 293.12 192.42 277.66 171.61 262.04 150.94 C 261.29 147.80 264.07 144.93 266.95 144.25 Z" />
<path fill="#000000" opacity="1.00" d=" M 9.22 191.31 C 17.94 172.25 35.94 159.37 54.34 150.52 C 48.47 156.60 41.89 162.11 37.23 169.24 C 31.71 177.40 27.77 187.02 27.90 197.01 C 27.57 209.61 33.67 221.73 42.53 230.43 C 51.41 240.12 63.07 246.75 75.01 251.96 C 98.99 262.16 125.15 266.07 151.05 266.96 C 181.43 267.46 211.88 262.91 240.77 253.50 C 242.95 256.28 245.52 258.72 247.68 261.51 C 249.21 264.72 249.52 268.35 250.30 271.80 C 225.21 284.77 197.06 290.91 169.04 292.98 C 131.87 295.30 93.66 290.74 59.38 275.60 C 43.90 268.50 28.88 259.29 17.90 246.05 C 11.21 238.10 6.31 228.44 5.07 218.05 C 4.20 209.02 4.92 199.46 9.22 191.31 Z" />
<path fill="#000000" opacity="1.00" d=" M 147.19 178.48 C 143.35 177.78 142.31 173.05 144.25 170.07 C 145.91 172.59 146.83 175.49 147.19 178.48 Z" />
<path fill="#000000" opacity="1.00" d=" M 258.26 170.68 C 267.51 183.09 276.65 195.59 286.08 207.86 C 281.03 210.70 275.80 213.19 270.68 215.91 C 265.19 214.64 259.69 213.10 254.02 212.96 C 245.89 204.98 245.23 192.26 249.07 182.07 C 250.73 177.32 254.64 173.95 258.26 170.68 Z" />
<path fill="#000000" opacity="1.00" d=" M 135.38 178.81 C 140.18 177.47 143.98 181.44 145.89 185.37 C 141.99 183.87 138.70 181.26 135.38 178.81 Z" />
<path fill="#000000" opacity="1.00" d=" M 147.45 186.13 C 150.31 184.41 153.09 185.95 154.58 188.59 C 152.76 188.76 150.48 190.81 148.95 188.98 C 148.39 188.06 147.89 187.11 147.45 186.13 Z" />
<path fill="#000000" opacity="1.00" d=" M 284.01 315.09 C 298.45 309.00 311.75 300.37 323.45 289.97 C 324.84 295.04 326.48 300.03 328.15 305.01 C 306.00 323.46 278.59 335.52 250.00 339.27 C 209.17 344.91 165.99 333.80 133.68 308.02 C 141.78 308.27 149.88 308.74 157.99 308.41 C 160.36 308.16 162.38 309.60 164.41 310.59 C 200.96 329.79 246.11 331.35 284.01 315.09 Z" />
</g>
</svg>
