<?xml version="1.0" encoding="UTF-8" ?>
<!DOCTYPE svg PUBLIC "-//W3C//DTD SVG 1.1//EN" "http://www.w3.org/Graphics/SVG/1.1/DTD/svg11.dtd">
<svg width="417pt" height="488pt" viewBox="0 0 417 488" version="1.1" xmlns="http://www.w3.org/2000/svg">
<g id="#535353ff">
<path fill="#535353" opacity="1.00" d=" M 210.44 5.54 C 226.86 0.37 246.13 9.70 252.41 25.69 C 243.63 34.71 239.04 47.63 240.10 60.16 C 240.03 62.06 242.28 63.54 243.69 61.84 C 244.18 58.57 243.65 55.24 244.00 51.96 C 245.63 32.49 263.49 16.02 283.03 15.97 C 295.55 15.35 308.05 21.32 315.78 31.12 C 323.36 40.42 326.51 53.28 323.76 64.99 C 322.88 69.85 320.39 74.15 318.62 78.70 C 319.25 79.09 320.50 79.87 321.13 80.26 C 325.29 74.64 327.26 67.76 328.22 60.92 C 337.24 57.40 347.83 57.93 356.36 62.56 C 364.99 67.18 371.54 75.60 373.61 85.20 C 374.95 92.25 374.52 99.87 371.34 106.39 C 365.75 106.54 359.92 106.89 355.10 110.06 C 348.72 113.90 344.03 120.57 342.93 127.97 C 342.32 129.71 344.00 132.04 345.79 130.65 C 346.89 127.97 347.22 125.04 348.51 122.44 C 352.12 115.19 359.86 110.18 367.99 110.08 C 376.43 110.00 384.68 115.16 388.17 122.88 C 392.41 131.71 390.03 144.24 380.63 148.70 C 374.56 151.97 367.38 151.26 360.82 150.30 C 279.60 139.68 198.37 129.07 117.15 118.45 C 110.30 117.29 102.98 117.50 96.70 114.14 C 89.54 110.55 84.08 103.81 82.01 96.08 C 79.61 87.76 81.48 78.43 86.66 71.53 C 93.33 62.31 105.78 57.88 116.79 60.82 C 118.50 72.51 124.87 83.88 135.21 89.95 C 137.21 90.75 138.28 87.68 136.60 86.69 C 133.91 84.34 130.92 82.29 128.71 79.44 C 119.56 68.79 117.84 52.65 124.28 40.21 C 129.54 29.75 140.13 22.15 151.76 20.68 C 167.88 18.18 184.67 28.40 190.23 43.66 C 192.53 49.45 192.93 55.75 192.35 61.89 C 192.78 62.25 193.63 62.97 194.06 63.32 C 196.66 62.86 195.97 59.83 196.19 57.93 C 196.77 47.65 192.79 37.47 186.08 29.76 C 189.52 18.27 198.80 8.71 210.44 5.54 M 165.65 55.97 C 165.93 57.95 166.52 59.86 167.41 61.65 C 171.13 69.49 171.92 78.75 169.00 86.98 C 165.99 96.24 157.62 103.38 148.05 105.03 C 135.33 107.81 122.02 101.86 113.89 92.07 C 112.46 89.75 109.63 92.93 111.41 94.62 C 119.01 104.37 131.59 110.12 143.96 109.22 C 151.68 109.06 158.97 105.65 164.82 100.75 C 168.45 105.61 172.93 109.93 178.39 112.68 C 187.34 117.45 198.72 117.70 207.64 112.72 C 210.62 111.18 213.01 108.76 215.84 107.00 C 223.05 112.34 231.98 115.74 241.05 114.99 C 249.25 114.20 257.25 110.88 263.52 105.52 C 265.03 104.50 263.18 102.79 262.84 101.65 C 256.19 106.64 248.55 111.13 239.97 111.20 C 228.94 111.93 218.29 106.02 211.68 97.42 C 207.44 92.29 205.12 86.00 203.14 79.75 C 202.88 77.88 199.14 79.33 199.98 80.98 C 201.68 89.86 206.59 97.85 212.73 104.39 C 207.38 109.40 200.37 112.89 192.92 112.80 C 182.55 112.49 172.97 106.32 167.34 97.78 C 176.60 85.87 176.27 68.63 168.76 55.94 C 167.98 55.95 166.43 55.96 165.65 55.97 M 282.94 56.91 C 280.43 62.69 280.79 69.19 281.12 75.34 C 274.67 69.87 266.55 66.31 258.04 65.98 C 248.72 65.80 239.59 69.56 232.71 75.79 C 232.16 71.11 230.51 66.36 226.85 63.20 C 222.90 59.35 217.19 58.20 211.86 58.82 C 211.86 59.62 211.86 61.23 211.86 62.03 C 215.04 62.20 218.36 62.28 221.23 63.81 C 226.42 66.33 229.61 72.35 228.82 78.05 C 228.34 81.34 226.26 84.05 224.88 87.00 C 223.46 89.90 222.69 93.05 221.78 96.14 C 222.40 96.62 223.65 97.60 224.28 98.09 C 226.16 95.63 226.51 92.48 227.72 89.70 C 230.82 82.40 236.60 76.27 243.75 72.83 C 255.28 67.09 270.05 69.78 279.14 78.80 C 284.02 83.01 285.52 89.62 289.73 94.35 C 293.75 99.18 298.95 103.09 304.94 105.13 C 319.63 110.50 337.12 104.63 346.66 92.50 C 348.06 91.14 345.59 88.58 344.26 90.09 C 341.54 92.42 339.20 95.22 336.13 97.15 C 328.31 102.60 318.21 104.67 308.91 102.48 C 299.99 100.24 292.40 93.68 288.51 85.39 C 284.13 77.35 283.76 67.71 285.87 58.94 C 287.09 57.08 284.00 54.59 282.94 56.91 Z" />
<path fill="#535353" opacity="1.00" d=" M 66.66 113.00 C 178.59 128.01 290.57 142.71 402.51 157.67 C 405.17 158.14 408.03 157.92 410.51 159.13 C 415.66 192.54 416.88 227.21 408.43 260.20 C 405.05 272.76 400.42 285.24 392.79 295.88 C 386.41 304.14 381.25 313.24 376.19 322.34 C 369.76 334.41 363.49 346.69 359.53 359.82 C 358.11 364.23 357.83 368.86 357.23 373.43 C 354.44 400.54 356.64 427.81 356.95 454.99 C 356.80 464.62 357.71 474.24 357.63 483.87 C 291.55 483.82 225.48 483.43 159.40 483.55 C 152.06 469.43 145.13 455.03 136.24 441.80 C 132.32 435.79 124.62 434.76 118.05 434.20 C 107.65 433.65 97.36 435.88 87.04 436.75 C 76.33 436.62 64.83 435.59 55.80 429.25 C 49.66 425.06 45.72 417.59 46.67 410.09 C 46.98 404.10 51.14 399.44 53.07 393.99 C 56.43 385.70 56.13 375.95 51.87 368.04 C 49.72 364.06 46.81 359.85 48.25 355.07 C 50.75 347.46 58.01 342.79 64.77 339.24 C 56.27 338.30 46.66 333.88 44.23 324.96 C 42.67 315.80 46.57 306.52 44.63 297.38 C 43.48 295.15 41.18 293.84 38.94 292.95 C 32.54 290.44 25.62 289.82 19.07 287.83 C 13.29 286.04 8.76 280.88 7.71 274.92 C 6.74 270.84 8.18 266.68 9.98 263.05 C 14.21 254.58 19.92 246.98 25.25 239.19 C 31.11 230.75 38.50 223.31 43.03 214.00 C 47.86 204.32 51.94 193.35 49.63 182.40 C 48.57 176.74 43.60 172.74 42.91 166.98 C 41.75 160.68 43.77 154.25 47.21 148.99 C 54.23 137.29 60.49 125.16 66.66 113.00 Z" />
</g>
</svg>
