<svg viewBox="0 0 640 640" xmlns="http://www.w3.org/2000/svg"><path d="m95.44 0h448.81c4.83 1.36 9.92.92 14.8 2.09 16.36 3.3 32.04 10.3 45.08 20.78 3.84 3.5 7.47 7.23 11.2 10.84 13.53 14.95 22.44 34.26 23.98 54.44l.69-1.06v464.21c-2.2 11.77-4.66 23.69-10.35 34.36-5.03 9.2-11.01 18.06-18.88 25.08-10.36 11.01-23.9 18.72-38.15 23.54-7.6 2.65-15.57 4.43-23.62 4.83-1.53.15-3.03.44-4.49.89h-448.66c-4.5-1.37-9.28-.87-13.84-1.92-15.04-3.02-29.63-8.93-42.08-17.97-15.6-11.79-28.47-27.73-34.73-46.42-2.71-6.75-3.45-14.02-5.2-21.01v-465.23c1.39-5.26 1.92-10.72 3.49-15.94 10.22-36.3 43.31-64.98 80.72-69.7.4-.2 1.19-.62 1.59-.83 3.24.11 6.54.11 9.64-.98m-1.84 56.17c-3.87 1.32-8.06 1.68-11.66 3.8-12.21 5.38-21.19 16.91-23.84 29.93.02 5.4-1.24 10.71-.87 16.12.02 144.67.02 289.33.01 434 .23 3.66.99 7.27.88 10.96.41 1.15.79 2.3 1.16 3.47 3.65 11.93 12.93 21.34 24.2 26.35 1.03.27 2.06.55 3.09.81 1 .44 2.01.85 3.05 1.21.64.08 1.93.24 2.57.32 1.54.56 3.17.89 4.82.83 149.78-.15 299.57.14 449.35-.15 3.35-1.14 6.84-1.81 10.17-3.03 4.02-1.89 7.78-4.29 11.33-6.97 5.74-4.82 9.84-11.34 12.56-18.27.26-1.32.59-2.62.9-3.92.87-1.75.69-3.73.71-5.61-.16-152.15.16-304.3-.16-456.45-.66-1.65-1.19-3.35-1.48-5.1-2.63-6.98-6.81-13.47-12.54-18.3-3.57-2.64-7.31-5.06-11.32-6.95-2.04-.56-4.03-1.26-6.02-1.93-1.43-.22-2.87-.43-4.16-1.11-49.75-.27-99.51-.04-149.26-.12-101.16.08-202.33-.14-303.49.11z"/><path d="m249.93 246.96c7.19-6.58 14.02-13.54 21.06-20.26.01 62.52.02 125.05 0 187.58-10.71-10.38-21.36-20.83-32.23-31.06-8.66-6.92-16.19-15.11-24.31-22.64-7.79-7.21-14.9-15.17-23.28-21.71-6.56-5.98-12.78-12.32-19.27-18.37 7.22-7.27 15.41-13.48 22.61-20.77 14.87-14.55 29.95-28.87 44.82-43.41 3.36-3.32 7.02-6.3 10.6-9.36z"/><path d="m368.01 226.7c5.09 5.05 10.37 9.89 15.87 14.49 18.96 18.02 37.54 36.43 56.53 54.42 9.41 7.77 17.9 16.56 26.71 24.98-9.32 8.55-18.2 17.56-27.46 26.18-8.45 6.79-15.86 14.76-23.78 22.14-7.94 7.38-15.21 15.52-23.79 22.18-8.21 7.54-16.03 15.49-24.08 23.19-.01-62.52-.02-125.05 0-187.58z"/></svg>