<?xml version="1.0" encoding="UTF-8" ?>
<!DOCTYPE svg PUBLIC "-//W3C//DTD SVG 1.1//EN" "http://www.w3.org/Graphics/SVG/1.1/DTD/svg11.dtd">
<svg viewBox="0 0 500 500" version="1.1" xmlns="http://www.w3.org/2000/svg">
<g id="#00b2eefe">
<path fill="#00b2ee" opacity="1.00" d=" M 28.00 27.00 C 176.33 27.00 324.67 27.00 473.00 27.00 C 473.00 176.00 473.00 325.00 473.00 474.00 C 324.67 474.00 176.33 474.00 28.00 474.00 C 28.00 325.00 28.00 176.00 28.00 27.00 M 34.00 33.00 C 34.00 178.00 34.00 323.00 34.00 468.00 C 44.19 467.99 54.38 468.03 64.57 467.98 C 64.52 454.45 64.61 440.92 64.53 427.40 C 173.42 427.37 282.31 427.30 391.20 427.44 C 391.10 440.95 391.19 454.47 391.15 467.99 C 396.98 468.00 402.81 468.01 408.64 467.98 C 408.62 322.99 408.63 178.00 408.63 33.01 C 402.32 32.99 396.01 33.00 389.70 33.00 C 389.65 52.45 389.79 71.91 389.63 91.35 C 280.76 91.19 171.89 91.36 63.02 91.27 C 63.15 71.85 63.04 52.43 63.07 33.00 C 53.38 33.00 43.69 33.00 34.00 33.00 M 65.28 33.01 C 65.29 51.70 65.28 70.39 65.28 89.08 C 172.67 89.09 280.05 89.08 387.44 89.08 C 387.45 70.39 387.44 51.69 387.44 33.00 C 280.05 33.01 172.66 32.99 65.28 33.01 M 415.07 35.78 C 415.19 178.92 415.18 322.08 415.07 465.23 C 432.02 465.26 448.97 465.26 465.93 465.23 C 465.82 322.08 465.81 178.92 465.93 35.78 C 448.98 35.74 432.02 35.74 415.07 35.78 M 66.78 429.63 C 66.81 442.42 66.79 455.21 66.80 468.00 C 174.17 468.00 281.55 468.00 388.93 468.00 C 388.96 455.21 388.84 442.43 388.99 429.65 C 281.59 429.59 174.19 429.63 66.78 429.63 Z" />
<path fill="#00b2ee" opacity="1.00" d=" M 419.84 46.01 C 419.74 44.83 419.98 43.74 420.55 42.72 C 433.84 42.94 447.15 42.79 460.45 42.80 C 460.62 57.61 460.46 72.42 460.53 87.22 C 446.97 87.20 433.42 87.26 419.86 87.19 C 419.91 73.46 419.87 59.74 419.84 46.01 M 424.21 76.66 C 434.90 76.81 445.58 76.73 456.27 76.69 C 450.78 67.23 445.73 57.52 440.12 48.13 C 434.95 57.71 429.60 67.20 424.21 76.66 Z" />
<path fill="#00b2ee" opacity="1.00" d=" M 63.01 110.70 C 171.93 110.69 280.86 110.59 389.78 110.75 C 389.64 139.23 389.65 167.72 389.77 196.20 C 280.85 196.35 171.94 196.25 63.02 196.26 C 63.11 167.74 63.12 139.22 63.01 110.70 M 65.27 112.90 C 65.30 139.95 65.27 167.01 65.29 194.06 C 172.67 194.07 280.05 194.07 387.44 194.06 C 387.45 167.01 387.43 139.95 387.45 112.90 C 280.05 112.89 172.66 112.89 65.27 112.90 Z" />
<path fill="#00b2ee" opacity="1.00" d=" M 424.56 156.18 C 434.99 156.19 445.43 156.15 455.86 156.20 C 455.84 208.27 455.78 260.35 455.89 312.42 C 445.44 312.48 434.99 312.43 424.54 312.45 C 424.58 260.36 424.54 208.27 424.56 156.18 M 429.62 211.37 C 429.62 213.78 429.62 216.19 429.61 218.61 C 436.59 218.63 443.57 218.63 450.55 218.62 C 450.54 216.20 450.53 213.78 450.54 211.36 C 443.57 211.36 436.59 211.35 429.62 211.37 M 429.80 227.50 C 429.85 229.84 429.86 232.19 429.82 234.54 C 436.81 234.78 443.80 234.56 450.79 234.65 C 450.80 232.22 450.80 229.80 450.81 227.37 C 443.80 227.45 436.80 227.22 429.80 227.50 M 429.81 244.49 C 429.85 246.82 429.85 249.16 429.81 251.50 C 436.82 251.71 443.83 251.56 450.83 251.58 C 450.80 249.18 450.80 246.79 450.85 244.41 C 443.83 244.41 436.81 244.25 429.81 244.49 Z" />
<path fill="#00b2ee" opacity="1.00" d=" M 64.53 216.41 C 173.42 216.40 282.32 216.29 391.21 216.46 C 391.09 244.99 391.20 273.51 391.15 302.04 C 282.29 302.05 173.43 302.05 64.57 302.04 C 64.52 273.50 64.61 244.95 64.53 216.41 M 66.79 218.64 C 66.81 245.69 66.78 272.74 66.80 299.80 C 174.19 299.78 281.57 299.82 388.96 299.78 C 388.93 272.74 388.86 245.70 388.99 218.66 C 281.59 218.60 174.19 218.64 66.79 218.64 Z" />
<path fill="#00b2ee" opacity="1.00" d=" M 64.53 321.40 C 173.41 321.36 282.30 321.32 391.19 321.42 C 391.12 349.93 391.17 378.45 391.16 406.96 C 282.29 406.97 173.43 406.96 64.56 406.96 C 64.55 378.44 64.60 349.92 64.53 321.40 M 66.79 323.63 C 66.81 350.68 66.78 377.73 66.80 404.78 C 174.18 404.77 281.57 404.81 388.95 404.76 C 388.93 377.72 388.86 350.68 388.99 323.65 C 281.59 323.59 174.19 323.63 66.79 323.63 Z" />
<path fill="#00b2ee" opacity="1.00" d=" M 419.87 414.74 C 433.42 414.66 446.97 414.74 460.51 414.69 C 460.54 429.42 460.47 444.15 460.55 458.88 C 454.06 459.21 447.55 458.94 441.05 458.88 C 434.10 458.81 427.15 459.40 420.22 458.78 L 419.90 458.33 C 419.80 443.80 419.90 429.27 419.87 414.74 M 424.24 425.31 C 429.57 434.84 435.02 444.30 440.15 453.94 C 445.62 444.46 450.82 434.82 456.24 425.30 C 445.57 425.26 434.90 425.25 424.24 425.31 Z" />
</g>
</svg>
