<svg height="640pt" viewBox="0 0 640 640" width="640pt" xmlns="http://www.w3.org/2000/svg"><path d="m88.2 0h463.01c9.03 1.91 18.32 3.23 26.86 6.96 9.77 3.72 18.53 9.65 26.62 16.2 6.69 6.6 13.59 13.13 18.63 21.16.13.31.39.94.53 1.25 7.98 12.09 12.75 26.16 14.89 40.43.53 3.15-.09 6.46 1.26 9.45v448.77c-1.66 3.71-.34 7.89-1.71 11.67-3.42 20.88-13.02 41.26-28.54 55.89-12.45 13.14-29.1 22.16-46.74 26.08-3.42.83-7 .96-10.33 2.14h-465.26c-3.04-1.08-6.29-1.23-9.42-1.93-19.67-4.05-37.9-14.69-51.25-29.65-12.26-12.9-20.28-29.49-24.15-46.76-1.64-5.6-1.05-11.54-2.6-17.09v-449.25c1.33-2.92.73-6.17 1.25-9.24 2.69-18.46 10.28-36.29 22.09-50.77 5.66-5.65 10.81-11.91 17.48-16.42 12-9.2 26.36-15.14 41.26-17.55 2.04-.39 4.3-.17 6.12-1.34m.23 58.8c-1.33.19-2.71.24-3.92.88-13.51 4.43-23.66 16.27-27.29 29.86-.24 1.37-.06 2.92-1.09 4.04-.12 150.95-.1 301.9-.01 452.85l.59 1.07c1.67 11 8.27 21.12 17.28 27.58 6.3 3.92 13.44 7.51 21.06 6.99 4.27.85 8.61.75 12.94.68 142.99.02 285.97-.02 428.95.02 4.73.38 9.31-1.15 14.04-.85 1.12-.5 2.28-.88 3.47-1.22 12.85-3.96 23.18-14.48 27.29-27.21.17-1.1.55-2.12 1.13-3.05.05-.67.15-2.01.19-2.68.53-1.17.98-2.39.89-3.69-.08-150.16.09-300.33-.08-450.5-1.08-1.46-.86-3.36-1.44-4.99-3.59-13.27-13.86-24.52-26.94-28.91-1.23-.62-2.6-.68-3.92-.87-1.93-1.41-4.44-.63-6.64-.81-149.98.02-299.96.02-449.95 0-2.17.18-4.66-.6-6.55.81z"/><path d="m295.64 199.58c7.7-9.42 16.55-17.81 24.86-26.68 8.69 9.21 17.6 18.21 26.28 27.44 6.79 8.45 14.75 15.86 22.13 23.79 7.37 7.93 15.52 15.18 22.16 23.77 7.53 8.22 15.51 16.02 23.21 24.09-62.53.01-125.06.02-187.58 0 7.17-6.94 13.23-14.91 20.29-21.97 16.2-16.82 32.54-33.52 48.65-50.44z"/><path d="m226.7 369.01c62.53-.02 125.06-.01 187.58 0-10.39 10.71-20.83 21.38-31.07 32.24-7.07 8.85-15.45 16.52-23.13 24.82-7.03 7.63-14.87 14.53-21.2 22.78-6 6.53-12.33 12.74-18.35 19.24-4.77-4.81-9.29-9.86-13.63-15.06-18.05-18.95-36.45-37.58-54.48-56.55-7.91-9.76-17.09-18.37-25.72-27.47z"/></svg>