<svg viewBox="0 0 145 139" xmlns="http://www.w3.org/2000/svg"><path fill="#fff" d="m70.44 8.38c.97-2.05 2.21-3.96 3.65-5.71.69 13.68.1 27.39.29 41.08 22.63 3.32 45.38 5.73 68.11 8.34-2.87 2.65-6.75 3.63-10.22 5.18-7.98 3.05-15.96 6.1-23.98 9.06 2.66 23.72 8.05 47.04 11.73 70.61-8.08-11.12-17.82-21-25.04-32.74-8.48 4.77-16.94 9.55-25.47 14.24-12.83 7.24-26.23 13.42-39.11 20.56h-1.46c3.75-3.64 6.74-7.96 10.06-11.98 5.8-7.53 11.9-14.9 16.9-23-13.19-12.13-26.8-23.83-40.14-35.81-5.2-4.57-10.28-9.31-15.76-13.56v-.6c13.6 3.83 27.51 6.47 41.07 10.45 3.64-4.59 5.4-10.3 8.24-15.38 7.32-13.43 14.4-27 21.13-40.74m2.93 54.12c-3.55.8-6.86 2.92-8.94 5.93-4.48 5.89-2.63 15.68 4.14 19.06 7.98 5.39 19.89.24 22.68-8.58 1.41-9.52-8.48-18.56-17.88-16.41z"/></svg>