<svg viewBox="0 0 640 640" xmlns="http://www.w3.org/2000/svg"><g fill="#fff"><path d="m310.97 60.64c2.75-.31 5.83-2.35 8.38-.42-.84 22.57-.85 45.17-1.15 67.76-.7 15-1.07 30.01-1.14 45.04-.19 2.73.31 5.6-.85 8.17-6.45 1.19-13 1.4-19.49 2.32-3.56-8.63-5.75-17.76-8.66-26.64-4.74-15.24-9.37-30.52-14.15-45.74-4.16-13.79-8.44-27.52-12.75-41.26 3.54-2.3 7.92-1.68 11.82-2.89 12.74-1.74 25.24-4.55 37.99-6.34z"/><path d="m325.57 60.41c1.76-1.67 4.3-.99 6.48-1.08 5.35.34 10.73.27 16.05 1.07 10.35 1.24 20.96.17 31.18 2.41-6.09 36.57-13.39 73.02-19.79 109.57-.93 2.56-1.04 5.28-1.29 7.97-7.19 1.1-14.46-.52-21.63-1.17-1.44-6.27-.27-12.8-1.62-19.09-1.13-6.06-.96-12.27-1.7-18.38-1.21-7.08-.99-14.32-2.06-21.42-.93-6.07-.28-12.27-1.55-18.29-1.42-6.78-.42-13.78-1.76-20.56-1.31-6.95-.65-14.13-2.31-21.03z"/><path d="m385.81 64.54c3.42-1.03 6.84.54 10.11 1.42 8.27 1.76 16.26 4.57 24.47 6.48 4.42 1.45 9.18 1.83 13.43 3.82 3.43.37 6.59 1.78 9.92 2.57-.16 2.13-.59 4.25-1.96 5.96-3.79 8.8-7.84 17.51-12.01 26.13-1.57 3.74-3.14 7.53-5.18 11.05-9.68 22.39-20.5 44.32-30.32 66.67-2.57.48-4.93-.83-7.25-1.68-1.96-.85-4.22-.98-5.93-2.35-2.37-.38-4.59-1.28-6.67-2.43.98-7.66.9-15.42 2.34-23.02.45-6.38.69-12.79 1.99-19.07 0-8.97 2.1-17.77 2.18-26.73 1.45-6.58 1.23-13.37 2.14-20.01 1.26-4.98.72-10.15 1.46-15.2.38-4.55 1.56-9.02 1.28-13.61z"/><path d="m243.53 74.62c3.56-1.13 6.84-3.93 10.77-3.02.08 2.68.33 5.37 1.35 7.88 6.78 33.17 13.66 66.29 20.51 99.44.53 3.03 2.07 6.21 1.2 9.26-2.93 1.55-6.06 2.71-9.27 3.52-3.54 1.83-7.32 3.43-11.22 4.28-3.5-5.05-5.89-10.74-9.08-15.98-.89-1.68-1.79-3.35-2.65-5.03-4.76-8.28-9.32-16.67-13.84-25.09-4.18-7.25-8.11-14.66-12.12-22.01-5-8.7-9.65-17.6-14.58-26.34-1.53-2.9-3.4-5.65-4.45-8.77 1.86-1.17 3.9-1.97 6.02-2.53 5.6-2.59 11.25-5.22 17.18-6.99 6.47-3.4 13.53-5.56 20.18-8.62z"/><path d="m448.74 82.06c2.17-1.2 4.31-.01 6.16 1.17 4.09 1.41 8.06 3.16 11.95 5.05 10.99 4.2 21.74 9.02 32.62 13.5-.31 1.15-.77 2.24-1.38 3.25-20.19 29.45-40.46 58.85-60.6 88.33-3.02 3.96-5.29 8.53-8.97 11.97-4.79-2.55-9.58-5.1-14.48-7.43-1.75-.92-3.84-1.68-4.46-3.77.53-1.33 1.04-2.68 1.59-4.01 1.32-3.54 2.22-7.27 3.93-10.66 1.38-4.91 2.88-9.84 5.08-14.46 1.79-6.84 4.53-13.42 6.92-20.07 6.36-19.05 13.33-37.9 19.8-56.91.77-1.93 1.35-3.94 1.84-5.96z"/><path d="m175.31 107.34c5.16-3.79 10.63-7.12 15.8-10.89.52.04 1.54.12 2.05.16 1.92 5.21 4.57 10.11 6.45 15.34 2.43 5.29 4.9 10.6 6.87 16.09 4.2 9.29 8.37 18.63 12.08 28.14 6.09 13.1 11.72 26.45 17.29 39.79.83 1.29 1.38 2.74 1.85 4.2 1.04 1.15 1.34 2.62.75 4.05-6 3.15-11.65 6.92-17.4 10.48-.6.2-1.79.61-2.39.82-19.94-24.37-40.38-48.33-60.32-72.69-3.67-3.95-6.82-8.35-10.49-12.31-1.28-1.16-1.73-2.87-1.12-4.49 2.73-1.24 5.05-3.15 7.57-4.74 3.59-2.37 7.07-4.91 10.77-7.11 3.29-2.46 6.71-4.74 10.24-6.84z"/><path d="m497.04 116c2.48-3.73 3.53-8.47 6.83-11.57 5.33 3.35 10.79 6.5 16.14 9.84 3.85 1.79 7.12 4.59 10.98 6.39 7.68 4.96 15.73 9.36 23.47 14.21.14.52.44 1.57.59 2.09-31.31 30-62.1 60.56-93.14 90.84-5.83-3.35-10.24-8.67-15.48-12.83 1.16-3.51 3.2-6.64 4.84-9.93.84-1.69 1.65-3.39 2.49-5.08 14.55-27.92 28.92-55.94 43.28-83.96z"/><path d="m102.77 167.74c12.04-12.03 24.33-23.8 36.28-35.91 3.44 2.32 5.2 6.22 7.82 9.32 20.22 27.29 40.62 54.46 60.78 81.79-.88 2.72-3.62 4.14-5.49 6.13-3.54 3.67-7.49 6.93-10.89 10.73-2.07-.27-3.52-1.81-5.08-3.01-28.5-21.92-57.04-43.79-85.6-65.62-.13-1.58 1.21-2.47 2.18-3.43z"/><path d="m552.48 146.51c2.56-2.61 4.19-6.19 7.5-8 20.8 14.74 41.4 29.78 62.39 44.23.28.61.85 1.84 1.13 2.46-4.72 1.85-9.03 4.58-13.7 6.52-3.17 1.95-6.52 3.66-9.98 5.02-4.54 2.53-9.2 4.9-13.95 7.01-3.32 1.9-6.64 3.93-10.32 5.04-.37.34-1.11 1-1.47 1.34-.54.15-1.6.45-2.13.6-15.16 8.07-30.69 15.47-45.95 23.37-7.76 3.81-15.46 7.77-23.22 11.58-4.66 2.46-9.41 4.73-14.02 7.28-1.1.68-2.44.66-3.66.88-3.33-4.5-7.11-8.65-10.53-13.08-.5-2.46 2.15-4.02 3.47-5.72 22.74-26.99 45.34-54.12 68.23-80.99 2-2.56 3.89-5.23 6.21-7.54z"/><path d="m95.81 175.8c2.18-.8 3.31 1.58 4.75 2.72 7.31 6.85 14.47 13.86 21.89 20.59.46.18 1.39.54 1.85.72l-1.39-.13c18.91 17.43 37.58 35.13 56.34 52.71.03.42.1 1.27.13 1.69-4.01 5.89-8.22 11.63-12.21 17.54-6.51-1.07-11.94-5.53-18.06-7.89-15.41-7.57-30.85-15.08-46.25-22.65-11.79-5.82-23.7-11.42-35.38-17.45-.05-2.81 2.35-4.86 3.47-7.29 8.48-13.4 16.29-27.24 24.86-40.56z"/><path d="m306.98 188.54c5.3-1.39 10.81-.63 16.17-1.5 10.64-1.29 21.26.43 31.9.73 9.74 1.69 19.66 3.16 28.99 6.38 3.07.57 5.96 1.77 8.95 2.64 5.98 2.46 12.19 4.48 17.85 7.66.5.16 1.49.46 1.99.61 7.42 4.19 15.21 7.95 22.06 13.1 16.33 10.75 30.56 24.5 42.7 39.8-2.34 2.13-5.12 3.62-7.88 5.11-9.37 4.77-18.33 10.29-27.83 14.8-2.94-2.7-5.83-5.45-8.74-8.18-8.27-6.05-16.35-12.4-25.24-17.51-13.33-6.86-27.31-12.61-41.95-15.96-10.02-3.17-20.7-1.93-31.03-1.62-3.73.01-7.25 1.41-10.95 1.66-6.81.62-13.3 2.9-20.01 4.01-17.08 5.71-33.78 12.83-48.98 22.57-4.11 2.87-8.11 5.9-12.2 8.8-4.37 3.69-9.18 6.87-12.76 11.41-4.51 5.61-9.52 10.86-13.24 17.06-1.84 2.65-3.41 5.65-6.19 7.46-1.08 2.49-2.42 4.86-3.32 7.43-2.12 1.96-2.69 4.89-4 7.35-1.95 3.5-1.84 7.68-3.86 11.15-1.96 7.75-3.15 15.67-5.12 23.42-.39 4.05-.86 8.09-1.89 12.04-.45 6.31-.07 12.67-.93 18.96.3 5.99.46 11.98.63 17.97-.28 5.88 1.78 11.49 2.16 17.32 3.96 11.99 8.03 24.01 13.02 35.59.6 2.04 1.54 4.17 1.04 6.35-7.99 7.95-17.1 14.7-25.33 22.41-2.52.21-3.33-2.27-4.45-3.98-7.33-11.55-13.66-23.82-18.18-36.74-6-14.94-9.16-30.87-11.48-46.76.08-7.39-1.37-14.68-1.13-22.06-.22-7.06 1.18-14.04 1.06-21.1 1.31-9.3 2.96-18.58 5.67-27.58.63-6.18 3.21-11.88 5.08-17.73 2.51-4.27 2.93-9.33 5.28-13.68 11.09-24.51 27.07-46.89 47.27-64.73 14.42-12.97 30.98-23.52 48.72-31.36 7.01-2.78 13.93-6.02 21.35-7.58 2.97-1.84 6.67-1.32 9.74-2.95 5.05-.79 9.98-2.14 15.06-2.77z"/><path d="m64.02 230.7c1.22-.64 2.41-.6 3.57.1 23.59 14.34 47.23 28.6 70.83 42.92 6.34 3.7 12.47 7.8 18.97 11.21.47 1.36.35 2.66-.33 3.89-1.61 2.93-2.66 6.12-4.18 9.08-1 2.45-2.38 4.75-2.87 7.38-4.71 1.16-9.48-.74-13.81-2.46-2.99-.81-6.26-.61-9.07-2.07-5.82-.82-11.41-2.75-17.19-3.75-9.96-3.66-20.78-4.74-30.77-8.4-10.68-1.86-21.08-5.1-31.59-7.73.04-2.55 1.13-4.86 2.03-7.18 4.61-14.39 10.18-28.51 14.41-42.99z"/><path d="m328.85 242.5c7.54-1.98 15.43-1.38 23.15-1.53 5.63-.21 11 1.51 16.43 2.71 8.19 2.57 16.37 5.23 24.14 8.91 9.39 3.58 18.04 8.82 25.98 14.94 9.2 6.17 17.6 13.57 24.33 22.42 1.89 2.44 4.74 4.27 5.69 7.34 3.09 2.27 5.26 5.57 8.48 7.66.21.56.64 1.67.86 2.22-6.28-.05-12.58.49-18.83-.31-3.36-.35-6.69.5-10.05.36-5-.06-10.08-.19-14.97 1.05-2.47.52-5.17-.03-7.42 1.32-.12-.25-.36-.75-.48-1-.27.33-.82 1-1.1 1.34-4.24 1.72-8.66 2.86-13.1 3.95-3.24.64-5.94 2.69-9.1 3.59-2.3 2.1-5.46 2.71-8.08 4.31-4.53 2.6-9.3 4.79-13.72 7.6-1.8.71-4.94.66-4.65 3.43l-3.75-1.07 3.93 1.83c-1.01.02-3.03.06-4.04.08-5.15 4.61-11.95 7.05-16.52 12.35-5.14 4.26-9.06 9.68-13.39 14.7-4.2 4.88-8.07 10.01-11.95 15.14-15.12 19.87-28.54 41.03-44.83 60-6.03 8.8-15.55 14.05-24.33 19.66-5.53 3.79-11.52 6.89-16.87 10.96-2.44 1.92-5.16 3.5-8.11 4.52-.39-4.96-1.13-9.9-2.82-14.6-4.8-11.5-9.16-23.19-12.77-35.11-.61-3.75-1.12-7.51-1.99-11.21-.61-13.13-.5-26.28.06-39.41 1.79-8.79 2.85-17.7 4.94-26.42.47-5.51 4.75-9.73 5.36-15.19.44-3.81 3-6.84 4.9-10.01 1.82-3.73 4.79-6.93 5.63-11.08 5.72-9.01 12.38-17.41 19.93-24.94 5.49-4.63 11.34-8.78 17.05-13.12 13.64-8.8 28.38-15.83 43.71-21.13 9.08-3.39 18.69-5.22 28.3-6.26z"/><path d="m43.86 296.82c1.49-3.18.23-6.97 2.05-10.05 2.82-.24 5.46 1.38 7.98 2.48 2.78.58 5.28 1.98 8.02 2.68 3.68 1.38 7.43 2.58 10.97 4.28 3.56.89 6.84 2.57 10.35 3.6 4.95 2.07 10.36 3.25 14.73 6.52 9.25 1.93 18.07 5.5 26.83 8.94 3.74.78 6.7 3.39 10.31 4.5 3.01 1.27 6.71.82 9.22 3.2.49 1.31-.17 2.66-.4 3.96-1.26 5.37-1.3 10.95-2.62 16.31-1.4.17-2.81.37-4.22.37-12.03-.31-24.08-.45-36.08-1.34-20.26-.53-40.53-.57-60.79-1.33-1.3-.09-2.59-.36-3.87-.59-.44-3.58 1.74-6.76 1.5-10.36 2.06-11.04 3.95-22.12 6.02-33.17z"/><path d="m409.03 317.01c6.65-.86 13.25-2.51 20-2.23 6.65-.17 13.3.19 19.94.36 5.45.19 11.15-1.43 16.4.54 3.82 7.56 8.5 14.64 12.05 22.33 10.6 20.7 21.69 41.17 32.11 61.95 4.32 7.5 8.15 15.3 12.03 23.03 2.43 3.62 3.3 7.99 4.77 12.04-1.15 1.95-2.22 4.16-4.58 4.86-7.98-2.55-14.33-9.34-16.72-17.3-2.68-5.21-3.01-11.26-5.91-16.38-4.17-9.9-10.45-18.77-17.48-26.84-3.9-3.56-7.52-7.67-12.47-9.81-2.87-1.67-6.31-1.72-9.25-3.23-8.71-1.13-17.52.07-25.96 2.24-6.29 2.88-12.64 5.88-17.99 10.33-5.72 4.44-9.5 11.03-15.69 14.92-.05.36-.15 1.08-.2 1.44 1.96.92 3.94 1.8 5.79 2.93 4.36 2.44 8.94 4.5 13.23 7.05 3.41 1.51 6.71 3.24 9.95 5.09 2.24 1.01 4.29 3 6.96 2.3 8.01-1.2 16.07-1.91 24.16-2.08 8.19-1.85 16.72-1 24.92-2.76.64.22 1.92.67 2.56.9 9.37 29.87 18.67 59.73 28.1 89.57 3.41 12.01 7.91 23.71 10.94 35.83 1.45 1.86 1.37 4.32 2.19 6.46 2.44 5.9 3.42 12.27 5.81 18.2 3.48 11.05 6.85 22.11 10.49 33.11.47 3.79.17 7.63.22 11.45-6.31.7-12.31-1.66-18.54-1.98-11.88-3.05-23.97-4.86-36.02-7.18-2.02-1.14-4.4-.95-6.61-1.31-15.97-3.34-32.23-6.47-47.19-13.28-8.8-3.72-17.67-7.39-26.09-11.95-2.81-1.19-5.37-2.86-7.85-4.61-11.09-6.94-21.97-14.2-33.24-20.84-11.26-7.69-23.16-14.4-34.03-22.66-4.5-3.26-9.04-6.47-13.47-9.81-2.56-2.35-6.28-1.42-9.4-1.31-1.93 1.33-4.14 2.2-6.13 3.44-7.92 4.95-15.06 11.02-22.72 16.36-9.34 8.35-19.98 15.05-30.98 20.99-22.17 9.2-45.49 15.55-69.35 18.28-3.55 1.12-7.29.96-10.97.82-1.02-.65-2.05-1.27-3.09-1.88-.28-.6-.86-1.81-1.15-2.42 1.28-3.86 5.09-5.76 7.74-8.54 11.04-10.13 18.06-23.55 25.65-36.25 2.44-5.98 5.14-11.87 7.1-18.02.92-6.15 2.75-12.1 4.11-18.14 1.8-3.27 5.73-4.32 8.58-6.42 5.69-3.18 10.6-7.54 16.33-10.65 7.53-5.02 15.47-9.49 22.63-15.07 6.44-4.22 10.35-11.08 15.57-16.57 14.31-17.93 26.75-37.26 40.79-55.4 8.64-11.28 17.41-22.63 28.25-31.9 8.89-5.81 17.86-11.55 27.46-16.13 2.93-.99 5.5-2.74 8.09-4.39 3.96-1.83 8.04-3.47 12.31-4.43 4.68-3.19 10.35-4.25 15.85-5.05z"/><path d="m36.59 347.59c5.47.83 11.03.98 16.42 2.28 4.2.49 8.49.44 12.59 1.63 11.68 1.16 23.26 3.17 34.95 4.36 6.4 1.77 13.14 1.21 19.59 2.81 5.85.17 11.52 1.83 17.36 2.12.44.28 1.33.85 1.77 1.13.32 7.46 0 14.93.21 22.39-.34.54-1.02 1.62-1.36 2.16-4.97.81-10.08.31-15.01 1.41-3.64.77-7.39.48-11.07.93-5.38.41-10.69 1.63-16.1 1.51-3.02-.06-5.92.84-8.89 1.19-6.26 1.06-12.68.22-18.87 1.81-10.2.54-20.3 2.61-30.54 2.32-.8-14.23-1.42-28.47-1.55-42.73-.06-1.79.13-3.57.5-5.32z"/><path d="m38.8 401.71c29.02-1.74 58.14-.57 87.19-1.54 4.64.16 9.28-.78 13.92-.21 1.92 3.68 1.98 7.9 2.44 11.94.24 2.8 1.31 5.49 1.18 8.34-31.46 11.68-63.15 22.8-94.7 34.24-2 1.32-3.61-1.05-3.5-2.84-.8-3.43-.23-7.04-1.23-10.43-1.34-4.73-1.02-9.75-2.47-14.45-.39-5.3-1.9-10.44-2.06-15.75-.08-2.59-1.05-5.02-1.52-7.54.19-.44.57-1.32.75-1.76z"/><path d="m134.57 442.29c4.04-.19 7.75-1.84 11.69-2.57 2.92 1.9 3.34 5.61 4.65 8.56.8 1.51 1.42 3.1 1.96 4.72.71 1.26 2.19 3.1.46 4.27-10.74 6.95-21.7 13.57-32.55 20.33-6.26 4.16-12.79 7.92-19.11 11.99-10.25 6.42-20.52 12.8-30.82 19.14-2.72 1.71-5.27 3.89-8.43 4.75-4.3-13.24-7.69-26.75-11.6-40.1-.76-1.77-1.02-3.68-1.4-5.54-1.18-1.85-1.34-4.07-1.71-6.16 28.86-6.95 57.97-12.72 86.86-19.39z"/><path d="m113.1 499.04c16.26-7.42 32.55-14.77 48.88-22.05 1.74-.89 2.55 1.37 3.34 2.44 2.5 4.6 5.88 8.71 8.04 13.49-20.77 19.4-41.08 39.3-61.9 58.66-8.73 8.45-17.37 17.02-26.54 25-.41-.46-1.24-1.4-1.66-1.87-5.28-15.5-11.29-30.74-16.79-46.16-.82-2.56-2.53-5.05-1.94-7.84 3.73-1.02 6.94-3.29 10.59-4.5 5.24-2.43 10.48-4.86 15.78-7.17 5.11-2.17 10.03-4.8 15.23-6.75 2.17-1.39 4.63-2.2 6.97-3.25z"/></g></svg>